%TF.GenerationSoftware,KiCad,Pcbnew,9.0.6*%
%TF.CreationDate,2026-01-18T16:02:07+09:00*%
%TF.ProjectId,mcp23017_testboard_arduino,6d637032-3330-4313-975f-74657374626f,rev?*%
%TF.SameCoordinates,Original*%
%TF.FileFunction,Copper,L1,Top*%
%TF.FilePolarity,Positive*%
%FSLAX46Y46*%
G04 Gerber Fmt 4.6, Leading zero omitted, Abs format (unit mm)*
G04 Created by KiCad (PCBNEW 9.0.6) date 2026-01-18 16:02:07*
%MOMM*%
%LPD*%
G01*
G04 APERTURE LIST*
G04 Aperture macros list*
%AMRoundRect*
0 Rectangle with rounded corners*
0 $1 Rounding radius*
0 $2 $3 $4 $5 $6 $7 $8 $9 X,Y pos of 4 corners*
0 Add a 4 corners polygon primitive as box body*
4,1,4,$2,$3,$4,$5,$6,$7,$8,$9,$2,$3,0*
0 Add four circle primitives for the rounded corners*
1,1,$1+$1,$2,$3*
1,1,$1+$1,$4,$5*
1,1,$1+$1,$6,$7*
1,1,$1+$1,$8,$9*
0 Add four rect primitives between the rounded corners*
20,1,$1+$1,$2,$3,$4,$5,0*
20,1,$1+$1,$4,$5,$6,$7,0*
20,1,$1+$1,$6,$7,$8,$9,0*
20,1,$1+$1,$8,$9,$2,$3,0*%
%AMFreePoly0*
4,1,23,0.500000,-0.750000,0.000000,-0.750000,0.000000,-0.745722,-0.065263,-0.745722,-0.191342,-0.711940,-0.304381,-0.646677,-0.396677,-0.554381,-0.461940,-0.441342,-0.495722,-0.315263,-0.495722,-0.250000,-0.500000,-0.250000,-0.500000,0.250000,-0.495722,0.250000,-0.495722,0.315263,-0.461940,0.441342,-0.396677,0.554381,-0.304381,0.646677,-0.191342,0.711940,-0.065263,0.745722,0.000000,0.745722,
0.000000,0.750000,0.500000,0.750000,0.500000,-0.750000,0.500000,-0.750000,$1*%
%AMFreePoly1*
4,1,23,0.000000,0.745722,0.065263,0.745722,0.191342,0.711940,0.304381,0.646677,0.396677,0.554381,0.461940,0.441342,0.495722,0.315263,0.495722,0.250000,0.500000,0.250000,0.500000,-0.250000,0.495722,-0.250000,0.495722,-0.315263,0.461940,-0.441342,0.396677,-0.554381,0.304381,-0.646677,0.191342,-0.711940,0.065263,-0.745722,0.000000,-0.745722,0.000000,-0.750000,-0.500000,-0.750000,
-0.500000,0.750000,0.000000,0.750000,0.000000,0.745722,0.000000,0.745722,$1*%
%AMFreePoly2*
4,1,6,1.000000,0.000000,0.500000,-0.750000,-0.500000,-0.750000,-0.500000,0.750000,0.500000,0.750000,1.000000,0.000000,1.000000,0.000000,$1*%
%AMFreePoly3*
4,1,6,0.500000,-0.750000,-0.650000,-0.750000,-0.150000,0.000000,-0.650000,0.750000,0.500000,0.750000,0.500000,-0.750000,0.500000,-0.750000,$1*%
G04 Aperture macros list end*
%TA.AperFunction,EtchedComponent*%
%ADD10C,0.000000*%
%TD*%
%TA.AperFunction,ComponentPad*%
%ADD11R,1.700000X1.700000*%
%TD*%
%TA.AperFunction,ComponentPad*%
%ADD12O,1.700000X1.700000*%
%TD*%
%TA.AperFunction,SMDPad,CuDef*%
%ADD13RoundRect,0.200000X-0.275000X0.200000X-0.275000X-0.200000X0.275000X-0.200000X0.275000X0.200000X0*%
%TD*%
%TA.AperFunction,ComponentPad*%
%ADD14R,1.600000X1.600000*%
%TD*%
%TA.AperFunction,ComponentPad*%
%ADD15O,1.600000X1.600000*%
%TD*%
%TA.AperFunction,SMDPad,CuDef*%
%ADD16RoundRect,0.243750X-0.456250X0.243750X-0.456250X-0.243750X0.456250X-0.243750X0.456250X0.243750X0*%
%TD*%
%TA.AperFunction,SMDPad,CuDef*%
%ADD17R,1.100000X0.600000*%
%TD*%
%TA.AperFunction,SMDPad,CuDef*%
%ADD18FreePoly0,270.000000*%
%TD*%
%TA.AperFunction,SMDPad,CuDef*%
%ADD19FreePoly1,270.000000*%
%TD*%
%TA.AperFunction,SMDPad,CuDef*%
%ADD20RoundRect,0.200000X0.275000X-0.200000X0.275000X0.200000X-0.275000X0.200000X-0.275000X-0.200000X0*%
%TD*%
%TA.AperFunction,SMDPad,CuDef*%
%ADD21FreePoly2,180.000000*%
%TD*%
%TA.AperFunction,SMDPad,CuDef*%
%ADD22FreePoly3,180.000000*%
%TD*%
%TA.AperFunction,SMDPad,CuDef*%
%ADD23RoundRect,0.200000X-0.200000X-0.275000X0.200000X-0.275000X0.200000X0.275000X-0.200000X0.275000X0*%
%TD*%
%TA.AperFunction,SMDPad,CuDef*%
%ADD24R,1.750000X0.450000*%
%TD*%
%TA.AperFunction,SMDPad,CuDef*%
%ADD25RoundRect,0.225000X0.225000X0.250000X-0.225000X0.250000X-0.225000X-0.250000X0.225000X-0.250000X0*%
%TD*%
%TA.AperFunction,ViaPad*%
%ADD26C,0.600000*%
%TD*%
%TA.AperFunction,Conductor*%
%ADD27C,0.250000*%
%TD*%
%TA.AperFunction,Conductor*%
%ADD28C,0.400000*%
%TD*%
G04 APERTURE END LIST*
D10*
%TA.AperFunction,EtchedComponent*%
%TO.C,JP2*%
G36*
X166340000Y-82180000D02*
G01*
X165740000Y-82180000D01*
X165740000Y-81680000D01*
X166340000Y-81680000D01*
X166340000Y-82180000D01*
G37*
%TD.AperFunction*%
%TA.AperFunction,EtchedComponent*%
%TO.C,JP1*%
G36*
X163800000Y-82180000D02*
G01*
X163200000Y-82180000D01*
X163200000Y-81680000D01*
X163800000Y-81680000D01*
X163800000Y-82180000D01*
G37*
%TD.AperFunction*%
%TD*%
D11*
%TO.P,J1,1,Pin_1*%
%TO.N,unconnected-(J1-Pin_1-Pad1)*%
X127940000Y-97460000D03*
D12*
%TO.P,J1,2,Pin_2*%
%TO.N,/IOREF*%
X130480000Y-97460000D03*
%TO.P,J1,3,Pin_3*%
%TO.N,/~{RESET}*%
X133020000Y-97460000D03*
%TO.P,J1,4,Pin_4*%
%TO.N,+3V3*%
X135560000Y-97460000D03*
%TO.P,J1,5,Pin_5*%
%TO.N,+5V*%
X138100000Y-97460000D03*
%TO.P,J1,6,Pin_6*%
%TO.N,GND*%
X140640000Y-97460000D03*
%TO.P,J1,7,Pin_7*%
X143180000Y-97460000D03*
%TO.P,J1,8,Pin_8*%
%TO.N,VCC*%
X145720000Y-97460000D03*
%TD*%
D11*
%TO.P,J3,1,Pin_1*%
%TO.N,/A0*%
X150800000Y-97460000D03*
D12*
%TO.P,J3,2,Pin_2*%
%TO.N,/A1*%
X153340000Y-97460000D03*
%TO.P,J3,3,Pin_3*%
%TO.N,/A2*%
X155880000Y-97460000D03*
%TO.P,J3,4,Pin_4*%
%TO.N,/A3*%
X158420000Y-97460000D03*
%TO.P,J3,5,Pin_5*%
%TO.N,/SDA*%
X160960000Y-97460000D03*
%TO.P,J3,6,Pin_6*%
%TO.N,/SCL*%
X163500000Y-97460000D03*
%TD*%
D11*
%TO.P,J2,1,Pin_1*%
%TO.N,/SCL*%
X118796000Y-49200000D03*
D12*
%TO.P,J2,2,Pin_2*%
%TO.N,/SDA*%
X121336000Y-49200000D03*
%TO.P,J2,3,Pin_3*%
%TO.N,/AREF*%
X123876000Y-49200000D03*
%TO.P,J2,4,Pin_4*%
%TO.N,GND*%
X126416000Y-49200000D03*
%TO.P,J2,5,Pin_5*%
%TO.N,/13*%
X128956000Y-49200000D03*
%TO.P,J2,6,Pin_6*%
%TO.N,/12*%
X131496000Y-49200000D03*
%TO.P,J2,7,Pin_7*%
%TO.N,/\u002A11*%
X134036000Y-49200000D03*
%TO.P,J2,8,Pin_8*%
%TO.N,/\u002A10*%
X136576000Y-49200000D03*
%TO.P,J2,9,Pin_9*%
%TO.N,/\u002A9*%
X139116000Y-49200000D03*
%TO.P,J2,10,Pin_10*%
%TO.N,/8*%
X141656000Y-49200000D03*
%TD*%
D11*
%TO.P,J4,1,Pin_1*%
%TO.N,/7*%
X145720000Y-49200000D03*
D12*
%TO.P,J4,2,Pin_2*%
%TO.N,/\u002A6*%
X148260000Y-49200000D03*
%TO.P,J4,3,Pin_3*%
%TO.N,/\u002A5*%
X150800000Y-49200000D03*
%TO.P,J4,4,Pin_4*%
%TO.N,/4*%
X153340000Y-49200000D03*
%TO.P,J4,5,Pin_5*%
%TO.N,/\u002A3*%
X155880000Y-49200000D03*
%TO.P,J4,6,Pin_6*%
%TO.N,/2*%
X158420000Y-49200000D03*
%TO.P,J4,7,Pin_7*%
%TO.N,/TX{slash}1*%
X160960000Y-49200000D03*
%TO.P,J4,8,Pin_8*%
%TO.N,/RX{slash}0*%
X163500000Y-49200000D03*
%TD*%
D13*
%TO.P,R1,1*%
%TO.N,+5V*%
X163500000Y-77470000D03*
%TO.P,R1,2*%
%TO.N,Net-(JP1-A)*%
X163500000Y-79120000D03*
%TD*%
D11*
%TO.P,J5,1,Pin_1*%
%TO.N,Net-(J5-Pin_1)*%
X129210000Y-85090000D03*
D12*
%TO.P,J5,2,Pin_2*%
%TO.N,+5V*%
X129210000Y-82550000D03*
%TO.P,J5,3,Pin_3*%
%TO.N,Net-(J5-Pin_3)*%
X131750000Y-85090000D03*
%TO.P,J5,4,Pin_4*%
%TO.N,+5V*%
X131750000Y-82550000D03*
%TO.P,J5,5,Pin_5*%
%TO.N,Net-(J5-Pin_5)*%
X134290000Y-85090000D03*
%TO.P,J5,6,Pin_6*%
%TO.N,+5V*%
X134290000Y-82550000D03*
%TD*%
D14*
%TO.P,SW1,1*%
%TO.N,Net-(J6-Pin_1)*%
X140640000Y-76200000D03*
D15*
%TO.P,SW1,2*%
%TO.N,Net-(J6-Pin_3)*%
X143180000Y-76200000D03*
%TO.P,SW1,3*%
%TO.N,Net-(J6-Pin_5)*%
X145720000Y-76200000D03*
%TO.P,SW1,4*%
%TO.N,Net-(J6-Pin_7)*%
X148260000Y-76200000D03*
%TO.P,SW1,5*%
%TO.N,Net-(J6-Pin_10)*%
X150800000Y-76200000D03*
%TO.P,SW1,6*%
%TO.N,Net-(J6-Pin_11)*%
X153340000Y-76200000D03*
%TO.P,SW1,7*%
%TO.N,Net-(J6-Pin_13)*%
X155880000Y-76200000D03*
%TO.P,SW1,8*%
%TO.N,Net-(J6-Pin_15)*%
X158420000Y-76200000D03*
%TO.P,SW1,9*%
%TO.N,Net-(R13-Pad1)*%
X158420000Y-68580000D03*
%TO.P,SW1,10*%
%TO.N,Net-(R12-Pad1)*%
X155880000Y-68580000D03*
%TO.P,SW1,11*%
%TO.N,Net-(R11-Pad1)*%
X153340000Y-68580000D03*
%TO.P,SW1,12*%
%TO.N,Net-(R10-Pad1)*%
X150800000Y-68580000D03*
%TO.P,SW1,13*%
%TO.N,Net-(R9-Pad1)*%
X148260000Y-68580000D03*
%TO.P,SW1,14*%
%TO.N,Net-(R8-Pad1)*%
X145720000Y-68580000D03*
%TO.P,SW1,15*%
%TO.N,Net-(R7-Pad1)*%
X143180000Y-68580000D03*
%TO.P,SW1,16*%
%TO.N,Net-(R6-Pad1)*%
X140640000Y-68580000D03*
%TD*%
D16*
%TO.P,D16,1,K*%
%TO.N,GND*%
X122860000Y-58420000D03*
%TO.P,D16,2,A*%
%TO.N,Net-(D16-A)*%
X122860000Y-60295000D03*
%TD*%
D17*
%TO.P,Q1,1*%
%TO.N,Net-(Q1-Pad1)*%
X138207000Y-91506000D03*
%TO.P,Q1,2*%
%TO.N,GND*%
X138207000Y-93406000D03*
%TO.P,Q1,3*%
%TO.N,/RESET*%
X140407000Y-92456000D03*
%TD*%
D18*
%TO.P,JP2,1,A*%
%TO.N,Net-(JP2-A)*%
X166040000Y-81280000D03*
D19*
%TO.P,JP2,2,B*%
%TO.N,/SCL*%
X166040000Y-82580000D03*
%TD*%
D16*
%TO.P,D5,1,K*%
%TO.N,GND*%
X150800000Y-58420000D03*
%TO.P,D5,2,A*%
%TO.N,Net-(D5-A)*%
X150800000Y-60295000D03*
%TD*%
D20*
%TO.P,R11,1*%
%TO.N,Net-(R11-Pad1)*%
X153325000Y-64770000D03*
%TO.P,R11,2*%
%TO.N,Net-(D6-A)*%
X153325000Y-63120000D03*
%TD*%
D18*
%TO.P,JP1,1,A*%
%TO.N,Net-(JP1-A)*%
X163500000Y-81280000D03*
D19*
%TO.P,JP1,2,B*%
%TO.N,/SDA*%
X163500000Y-82580000D03*
%TD*%
D20*
%TO.P,R8,1*%
%TO.N,Net-(R8-Pad1)*%
X145705000Y-64770000D03*
%TO.P,R8,2*%
%TO.N,Net-(D3-A)*%
X145705000Y-63120000D03*
%TD*%
D16*
%TO.P,D8,1,K*%
%TO.N,GND*%
X158420000Y-58420000D03*
%TO.P,D8,2,A*%
%TO.N,Net-(D8-A)*%
X158420000Y-60295000D03*
%TD*%
D20*
%TO.P,R15,1*%
%TO.N,Net-(R15-Pad1)*%
X107620000Y-64770000D03*
%TO.P,R15,2*%
%TO.N,Net-(D10-A)*%
X107620000Y-63120000D03*
%TD*%
D16*
%TO.P,D1,1,K*%
%TO.N,GND*%
X140640000Y-58420000D03*
%TO.P,D1,2,A*%
%TO.N,Net-(D1-A)*%
X140640000Y-60295000D03*
%TD*%
D20*
%TO.P,R7,1*%
%TO.N,Net-(R7-Pad1)*%
X143165000Y-64770000D03*
%TO.P,R7,2*%
%TO.N,Net-(D2-A)*%
X143165000Y-63120000D03*
%TD*%
D21*
%TO.P,JP7,1,A*%
%TO.N,/\u002A9*%
X113335000Y-94615000D03*
D22*
%TO.P,JP7,2,B*%
%TO.N,/INTB*%
X111885000Y-94615000D03*
%TD*%
D16*
%TO.P,D13,1,K*%
%TO.N,GND*%
X115240000Y-58420000D03*
%TO.P,D13,2,A*%
%TO.N,Net-(D13-A)*%
X115240000Y-60295000D03*
%TD*%
%TO.P,D7,1,K*%
%TO.N,GND*%
X155880000Y-58420000D03*
%TO.P,D7,2,A*%
%TO.N,Net-(D7-A)*%
X155880000Y-60295000D03*
%TD*%
%TO.P,D3,1,K*%
%TO.N,GND*%
X145720000Y-58420000D03*
%TO.P,D3,2,A*%
%TO.N,Net-(D3-A)*%
X145720000Y-60295000D03*
%TD*%
D23*
%TO.P,R4,1*%
%TO.N,GND*%
X145262800Y-92379800D03*
%TO.P,R4,2*%
%TO.N,Net-(J5-Pin_3)*%
X146912800Y-92379800D03*
%TD*%
%TO.P,R23,1*%
%TO.N,/EX_RESET*%
X142241200Y-92379800D03*
%TO.P,R23,2*%
%TO.N,GND*%
X143891200Y-92379800D03*
%TD*%
D16*
%TO.P,D11,1,K*%
%TO.N,GND*%
X110160000Y-58420000D03*
%TO.P,D11,2,A*%
%TO.N,Net-(D11-A)*%
X110160000Y-60295000D03*
%TD*%
D20*
%TO.P,R6,1*%
%TO.N,Net-(R6-Pad1)*%
X140625000Y-64770000D03*
%TO.P,R6,2*%
%TO.N,Net-(D1-A)*%
X140625000Y-63120000D03*
%TD*%
D11*
%TO.P,J8,1,Pin_1*%
%TO.N,/INTA*%
X103302000Y-92090000D03*
D12*
%TO.P,J8,2,Pin_2*%
%TO.N,/INTB*%
X103302000Y-94630000D03*
%TO.P,J8,3,Pin_3*%
%TO.N,/EX_RESET*%
X103302000Y-97170000D03*
%TD*%
D23*
%TO.P,R22,1*%
%TO.N,+5V*%
X142239200Y-90830400D03*
%TO.P,R22,2*%
%TO.N,/RESET*%
X143889200Y-90830400D03*
%TD*%
D20*
%TO.P,R21,1*%
%TO.N,Net-(R21-Pad1)*%
X122860000Y-64770000D03*
%TO.P,R21,2*%
%TO.N,Net-(D16-A)*%
X122860000Y-63120000D03*
%TD*%
%TO.P,R19,1*%
%TO.N,Net-(R19-Pad1)*%
X117780000Y-64770000D03*
%TO.P,R19,2*%
%TO.N,Net-(D14-A)*%
X117780000Y-63120000D03*
%TD*%
D13*
%TO.P,R2,1*%
%TO.N,+5V*%
X166040000Y-77470000D03*
%TO.P,R2,2*%
%TO.N,Net-(JP2-A)*%
X166040000Y-79120000D03*
%TD*%
D20*
%TO.P,R10,1*%
%TO.N,Net-(R10-Pad1)*%
X150785000Y-64770000D03*
%TO.P,R10,2*%
%TO.N,Net-(D5-A)*%
X150785000Y-63120000D03*
%TD*%
D21*
%TO.P,JP8,1,A*%
%TO.N,/8*%
X113335000Y-97155000D03*
D22*
%TO.P,JP8,2,B*%
%TO.N,/EX_RESET*%
X111885000Y-97155000D03*
%TD*%
D23*
%TO.P,R24,1*%
%TO.N,/EX_RESET*%
X142241200Y-93903800D03*
%TO.P,R24,2*%
%TO.N,Net-(Q1-Pad1)*%
X143891200Y-93903800D03*
%TD*%
D20*
%TO.P,R17,1*%
%TO.N,Net-(R17-Pad1)*%
X112700000Y-64770000D03*
%TO.P,R17,2*%
%TO.N,Net-(D12-A)*%
X112700000Y-63120000D03*
%TD*%
%TO.P,R16,1*%
%TO.N,Net-(R16-Pad1)*%
X110160000Y-64770000D03*
%TO.P,R16,2*%
%TO.N,Net-(D11-A)*%
X110160000Y-63120000D03*
%TD*%
D16*
%TO.P,D10,1,K*%
%TO.N,GND*%
X107620000Y-58420000D03*
%TO.P,D10,2,A*%
%TO.N,Net-(D10-A)*%
X107620000Y-60295000D03*
%TD*%
%TO.P,D15,1,K*%
%TO.N,GND*%
X120320000Y-58420000D03*
%TO.P,D15,2,A*%
%TO.N,Net-(D15-A)*%
X120320000Y-60295000D03*
%TD*%
D20*
%TO.P,R20,1*%
%TO.N,Net-(R20-Pad1)*%
X120320000Y-64770000D03*
%TO.P,R20,2*%
%TO.N,Net-(D15-A)*%
X120320000Y-63120000D03*
%TD*%
%TO.P,R18,1*%
%TO.N,Net-(R18-Pad1)*%
X115240000Y-64770000D03*
%TO.P,R18,2*%
%TO.N,Net-(D13-A)*%
X115240000Y-63120000D03*
%TD*%
D16*
%TO.P,D14,1,K*%
%TO.N,GND*%
X117780000Y-58420000D03*
%TO.P,D14,2,A*%
%TO.N,Net-(D14-A)*%
X117780000Y-60295000D03*
%TD*%
%TO.P,D4,1,K*%
%TO.N,GND*%
X148260000Y-58420000D03*
%TO.P,D4,2,A*%
%TO.N,Net-(D4-A)*%
X148260000Y-60295000D03*
%TD*%
D11*
%TO.P,J7,1,Pin_1*%
%TO.N,Net-(J7-Pin_1)*%
X105080000Y-85090000D03*
D12*
%TO.P,J7,2,Pin_2*%
X105080000Y-82550000D03*
%TO.P,J7,3,Pin_3*%
%TO.N,Net-(J7-Pin_3)*%
X107620000Y-85090000D03*
%TO.P,J7,4,Pin_4*%
X107620000Y-82550000D03*
%TO.P,J7,5,Pin_5*%
%TO.N,Net-(J7-Pin_5)*%
X110160000Y-85090000D03*
%TO.P,J7,6,Pin_6*%
X110160000Y-82550000D03*
%TO.P,J7,7,Pin_7*%
%TO.N,Net-(J7-Pin_7)*%
X112700000Y-85090000D03*
%TO.P,J7,8,Pin_8*%
X112700000Y-82550000D03*
%TO.P,J7,9,Pin_9*%
%TO.N,Net-(J7-Pin_10)*%
X115240000Y-85090000D03*
%TO.P,J7,10,Pin_10*%
X115240000Y-82550000D03*
%TO.P,J7,11,Pin_11*%
%TO.N,Net-(J7-Pin_11)*%
X117780000Y-85090000D03*
%TO.P,J7,12,Pin_12*%
X117780000Y-82550000D03*
%TO.P,J7,13,Pin_13*%
%TO.N,Net-(J7-Pin_13)*%
X120320000Y-85090000D03*
%TO.P,J7,14,Pin_14*%
X120320000Y-82550000D03*
%TO.P,J7,15,Pin_15*%
%TO.N,Net-(J7-Pin_15)*%
X122860000Y-85090000D03*
%TO.P,J7,16,Pin_16*%
X122860000Y-82550000D03*
%TD*%
D21*
%TO.P,JP6,1,A*%
%TO.N,/\u002A10*%
X113335000Y-92075000D03*
D22*
%TO.P,JP6,2,B*%
%TO.N,/INTA*%
X111885000Y-92075000D03*
%TD*%
D11*
%TO.P,J6,1,Pin_1*%
%TO.N,Net-(J6-Pin_1)*%
X140640000Y-85090000D03*
D12*
%TO.P,J6,2,Pin_2*%
X140640000Y-82550000D03*
%TO.P,J6,3,Pin_3*%
%TO.N,Net-(J6-Pin_3)*%
X143180000Y-85090000D03*
%TO.P,J6,4,Pin_4*%
X143180000Y-82550000D03*
%TO.P,J6,5,Pin_5*%
%TO.N,Net-(J6-Pin_5)*%
X145720000Y-85090000D03*
%TO.P,J6,6,Pin_6*%
X145720000Y-82550000D03*
%TO.P,J6,7,Pin_7*%
%TO.N,Net-(J6-Pin_7)*%
X148260000Y-85090000D03*
%TO.P,J6,8,Pin_8*%
X148260000Y-82550000D03*
%TO.P,J6,9,Pin_9*%
%TO.N,Net-(J6-Pin_10)*%
X150800000Y-85090000D03*
%TO.P,J6,10,Pin_10*%
X150800000Y-82550000D03*
%TO.P,J6,11,Pin_11*%
%TO.N,Net-(J6-Pin_11)*%
X153340000Y-85090000D03*
%TO.P,J6,12,Pin_12*%
X153340000Y-82550000D03*
%TO.P,J6,13,Pin_13*%
%TO.N,Net-(J6-Pin_13)*%
X155880000Y-85090000D03*
%TO.P,J6,14,Pin_14*%
X155880000Y-82550000D03*
%TO.P,J6,15,Pin_15*%
%TO.N,Net-(J6-Pin_15)*%
X158420000Y-85090000D03*
%TO.P,J6,16,Pin_16*%
X158420000Y-82550000D03*
%TD*%
D20*
%TO.P,R9,1*%
%TO.N,Net-(R9-Pad1)*%
X148245000Y-64770000D03*
%TO.P,R9,2*%
%TO.N,Net-(D4-A)*%
X148245000Y-63120000D03*
%TD*%
D23*
%TO.P,R3,1*%
%TO.N,GND*%
X145262800Y-90830400D03*
%TO.P,R3,2*%
%TO.N,Net-(J5-Pin_1)*%
X146912800Y-90830400D03*
%TD*%
D16*
%TO.P,D2,1,K*%
%TO.N,GND*%
X143180000Y-58420000D03*
%TO.P,D2,2,A*%
%TO.N,Net-(D2-A)*%
X143180000Y-60295000D03*
%TD*%
D23*
%TO.P,R5,1*%
%TO.N,GND*%
X145262800Y-93903800D03*
%TO.P,R5,2*%
%TO.N,Net-(J5-Pin_5)*%
X146912800Y-93903800D03*
%TD*%
D16*
%TO.P,D9,1,K*%
%TO.N,GND*%
X105080000Y-58420000D03*
%TO.P,D9,2,A*%
%TO.N,Net-(D9-A)*%
X105080000Y-60295000D03*
%TD*%
%TO.P,D12,1,K*%
%TO.N,GND*%
X112700000Y-58420000D03*
%TO.P,D12,2,A*%
%TO.N,Net-(D12-A)*%
X112700000Y-60295000D03*
%TD*%
D14*
%TO.P,SW2,1*%
%TO.N,Net-(J7-Pin_1)*%
X105080000Y-76200000D03*
D15*
%TO.P,SW2,2*%
%TO.N,Net-(J7-Pin_3)*%
X107620000Y-76200000D03*
%TO.P,SW2,3*%
%TO.N,Net-(J7-Pin_5)*%
X110160000Y-76200000D03*
%TO.P,SW2,4*%
%TO.N,Net-(J7-Pin_7)*%
X112700000Y-76200000D03*
%TO.P,SW2,5*%
%TO.N,Net-(J7-Pin_10)*%
X115240000Y-76200000D03*
%TO.P,SW2,6*%
%TO.N,Net-(J7-Pin_11)*%
X117780000Y-76200000D03*
%TO.P,SW2,7*%
%TO.N,Net-(J7-Pin_13)*%
X120320000Y-76200000D03*
%TO.P,SW2,8*%
%TO.N,Net-(J7-Pin_15)*%
X122860000Y-76200000D03*
%TO.P,SW2,9*%
%TO.N,Net-(R21-Pad1)*%
X122860000Y-68580000D03*
%TO.P,SW2,10*%
%TO.N,Net-(R20-Pad1)*%
X120320000Y-68580000D03*
%TO.P,SW2,11*%
%TO.N,Net-(R19-Pad1)*%
X117780000Y-68580000D03*
%TO.P,SW2,12*%
%TO.N,Net-(R18-Pad1)*%
X115240000Y-68580000D03*
%TO.P,SW2,13*%
%TO.N,Net-(R17-Pad1)*%
X112700000Y-68580000D03*
%TO.P,SW2,14*%
%TO.N,Net-(R16-Pad1)*%
X110160000Y-68580000D03*
%TO.P,SW2,15*%
%TO.N,Net-(R15-Pad1)*%
X107620000Y-68580000D03*
%TO.P,SW2,16*%
%TO.N,Net-(R14-Pad1)*%
X105080000Y-68580000D03*
%TD*%
D20*
%TO.P,R14,1*%
%TO.N,Net-(R14-Pad1)*%
X105080000Y-64770000D03*
%TO.P,R14,2*%
%TO.N,Net-(D9-A)*%
X105080000Y-63120000D03*
%TD*%
%TO.P,R12,1*%
%TO.N,Net-(R12-Pad1)*%
X155865000Y-64770000D03*
%TO.P,R12,2*%
%TO.N,Net-(D7-A)*%
X155865000Y-63120000D03*
%TD*%
%TO.P,R13,1*%
%TO.N,Net-(R13-Pad1)*%
X158405000Y-64770000D03*
%TO.P,R13,2*%
%TO.N,Net-(D8-A)*%
X158405000Y-63120000D03*
%TD*%
D16*
%TO.P,D6,1,K*%
%TO.N,GND*%
X153340000Y-58420000D03*
%TO.P,D6,2,A*%
%TO.N,Net-(D6-A)*%
X153340000Y-60295000D03*
%TD*%
D24*
%TO.P,U1,1,GPB0*%
%TO.N,Net-(J6-Pin_1)*%
X135140000Y-77470000D03*
%TO.P,U1,2,GPB1*%
%TO.N,Net-(J6-Pin_3)*%
X135140000Y-76820000D03*
%TO.P,U1,3,GPB2*%
%TO.N,Net-(J6-Pin_5)*%
X135140000Y-76170000D03*
%TO.P,U1,4,GPB3*%
%TO.N,Net-(J6-Pin_7)*%
X135140000Y-75520000D03*
%TO.P,U1,5,GPB4*%
%TO.N,Net-(J6-Pin_10)*%
X135140000Y-74870000D03*
%TO.P,U1,6,GPB5*%
%TO.N,Net-(J6-Pin_11)*%
X135140000Y-74220000D03*
%TO.P,U1,7,GPB6*%
%TO.N,Net-(J6-Pin_13)*%
X135140000Y-73570000D03*
%TO.P,U1,8,GPB7*%
%TO.N,Net-(J6-Pin_15)*%
X135140000Y-72920000D03*
%TO.P,U1,9,VDD*%
%TO.N,+5V*%
X135140000Y-72270000D03*
%TO.P,U1,10,VSS*%
%TO.N,GND*%
X135140000Y-71620000D03*
%TO.P,U1,11,NC*%
%TO.N,unconnected-(U1-NC-Pad11)*%
X135140000Y-70970000D03*
%TO.P,U1,12,SCK*%
%TO.N,/SCL*%
X135140000Y-70320000D03*
%TO.P,U1,13,SDA*%
%TO.N,/SDA*%
X135140000Y-69670000D03*
%TO.P,U1,14,NC*%
%TO.N,unconnected-(U1-NC-Pad14)*%
X135140000Y-69020000D03*
%TO.P,U1,15,A0*%
%TO.N,Net-(J5-Pin_1)*%
X127940000Y-69020000D03*
%TO.P,U1,16,A1*%
%TO.N,Net-(J5-Pin_3)*%
X127940000Y-69670000D03*
%TO.P,U1,17,A2*%
%TO.N,Net-(J5-Pin_5)*%
X127940000Y-70320000D03*
%TO.P,U1,18,~{RESET}*%
%TO.N,/RESET*%
X127940000Y-70970000D03*
%TO.P,U1,19,INTB*%
%TO.N,/INTA*%
X127940000Y-71620000D03*
%TO.P,U1,20,INTA*%
%TO.N,/INTB*%
X127940000Y-72270000D03*
%TO.P,U1,21,GPA0*%
%TO.N,Net-(J7-Pin_1)*%
X127940000Y-72920000D03*
%TO.P,U1,22,GPA1*%
%TO.N,Net-(J7-Pin_3)*%
X127940000Y-73570000D03*
%TO.P,U1,23,GPA2*%
%TO.N,Net-(J7-Pin_5)*%
X127940000Y-74220000D03*
%TO.P,U1,24,GPA3*%
%TO.N,Net-(J7-Pin_7)*%
X127940000Y-74870000D03*
%TO.P,U1,25,GPA4*%
%TO.N,Net-(J7-Pin_10)*%
X127940000Y-75520000D03*
%TO.P,U1,26,GPA5*%
%TO.N,Net-(J7-Pin_11)*%
X127940000Y-76170000D03*
%TO.P,U1,27,GPA6*%
%TO.N,Net-(J7-Pin_13)*%
X127940000Y-76820000D03*
%TO.P,U1,28,GPA7*%
%TO.N,Net-(J7-Pin_15)*%
X127940000Y-77470000D03*
%TD*%
D25*
%TO.P,C1,1*%
%TO.N,GND*%
X137110000Y-66040000D03*
%TO.P,C1,2*%
%TO.N,+5V*%
X135560000Y-66040000D03*
%TD*%
D26*
%TO.N,GND*%
X139435100Y-93416200D03*
X139524400Y-71620000D03*
%TO.N,/8*%
X132253100Y-90378400D03*
%TO.N,/\u002A10*%
X116510000Y-85815500D03*
%TO.N,Net-(J5-Pin_1)*%
X129225200Y-68497500D03*
%TO.N,Net-(J5-Pin_5)*%
X129351000Y-70320000D03*
%TO.N,/SDA*%
X137470450Y-69695500D03*
X137592000Y-77216000D03*
%TO.N,/SCL*%
X136543500Y-70320000D03*
%TD*%
D27*
%TO.N,GND*%
X134539900Y-71620000D02*
X135140000Y-71620000D01*
X155880000Y-58420000D02*
X153340000Y-58420000D01*
X155880000Y-58420000D02*
X158420000Y-58420000D01*
X134539900Y-71620000D02*
X133939700Y-71620000D01*
X110160000Y-58420000D02*
X112700000Y-58420000D01*
X120320000Y-58420000D02*
X117780000Y-58420000D01*
X139435100Y-93416200D02*
X139092500Y-93416200D01*
X138207000Y-93406000D02*
X139082300Y-93406000D01*
X130674100Y-55514100D02*
X126416000Y-55514100D01*
X134976100Y-67559900D02*
X135590100Y-67559900D01*
X125765900Y-55514100D02*
X122860000Y-58420000D01*
X137110000Y-61950000D02*
X140640000Y-58420000D01*
X145277000Y-92379800D02*
X145277000Y-92405200D01*
X145720000Y-58420000D02*
X148260000Y-58420000D01*
X153340000Y-58420000D02*
X150800000Y-58420000D01*
X143180000Y-96284700D02*
X145277000Y-94187700D01*
X135590100Y-67559900D02*
X137110000Y-66040000D01*
X145277000Y-90932000D02*
X145277000Y-92379800D01*
X120320000Y-58420000D02*
X122860000Y-58420000D01*
X112700000Y-58420000D02*
X115240000Y-58420000D01*
X150800000Y-58420000D02*
X148260000Y-58420000D01*
X135140000Y-71620000D02*
X139524400Y-71620000D01*
X133939700Y-71620000D02*
X133939700Y-68596300D01*
X117780000Y-58420000D02*
X115240000Y-58420000D01*
X145277000Y-94187700D02*
X145277000Y-93853000D01*
X140640000Y-58420000D02*
X143180000Y-58420000D01*
X145277000Y-93853000D02*
X145277000Y-92405200D01*
X143180000Y-97460000D02*
X143180000Y-96284700D01*
X143180000Y-58420000D02*
X145720000Y-58420000D01*
X137110000Y-61950000D02*
X130674100Y-55514100D01*
X126416000Y-49200000D02*
X126416000Y-55514100D01*
X133939700Y-68596300D02*
X134976100Y-67559900D01*
X137110000Y-66040000D02*
X137110000Y-61950000D01*
X105080000Y-58420000D02*
X107620000Y-58420000D01*
X145277000Y-92379800D02*
X143878000Y-92379800D01*
X107620000Y-58420000D02*
X110160000Y-58420000D01*
X139092500Y-93416200D02*
X139082300Y-93406000D01*
X126416000Y-55514100D02*
X125765900Y-55514100D01*
%TO.N,+5V*%
X133489300Y-68110700D02*
X133489300Y-71819700D01*
D28*
X131000000Y-79260000D02*
X134290000Y-82550000D01*
D27*
X135140000Y-72270000D02*
X136340300Y-72270000D01*
X158300000Y-72270000D02*
X136340300Y-72270000D01*
X163500000Y-77470000D02*
X158300000Y-72270000D01*
X138100000Y-97460000D02*
X138100000Y-96284700D01*
X166040000Y-77470000D02*
X163500000Y-77470000D01*
D28*
X131000000Y-75000000D02*
X131000000Y-79260000D01*
D27*
X133489300Y-71819700D02*
X133939600Y-72270000D01*
X138100000Y-96284700D02*
X141404400Y-92980300D01*
D28*
X135140000Y-72270000D02*
X133939600Y-72270000D01*
D27*
X141404400Y-91745400D02*
X142228000Y-90921800D01*
D28*
X133730000Y-72270000D02*
X131000000Y-75000000D01*
D27*
X135560000Y-66040000D02*
X133489300Y-68110700D01*
X141404400Y-92980300D02*
X141404400Y-91745400D01*
D28*
X133939600Y-72270000D02*
X133730000Y-72270000D01*
D27*
%TO.N,/8*%
X132253100Y-90378400D02*
X120111600Y-90378400D01*
X120111600Y-90378400D02*
X113335000Y-97155000D01*
%TO.N,/\u002A10*%
X116510000Y-88900000D02*
X113335000Y-92075000D01*
X116510000Y-85815500D02*
X116510000Y-88900000D01*
%TO.N,/\u002A9*%
X102075300Y-95114200D02*
X102801800Y-95840700D01*
X113205200Y-47294800D02*
X102075300Y-58424700D01*
X112615800Y-95840700D02*
X113335000Y-95121500D01*
X113335000Y-95121500D02*
X113335000Y-94615000D01*
X102801800Y-95840700D02*
X112615800Y-95840700D01*
X102075300Y-58424700D02*
X102075300Y-95114200D01*
X139116000Y-49200000D02*
X137210800Y-47294800D01*
X137210800Y-47294800D02*
X113205200Y-47294800D01*
%TO.N,Net-(D1-A)*%
X140640000Y-60295000D02*
X140640000Y-63105000D01*
X140640000Y-63105000D02*
X140625000Y-63120000D01*
%TO.N,Net-(D2-A)*%
X143180000Y-63105000D02*
X143180000Y-60295000D01*
X143165000Y-63120000D02*
X143180000Y-63105000D01*
%TO.N,Net-(D3-A)*%
X145720000Y-63105000D02*
X145720000Y-60295000D01*
X145705000Y-63120000D02*
X145720000Y-63105000D01*
%TO.N,Net-(D4-A)*%
X148260000Y-63105000D02*
X148260000Y-60295000D01*
X148245000Y-63120000D02*
X148260000Y-63105000D01*
%TO.N,Net-(D5-A)*%
X150800000Y-63105000D02*
X150800000Y-60295000D01*
X150785000Y-63120000D02*
X150800000Y-63105000D01*
%TO.N,Net-(D6-A)*%
X153340000Y-60295000D02*
X153340000Y-63105000D01*
X153340000Y-63105000D02*
X153325000Y-63120000D01*
%TO.N,Net-(D7-A)*%
X155880000Y-63105000D02*
X155865000Y-63120000D01*
X155880000Y-60295000D02*
X155880000Y-63105000D01*
%TO.N,Net-(D8-A)*%
X158420000Y-63105000D02*
X158405000Y-63120000D01*
X158420000Y-60295000D02*
X158420000Y-63105000D01*
%TO.N,Net-(D9-A)*%
X105080000Y-60295000D02*
X105080000Y-63120000D01*
%TO.N,Net-(D10-A)*%
X107620000Y-60295000D02*
X107620000Y-63120000D01*
%TO.N,Net-(D11-A)*%
X110160000Y-60295000D02*
X110160000Y-63120000D01*
%TO.N,Net-(D12-A)*%
X112700000Y-60295000D02*
X112700000Y-63120000D01*
%TO.N,Net-(D13-A)*%
X115240000Y-63120000D02*
X115240000Y-60295000D01*
%TO.N,Net-(D14-A)*%
X117780000Y-60295000D02*
X117780000Y-63120000D01*
%TO.N,Net-(D15-A)*%
X120320000Y-60295000D02*
X120320000Y-63120000D01*
%TO.N,Net-(D16-A)*%
X122860000Y-60295000D02*
X122860000Y-63120000D01*
%TO.N,Net-(J5-Pin_1)*%
X129140300Y-68582400D02*
X129140300Y-69020000D01*
X127940000Y-69020000D02*
X129140300Y-69020000D01*
X132000000Y-89000000D02*
X144995000Y-89000000D01*
X129210000Y-85090000D02*
X129210000Y-86210000D01*
X129225200Y-68497500D02*
X129140300Y-68582400D01*
X144995000Y-89000000D02*
X146927000Y-90932000D01*
X129210000Y-86210000D02*
X132000000Y-89000000D01*
%TO.N,Net-(J5-Pin_3)*%
X147733100Y-91599100D02*
X146927000Y-92405200D01*
X130385300Y-84385300D02*
X131090000Y-85090000D01*
X147733100Y-89973300D02*
X147733100Y-91599100D01*
X146096200Y-88336400D02*
X147733100Y-89973300D01*
X130385300Y-70380600D02*
X130385300Y-84385300D01*
X134336400Y-88336400D02*
X146096200Y-88336400D01*
X127940000Y-69670000D02*
X129674700Y-69670000D01*
X129674700Y-69670000D02*
X130385300Y-70380600D01*
X131750000Y-85090000D02*
X131750000Y-85750000D01*
X131750000Y-85750000D02*
X134336400Y-88336400D01*
X131090000Y-85090000D02*
X131750000Y-85090000D01*
%TO.N,Net-(J5-Pin_5)*%
X148183100Y-92596900D02*
X146927000Y-93853000D01*
X148183100Y-89635900D02*
X148183100Y-92596900D01*
X146433600Y-87886400D02*
X148183100Y-89635900D01*
X134290000Y-85090000D02*
X135465300Y-85090000D01*
X138261700Y-87886400D02*
X146433600Y-87886400D01*
X127940000Y-70320000D02*
X129351000Y-70320000D01*
X135465300Y-85090000D02*
X138261700Y-87886400D01*
%TO.N,Net-(J6-Pin_1)*%
X140220000Y-82550000D02*
X135140000Y-77470000D01*
X140640000Y-82550000D02*
X140220000Y-82550000D01*
%TO.N,Net-(J6-Pin_3)*%
X143180000Y-82550000D02*
X143180000Y-82180000D01*
X143180000Y-82180000D02*
X140000000Y-79000000D01*
X140000000Y-79000000D02*
X138360000Y-79000000D01*
X136180000Y-76820000D02*
X135140000Y-76820000D01*
X138360000Y-79000000D02*
X136180000Y-76820000D01*
%TO.N,Net-(J6-Pin_5)*%
X138549900Y-76170000D02*
X135140000Y-76170000D01*
X143920000Y-78000000D02*
X140379900Y-78000000D01*
X140379900Y-78000000D02*
X138549900Y-76170000D01*
X145720000Y-76200000D02*
X143920000Y-78000000D01*
%TO.N,Net-(J6-Pin_7)*%
X137957500Y-75000000D02*
X137437500Y-75520000D01*
X137437500Y-75520000D02*
X135140000Y-75520000D01*
X147060000Y-75000000D02*
X137957500Y-75000000D01*
X148260000Y-76200000D02*
X147060000Y-75000000D01*
%TO.N,Net-(J6-Pin_10)*%
X150800000Y-76200000D02*
X149050000Y-74450000D01*
X137425000Y-74450000D02*
X137005000Y-74870000D01*
X149050000Y-74450000D02*
X137425000Y-74450000D01*
X137005000Y-74870000D02*
X135140000Y-74870000D01*
%TO.N,Net-(J6-Pin_11)*%
X136560300Y-74000000D02*
X136340300Y-74220000D01*
X153340000Y-76200000D02*
X151140000Y-74000000D01*
X151140000Y-74000000D02*
X136560300Y-74000000D01*
X136340300Y-74220000D02*
X135140000Y-74220000D01*
%TO.N,Net-(J6-Pin_13)*%
X153050000Y-73370000D02*
X136340000Y-73370000D01*
X155880000Y-76200000D02*
X153050000Y-73370000D01*
X136340000Y-73370000D02*
X136140000Y-73570000D01*
X136140000Y-73570000D02*
X135140000Y-73570000D01*
%TO.N,Net-(J6-Pin_15)*%
X158420000Y-75420000D02*
X155920000Y-72920000D01*
X155920000Y-72920000D02*
X135140000Y-72920000D01*
X158420000Y-76200000D02*
X158420000Y-75420000D01*
%TO.N,Net-(J7-Pin_1)*%
X105080000Y-76200000D02*
X105080000Y-74920000D01*
X107930000Y-72070000D02*
X125889700Y-72070000D01*
X125889700Y-72070000D02*
X126739700Y-72920000D01*
X105080000Y-74920000D02*
X107930000Y-72070000D01*
X126739700Y-72920000D02*
X127940000Y-72920000D01*
%TO.N,Net-(J7-Pin_3)*%
X126455300Y-73570000D02*
X127940000Y-73570000D01*
X125705800Y-72820500D02*
X126455300Y-73570000D01*
X107620000Y-76200000D02*
X107620000Y-75380000D01*
X107620000Y-75380000D02*
X110179500Y-72820500D01*
X110179500Y-72820500D02*
X125705800Y-72820500D01*
%TO.N,Net-(J7-Pin_5)*%
X112729500Y-73270500D02*
X113930300Y-73270500D01*
X110160000Y-76200000D02*
X110160000Y-75840000D01*
X110160000Y-75840000D02*
X112729500Y-73270500D01*
X113931900Y-73272100D02*
X125520500Y-73272100D01*
X125520500Y-73272100D02*
X126468400Y-74220000D01*
X126468400Y-74220000D02*
X127940000Y-74220000D01*
X113930300Y-73270500D02*
X113931900Y-73272100D01*
%TO.N,Net-(J7-Pin_7)*%
X114277900Y-73722100D02*
X116021100Y-73722100D01*
X124477400Y-73722500D02*
X125624900Y-74870000D01*
X116021100Y-73722100D02*
X116021500Y-73722500D01*
X125624900Y-74870000D02*
X127940000Y-74870000D01*
X116021500Y-73722500D02*
X124477400Y-73722500D01*
X112700000Y-75300000D02*
X114277900Y-73722100D01*
X112700000Y-76200000D02*
X112700000Y-75300000D01*
%TO.N,Net-(J7-Pin_10)*%
X116827500Y-74172500D02*
X118110700Y-74172500D01*
X115240000Y-76200000D02*
X115240000Y-75760000D01*
X118111100Y-74172900D02*
X124216700Y-74172900D01*
X124216700Y-74172900D02*
X125563800Y-75520000D01*
X118110700Y-74172500D02*
X118111100Y-74172900D01*
X115240000Y-75760000D02*
X116827500Y-74172500D01*
X125563800Y-75520000D02*
X127940000Y-75520000D01*
%TO.N,Net-(J7-Pin_11)*%
X125557600Y-76170000D02*
X127940000Y-76170000D01*
X119357100Y-74622900D02*
X124010500Y-74622900D01*
X124010500Y-74622900D02*
X125557600Y-76170000D01*
X117780000Y-76200000D02*
X119357100Y-74622900D01*
%TO.N,Net-(J7-Pin_13)*%
X121372400Y-75072900D02*
X122289500Y-75072900D01*
X120320000Y-76200000D02*
X120320000Y-76125300D01*
X123498200Y-75073700D02*
X125244500Y-76820000D01*
X122290300Y-75073700D02*
X123498200Y-75073700D01*
X120320000Y-76125300D02*
X121372400Y-75072900D01*
X125244500Y-76820000D02*
X127940000Y-76820000D01*
X122289500Y-75072900D02*
X122290300Y-75073700D01*
%TO.N,Net-(J7-Pin_15)*%
X122860000Y-76200000D02*
X123985300Y-76200000D01*
X123985300Y-76200000D02*
X125255300Y-77470000D01*
X122860000Y-81374700D02*
X125255300Y-78979400D01*
X125255300Y-77470000D02*
X127940000Y-77470000D01*
X122860000Y-82550000D02*
X122860000Y-81374700D01*
X125255300Y-78979400D02*
X125255300Y-77470000D01*
%TO.N,Net-(JP1-A)*%
X163500000Y-81280000D02*
X163500000Y-79120000D01*
%TO.N,/SDA*%
X163024500Y-82580000D02*
X163500000Y-82580000D01*
X137444950Y-69670000D02*
X137470450Y-69695500D01*
X158123900Y-80518000D02*
X161605200Y-83999300D01*
X160960000Y-84644500D02*
X161605200Y-83999300D01*
X137592000Y-77216000D02*
X138608000Y-78232000D01*
X142201700Y-80518000D02*
X158123900Y-80518000D01*
X161605200Y-83999300D02*
X163024500Y-82580000D01*
X135140000Y-69670000D02*
X137444950Y-69670000D01*
X138608000Y-78232000D02*
X139915700Y-78232000D01*
X160960000Y-97460000D02*
X160960000Y-84644500D01*
X139915700Y-78232000D02*
X142201700Y-80518000D01*
%TO.N,Net-(JP2-A)*%
X166040000Y-81280000D02*
X166040000Y-79120000D01*
%TO.N,/SCL*%
X136543500Y-70320000D02*
X160142000Y-70320000D01*
X167156300Y-77334300D02*
X167156300Y-81877800D01*
X167156300Y-81877800D02*
X166454100Y-82580000D01*
X166454100Y-82580000D02*
X166040000Y-82580000D01*
X136340300Y-70320000D02*
X136543500Y-70320000D01*
X160142000Y-70320000D02*
X167156300Y-77334300D01*
X135140000Y-70320000D02*
X136340300Y-70320000D01*
X163500000Y-85120000D02*
X166040000Y-82580000D01*
X163500000Y-97460000D02*
X163500000Y-85120000D01*
%TO.N,Net-(R6-Pad1)*%
X140640000Y-68580000D02*
X140640000Y-67454700D01*
X140625000Y-67439700D02*
X140625000Y-64770000D01*
X140640000Y-67454700D02*
X140625000Y-67439700D01*
%TO.N,Net-(R7-Pad1)*%
X143165000Y-67439700D02*
X143165000Y-64770000D01*
X143180000Y-67454700D02*
X143165000Y-67439700D01*
X143180000Y-68580000D02*
X143180000Y-67454700D01*
%TO.N,Net-(R8-Pad1)*%
X145720000Y-67454700D02*
X145705000Y-67439700D01*
X145705000Y-67439700D02*
X145705000Y-64770000D01*
X145720000Y-68580000D02*
X145720000Y-67454700D01*
%TO.N,Net-(R9-Pad1)*%
X148260000Y-68580000D02*
X148260000Y-67454700D01*
X148245000Y-67439700D02*
X148245000Y-64770000D01*
X148260000Y-67454700D02*
X148245000Y-67439700D01*
%TO.N,Net-(R10-Pad1)*%
X150800000Y-68580000D02*
X150800000Y-67454700D01*
X150785000Y-67439700D02*
X150785000Y-64770000D01*
X150800000Y-67454700D02*
X150785000Y-67439700D01*
%TO.N,Net-(R11-Pad1)*%
X153340000Y-67454700D02*
X153325000Y-67439700D01*
X153340000Y-68580000D02*
X153340000Y-67454700D01*
X153325000Y-67439700D02*
X153325000Y-64770000D01*
%TO.N,Net-(R12-Pad1)*%
X155880000Y-68580000D02*
X155880000Y-67454700D01*
X155865000Y-67439700D02*
X155865000Y-64770000D01*
X155880000Y-67454700D02*
X155865000Y-67439700D01*
%TO.N,Net-(R13-Pad1)*%
X158420000Y-68580000D02*
X158420000Y-67454700D01*
X158420000Y-67454700D02*
X158405000Y-67439700D01*
X158405000Y-67439700D02*
X158405000Y-64770000D01*
%TO.N,Net-(R14-Pad1)*%
X105080000Y-68580000D02*
X105080000Y-64770000D01*
%TO.N,Net-(R15-Pad1)*%
X107620000Y-68580000D02*
X107620000Y-64770000D01*
%TO.N,Net-(R16-Pad1)*%
X110160000Y-68580000D02*
X110160000Y-64770000D01*
%TO.N,Net-(R17-Pad1)*%
X112700000Y-68580000D02*
X112700000Y-64770000D01*
%TO.N,Net-(R18-Pad1)*%
X115240000Y-68580000D02*
X115240000Y-64770000D01*
%TO.N,Net-(R19-Pad1)*%
X117780000Y-68580000D02*
X117780000Y-64770000D01*
%TO.N,Net-(R20-Pad1)*%
X120320000Y-68580000D02*
X120320000Y-64770000D01*
%TO.N,Net-(R21-Pad1)*%
X122860000Y-68580000D02*
X122860000Y-64770000D01*
%TO.N,/RESET*%
X128020400Y-86071300D02*
X131411100Y-89462000D01*
X138924200Y-89450000D02*
X143577600Y-89450000D01*
X128020400Y-81197900D02*
X128020400Y-86071300D01*
X137320600Y-91053600D02*
X138924200Y-89450000D01*
X140407000Y-92456000D02*
X137846400Y-92456000D01*
X129140300Y-70970000D02*
X129590700Y-71420400D01*
X131411100Y-89462000D02*
X135729000Y-89462000D01*
X129590700Y-79627600D02*
X128020400Y-81197900D01*
X135729000Y-89462000D02*
X137320600Y-91053600D01*
X129590700Y-71420400D02*
X129590700Y-79627600D01*
X127940000Y-70970000D02*
X129140300Y-70970000D01*
X137320600Y-91930200D02*
X137320600Y-91053600D01*
X143878000Y-89750400D02*
X143878000Y-90921800D01*
X143577600Y-89450000D02*
X143878000Y-89750400D01*
X137846400Y-92456000D02*
X137320600Y-91930200D01*
%TO.N,/INTA*%
X103302000Y-90914700D02*
X103892000Y-90914700D01*
X127940000Y-71620000D02*
X107546500Y-71620000D01*
X103302000Y-92090000D02*
X103302000Y-90914700D01*
X103892000Y-90914700D02*
X103894600Y-90912100D01*
X103894600Y-90912100D02*
X109896800Y-90912100D01*
X111885000Y-92075000D02*
X111059700Y-92075000D01*
X109896800Y-90912100D02*
X111059700Y-92075000D01*
X107546500Y-71620000D02*
X103894600Y-75271900D01*
X103894600Y-75271900D02*
X103894600Y-90912100D01*
%TO.N,/INTB*%
X104492300Y-94615000D02*
X104477300Y-94630000D01*
X129140300Y-79364300D02*
X127135700Y-81368900D01*
X111472400Y-94615000D02*
X104492300Y-94615000D01*
X127135700Y-81368900D02*
X127135700Y-82543400D01*
X127940000Y-72270000D02*
X129140300Y-72270000D01*
X129140300Y-72270000D02*
X129140300Y-79364300D01*
X116334100Y-93345000D02*
X112742400Y-93345000D01*
X127135700Y-82543400D02*
X116334100Y-93345000D01*
X103302000Y-94630000D02*
X104477300Y-94630000D01*
X111885000Y-94615000D02*
X111472400Y-94615000D01*
X112742400Y-93345000D02*
X111472400Y-94615000D01*
%TO.N,/EX_RESET*%
X138614300Y-98638700D02*
X139370000Y-97883000D01*
X139370000Y-97883000D02*
X139370000Y-96711000D01*
X104492300Y-97155000D02*
X111885000Y-97155000D01*
X111885000Y-97155000D02*
X111885000Y-98230300D01*
X139370000Y-96711000D02*
X142228000Y-93853000D01*
X104477300Y-97170000D02*
X104492300Y-97155000D01*
X142228000Y-92379800D02*
X142228000Y-93853000D01*
X111885000Y-98230300D02*
X112293400Y-98638700D01*
X112293400Y-98638700D02*
X138614300Y-98638700D01*
X103302000Y-97170000D02*
X104477300Y-97170000D01*
%TO.N,Net-(Q1-Pad1)*%
X138207000Y-90880700D02*
X139187700Y-89900000D01*
X143057700Y-90200100D02*
X143057700Y-93032700D01*
X138207000Y-91506000D02*
X138207000Y-90880700D01*
X139187700Y-89900000D02*
X142757600Y-89900000D01*
X142757600Y-89900000D02*
X143057700Y-90200100D01*
X143057700Y-93032700D02*
X143878000Y-93853000D01*
%TD*%
%TA.AperFunction,Conductor*%
%TO.N,GND*%
G36*
X112636271Y-46755185D02*
G01*
X112682026Y-46807989D01*
X112691970Y-46877147D01*
X112662945Y-46940703D01*
X112656913Y-46947181D01*
X109882615Y-49721480D01*
X101671467Y-57932629D01*
X101627347Y-57976749D01*
X101583227Y-58020868D01*
X101513903Y-58124618D01*
X101513898Y-58124627D01*
X101466145Y-58239914D01*
X101466143Y-58239922D01*
X101441800Y-58362301D01*
X101441800Y-95176598D01*
X101466143Y-95298977D01*
X101466145Y-95298985D01*
X101513898Y-95414272D01*
X101513903Y-95414281D01*
X101583228Y-95518032D01*
X101583231Y-95518036D01*
X102226422Y-96161226D01*
X102259907Y-96222549D01*
X102254923Y-96292240D01*
X102239059Y-96321792D01*
X102140108Y-96457987D01*
X102043027Y-96648516D01*
X102043026Y-96648519D01*
X101976951Y-96851882D01*
X101943500Y-97063084D01*
X101943500Y-97276915D01*
X101976951Y-97488117D01*
X102043026Y-97691480D01*
X102043027Y-97691483D01*
X102117478Y-97837600D01*
X102140106Y-97882009D01*
X102265794Y-98055004D01*
X102416996Y-98206206D01*
X102589991Y-98331894D01*
X102664537Y-98369877D01*
X102780516Y-98428972D01*
X102780519Y-98428973D01*
X102872073Y-98458720D01*
X102983884Y-98495049D01*
X103195084Y-98528500D01*
X103195085Y-98528500D01*
X103408915Y-98528500D01*
X103408916Y-98528500D01*
X103620116Y-98495049D01*
X103823483Y-98428972D01*
X104014009Y-98331894D01*
X104187004Y-98206206D01*
X104338206Y-98055004D01*
X104463894Y-97882009D01*
X104472553Y-97865013D01*
X104474598Y-97862848D01*
X104475284Y-97859946D01*
X104498442Y-97837600D01*
X104520525Y-97814218D01*
X104524067Y-97812874D01*
X104525564Y-97811431D01*
X104558839Y-97799691D01*
X104603133Y-97790881D01*
X104627315Y-97788500D01*
X110747720Y-97788500D01*
X110814759Y-97808185D01*
X110860514Y-97860989D01*
X110871404Y-97903654D01*
X110876726Y-97978078D01*
X110876727Y-97978083D01*
X110917902Y-98118313D01*
X110917902Y-98118314D01*
X110996921Y-98241269D01*
X110996922Y-98241270D01*
X110996923Y-98241271D01*
X111107381Y-98336984D01*
X111154832Y-98358654D01*
X111230870Y-98393380D01*
X111283674Y-98439135D01*
X111293919Y-98458720D01*
X111323600Y-98530375D01*
X111323603Y-98530381D01*
X111392928Y-98634132D01*
X111392931Y-98634136D01*
X111801329Y-99042533D01*
X111889564Y-99130768D01*
X111889568Y-99130772D01*
X111993318Y-99200096D01*
X111993324Y-99200099D01*
X111993325Y-99200100D01*
X112108615Y-99247855D01*
X112231001Y-99272199D01*
X112231005Y-99272200D01*
X112231006Y-99272200D01*
X138676695Y-99272200D01*
X138676696Y-99272199D01*
X138799085Y-99247855D01*
X138914375Y-99200100D01*
X139018133Y-99130771D01*
X139862071Y-98286833D01*
X139931400Y-98183075D01*
X139979155Y-98067785D01*
X140003500Y-97945394D01*
X140003500Y-97820606D01*
X140003500Y-97353084D01*
X144361500Y-97353084D01*
X144361500Y-97566915D01*
X144394951Y-97778117D01*
X144461026Y-97981480D01*
X144461027Y-97981483D01*
X144530746Y-98118313D01*
X144558106Y-98172009D01*
X144683794Y-98345004D01*
X144834996Y-98496206D01*
X145007991Y-98621894D01*
X145094542Y-98665994D01*
X145198516Y-98718972D01*
X145198519Y-98718973D01*
X145300200Y-98752010D01*
X145401884Y-98785049D01*
X145613084Y-98818500D01*
X145613085Y-98818500D01*
X145826915Y-98818500D01*
X145826916Y-98818500D01*
X146038116Y-98785049D01*
X146241483Y-98718972D01*
X146432009Y-98621894D01*
X146605004Y-98496206D01*
X146756206Y-98345004D01*
X146881894Y-98172009D01*
X146978972Y-97981483D01*
X147045049Y-97778116D01*
X147078500Y-97566916D01*
X147078500Y-97353084D01*
X147045049Y-97141884D01*
X146999301Y-97001085D01*
X146978973Y-96938519D01*
X146978972Y-96938516D01*
X146907756Y-96798748D01*
X146881894Y-96747991D01*
X146756206Y-96574996D01*
X146605004Y-96423794D01*
X146432009Y-96298106D01*
X146367159Y-96265063D01*
X146241483Y-96201027D01*
X146241480Y-96201026D01*
X146038117Y-96134951D01*
X145932516Y-96118225D01*
X145826916Y-96101500D01*
X145613084Y-96101500D01*
X145542684Y-96112650D01*
X145401882Y-96134951D01*
X145198519Y-96201026D01*
X145198516Y-96201027D01*
X145007990Y-96298106D01*
X144834993Y-96423796D01*
X144683796Y-96574993D01*
X144558106Y-96747990D01*
X144461027Y-96938516D01*
X144461026Y-96938519D01*
X144394951Y-97141882D01*
X144361500Y-97353084D01*
X140003500Y-97353084D01*
X140003500Y-97024765D01*
X140023185Y-96957726D01*
X140039814Y-96937089D01*
X142053285Y-94923617D01*
X142114608Y-94890133D01*
X142140966Y-94887299D01*
X142498471Y-94887299D01*
X142569844Y-94880814D01*
X142569847Y-94880813D01*
X142569849Y-94880813D01*
X142734113Y-94829627D01*
X142881355Y-94740616D01*
X142881359Y-94740612D01*
X142978519Y-94643453D01*
X143039842Y-94609968D01*
X143109534Y-94614952D01*
X143153881Y-94643453D01*
X143251041Y-94740613D01*
X143251043Y-94740614D01*
X143251045Y-94740616D01*
X143398287Y-94829627D01*
X143562551Y-94880813D01*
X143633935Y-94887300D01*
X144148464Y-94887299D01*
X144148472Y-94887299D01*
X144219845Y-94880814D01*
X144219848Y-94880813D01*
X144219849Y-94880813D01*
X144384113Y-94829627D01*
X144531355Y-94740616D01*
X144653016Y-94618955D01*
X144742027Y-94471713D01*
X144793213Y-94307449D01*
X144799700Y-94236065D01*
X144799699Y-93571536D01*
X144799699Y-93571535D01*
X144799699Y-93571527D01*
X144793214Y-93500154D01*
X144793211Y-93500144D01*
X144742028Y-93335890D01*
X144742027Y-93335889D01*
X144742027Y-93335887D01*
X144653016Y-93188645D01*
X144653014Y-93188643D01*
X144653013Y-93188641D01*
X144531358Y-93066986D01*
X144449326Y-93017396D01*
X144384113Y-92977973D01*
X144219849Y-92926787D01*
X144219847Y-92926786D01*
X144219845Y-92926786D01*
X144169867Y-92922244D01*
X144148465Y-92920300D01*
X144148462Y-92920300D01*
X143892566Y-92920300D01*
X143863125Y-92911655D01*
X143833139Y-92905132D01*
X143828123Y-92901377D01*
X143825527Y-92900615D01*
X143804885Y-92883981D01*
X143727519Y-92806615D01*
X143694034Y-92745292D01*
X143691200Y-92718934D01*
X143691200Y-91937899D01*
X143710885Y-91870860D01*
X143763689Y-91825105D01*
X143815200Y-91813899D01*
X144146471Y-91813899D01*
X144217844Y-91807414D01*
X144217847Y-91807413D01*
X144217849Y-91807413D01*
X144382113Y-91756227D01*
X144529355Y-91667216D01*
X144651016Y-91545555D01*
X144740027Y-91398313D01*
X144791213Y-91234049D01*
X144797700Y-91162665D01*
X144797699Y-90498136D01*
X144797699Y-90498127D01*
X144791214Y-90426754D01*
X144791211Y-90426744D01*
X144740028Y-90262490D01*
X144740027Y-90262489D01*
X144740027Y-90262487D01*
X144651016Y-90115245D01*
X144651014Y-90115243D01*
X144651013Y-90115241D01*
X144547819Y-90012047D01*
X144533115Y-89985119D01*
X144516523Y-89959301D01*
X144515631Y-89953100D01*
X144514334Y-89950724D01*
X144511500Y-89924366D01*
X144511500Y-89757500D01*
X144531185Y-89690461D01*
X144583989Y-89644706D01*
X144635500Y-89633500D01*
X144681234Y-89633500D01*
X144748273Y-89653185D01*
X144768915Y-89669819D01*
X145967981Y-90868886D01*
X146001466Y-90930209D01*
X146004300Y-90956566D01*
X146004300Y-91162672D01*
X146010785Y-91234045D01*
X146010788Y-91234055D01*
X146061971Y-91398310D01*
X146148200Y-91540950D01*
X146166036Y-91608505D01*
X146148200Y-91669250D01*
X146061973Y-91811886D01*
X146010786Y-91976154D01*
X146004300Y-92047537D01*
X146004300Y-92712072D01*
X146010785Y-92783445D01*
X146010788Y-92783455D01*
X146061971Y-92947710D01*
X146061973Y-92947713D01*
X146116744Y-93038316D01*
X146140523Y-93077650D01*
X146158359Y-93145205D01*
X146140523Y-93205949D01*
X146132726Y-93218848D01*
X146061973Y-93335886D01*
X146010786Y-93500154D01*
X146004300Y-93571537D01*
X146004300Y-94236072D01*
X146010785Y-94307445D01*
X146010788Y-94307455D01*
X146061971Y-94471709D01*
X146150986Y-94618958D01*
X146272641Y-94740613D01*
X146272643Y-94740614D01*
X146272645Y-94740616D01*
X146419887Y-94829627D01*
X146584151Y-94880813D01*
X146655535Y-94887300D01*
X147170064Y-94887299D01*
X147170072Y-94887299D01*
X147241445Y-94880814D01*
X147241448Y-94880813D01*
X147241449Y-94880813D01*
X147405713Y-94829627D01*
X147552955Y-94740616D01*
X147674616Y-94618955D01*
X147763627Y-94471713D01*
X147814813Y-94307449D01*
X147821300Y-94236065D01*
X147821299Y-93905964D01*
X147840983Y-93838926D01*
X147857613Y-93818289D01*
X148675172Y-93000733D01*
X148744501Y-92896975D01*
X148786526Y-92795516D01*
X148792255Y-92781685D01*
X148816600Y-92659294D01*
X148816600Y-89573506D01*
X148792255Y-89451115D01*
X148746147Y-89339800D01*
X148744501Y-89335825D01*
X148675172Y-89232067D01*
X148675169Y-89232063D01*
X146837436Y-87394331D01*
X146837432Y-87394328D01*
X146733681Y-87325003D01*
X146733672Y-87324998D01*
X146618385Y-87277245D01*
X146618377Y-87277243D01*
X146495998Y-87252900D01*
X146495994Y-87252900D01*
X138575467Y-87252900D01*
X138508428Y-87233215D01*
X138487786Y-87216581D01*
X135869136Y-84597931D01*
X135869132Y-84597928D01*
X135765381Y-84528603D01*
X135765372Y-84528598D01*
X135650085Y-84480845D01*
X135650077Y-84480843D01*
X135546847Y-84460309D01*
X135484936Y-84427924D01*
X135460553Y-84394986D01*
X135451894Y-84377991D01*
X135326206Y-84204996D01*
X135175004Y-84053794D01*
X135002009Y-83928106D01*
X135002005Y-83928103D01*
X134998132Y-83925730D01*
X134951254Y-83873920D01*
X134939829Y-83804991D01*
X134967483Y-83740827D01*
X134998132Y-83714270D01*
X135002005Y-83711896D01*
X135002004Y-83711896D01*
X135002009Y-83711894D01*
X135175004Y-83586206D01*
X135326206Y-83435004D01*
X135451894Y-83262009D01*
X135548972Y-83071483D01*
X135615049Y-82868116D01*
X135648500Y-82656916D01*
X135648500Y-82443084D01*
X135615049Y-82231884D01*
X135548972Y-82028517D01*
X135548972Y-82028516D01*
X135459583Y-81853082D01*
X135451894Y-81837991D01*
X135326206Y-81664996D01*
X135175004Y-81513794D01*
X135002009Y-81388106D01*
X134985005Y-81379442D01*
X134811483Y-81291027D01*
X134811480Y-81291026D01*
X134608117Y-81224951D01*
X134483193Y-81205165D01*
X134396916Y-81191500D01*
X134183084Y-81191500D01*
X134030001Y-81215745D01*
X133960708Y-81206790D01*
X133922923Y-81180953D01*
X131744819Y-79002848D01*
X131711334Y-78941525D01*
X131708500Y-78915167D01*
X131708500Y-75344832D01*
X131728185Y-75277793D01*
X131744814Y-75257156D01*
X133544819Y-73457150D01*
X133606142Y-73423666D01*
X133675834Y-73428650D01*
X133731767Y-73470522D01*
X133756184Y-73535986D01*
X133756500Y-73544832D01*
X133756500Y-73843644D01*
X133760596Y-73881748D01*
X133760596Y-73908252D01*
X133756500Y-73946355D01*
X133756500Y-74493644D01*
X133760596Y-74531748D01*
X133760596Y-74558252D01*
X133756500Y-74596355D01*
X133756500Y-75143644D01*
X133760596Y-75181748D01*
X133760596Y-75208252D01*
X133756500Y-75246355D01*
X133756500Y-75793644D01*
X133760596Y-75831748D01*
X133760596Y-75858252D01*
X133756500Y-75896355D01*
X133756500Y-76443644D01*
X133760596Y-76481748D01*
X133760596Y-76508252D01*
X133756500Y-76546355D01*
X133756500Y-77093644D01*
X133760596Y-77131748D01*
X133760596Y-77158252D01*
X133756500Y-77196355D01*
X133756500Y-77743654D01*
X133763011Y-77804202D01*
X133763011Y-77804204D01*
X133814111Y-77941204D01*
X133901739Y-78058261D01*
X134018796Y-78145889D01*
X134155799Y-78196989D01*
X134183050Y-78199918D01*
X134216345Y-78203499D01*
X134216362Y-78203500D01*
X134926234Y-78203500D01*
X134993273Y-78223185D01*
X135013915Y-78239819D01*
X139245181Y-82471085D01*
X139278666Y-82532408D01*
X139281500Y-82558766D01*
X139281500Y-82656915D01*
X139314951Y-82868117D01*
X139381026Y-83071480D01*
X139381027Y-83071483D01*
X139452245Y-83211254D01*
X139478106Y-83262009D01*
X139603794Y-83435004D01*
X139603796Y-83435006D01*
X139708971Y-83540181D01*
X139742456Y-83601504D01*
X139737472Y-83671196D01*
X139695600Y-83727129D01*
X139664625Y-83744043D01*
X139543795Y-83789111D01*
X139426739Y-83876739D01*
X139339111Y-83993795D01*
X139288011Y-84130795D01*
X139288011Y-84130797D01*
X139281500Y-84191345D01*
X139281500Y-85988654D01*
X139288011Y-86049202D01*
X139288011Y-86049204D01*
X139319527Y-86133698D01*
X139339111Y-86186204D01*
X139426739Y-86303261D01*
X139543796Y-86390889D01*
X139652597Y-86431470D01*
X139672959Y-86439065D01*
X139680799Y-86441989D01*
X139708050Y-86444918D01*
X139741345Y-86448499D01*
X139741362Y-86448500D01*
X141538638Y-86448500D01*
X141538654Y-86448499D01*
X141565692Y-86445591D01*
X141599201Y-86441989D01*
X141607041Y-86439065D01*
X141627403Y-86431470D01*
X141736204Y-86390889D01*
X141853261Y-86303261D01*
X141940889Y-86186204D01*
X141985957Y-86065371D01*
X142027827Y-86009442D01*
X142093291Y-85985025D01*
X142161564Y-85999877D01*
X142189818Y-86021028D01*
X142294996Y-86126206D01*
X142467991Y-86251894D01*
X142559596Y-86298569D01*
X142658516Y-86348972D01*
X142658519Y-86348973D01*
X142730751Y-86372442D01*
X142861884Y-86415049D01*
X143073084Y-86448500D01*
X143073085Y-86448500D01*
X143286915Y-86448500D01*
X143286916Y-86448500D01*
X143498116Y-86415049D01*
X143701483Y-86348972D01*
X143892009Y-86251894D01*
X144065004Y-86126206D01*
X144216206Y-85975004D01*
X144341894Y-85802009D01*
X144341896Y-85802004D01*
X144344270Y-85798132D01*
X144396080Y-85751254D01*
X144465009Y-85739829D01*
X144529173Y-85767483D01*
X144555730Y-85798132D01*
X144558103Y-85802005D01*
X144558106Y-85802009D01*
X144683794Y-85975004D01*
X144834996Y-86126206D01*
X145007991Y-86251894D01*
X145099596Y-86298569D01*
X145198516Y-86348972D01*
X145198519Y-86348973D01*
X145270751Y-86372442D01*
X145401884Y-86415049D01*
X145613084Y-86448500D01*
X145613085Y-86448500D01*
X145826915Y-86448500D01*
X145826916Y-86448500D01*
X146038116Y-86415049D01*
X146241483Y-86348972D01*
X146432009Y-86251894D01*
X146605004Y-86126206D01*
X146756206Y-85975004D01*
X146881894Y-85802009D01*
X146881896Y-85802004D01*
X146884270Y-85798132D01*
X146936080Y-85751254D01*
X147005009Y-85739829D01*
X147069173Y-85767483D01*
X147095730Y-85798132D01*
X147098103Y-85802005D01*
X147098106Y-85802009D01*
X147223794Y-85975004D01*
X147374996Y-86126206D01*
X147547991Y-86251894D01*
X147639596Y-86298569D01*
X147738516Y-86348972D01*
X147738519Y-86348973D01*
X147810751Y-86372442D01*
X147941884Y-86415049D01*
X148153084Y-86448500D01*
X148153085Y-86448500D01*
X148366915Y-86448500D01*
X148366916Y-86448500D01*
X148578116Y-86415049D01*
X148781483Y-86348972D01*
X148972009Y-86251894D01*
X149145004Y-86126206D01*
X149296206Y-85975004D01*
X149421894Y-85802009D01*
X149421896Y-85802004D01*
X149424270Y-85798132D01*
X149476080Y-85751254D01*
X149545009Y-85739829D01*
X149609173Y-85767483D01*
X149635730Y-85798132D01*
X149638103Y-85802005D01*
X149638106Y-85802009D01*
X149763794Y-85975004D01*
X149914996Y-86126206D01*
X150087991Y-86251894D01*
X150179596Y-86298569D01*
X150278516Y-86348972D01*
X150278519Y-86348973D01*
X150350751Y-86372442D01*
X150481884Y-86415049D01*
X150693084Y-86448500D01*
X150693085Y-86448500D01*
X150906915Y-86448500D01*
X150906916Y-86448500D01*
X151118116Y-86415049D01*
X151321483Y-86348972D01*
X151512009Y-86251894D01*
X151685004Y-86126206D01*
X151836206Y-85975004D01*
X151961894Y-85802009D01*
X151961896Y-85802004D01*
X151964270Y-85798132D01*
X152016080Y-85751254D01*
X152085009Y-85739829D01*
X152149173Y-85767483D01*
X152175730Y-85798132D01*
X152178103Y-85802005D01*
X152178106Y-85802009D01*
X152303794Y-85975004D01*
X152454996Y-86126206D01*
X152627991Y-86251894D01*
X152719596Y-86298569D01*
X152818516Y-86348972D01*
X152818519Y-86348973D01*
X152890751Y-86372442D01*
X153021884Y-86415049D01*
X153233084Y-86448500D01*
X153233085Y-86448500D01*
X153446915Y-86448500D01*
X153446916Y-86448500D01*
X153658116Y-86415049D01*
X153861483Y-86348972D01*
X154052009Y-86251894D01*
X154225004Y-86126206D01*
X154376206Y-85975004D01*
X154501894Y-85802009D01*
X154501896Y-85802004D01*
X154504270Y-85798132D01*
X154556080Y-85751254D01*
X154625009Y-85739829D01*
X154689173Y-85767483D01*
X154715730Y-85798132D01*
X154718103Y-85802005D01*
X154718106Y-85802009D01*
X154843794Y-85975004D01*
X154994996Y-86126206D01*
X155167991Y-86251894D01*
X155259596Y-86298569D01*
X155358516Y-86348972D01*
X155358519Y-86348973D01*
X155430751Y-86372442D01*
X155561884Y-86415049D01*
X155773084Y-86448500D01*
X155773085Y-86448500D01*
X155986915Y-86448500D01*
X155986916Y-86448500D01*
X156198116Y-86415049D01*
X156401483Y-86348972D01*
X156592009Y-86251894D01*
X156765004Y-86126206D01*
X156916206Y-85975004D01*
X157041894Y-85802009D01*
X157041896Y-85802004D01*
X157044270Y-85798132D01*
X157096080Y-85751254D01*
X157165009Y-85739829D01*
X157229173Y-85767483D01*
X157255730Y-85798132D01*
X157258103Y-85802005D01*
X157258106Y-85802009D01*
X157383794Y-85975004D01*
X157534996Y-86126206D01*
X157707991Y-86251894D01*
X157799596Y-86298569D01*
X157898516Y-86348972D01*
X157898519Y-86348973D01*
X157970751Y-86372442D01*
X158101884Y-86415049D01*
X158313084Y-86448500D01*
X158313085Y-86448500D01*
X158526915Y-86448500D01*
X158526916Y-86448500D01*
X158738116Y-86415049D01*
X158941483Y-86348972D01*
X159132009Y-86251894D01*
X159305004Y-86126206D01*
X159456206Y-85975004D01*
X159581894Y-85802009D01*
X159678972Y-85611483D01*
X159745049Y-85408116D01*
X159778500Y-85196916D01*
X159778500Y-84983084D01*
X159745049Y-84771884D01*
X159688529Y-84597931D01*
X159678973Y-84568519D01*
X159678972Y-84568516D01*
X159623538Y-84459722D01*
X159581894Y-84377991D01*
X159456206Y-84204996D01*
X159305004Y-84053794D01*
X159132009Y-83928106D01*
X159132005Y-83928103D01*
X159128132Y-83925730D01*
X159081254Y-83873920D01*
X159069829Y-83804991D01*
X159097483Y-83740827D01*
X159128132Y-83714270D01*
X159132005Y-83711896D01*
X159132004Y-83711896D01*
X159132009Y-83711894D01*
X159305004Y-83586206D01*
X159456206Y-83435004D01*
X159581894Y-83262009D01*
X159636089Y-83155644D01*
X159684064Y-83104849D01*
X159751885Y-83088054D01*
X159818019Y-83110591D01*
X159834255Y-83124259D01*
X160621613Y-83911618D01*
X160625950Y-83919562D01*
X160633198Y-83924987D01*
X160642434Y-83949749D01*
X160655098Y-83972941D01*
X160654452Y-83981969D01*
X160657616Y-83990451D01*
X160651999Y-84016272D01*
X160650114Y-84042633D01*
X160644295Y-84051686D01*
X160642765Y-84058724D01*
X160621615Y-84086979D01*
X160556168Y-84152428D01*
X160556166Y-84152429D01*
X160467931Y-84240663D01*
X160467928Y-84240667D01*
X160398603Y-84344418D01*
X160398598Y-84344427D01*
X160350845Y-84459714D01*
X160350843Y-84459722D01*
X160326500Y-84582101D01*
X160326500Y-96182116D01*
X160306815Y-96249155D01*
X160258796Y-96292600D01*
X160247993Y-96298104D01*
X160074993Y-96423796D01*
X159923796Y-96574993D01*
X159798105Y-96747991D01*
X159795727Y-96751873D01*
X159743914Y-96798748D01*
X159674984Y-96810169D01*
X159610822Y-96782512D01*
X159584273Y-96751873D01*
X159581894Y-96747991D01*
X159509621Y-96648516D01*
X159456206Y-96574996D01*
X159305004Y-96423794D01*
X159132009Y-96298106D01*
X159067159Y-96265063D01*
X158941483Y-96201027D01*
X158941480Y-96201026D01*
X158738117Y-96134951D01*
X158632516Y-96118225D01*
X158526916Y-96101500D01*
X158313084Y-96101500D01*
X158242684Y-96112650D01*
X158101882Y-96134951D01*
X157898519Y-96201026D01*
X157898516Y-96201027D01*
X157707990Y-96298106D01*
X157534993Y-96423796D01*
X157383796Y-96574993D01*
X157258105Y-96747991D01*
X157255727Y-96751873D01*
X157203914Y-96798748D01*
X157134984Y-96810169D01*
X157070822Y-96782512D01*
X157044273Y-96751873D01*
X157041894Y-96747991D01*
X156969621Y-96648516D01*
X156916206Y-96574996D01*
X156765004Y-96423794D01*
X156592009Y-96298106D01*
X156527159Y-96265063D01*
X156401483Y-96201027D01*
X156401480Y-96201026D01*
X156198117Y-96134951D01*
X156092516Y-96118225D01*
X155986916Y-96101500D01*
X155773084Y-96101500D01*
X155702684Y-96112650D01*
X155561882Y-96134951D01*
X155358519Y-96201026D01*
X155358516Y-96201027D01*
X155167990Y-96298106D01*
X154994993Y-96423796D01*
X154843796Y-96574993D01*
X154718105Y-96747991D01*
X154715727Y-96751873D01*
X154663914Y-96798748D01*
X154594984Y-96810169D01*
X154530822Y-96782512D01*
X154504273Y-96751873D01*
X154501894Y-96747991D01*
X154429621Y-96648516D01*
X154376206Y-96574996D01*
X154225004Y-96423794D01*
X154052009Y-96298106D01*
X153987159Y-96265063D01*
X153861483Y-96201027D01*
X153861480Y-96201026D01*
X153658117Y-96134951D01*
X153552516Y-96118225D01*
X153446916Y-96101500D01*
X153233084Y-96101500D01*
X153162684Y-96112650D01*
X153021882Y-96134951D01*
X152818519Y-96201026D01*
X152818516Y-96201027D01*
X152627990Y-96298106D01*
X152454997Y-96423793D01*
X152349818Y-96528972D01*
X152288495Y-96562456D01*
X152218803Y-96557472D01*
X152162870Y-96515600D01*
X152145958Y-96484629D01*
X152100889Y-96363796D01*
X152013261Y-96246739D01*
X151896204Y-96159111D01*
X151895172Y-96158726D01*
X151759203Y-96108011D01*
X151698654Y-96101500D01*
X151698638Y-96101500D01*
X149901362Y-96101500D01*
X149901345Y-96101500D01*
X149840797Y-96108011D01*
X149840795Y-96108011D01*
X149703795Y-96159111D01*
X149586739Y-96246739D01*
X149499111Y-96363795D01*
X149448011Y-96500795D01*
X149448011Y-96500797D01*
X149441500Y-96561345D01*
X149441500Y-98358654D01*
X149448011Y-98419202D01*
X149448011Y-98419204D01*
X149488778Y-98528500D01*
X149499111Y-98556204D01*
X149586739Y-98673261D01*
X149703796Y-98760889D01*
X149840799Y-98811989D01*
X149868050Y-98814918D01*
X149901345Y-98818499D01*
X149901362Y-98818500D01*
X151698638Y-98818500D01*
X151698654Y-98818499D01*
X151725692Y-98815591D01*
X151759201Y-98811989D01*
X151896204Y-98760889D01*
X152013261Y-98673261D01*
X152100889Y-98556204D01*
X152145957Y-98435371D01*
X152187827Y-98379442D01*
X152253291Y-98355025D01*
X152321564Y-98369877D01*
X152349818Y-98391028D01*
X152454996Y-98496206D01*
X152627991Y-98621894D01*
X152714542Y-98665994D01*
X152818516Y-98718972D01*
X152818519Y-98718973D01*
X152920200Y-98752010D01*
X153021884Y-98785049D01*
X153233084Y-98818500D01*
X153233085Y-98818500D01*
X153446915Y-98818500D01*
X153446916Y-98818500D01*
X153658116Y-98785049D01*
X153861483Y-98718972D01*
X154052009Y-98621894D01*
X154225004Y-98496206D01*
X154376206Y-98345004D01*
X154501894Y-98172009D01*
X154501896Y-98172004D01*
X154504270Y-98168132D01*
X154556080Y-98121254D01*
X154625009Y-98109829D01*
X154689173Y-98137483D01*
X154715730Y-98168132D01*
X154718103Y-98172005D01*
X154718106Y-98172009D01*
X154843794Y-98345004D01*
X154994996Y-98496206D01*
X155167991Y-98621894D01*
X155254542Y-98665994D01*
X155358516Y-98718972D01*
X155358519Y-98718973D01*
X155460200Y-98752010D01*
X155561884Y-98785049D01*
X155773084Y-98818500D01*
X155773085Y-98818500D01*
X155986915Y-98818500D01*
X155986916Y-98818500D01*
X156198116Y-98785049D01*
X156401483Y-98718972D01*
X156592009Y-98621894D01*
X156765004Y-98496206D01*
X156916206Y-98345004D01*
X157041894Y-98172009D01*
X157041896Y-98172004D01*
X157044270Y-98168132D01*
X157096080Y-98121254D01*
X157165009Y-98109829D01*
X157229173Y-98137483D01*
X157255730Y-98168132D01*
X157258103Y-98172005D01*
X157258106Y-98172009D01*
X157383794Y-98345004D01*
X157534996Y-98496206D01*
X157707991Y-98621894D01*
X157794542Y-98665994D01*
X157898516Y-98718972D01*
X157898519Y-98718973D01*
X158000200Y-98752010D01*
X158101884Y-98785049D01*
X158313084Y-98818500D01*
X158313085Y-98818500D01*
X158526915Y-98818500D01*
X158526916Y-98818500D01*
X158738116Y-98785049D01*
X158941483Y-98718972D01*
X159132009Y-98621894D01*
X159305004Y-98496206D01*
X159456206Y-98345004D01*
X159581894Y-98172009D01*
X159581896Y-98172004D01*
X159584270Y-98168132D01*
X159636080Y-98121254D01*
X159705009Y-98109829D01*
X159769173Y-98137483D01*
X159795730Y-98168132D01*
X159798103Y-98172005D01*
X159798106Y-98172009D01*
X159923794Y-98345004D01*
X160074996Y-98496206D01*
X160247991Y-98621894D01*
X160334542Y-98665994D01*
X160438516Y-98718972D01*
X160438519Y-98718973D01*
X160540200Y-98752010D01*
X160641884Y-98785049D01*
X160853084Y-98818500D01*
X160853085Y-98818500D01*
X161066915Y-98818500D01*
X161066916Y-98818500D01*
X161278116Y-98785049D01*
X161481483Y-98718972D01*
X161672009Y-98621894D01*
X161845004Y-98496206D01*
X161996206Y-98345004D01*
X162121894Y-98172009D01*
X162121896Y-98172004D01*
X162124270Y-98168132D01*
X162176080Y-98121254D01*
X162245009Y-98109829D01*
X162309173Y-98137483D01*
X162335730Y-98168132D01*
X162338103Y-98172005D01*
X162338106Y-98172009D01*
X162463794Y-98345004D01*
X162614996Y-98496206D01*
X162787991Y-98621894D01*
X162874542Y-98665994D01*
X162978516Y-98718972D01*
X162978519Y-98718973D01*
X163080200Y-98752010D01*
X163181884Y-98785049D01*
X163393084Y-98818500D01*
X163393085Y-98818500D01*
X163606915Y-98818500D01*
X163606916Y-98818500D01*
X163818116Y-98785049D01*
X164021483Y-98718972D01*
X164212009Y-98621894D01*
X164385004Y-98496206D01*
X164536206Y-98345004D01*
X164661894Y-98172009D01*
X164758972Y-97981483D01*
X164825049Y-97778116D01*
X164858500Y-97566916D01*
X164858500Y-97353084D01*
X164825049Y-97141884D01*
X164779301Y-97001085D01*
X164758973Y-96938519D01*
X164758972Y-96938516D01*
X164687756Y-96798748D01*
X164661894Y-96747991D01*
X164536206Y-96574996D01*
X164385004Y-96423794D01*
X164212009Y-96298106D01*
X164212008Y-96298105D01*
X164212006Y-96298104D01*
X164201204Y-96292600D01*
X164150408Y-96244625D01*
X164133500Y-96182116D01*
X164133500Y-92254038D01*
X164439500Y-92254038D01*
X164439500Y-92505962D01*
X164460159Y-92636396D01*
X164478910Y-92754785D01*
X164556760Y-92994383D01*
X164620389Y-93119261D01*
X164665038Y-93206889D01*
X164671132Y-93218848D01*
X164819201Y-93422649D01*
X164819205Y-93422654D01*
X164997345Y-93600794D01*
X164997350Y-93600798D01*
X165051057Y-93639818D01*
X165201155Y-93748870D01*
X165337388Y-93818284D01*
X165425616Y-93863239D01*
X165425618Y-93863239D01*
X165425621Y-93863241D01*
X165665215Y-93941090D01*
X165914038Y-93980500D01*
X165914039Y-93980500D01*
X166165961Y-93980500D01*
X166165962Y-93980500D01*
X166414785Y-93941090D01*
X166654379Y-93863241D01*
X166878845Y-93748870D01*
X167082656Y-93600793D01*
X167260793Y-93422656D01*
X167408870Y-93218845D01*
X167523241Y-92994379D01*
X167601090Y-92754785D01*
X167640500Y-92505962D01*
X167640500Y-92254038D01*
X167601090Y-92005215D01*
X167523241Y-91765621D01*
X167523239Y-91765618D01*
X167523239Y-91765616D01*
X167474316Y-91669600D01*
X167408870Y-91541155D01*
X167339241Y-91445318D01*
X167260798Y-91337350D01*
X167260794Y-91337345D01*
X167082654Y-91159205D01*
X167082649Y-91159201D01*
X166878848Y-91011132D01*
X166878847Y-91011131D01*
X166878845Y-91011130D01*
X166808747Y-90975413D01*
X166654383Y-90896760D01*
X166414785Y-90818910D01*
X166400996Y-90816726D01*
X166165962Y-90779500D01*
X165914038Y-90779500D01*
X165789626Y-90799205D01*
X165665214Y-90818910D01*
X165425616Y-90896760D01*
X165201151Y-91011132D01*
X164997350Y-91159201D01*
X164997345Y-91159205D01*
X164819205Y-91337345D01*
X164819201Y-91337350D01*
X164671132Y-91541151D01*
X164556760Y-91765616D01*
X164478910Y-92005214D01*
X164472207Y-92047535D01*
X164439500Y-92254038D01*
X164133500Y-92254038D01*
X164133500Y-85433766D01*
X164153185Y-85366727D01*
X164169819Y-85346085D01*
X165886085Y-83629819D01*
X165947408Y-83596334D01*
X165973766Y-83593500D01*
X166355819Y-83593500D01*
X166355826Y-83593500D01*
X166488732Y-83576002D01*
X166615899Y-83541927D01*
X166707006Y-83504189D01*
X166739734Y-83490633D01*
X166739737Y-83490631D01*
X166739743Y-83490629D01*
X166853757Y-83424803D01*
X166960106Y-83343198D01*
X166960110Y-83343193D01*
X166960115Y-83343190D01*
X167053190Y-83250115D01*
X167053193Y-83250110D01*
X167053198Y-83250106D01*
X167134803Y-83143757D01*
X167200629Y-83029743D01*
X167251927Y-82905899D01*
X167286002Y-82778732D01*
X167300935Y-82665303D01*
X167329202Y-82601409D01*
X167336168Y-82593835D01*
X167648372Y-82281633D01*
X167717701Y-82177875D01*
X167765455Y-82062585D01*
X167765481Y-82062458D01*
X167789799Y-81940198D01*
X167789800Y-81940195D01*
X167789800Y-77271905D01*
X167789799Y-77271901D01*
X167765455Y-77149515D01*
X167717700Y-77034225D01*
X167717699Y-77034224D01*
X167717696Y-77034218D01*
X167648372Y-76930468D01*
X167648371Y-76930467D01*
X167560133Y-76842229D01*
X164141570Y-73423666D01*
X160545836Y-69827931D01*
X160545832Y-69827928D01*
X160442081Y-69758603D01*
X160442072Y-69758598D01*
X160326785Y-69710845D01*
X160326777Y-69710843D01*
X160204398Y-69686500D01*
X160204394Y-69686500D01*
X159463360Y-69686500D01*
X159396321Y-69666815D01*
X159350566Y-69614011D01*
X159340622Y-69544853D01*
X159369647Y-69481297D01*
X159375679Y-69474819D01*
X159390830Y-69459668D01*
X159418068Y-69432430D01*
X159539129Y-69265803D01*
X159632634Y-69082290D01*
X159696280Y-68886408D01*
X159728500Y-68682981D01*
X159728500Y-68477019D01*
X159719132Y-68417870D01*
X159696280Y-68273591D01*
X159644598Y-68114532D01*
X159632634Y-68077710D01*
X159632632Y-68077707D01*
X159632632Y-68077705D01*
X159583924Y-67982112D01*
X159539129Y-67894197D01*
X159521186Y-67869501D01*
X159418073Y-67727576D01*
X159418069Y-67727571D01*
X159272428Y-67581930D01*
X159272423Y-67581926D01*
X159101862Y-67458007D01*
X159102902Y-67456575D01*
X159085862Y-67437740D01*
X159062931Y-67413975D01*
X159062015Y-67411378D01*
X159061138Y-67410409D01*
X159051190Y-67380691D01*
X159040883Y-67328874D01*
X159038500Y-67304683D01*
X159038500Y-65651114D01*
X159058185Y-65584075D01*
X159098351Y-65544996D01*
X159120155Y-65531816D01*
X159241816Y-65410155D01*
X159330827Y-65262913D01*
X159382013Y-65098649D01*
X159388500Y-65027265D01*
X159388499Y-64512736D01*
X159388499Y-64512735D01*
X159388499Y-64512727D01*
X159382014Y-64441354D01*
X159382011Y-64441344D01*
X159352319Y-64346056D01*
X159342342Y-64314038D01*
X164439500Y-64314038D01*
X164439500Y-64565961D01*
X164478910Y-64814785D01*
X164556760Y-65054383D01*
X164590550Y-65120698D01*
X164663012Y-65262913D01*
X164671132Y-65278848D01*
X164819201Y-65482649D01*
X164819205Y-65482654D01*
X164997345Y-65660794D01*
X164997350Y-65660798D01*
X165175117Y-65789952D01*
X165201155Y-65808870D01*
X165344184Y-65881747D01*
X165425616Y-65923239D01*
X165425618Y-65923239D01*
X165425621Y-65923241D01*
X165665215Y-66001090D01*
X165914038Y-66040500D01*
X165914039Y-66040500D01*
X166165961Y-66040500D01*
X166165962Y-66040500D01*
X166414785Y-66001090D01*
X166654379Y-65923241D01*
X166878845Y-65808870D01*
X167082656Y-65660793D01*
X167260793Y-65482656D01*
X167408870Y-65278845D01*
X167523241Y-65054379D01*
X167601090Y-64814785D01*
X167640500Y-64565962D01*
X167640500Y-64314038D01*
X167601090Y-64065215D01*
X167523241Y-63825621D01*
X167523239Y-63825618D01*
X167523239Y-63825616D01*
X167481747Y-63744184D01*
X167408870Y-63601155D01*
X167298073Y-63448655D01*
X167260798Y-63397350D01*
X167260794Y-63397345D01*
X167082654Y-63219205D01*
X167082649Y-63219201D01*
X166878848Y-63071132D01*
X166878847Y-63071131D01*
X166878845Y-63071130D01*
X166808747Y-63035413D01*
X166654383Y-62956760D01*
X166414785Y-62878910D01*
X166312667Y-62862736D01*
X166165962Y-62839500D01*
X165914038Y-62839500D01*
X165789626Y-62859205D01*
X165665214Y-62878910D01*
X165425616Y-62956760D01*
X165201151Y-63071132D01*
X164997350Y-63219201D01*
X164997345Y-63219205D01*
X164819205Y-63397345D01*
X164819201Y-63397350D01*
X164671132Y-63601151D01*
X164556760Y-63825616D01*
X164478910Y-64065214D01*
X164439500Y-64314038D01*
X159342342Y-64314038D01*
X159330828Y-64277090D01*
X159330827Y-64277089D01*
X159330827Y-64277087D01*
X159241816Y-64129845D01*
X159241814Y-64129843D01*
X159241813Y-64129841D01*
X159144653Y-64032681D01*
X159111168Y-63971358D01*
X159116152Y-63901666D01*
X159144653Y-63857319D01*
X159241812Y-63760159D01*
X159241813Y-63760158D01*
X159241816Y-63760155D01*
X159330827Y-63612913D01*
X159382013Y-63448649D01*
X159388500Y-63377265D01*
X159388499Y-62862736D01*
X159388499Y-62862735D01*
X159388499Y-62862727D01*
X159382014Y-62791354D01*
X159382011Y-62791344D01*
X159330828Y-62627090D01*
X159330827Y-62627089D01*
X159330827Y-62627087D01*
X159241816Y-62479845D01*
X159241814Y-62479843D01*
X159241813Y-62479841D01*
X159120156Y-62358184D01*
X159113345Y-62354067D01*
X159066160Y-62302537D01*
X159053500Y-62247953D01*
X159053500Y-61362030D01*
X159073185Y-61294991D01*
X159125989Y-61249236D01*
X159138492Y-61244325D01*
X159196329Y-61225161D01*
X159345998Y-61132844D01*
X159470344Y-61008498D01*
X159562661Y-60858829D01*
X159617974Y-60691904D01*
X159628500Y-60588875D01*
X159628499Y-60001126D01*
X159617974Y-59898096D01*
X159562661Y-59731171D01*
X159470344Y-59581502D01*
X159345998Y-59457156D01*
X159196329Y-59364839D01*
X159196327Y-59364838D01*
X159196324Y-59364837D01*
X159029401Y-59309525D01*
X159029402Y-59309525D01*
X158926375Y-59299000D01*
X157913632Y-59299000D01*
X157913616Y-59299001D01*
X157810594Y-59309526D01*
X157643673Y-59364838D01*
X157643668Y-59364840D01*
X157494000Y-59457157D01*
X157369657Y-59581500D01*
X157277340Y-59731168D01*
X157277338Y-59731173D01*
X157267706Y-59760243D01*
X157227934Y-59817688D01*
X157163418Y-59844511D01*
X157094642Y-59832196D01*
X157043442Y-59784653D01*
X157032294Y-59760243D01*
X157022662Y-59731175D01*
X157022661Y-59731171D01*
X156930344Y-59581502D01*
X156805998Y-59457156D01*
X156656329Y-59364839D01*
X156656327Y-59364838D01*
X156656324Y-59364837D01*
X156489401Y-59309525D01*
X156489402Y-59309525D01*
X156386375Y-59299000D01*
X155373632Y-59299000D01*
X155373616Y-59299001D01*
X155270594Y-59309526D01*
X155103673Y-59364838D01*
X155103668Y-59364840D01*
X154954000Y-59457157D01*
X154829657Y-59581500D01*
X154737340Y-59731168D01*
X154737338Y-59731173D01*
X154727706Y-59760243D01*
X154687934Y-59817688D01*
X154623418Y-59844511D01*
X154554642Y-59832196D01*
X154503442Y-59784653D01*
X154492294Y-59760243D01*
X154482662Y-59731175D01*
X154482661Y-59731171D01*
X154390344Y-59581502D01*
X154265998Y-59457156D01*
X154116329Y-59364839D01*
X154116327Y-59364838D01*
X154116324Y-59364837D01*
X153949401Y-59309525D01*
X153949402Y-59309525D01*
X153846375Y-59299000D01*
X152833632Y-59299000D01*
X152833616Y-59299001D01*
X152730594Y-59309526D01*
X152563673Y-59364838D01*
X152563668Y-59364840D01*
X152414000Y-59457157D01*
X152289657Y-59581500D01*
X152197340Y-59731168D01*
X152197338Y-59731173D01*
X152187706Y-59760243D01*
X152147934Y-59817688D01*
X152083418Y-59844511D01*
X152014642Y-59832196D01*
X151963442Y-59784653D01*
X151952294Y-59760243D01*
X151942662Y-59731175D01*
X151942661Y-59731171D01*
X151850344Y-59581502D01*
X151725998Y-59457156D01*
X151576329Y-59364839D01*
X151576327Y-59364838D01*
X151576324Y-59364837D01*
X151409401Y-59309525D01*
X151409402Y-59309525D01*
X151306375Y-59299000D01*
X150293632Y-59299000D01*
X150293616Y-59299001D01*
X150190594Y-59309526D01*
X150023673Y-59364838D01*
X150023668Y-59364840D01*
X149874000Y-59457157D01*
X149749657Y-59581500D01*
X149657340Y-59731168D01*
X149657338Y-59731173D01*
X149647706Y-59760243D01*
X149607934Y-59817688D01*
X149543418Y-59844511D01*
X149474642Y-59832196D01*
X149423442Y-59784653D01*
X149412294Y-59760243D01*
X149402662Y-59731175D01*
X149402661Y-59731171D01*
X149310344Y-59581502D01*
X149185998Y-59457156D01*
X149036329Y-59364839D01*
X149036327Y-59364838D01*
X149036324Y-59364837D01*
X148869401Y-59309525D01*
X148869402Y-59309525D01*
X148766375Y-59299000D01*
X147753632Y-59299000D01*
X147753616Y-59299001D01*
X147650594Y-59309526D01*
X147483673Y-59364838D01*
X147483668Y-59364840D01*
X147334000Y-59457157D01*
X147209657Y-59581500D01*
X147117340Y-59731168D01*
X147117338Y-59731173D01*
X147107706Y-59760243D01*
X147067934Y-59817688D01*
X147003418Y-59844511D01*
X146934642Y-59832196D01*
X146883442Y-59784653D01*
X146872294Y-59760243D01*
X146862662Y-59731175D01*
X146862661Y-59731171D01*
X146770344Y-59581502D01*
X146645998Y-59457156D01*
X146496329Y-59364839D01*
X146496327Y-59364838D01*
X146496324Y-59364837D01*
X146329401Y-59309525D01*
X146329402Y-59309525D01*
X146226375Y-59299000D01*
X145213632Y-59299000D01*
X145213616Y-59299001D01*
X145110594Y-59309526D01*
X144943673Y-59364838D01*
X144943668Y-59364840D01*
X144794000Y-59457157D01*
X144669657Y-59581500D01*
X144577340Y-59731168D01*
X144577338Y-59731173D01*
X144567706Y-59760243D01*
X144527934Y-59817688D01*
X144463418Y-59844511D01*
X144394642Y-59832196D01*
X144343442Y-59784653D01*
X144332294Y-59760243D01*
X144322662Y-59731175D01*
X144322661Y-59731171D01*
X144230344Y-59581502D01*
X144105998Y-59457156D01*
X143956329Y-59364839D01*
X143956327Y-59364838D01*
X143956324Y-59364837D01*
X143789401Y-59309525D01*
X143789402Y-59309525D01*
X143686375Y-59299000D01*
X142673632Y-59299000D01*
X142673616Y-59299001D01*
X142570594Y-59309526D01*
X142403673Y-59364838D01*
X142403668Y-59364840D01*
X142254000Y-59457157D01*
X142129657Y-59581500D01*
X142037340Y-59731168D01*
X142037338Y-59731173D01*
X142027706Y-59760243D01*
X141987934Y-59817688D01*
X141923418Y-59844511D01*
X141854642Y-59832196D01*
X141803442Y-59784653D01*
X141792294Y-59760243D01*
X141782662Y-59731175D01*
X141782661Y-59731171D01*
X141690344Y-59581502D01*
X141565998Y-59457156D01*
X141416329Y-59364839D01*
X141416327Y-59364838D01*
X141416324Y-59364837D01*
X141249401Y-59309525D01*
X141249402Y-59309525D01*
X141146375Y-59299000D01*
X140133632Y-59299000D01*
X140133616Y-59299001D01*
X140030594Y-59309526D01*
X139863673Y-59364838D01*
X139863668Y-59364840D01*
X139714000Y-59457157D01*
X139589657Y-59581500D01*
X139497340Y-59731168D01*
X139497337Y-59731175D01*
X139442025Y-59898097D01*
X139431500Y-60001117D01*
X139431500Y-60588867D01*
X139431501Y-60588883D01*
X139442026Y-60691902D01*
X139442026Y-60691904D01*
X139497339Y-60858829D01*
X139589656Y-61008498D01*
X139714002Y-61132844D01*
X139863671Y-61225161D01*
X139921503Y-61244324D01*
X139978948Y-61284096D01*
X140005772Y-61348612D01*
X140006500Y-61362030D01*
X140006500Y-62229817D01*
X139986815Y-62296856D01*
X139946652Y-62335933D01*
X139909841Y-62358186D01*
X139788186Y-62479841D01*
X139699173Y-62627086D01*
X139647986Y-62791354D01*
X139641500Y-62862737D01*
X139641500Y-63377272D01*
X139647985Y-63448645D01*
X139647988Y-63448655D01*
X139699171Y-63612909D01*
X139788186Y-63760158D01*
X139885347Y-63857319D01*
X139918832Y-63918642D01*
X139913848Y-63988334D01*
X139885347Y-64032681D01*
X139788187Y-64129840D01*
X139788186Y-64129841D01*
X139699173Y-64277086D01*
X139647986Y-64441354D01*
X139641500Y-64512737D01*
X139641500Y-65027272D01*
X139647985Y-65098645D01*
X139647988Y-65098655D01*
X139699171Y-65262909D01*
X139699172Y-65262911D01*
X139699173Y-65262913D01*
X139788184Y-65410155D01*
X139909845Y-65531816D01*
X139931648Y-65544996D01*
X139978836Y-65596522D01*
X139991500Y-65651114D01*
X139991500Y-67370587D01*
X139971815Y-67437626D01*
X139940385Y-67470905D01*
X139787576Y-67581926D01*
X139787571Y-67581930D01*
X139641930Y-67727571D01*
X139641926Y-67727576D01*
X139520873Y-67894193D01*
X139427367Y-68077705D01*
X139363719Y-68273591D01*
X139331500Y-68477019D01*
X139331500Y-68682981D01*
X139339475Y-68733331D01*
X139363719Y-68886403D01*
X139363719Y-68886408D01*
X139427367Y-69082294D01*
X139520873Y-69265806D01*
X139641926Y-69432423D01*
X139641930Y-69432428D01*
X139684321Y-69474819D01*
X139717806Y-69536142D01*
X139712822Y-69605834D01*
X139670950Y-69661767D01*
X139605486Y-69686184D01*
X139596640Y-69686500D01*
X138394764Y-69686500D01*
X138327725Y-69666815D01*
X138281970Y-69614011D01*
X138273147Y-69586691D01*
X138247881Y-69459676D01*
X138247880Y-69459669D01*
X138186933Y-69312532D01*
X138102749Y-69186541D01*
X138098454Y-69180112D01*
X138098448Y-69180105D01*
X137985844Y-69067501D01*
X137985837Y-69067495D01*
X137853419Y-68979017D01*
X137706281Y-68918070D01*
X137706273Y-68918068D01*
X137550084Y-68887000D01*
X137550080Y-68887000D01*
X137390820Y-68887000D01*
X137390815Y-68887000D01*
X137234626Y-68918068D01*
X137234618Y-68918070D01*
X137087482Y-68979016D01*
X137050357Y-69003822D01*
X137032727Y-69015602D01*
X136966052Y-69036480D01*
X136963838Y-69036500D01*
X136647500Y-69036500D01*
X136580461Y-69016815D01*
X136534706Y-68964011D01*
X136523500Y-68912500D01*
X136523500Y-68746362D01*
X136523499Y-68746345D01*
X136520157Y-68715270D01*
X136516989Y-68685799D01*
X136465889Y-68548796D01*
X136378261Y-68431739D01*
X136261204Y-68344111D01*
X136124203Y-68293011D01*
X136063654Y-68286500D01*
X136063638Y-68286500D01*
X134508765Y-68286500D01*
X134441726Y-68266815D01*
X134395971Y-68214011D01*
X134386027Y-68144853D01*
X134415052Y-68081297D01*
X134421084Y-68074819D01*
X134877274Y-67618630D01*
X135436085Y-67059819D01*
X135497408Y-67026334D01*
X135523766Y-67023500D01*
X135833867Y-67023500D01*
X135833872Y-67023500D01*
X135934336Y-67013236D01*
X136097101Y-66959302D01*
X136243040Y-66869285D01*
X136364285Y-66748040D01*
X136454302Y-66602101D01*
X136508236Y-66439336D01*
X136518500Y-66338872D01*
X136518500Y-65741128D01*
X136508236Y-65640664D01*
X136454302Y-65477899D01*
X136454298Y-65477893D01*
X136454297Y-65477890D01*
X136364287Y-65331963D01*
X136364284Y-65331959D01*
X136243040Y-65210715D01*
X136243036Y-65210712D01*
X136097109Y-65120702D01*
X136097103Y-65120699D01*
X136097101Y-65120698D01*
X135934336Y-65066764D01*
X135833879Y-65056500D01*
X135833872Y-65056500D01*
X135286128Y-65056500D01*
X135286120Y-65056500D01*
X135185663Y-65066764D01*
X135022901Y-65120697D01*
X135022890Y-65120702D01*
X134876963Y-65210712D01*
X134876959Y-65210715D01*
X134755715Y-65331959D01*
X134755712Y-65331963D01*
X134665702Y-65477890D01*
X134665697Y-65477901D01*
X134611764Y-65640663D01*
X134601500Y-65741120D01*
X134601500Y-66051234D01*
X134581815Y-66118273D01*
X134565181Y-66138915D01*
X133085467Y-67618629D01*
X133041347Y-67662749D01*
X132997227Y-67706868D01*
X132927903Y-67810618D01*
X132927898Y-67810627D01*
X132880145Y-67925914D01*
X132880143Y-67925922D01*
X132855800Y-68048301D01*
X132855800Y-71882098D01*
X132880143Y-72004482D01*
X132881652Y-72008123D01*
X132881873Y-72010185D01*
X132881914Y-72010318D01*
X132881888Y-72010325D01*
X132889120Y-72077593D01*
X132857844Y-72140072D01*
X132854771Y-72143256D01*
X131230481Y-73767547D01*
X131169158Y-73801032D01*
X131099466Y-73796048D01*
X131043533Y-73754176D01*
X131019116Y-73688712D01*
X131018800Y-73679866D01*
X131018800Y-70318205D01*
X131018799Y-70318201D01*
X130994456Y-70195822D01*
X130994455Y-70195815D01*
X130946700Y-70080525D01*
X130946699Y-70080524D01*
X130946696Y-70080518D01*
X130877372Y-69976768D01*
X130844242Y-69943638D01*
X130789133Y-69888529D01*
X130436746Y-69536142D01*
X130078536Y-69177931D01*
X130078532Y-69177928D01*
X129974781Y-69108603D01*
X129974770Y-69108597D01*
X129969055Y-69106230D01*
X129914654Y-69062387D01*
X129892592Y-68996091D01*
X129909874Y-68928393D01*
X129913411Y-68922780D01*
X129916558Y-68918070D01*
X129941683Y-68880468D01*
X130002630Y-68733331D01*
X130033700Y-68577130D01*
X130033700Y-68417870D01*
X130002630Y-68261669D01*
X129941683Y-68114532D01*
X129919476Y-68081297D01*
X129853204Y-67982112D01*
X129853198Y-67982105D01*
X129740594Y-67869501D01*
X129740587Y-67869495D01*
X129608169Y-67781017D01*
X129461031Y-67720070D01*
X129461023Y-67720068D01*
X129304834Y-67689000D01*
X129304830Y-67689000D01*
X129145570Y-67689000D01*
X129145565Y-67689000D01*
X128989376Y-67720068D01*
X128989368Y-67720070D01*
X128842230Y-67781017D01*
X128709812Y-67869495D01*
X128709805Y-67869501D01*
X128597201Y-67982105D01*
X128597195Y-67982112D01*
X128508717Y-68114530D01*
X128469192Y-68209953D01*
X128425351Y-68264356D01*
X128359057Y-68286421D01*
X128354631Y-68286500D01*
X127016345Y-68286500D01*
X126955797Y-68293011D01*
X126955795Y-68293011D01*
X126818795Y-68344111D01*
X126701739Y-68431739D01*
X126614111Y-68548795D01*
X126563011Y-68685795D01*
X126563011Y-68685797D01*
X126556500Y-68746345D01*
X126556500Y-69293644D01*
X126560596Y-69331748D01*
X126560596Y-69358252D01*
X126556500Y-69396355D01*
X126556500Y-69943644D01*
X126560596Y-69981748D01*
X126560596Y-70008252D01*
X126556500Y-70046355D01*
X126556500Y-70593644D01*
X126560596Y-70631748D01*
X126561276Y-70647739D01*
X126561159Y-70653015D01*
X126556500Y-70696362D01*
X126556500Y-70863881D01*
X126556470Y-70865239D01*
X126546281Y-70897299D01*
X126536815Y-70929539D01*
X126535740Y-70930470D01*
X126535309Y-70931828D01*
X126509391Y-70953301D01*
X126484011Y-70975294D01*
X126482433Y-70975637D01*
X126481507Y-70976405D01*
X126475623Y-70977118D01*
X126432500Y-70986500D01*
X107484102Y-70986500D01*
X107361719Y-71010843D01*
X107361714Y-71010845D01*
X107327948Y-71024829D01*
X107327949Y-71024830D01*
X107246426Y-71058598D01*
X107246422Y-71058600D01*
X107142671Y-71127924D01*
X107142663Y-71127930D01*
X104055415Y-74215181D01*
X103490767Y-74779829D01*
X103464596Y-74806000D01*
X103402527Y-74868068D01*
X103333203Y-74971818D01*
X103333198Y-74971827D01*
X103285445Y-75087114D01*
X103285443Y-75087122D01*
X103261100Y-75209501D01*
X103261100Y-90175160D01*
X103241415Y-90242199D01*
X103188611Y-90287954D01*
X103161292Y-90296777D01*
X103117220Y-90305543D01*
X103117214Y-90305545D01*
X103001927Y-90353298D01*
X103001913Y-90353306D01*
X102901690Y-90420273D01*
X102835013Y-90441151D01*
X102767633Y-90422666D01*
X102720943Y-90370687D01*
X102708800Y-90317171D01*
X102708800Y-68477019D01*
X103771500Y-68477019D01*
X103771500Y-68682981D01*
X103779475Y-68733331D01*
X103803719Y-68886403D01*
X103803719Y-68886408D01*
X103867367Y-69082294D01*
X103960873Y-69265806D01*
X104081926Y-69432423D01*
X104081930Y-69432428D01*
X104227571Y-69578069D01*
X104227576Y-69578073D01*
X104279600Y-69615870D01*
X104394197Y-69699129D01*
X104510911Y-69758598D01*
X104577705Y-69792632D01*
X104577707Y-69792632D01*
X104577710Y-69792634D01*
X104682707Y-69826749D01*
X104773591Y-69856280D01*
X104875305Y-69872390D01*
X104977019Y-69888500D01*
X104977020Y-69888500D01*
X105182980Y-69888500D01*
X105182981Y-69888500D01*
X105386408Y-69856280D01*
X105582290Y-69792634D01*
X105765803Y-69699129D01*
X105932430Y-69578068D01*
X106078068Y-69432430D01*
X106199129Y-69265803D01*
X106239515Y-69186540D01*
X106287490Y-69135745D01*
X106355311Y-69118950D01*
X106421446Y-69141487D01*
X106460485Y-69186541D01*
X106500873Y-69265806D01*
X106621926Y-69432423D01*
X106621930Y-69432428D01*
X106767571Y-69578069D01*
X106767576Y-69578073D01*
X106819600Y-69615870D01*
X106934197Y-69699129D01*
X107050911Y-69758598D01*
X107117705Y-69792632D01*
X107117707Y-69792632D01*
X107117710Y-69792634D01*
X107222707Y-69826749D01*
X107313591Y-69856280D01*
X107415305Y-69872390D01*
X107517019Y-69888500D01*
X107517020Y-69888500D01*
X107722980Y-69888500D01*
X107722981Y-69888500D01*
X107926408Y-69856280D01*
X108122290Y-69792634D01*
X108305803Y-69699129D01*
X108472430Y-69578068D01*
X108618068Y-69432430D01*
X108739129Y-69265803D01*
X108779515Y-69186540D01*
X108827490Y-69135745D01*
X108895311Y-69118950D01*
X108961446Y-69141487D01*
X109000485Y-69186541D01*
X109040873Y-69265806D01*
X109161926Y-69432423D01*
X109161930Y-69432428D01*
X109307571Y-69578069D01*
X109307576Y-69578073D01*
X109359600Y-69615870D01*
X109474197Y-69699129D01*
X109590911Y-69758598D01*
X109657705Y-69792632D01*
X109657707Y-69792632D01*
X109657710Y-69792634D01*
X109762707Y-69826749D01*
X109853591Y-69856280D01*
X109955305Y-69872390D01*
X110057019Y-69888500D01*
X110057020Y-69888500D01*
X110262980Y-69888500D01*
X110262981Y-69888500D01*
X110466408Y-69856280D01*
X110662290Y-69792634D01*
X110845803Y-69699129D01*
X111012430Y-69578068D01*
X111158068Y-69432430D01*
X111279129Y-69265803D01*
X111319515Y-69186540D01*
X111367490Y-69135745D01*
X111435311Y-69118950D01*
X111501446Y-69141487D01*
X111540485Y-69186541D01*
X111580873Y-69265806D01*
X111701926Y-69432423D01*
X111701930Y-69432428D01*
X111847571Y-69578069D01*
X111847576Y-69578073D01*
X111899600Y-69615870D01*
X112014197Y-69699129D01*
X112130911Y-69758598D01*
X112197705Y-69792632D01*
X112197707Y-69792632D01*
X112197710Y-69792634D01*
X112302707Y-69826749D01*
X112393591Y-69856280D01*
X112495305Y-69872390D01*
X112597019Y-69888500D01*
X112597020Y-69888500D01*
X112802980Y-69888500D01*
X112802981Y-69888500D01*
X113006408Y-69856280D01*
X113202290Y-69792634D01*
X113385803Y-69699129D01*
X113552430Y-69578068D01*
X113698068Y-69432430D01*
X113819129Y-69265803D01*
X113859515Y-69186540D01*
X113907490Y-69135745D01*
X113975311Y-69118950D01*
X114041446Y-69141487D01*
X114080485Y-69186541D01*
X114120873Y-69265806D01*
X114241926Y-69432423D01*
X114241930Y-69432428D01*
X114387571Y-69578069D01*
X114387576Y-69578073D01*
X114439600Y-69615870D01*
X114554197Y-69699129D01*
X114670911Y-69758598D01*
X114737705Y-69792632D01*
X114737707Y-69792632D01*
X114737710Y-69792634D01*
X114842707Y-69826749D01*
X114933591Y-69856280D01*
X115035305Y-69872390D01*
X115137019Y-69888500D01*
X115137020Y-69888500D01*
X115342980Y-69888500D01*
X115342981Y-69888500D01*
X115546408Y-69856280D01*
X115742290Y-69792634D01*
X115925803Y-69699129D01*
X116092430Y-69578068D01*
X116238068Y-69432430D01*
X116359129Y-69265803D01*
X116399515Y-69186540D01*
X116447490Y-69135745D01*
X116515311Y-69118950D01*
X116581446Y-69141487D01*
X116620485Y-69186541D01*
X116660873Y-69265806D01*
X116781926Y-69432423D01*
X116781930Y-69432428D01*
X116927571Y-69578069D01*
X116927576Y-69578073D01*
X116979600Y-69615870D01*
X117094197Y-69699129D01*
X117210911Y-69758598D01*
X117277705Y-69792632D01*
X117277707Y-69792632D01*
X117277710Y-69792634D01*
X117382707Y-69826749D01*
X117473591Y-69856280D01*
X117575305Y-69872390D01*
X117677019Y-69888500D01*
X117677020Y-69888500D01*
X117882980Y-69888500D01*
X117882981Y-69888500D01*
X118086408Y-69856280D01*
X118282290Y-69792634D01*
X118465803Y-69699129D01*
X118632430Y-69578068D01*
X118778068Y-69432430D01*
X118899129Y-69265803D01*
X118939515Y-69186540D01*
X118987490Y-69135745D01*
X119055311Y-69118950D01*
X119121446Y-69141487D01*
X119160485Y-69186541D01*
X119200873Y-69265806D01*
X119321926Y-69432423D01*
X119321930Y-69432428D01*
X119467571Y-69578069D01*
X119467576Y-69578073D01*
X119519600Y-69615870D01*
X119634197Y-69699129D01*
X119750911Y-69758598D01*
X119817705Y-69792632D01*
X119817707Y-69792632D01*
X119817710Y-69792634D01*
X119922707Y-69826749D01*
X120013591Y-69856280D01*
X120115305Y-69872390D01*
X120217019Y-69888500D01*
X120217020Y-69888500D01*
X120422980Y-69888500D01*
X120422981Y-69888500D01*
X120626408Y-69856280D01*
X120822290Y-69792634D01*
X121005803Y-69699129D01*
X121172430Y-69578068D01*
X121318068Y-69432430D01*
X121439129Y-69265803D01*
X121479515Y-69186540D01*
X121527490Y-69135745D01*
X121595311Y-69118950D01*
X121661446Y-69141487D01*
X121700485Y-69186541D01*
X121740873Y-69265806D01*
X121861926Y-69432423D01*
X121861930Y-69432428D01*
X122007571Y-69578069D01*
X122007576Y-69578073D01*
X122059600Y-69615870D01*
X122174197Y-69699129D01*
X122290911Y-69758598D01*
X122357705Y-69792632D01*
X122357707Y-69792632D01*
X122357710Y-69792634D01*
X122462707Y-69826749D01*
X122553591Y-69856280D01*
X122655305Y-69872390D01*
X122757019Y-69888500D01*
X122757020Y-69888500D01*
X122962980Y-69888500D01*
X122962981Y-69888500D01*
X123166408Y-69856280D01*
X123362290Y-69792634D01*
X123545803Y-69699129D01*
X123712430Y-69578068D01*
X123858068Y-69432430D01*
X123979129Y-69265803D01*
X124072634Y-69082290D01*
X124136280Y-68886408D01*
X124168500Y-68682981D01*
X124168500Y-68477019D01*
X124159132Y-68417870D01*
X124136280Y-68273591D01*
X124084598Y-68114532D01*
X124072634Y-68077710D01*
X124072632Y-68077707D01*
X124072632Y-68077705D01*
X124023924Y-67982112D01*
X123979129Y-67894197D01*
X123961186Y-67869501D01*
X123858073Y-67727576D01*
X123858069Y-67727571D01*
X123712428Y-67581930D01*
X123712423Y-67581926D01*
X123544615Y-67460007D01*
X123501949Y-67404677D01*
X123493500Y-67359689D01*
X123493500Y-65651114D01*
X123513185Y-65584075D01*
X123553351Y-65544996D01*
X123575155Y-65531816D01*
X123696816Y-65410155D01*
X123785827Y-65262913D01*
X123837013Y-65098649D01*
X123843500Y-65027265D01*
X123843499Y-64512736D01*
X123843499Y-64512735D01*
X123843499Y-64512727D01*
X123837014Y-64441354D01*
X123837011Y-64441344D01*
X123785828Y-64277090D01*
X123785827Y-64277089D01*
X123785827Y-64277087D01*
X123696816Y-64129845D01*
X123696814Y-64129843D01*
X123696813Y-64129841D01*
X123599653Y-64032681D01*
X123566168Y-63971358D01*
X123571152Y-63901666D01*
X123599653Y-63857319D01*
X123696812Y-63760159D01*
X123696813Y-63760158D01*
X123696816Y-63760155D01*
X123785827Y-63612913D01*
X123837013Y-63448649D01*
X123843500Y-63377265D01*
X123843499Y-62862736D01*
X123843499Y-62862735D01*
X123843499Y-62862727D01*
X123837014Y-62791354D01*
X123837011Y-62791344D01*
X123785828Y-62627090D01*
X123785827Y-62627089D01*
X123785827Y-62627087D01*
X123696816Y-62479845D01*
X123696814Y-62479843D01*
X123696813Y-62479841D01*
X123575156Y-62358184D01*
X123553347Y-62345000D01*
X123506161Y-62293471D01*
X123493500Y-62238885D01*
X123493500Y-61362030D01*
X123513185Y-61294991D01*
X123565989Y-61249236D01*
X123578492Y-61244325D01*
X123636329Y-61225161D01*
X123785998Y-61132844D01*
X123910344Y-61008498D01*
X124002661Y-60858829D01*
X124057974Y-60691904D01*
X124068500Y-60588875D01*
X124068499Y-60001126D01*
X124057974Y-59898096D01*
X124002661Y-59731171D01*
X123910344Y-59581502D01*
X123785998Y-59457156D01*
X123636329Y-59364839D01*
X123636327Y-59364838D01*
X123636324Y-59364837D01*
X123469401Y-59309525D01*
X123469402Y-59309525D01*
X123366375Y-59299000D01*
X122353632Y-59299000D01*
X122353616Y-59299001D01*
X122250594Y-59309526D01*
X122083673Y-59364838D01*
X122083668Y-59364840D01*
X121934000Y-59457157D01*
X121809657Y-59581500D01*
X121717340Y-59731168D01*
X121717338Y-59731173D01*
X121707706Y-59760243D01*
X121667934Y-59817688D01*
X121603418Y-59844511D01*
X121534642Y-59832196D01*
X121483442Y-59784653D01*
X121472294Y-59760243D01*
X121462662Y-59731175D01*
X121462661Y-59731171D01*
X121370344Y-59581502D01*
X121245998Y-59457156D01*
X121096329Y-59364839D01*
X121096327Y-59364838D01*
X121096324Y-59364837D01*
X120929401Y-59309525D01*
X120929402Y-59309525D01*
X120826375Y-59299000D01*
X119813632Y-59299000D01*
X119813616Y-59299001D01*
X119710594Y-59309526D01*
X119543673Y-59364838D01*
X119543668Y-59364840D01*
X119394000Y-59457157D01*
X119269657Y-59581500D01*
X119177340Y-59731168D01*
X119177338Y-59731173D01*
X119167706Y-59760243D01*
X119127934Y-59817688D01*
X119063418Y-59844511D01*
X118994642Y-59832196D01*
X118943442Y-59784653D01*
X118932294Y-59760243D01*
X118922662Y-59731175D01*
X118922661Y-59731171D01*
X118830344Y-59581502D01*
X118705998Y-59457156D01*
X118556329Y-59364839D01*
X118556327Y-59364838D01*
X118556324Y-59364837D01*
X118389401Y-59309525D01*
X118389402Y-59309525D01*
X118286375Y-59299000D01*
X117273632Y-59299000D01*
X117273616Y-59299001D01*
X117170594Y-59309526D01*
X117003673Y-59364838D01*
X117003668Y-59364840D01*
X116854000Y-59457157D01*
X116729657Y-59581500D01*
X116637340Y-59731168D01*
X116637338Y-59731173D01*
X116627706Y-59760243D01*
X116587934Y-59817688D01*
X116523418Y-59844511D01*
X116454642Y-59832196D01*
X116403442Y-59784653D01*
X116392294Y-59760243D01*
X116382662Y-59731175D01*
X116382661Y-59731171D01*
X116290344Y-59581502D01*
X116165998Y-59457156D01*
X116016329Y-59364839D01*
X116016327Y-59364838D01*
X116016324Y-59364837D01*
X115849401Y-59309525D01*
X115849402Y-59309525D01*
X115746375Y-59299000D01*
X114733632Y-59299000D01*
X114733616Y-59299001D01*
X114630594Y-59309526D01*
X114463673Y-59364838D01*
X114463668Y-59364840D01*
X114314000Y-59457157D01*
X114189657Y-59581500D01*
X114097340Y-59731168D01*
X114097338Y-59731173D01*
X114087706Y-59760243D01*
X114047934Y-59817688D01*
X113983418Y-59844511D01*
X113914642Y-59832196D01*
X113863442Y-59784653D01*
X113852294Y-59760243D01*
X113842662Y-59731175D01*
X113842661Y-59731171D01*
X113750344Y-59581502D01*
X113625998Y-59457156D01*
X113476329Y-59364839D01*
X113476327Y-59364838D01*
X113476324Y-59364837D01*
X113309401Y-59309525D01*
X113309402Y-59309525D01*
X113206375Y-59299000D01*
X112193632Y-59299000D01*
X112193616Y-59299001D01*
X112090594Y-59309526D01*
X111923673Y-59364838D01*
X111923668Y-59364840D01*
X111774000Y-59457157D01*
X111649657Y-59581500D01*
X111557340Y-59731168D01*
X111557338Y-59731173D01*
X111547706Y-59760243D01*
X111507934Y-59817688D01*
X111443418Y-59844511D01*
X111374642Y-59832196D01*
X111323442Y-59784653D01*
X111312294Y-59760243D01*
X111302662Y-59731175D01*
X111302661Y-59731171D01*
X111210344Y-59581502D01*
X111085998Y-59457156D01*
X110936329Y-59364839D01*
X110936327Y-59364838D01*
X110936324Y-59364837D01*
X110769401Y-59309525D01*
X110769402Y-59309525D01*
X110666375Y-59299000D01*
X109653632Y-59299000D01*
X109653616Y-59299001D01*
X109550594Y-59309526D01*
X109383673Y-59364838D01*
X109383668Y-59364840D01*
X109234000Y-59457157D01*
X109109657Y-59581500D01*
X109017340Y-59731168D01*
X109017338Y-59731173D01*
X109007706Y-59760243D01*
X108967934Y-59817688D01*
X108903418Y-59844511D01*
X108834642Y-59832196D01*
X108783442Y-59784653D01*
X108772294Y-59760243D01*
X108762662Y-59731175D01*
X108762661Y-59731171D01*
X108670344Y-59581502D01*
X108545998Y-59457156D01*
X108396329Y-59364839D01*
X108396327Y-59364838D01*
X108396324Y-59364837D01*
X108229401Y-59309525D01*
X108229402Y-59309525D01*
X108126375Y-59299000D01*
X107113632Y-59299000D01*
X107113616Y-59299001D01*
X107010594Y-59309526D01*
X106843673Y-59364838D01*
X106843668Y-59364840D01*
X106694000Y-59457157D01*
X106569657Y-59581500D01*
X106477340Y-59731168D01*
X106477338Y-59731173D01*
X106467706Y-59760243D01*
X106427934Y-59817688D01*
X106363418Y-59844511D01*
X106294642Y-59832196D01*
X106243442Y-59784653D01*
X106232294Y-59760243D01*
X106222662Y-59731175D01*
X106222661Y-59731171D01*
X106130344Y-59581502D01*
X106005998Y-59457156D01*
X105856329Y-59364839D01*
X105856327Y-59364838D01*
X105856324Y-59364837D01*
X105689401Y-59309525D01*
X105689402Y-59309525D01*
X105586375Y-59299000D01*
X104573632Y-59299000D01*
X104573616Y-59299001D01*
X104470594Y-59309526D01*
X104303673Y-59364838D01*
X104303668Y-59364840D01*
X104154000Y-59457157D01*
X104029657Y-59581500D01*
X103937340Y-59731168D01*
X103937337Y-59731175D01*
X103882025Y-59898097D01*
X103871500Y-60001117D01*
X103871500Y-60588867D01*
X103871501Y-60588883D01*
X103882026Y-60691902D01*
X103882026Y-60691904D01*
X103937339Y-60858829D01*
X104029656Y-61008498D01*
X104154002Y-61132844D01*
X104303671Y-61225161D01*
X104361503Y-61244324D01*
X104418948Y-61284096D01*
X104445772Y-61348612D01*
X104446500Y-61362030D01*
X104446500Y-62238885D01*
X104426815Y-62305924D01*
X104386653Y-62345000D01*
X104364843Y-62358184D01*
X104243186Y-62479841D01*
X104154173Y-62627086D01*
X104102986Y-62791354D01*
X104096500Y-62862737D01*
X104096500Y-63377272D01*
X104102985Y-63448645D01*
X104102988Y-63448655D01*
X104154171Y-63612909D01*
X104243186Y-63760158D01*
X104340347Y-63857319D01*
X104373832Y-63918642D01*
X104368848Y-63988334D01*
X104340347Y-64032681D01*
X104243187Y-64129840D01*
X104243186Y-64129841D01*
X104154173Y-64277086D01*
X104102986Y-64441354D01*
X104096500Y-64512737D01*
X104096500Y-65027272D01*
X104102985Y-65098645D01*
X104102988Y-65098655D01*
X104154171Y-65262909D01*
X104154172Y-65262911D01*
X104154173Y-65262913D01*
X104243184Y-65410155D01*
X104364845Y-65531816D01*
X104386648Y-65544996D01*
X104433836Y-65596522D01*
X104446500Y-65651114D01*
X104446500Y-67359689D01*
X104426815Y-67426728D01*
X104395385Y-67460007D01*
X104227576Y-67581926D01*
X104227571Y-67581930D01*
X104081930Y-67727571D01*
X104081926Y-67727576D01*
X103960873Y-67894193D01*
X103867367Y-68077705D01*
X103803719Y-68273591D01*
X103771500Y-68477019D01*
X102708800Y-68477019D01*
X102708800Y-58738466D01*
X102728485Y-58671427D01*
X102745119Y-58650785D01*
X113431286Y-47964619D01*
X113492609Y-47931134D01*
X113518967Y-47928300D01*
X113948889Y-47928300D01*
X114015928Y-47947985D01*
X114061683Y-48000789D01*
X114071627Y-48069947D01*
X114042602Y-48133503D01*
X114036570Y-48139981D01*
X114019205Y-48157345D01*
X114019201Y-48157350D01*
X113871132Y-48361151D01*
X113756760Y-48585616D01*
X113678910Y-48825214D01*
X113639500Y-49074038D01*
X113639500Y-49325961D01*
X113678910Y-49574785D01*
X113756760Y-49814383D01*
X113871132Y-50038848D01*
X114019201Y-50242649D01*
X114019205Y-50242654D01*
X114197345Y-50420794D01*
X114197350Y-50420798D01*
X114307587Y-50500889D01*
X114401155Y-50568870D01*
X114544184Y-50641747D01*
X114625616Y-50683239D01*
X114625618Y-50683239D01*
X114625621Y-50683241D01*
X114865215Y-50761090D01*
X115114038Y-50800500D01*
X115114039Y-50800500D01*
X115365961Y-50800500D01*
X115365962Y-50800500D01*
X115614785Y-50761090D01*
X115854379Y-50683241D01*
X116078845Y-50568870D01*
X116282656Y-50420793D01*
X116460793Y-50242656D01*
X116608870Y-50038845D01*
X116723241Y-49814379D01*
X116801090Y-49574785D01*
X116840500Y-49325962D01*
X116840500Y-49074038D01*
X116801090Y-48825215D01*
X116723241Y-48585621D01*
X116723239Y-48585618D01*
X116723239Y-48585616D01*
X116673496Y-48487991D01*
X116608870Y-48361155D01*
X116562602Y-48297472D01*
X116460798Y-48157350D01*
X116460794Y-48157345D01*
X116443430Y-48139981D01*
X116409945Y-48078658D01*
X116414929Y-48008966D01*
X116456801Y-47953033D01*
X116522265Y-47928616D01*
X116531111Y-47928300D01*
X117381974Y-47928300D01*
X117449013Y-47947985D01*
X117494768Y-48000789D01*
X117504712Y-48069947D01*
X117498155Y-48095635D01*
X117444011Y-48240795D01*
X117444011Y-48240797D01*
X117437500Y-48301345D01*
X117437500Y-50098654D01*
X117444011Y-50159202D01*
X117444011Y-50159204D01*
X117475138Y-50242656D01*
X117495111Y-50296204D01*
X117582739Y-50413261D01*
X117699796Y-50500889D01*
X117836799Y-50551989D01*
X117864050Y-50554918D01*
X117897345Y-50558499D01*
X117897362Y-50558500D01*
X119694638Y-50558500D01*
X119694654Y-50558499D01*
X119721692Y-50555591D01*
X119755201Y-50551989D01*
X119892204Y-50500889D01*
X120009261Y-50413261D01*
X120096889Y-50296204D01*
X120141957Y-50175371D01*
X120183827Y-50119442D01*
X120249291Y-50095025D01*
X120317564Y-50109877D01*
X120345818Y-50131028D01*
X120450996Y-50236206D01*
X120623991Y-50361894D01*
X120717438Y-50409507D01*
X120814516Y-50458972D01*
X120814519Y-50458973D01*
X120916200Y-50492010D01*
X121017884Y-50525049D01*
X121229084Y-50558500D01*
X121229085Y-50558500D01*
X121442915Y-50558500D01*
X121442916Y-50558500D01*
X121654116Y-50525049D01*
X121857483Y-50458972D01*
X122048009Y-50361894D01*
X122221004Y-50236206D01*
X122372206Y-50085004D01*
X122497894Y-49912009D01*
X122497896Y-49912004D01*
X122500270Y-49908132D01*
X122552080Y-49861254D01*
X122621009Y-49849829D01*
X122685173Y-49877483D01*
X122711730Y-49908132D01*
X122714103Y-49912005D01*
X122714106Y-49912009D01*
X122839794Y-50085004D01*
X122990996Y-50236206D01*
X123163991Y-50361894D01*
X123257438Y-50409507D01*
X123354516Y-50458972D01*
X123354519Y-50458973D01*
X123456200Y-50492010D01*
X123557884Y-50525049D01*
X123769084Y-50558500D01*
X123769085Y-50558500D01*
X123982915Y-50558500D01*
X123982916Y-50558500D01*
X124194116Y-50525049D01*
X124397483Y-50458972D01*
X124588009Y-50361894D01*
X124761004Y-50236206D01*
X124912206Y-50085004D01*
X125037894Y-49912009D01*
X125134972Y-49721483D01*
X125201049Y-49518116D01*
X125234500Y-49306916D01*
X125234500Y-49093084D01*
X125201049Y-48881884D01*
X125134972Y-48678517D01*
X125134972Y-48678516D01*
X125063756Y-48538748D01*
X125037894Y-48487991D01*
X124912206Y-48314996D01*
X124761004Y-48163794D01*
X124752128Y-48157345D01*
X124745621Y-48152617D01*
X124702955Y-48097287D01*
X124696977Y-48027674D01*
X124729584Y-47965879D01*
X124790423Y-47931522D01*
X124818507Y-47928300D01*
X128013493Y-47928300D01*
X128080532Y-47947985D01*
X128126287Y-48000789D01*
X128136231Y-48069947D01*
X128107206Y-48133503D01*
X128086379Y-48152617D01*
X128071002Y-48163789D01*
X128070993Y-48163796D01*
X127919796Y-48314993D01*
X127794106Y-48487990D01*
X127697027Y-48678516D01*
X127697026Y-48678519D01*
X127630951Y-48881882D01*
X127630951Y-48881884D01*
X127597500Y-49093084D01*
X127597500Y-49306916D01*
X127600517Y-49325962D01*
X127630951Y-49518117D01*
X127697026Y-49721480D01*
X127697027Y-49721483D01*
X127768245Y-49861254D01*
X127794106Y-49912009D01*
X127919794Y-50085004D01*
X128070996Y-50236206D01*
X128243991Y-50361894D01*
X128337438Y-50409507D01*
X128434516Y-50458972D01*
X128434519Y-50458973D01*
X128536200Y-50492010D01*
X128637884Y-50525049D01*
X128849084Y-50558500D01*
X128849085Y-50558500D01*
X129062915Y-50558500D01*
X129062916Y-50558500D01*
X129274116Y-50525049D01*
X129477483Y-50458972D01*
X129668009Y-50361894D01*
X129841004Y-50236206D01*
X129992206Y-50085004D01*
X130117894Y-49912009D01*
X130117896Y-49912004D01*
X130120270Y-49908132D01*
X130172080Y-49861254D01*
X130241009Y-49849829D01*
X130305173Y-49877483D01*
X130331730Y-49908132D01*
X130334103Y-49912005D01*
X130334106Y-49912009D01*
X130459794Y-50085004D01*
X130610996Y-50236206D01*
X130783991Y-50361894D01*
X130877438Y-50409507D01*
X130974516Y-50458972D01*
X130974519Y-50458973D01*
X131076200Y-50492010D01*
X131177884Y-50525049D01*
X131389084Y-50558500D01*
X131389085Y-50558500D01*
X131602915Y-50558500D01*
X131602916Y-50558500D01*
X131814116Y-50525049D01*
X132017483Y-50458972D01*
X132208009Y-50361894D01*
X132381004Y-50236206D01*
X132532206Y-50085004D01*
X132657894Y-49912009D01*
X132657896Y-49912004D01*
X132660270Y-49908132D01*
X132712080Y-49861254D01*
X132781009Y-49849829D01*
X132845173Y-49877483D01*
X132871730Y-49908132D01*
X132874103Y-49912005D01*
X132874106Y-49912009D01*
X132999794Y-50085004D01*
X133150996Y-50236206D01*
X133323991Y-50361894D01*
X133417438Y-50409507D01*
X133514516Y-50458972D01*
X133514519Y-50458973D01*
X133616200Y-50492010D01*
X133717884Y-50525049D01*
X133929084Y-50558500D01*
X133929085Y-50558500D01*
X134142915Y-50558500D01*
X134142916Y-50558500D01*
X134354116Y-50525049D01*
X134557483Y-50458972D01*
X134748009Y-50361894D01*
X134921004Y-50236206D01*
X135072206Y-50085004D01*
X135197894Y-49912009D01*
X135197896Y-49912004D01*
X135200270Y-49908132D01*
X135252080Y-49861254D01*
X135321009Y-49849829D01*
X135385173Y-49877483D01*
X135411730Y-49908132D01*
X135414103Y-49912005D01*
X135414106Y-49912009D01*
X135539794Y-50085004D01*
X135690996Y-50236206D01*
X135863991Y-50361894D01*
X135957438Y-50409507D01*
X136054516Y-50458972D01*
X136054519Y-50458973D01*
X136156200Y-50492010D01*
X136257884Y-50525049D01*
X136469084Y-50558500D01*
X136469085Y-50558500D01*
X136682915Y-50558500D01*
X136682916Y-50558500D01*
X136894116Y-50525049D01*
X137097483Y-50458972D01*
X137288009Y-50361894D01*
X137461004Y-50236206D01*
X137612206Y-50085004D01*
X137737894Y-49912009D01*
X137737896Y-49912004D01*
X137740270Y-49908132D01*
X137792080Y-49861254D01*
X137861009Y-49849829D01*
X137925173Y-49877483D01*
X137951730Y-49908132D01*
X137954103Y-49912005D01*
X137954106Y-49912009D01*
X138079794Y-50085004D01*
X138230996Y-50236206D01*
X138403991Y-50361894D01*
X138497438Y-50409507D01*
X138594516Y-50458972D01*
X138594519Y-50458973D01*
X138696200Y-50492010D01*
X138797884Y-50525049D01*
X139009084Y-50558500D01*
X139009085Y-50558500D01*
X139222915Y-50558500D01*
X139222916Y-50558500D01*
X139434116Y-50525049D01*
X139637483Y-50458972D01*
X139828009Y-50361894D01*
X140001004Y-50236206D01*
X140152206Y-50085004D01*
X140277894Y-49912009D01*
X140277896Y-49912004D01*
X140280270Y-49908132D01*
X140332080Y-49861254D01*
X140401009Y-49849829D01*
X140465173Y-49877483D01*
X140491730Y-49908132D01*
X140494103Y-49912005D01*
X140494106Y-49912009D01*
X140619794Y-50085004D01*
X140770996Y-50236206D01*
X140943991Y-50361894D01*
X141037438Y-50409507D01*
X141134516Y-50458972D01*
X141134519Y-50458973D01*
X141236200Y-50492010D01*
X141337884Y-50525049D01*
X141549084Y-50558500D01*
X141549085Y-50558500D01*
X141762915Y-50558500D01*
X141762916Y-50558500D01*
X141974116Y-50525049D01*
X142177483Y-50458972D01*
X142368009Y-50361894D01*
X142541004Y-50236206D01*
X142692206Y-50085004D01*
X142817894Y-49912009D01*
X142914972Y-49721483D01*
X142981049Y-49518116D01*
X143014500Y-49306916D01*
X143014500Y-49093084D01*
X142981049Y-48881884D01*
X142914972Y-48678517D01*
X142914972Y-48678516D01*
X142867639Y-48585621D01*
X142817894Y-48487991D01*
X142692206Y-48314996D01*
X142678555Y-48301345D01*
X144361500Y-48301345D01*
X144361500Y-50098654D01*
X144368011Y-50159202D01*
X144368011Y-50159204D01*
X144399138Y-50242656D01*
X144419111Y-50296204D01*
X144506739Y-50413261D01*
X144623796Y-50500889D01*
X144760799Y-50551989D01*
X144788050Y-50554918D01*
X144821345Y-50558499D01*
X144821362Y-50558500D01*
X146618638Y-50558500D01*
X146618654Y-50558499D01*
X146645692Y-50555591D01*
X146679201Y-50551989D01*
X146816204Y-50500889D01*
X146933261Y-50413261D01*
X147020889Y-50296204D01*
X147065957Y-50175371D01*
X147107827Y-50119442D01*
X147173291Y-50095025D01*
X147241564Y-50109877D01*
X147269818Y-50131028D01*
X147374996Y-50236206D01*
X147547991Y-50361894D01*
X147641438Y-50409507D01*
X147738516Y-50458972D01*
X147738519Y-50458973D01*
X147840200Y-50492010D01*
X147941884Y-50525049D01*
X148153084Y-50558500D01*
X148153085Y-50558500D01*
X148366915Y-50558500D01*
X148366916Y-50558500D01*
X148578116Y-50525049D01*
X148781483Y-50458972D01*
X148972009Y-50361894D01*
X149145004Y-50236206D01*
X149296206Y-50085004D01*
X149421894Y-49912009D01*
X149421896Y-49912004D01*
X149424270Y-49908132D01*
X149476080Y-49861254D01*
X149545009Y-49849829D01*
X149609173Y-49877483D01*
X149635730Y-49908132D01*
X149638103Y-49912005D01*
X149638106Y-49912009D01*
X149763794Y-50085004D01*
X149914996Y-50236206D01*
X150087991Y-50361894D01*
X150181438Y-50409507D01*
X150278516Y-50458972D01*
X150278519Y-50458973D01*
X150380200Y-50492010D01*
X150481884Y-50525049D01*
X150693084Y-50558500D01*
X150693085Y-50558500D01*
X150906915Y-50558500D01*
X150906916Y-50558500D01*
X151118116Y-50525049D01*
X151321483Y-50458972D01*
X151512009Y-50361894D01*
X151685004Y-50236206D01*
X151836206Y-50085004D01*
X151961894Y-49912009D01*
X151961896Y-49912004D01*
X151964270Y-49908132D01*
X152016080Y-49861254D01*
X152085009Y-49849829D01*
X152149173Y-49877483D01*
X152175730Y-49908132D01*
X152178103Y-49912005D01*
X152178106Y-49912009D01*
X152303794Y-50085004D01*
X152454996Y-50236206D01*
X152627991Y-50361894D01*
X152721438Y-50409507D01*
X152818516Y-50458972D01*
X152818519Y-50458973D01*
X152920200Y-50492010D01*
X153021884Y-50525049D01*
X153233084Y-50558500D01*
X153233085Y-50558500D01*
X153446915Y-50558500D01*
X153446916Y-50558500D01*
X153658116Y-50525049D01*
X153861483Y-50458972D01*
X154052009Y-50361894D01*
X154225004Y-50236206D01*
X154376206Y-50085004D01*
X154501894Y-49912009D01*
X154501896Y-49912004D01*
X154504270Y-49908132D01*
X154556080Y-49861254D01*
X154625009Y-49849829D01*
X154689173Y-49877483D01*
X154715730Y-49908132D01*
X154718103Y-49912005D01*
X154718106Y-49912009D01*
X154843794Y-50085004D01*
X154994996Y-50236206D01*
X155167991Y-50361894D01*
X155261438Y-50409507D01*
X155358516Y-50458972D01*
X155358519Y-50458973D01*
X155460200Y-50492010D01*
X155561884Y-50525049D01*
X155773084Y-50558500D01*
X155773085Y-50558500D01*
X155986915Y-50558500D01*
X155986916Y-50558500D01*
X156198116Y-50525049D01*
X156401483Y-50458972D01*
X156592009Y-50361894D01*
X156765004Y-50236206D01*
X156916206Y-50085004D01*
X157041894Y-49912009D01*
X157041896Y-49912004D01*
X157044270Y-49908132D01*
X157096080Y-49861254D01*
X157165009Y-49849829D01*
X157229173Y-49877483D01*
X157255730Y-49908132D01*
X157258103Y-49912005D01*
X157258106Y-49912009D01*
X157383794Y-50085004D01*
X157534996Y-50236206D01*
X157707991Y-50361894D01*
X157801438Y-50409507D01*
X157898516Y-50458972D01*
X157898519Y-50458973D01*
X158000200Y-50492010D01*
X158101884Y-50525049D01*
X158313084Y-50558500D01*
X158313085Y-50558500D01*
X158526915Y-50558500D01*
X158526916Y-50558500D01*
X158738116Y-50525049D01*
X158941483Y-50458972D01*
X159132009Y-50361894D01*
X159305004Y-50236206D01*
X159456206Y-50085004D01*
X159581894Y-49912009D01*
X159581896Y-49912004D01*
X159584270Y-49908132D01*
X159636080Y-49861254D01*
X159705009Y-49849829D01*
X159769173Y-49877483D01*
X159795730Y-49908132D01*
X159798103Y-49912005D01*
X159798106Y-49912009D01*
X159923794Y-50085004D01*
X160074996Y-50236206D01*
X160247991Y-50361894D01*
X160341438Y-50409507D01*
X160438516Y-50458972D01*
X160438519Y-50458973D01*
X160540200Y-50492010D01*
X160641884Y-50525049D01*
X160853084Y-50558500D01*
X160853085Y-50558500D01*
X161066915Y-50558500D01*
X161066916Y-50558500D01*
X161278116Y-50525049D01*
X161481483Y-50458972D01*
X161672009Y-50361894D01*
X161845004Y-50236206D01*
X161996206Y-50085004D01*
X162121894Y-49912009D01*
X162121896Y-49912004D01*
X162124270Y-49908132D01*
X162176080Y-49861254D01*
X162245009Y-49849829D01*
X162309173Y-49877483D01*
X162335730Y-49908132D01*
X162338103Y-49912005D01*
X162338106Y-49912009D01*
X162463794Y-50085004D01*
X162614996Y-50236206D01*
X162787991Y-50361894D01*
X162881438Y-50409507D01*
X162978516Y-50458972D01*
X162978519Y-50458973D01*
X163080200Y-50492010D01*
X163181884Y-50525049D01*
X163393084Y-50558500D01*
X163393085Y-50558500D01*
X163606915Y-50558500D01*
X163606916Y-50558500D01*
X163818116Y-50525049D01*
X164021483Y-50458972D01*
X164212009Y-50361894D01*
X164385004Y-50236206D01*
X164536206Y-50085004D01*
X164661894Y-49912009D01*
X164758972Y-49721483D01*
X164825049Y-49518116D01*
X164858500Y-49306916D01*
X164858500Y-49093084D01*
X164825049Y-48881884D01*
X164758972Y-48678517D01*
X164758972Y-48678516D01*
X164687756Y-48538748D01*
X164661894Y-48487991D01*
X164536206Y-48314996D01*
X164385004Y-48163794D01*
X164212009Y-48038106D01*
X164154819Y-48008966D01*
X164021483Y-47941027D01*
X164021480Y-47941026D01*
X163818117Y-47874951D01*
X163650777Y-47848447D01*
X163606916Y-47841500D01*
X163393084Y-47841500D01*
X163349223Y-47848447D01*
X163181882Y-47874951D01*
X162978519Y-47941026D01*
X162978516Y-47941027D01*
X162787990Y-48038106D01*
X162614993Y-48163796D01*
X162463796Y-48314993D01*
X162338105Y-48487991D01*
X162335727Y-48491873D01*
X162283914Y-48538748D01*
X162214984Y-48550169D01*
X162150822Y-48522512D01*
X162124273Y-48491873D01*
X162121894Y-48487991D01*
X162121891Y-48487987D01*
X161996206Y-48314996D01*
X161845004Y-48163794D01*
X161672009Y-48038106D01*
X161614819Y-48008966D01*
X161481483Y-47941027D01*
X161481480Y-47941026D01*
X161278117Y-47874951D01*
X161110777Y-47848447D01*
X161066916Y-47841500D01*
X160853084Y-47841500D01*
X160809223Y-47848447D01*
X160641882Y-47874951D01*
X160438519Y-47941026D01*
X160438516Y-47941027D01*
X160247990Y-48038106D01*
X160074993Y-48163796D01*
X159923796Y-48314993D01*
X159798105Y-48487991D01*
X159795727Y-48491873D01*
X159743914Y-48538748D01*
X159674984Y-48550169D01*
X159610822Y-48522512D01*
X159584273Y-48491873D01*
X159581894Y-48487991D01*
X159581891Y-48487987D01*
X159456206Y-48314996D01*
X159305004Y-48163794D01*
X159132009Y-48038106D01*
X159074819Y-48008966D01*
X158941483Y-47941027D01*
X158941480Y-47941026D01*
X158738117Y-47874951D01*
X158570777Y-47848447D01*
X158526916Y-47841500D01*
X158313084Y-47841500D01*
X158269223Y-47848447D01*
X158101882Y-47874951D01*
X157898519Y-47941026D01*
X157898516Y-47941027D01*
X157707990Y-48038106D01*
X157534993Y-48163796D01*
X157383796Y-48314993D01*
X157258105Y-48487991D01*
X157255727Y-48491873D01*
X157203914Y-48538748D01*
X157134984Y-48550169D01*
X157070822Y-48522512D01*
X157044273Y-48491873D01*
X157041894Y-48487991D01*
X157041891Y-48487987D01*
X156916206Y-48314996D01*
X156765004Y-48163794D01*
X156592009Y-48038106D01*
X156534819Y-48008966D01*
X156401483Y-47941027D01*
X156401480Y-47941026D01*
X156198117Y-47874951D01*
X156030777Y-47848447D01*
X155986916Y-47841500D01*
X155773084Y-47841500D01*
X155729223Y-47848447D01*
X155561882Y-47874951D01*
X155358519Y-47941026D01*
X155358516Y-47941027D01*
X155167990Y-48038106D01*
X154994993Y-48163796D01*
X154843796Y-48314993D01*
X154718105Y-48487991D01*
X154715727Y-48491873D01*
X154663914Y-48538748D01*
X154594984Y-48550169D01*
X154530822Y-48522512D01*
X154504273Y-48491873D01*
X154501894Y-48487991D01*
X154501891Y-48487987D01*
X154376206Y-48314996D01*
X154225004Y-48163794D01*
X154052009Y-48038106D01*
X153994819Y-48008966D01*
X153861483Y-47941027D01*
X153861480Y-47941026D01*
X153658117Y-47874951D01*
X153490777Y-47848447D01*
X153446916Y-47841500D01*
X153233084Y-47841500D01*
X153189223Y-47848447D01*
X153021882Y-47874951D01*
X152818519Y-47941026D01*
X152818516Y-47941027D01*
X152627990Y-48038106D01*
X152454993Y-48163796D01*
X152303796Y-48314993D01*
X152178105Y-48487991D01*
X152175727Y-48491873D01*
X152123914Y-48538748D01*
X152054984Y-48550169D01*
X151990822Y-48522512D01*
X151964273Y-48491873D01*
X151961894Y-48487991D01*
X151961891Y-48487987D01*
X151836206Y-48314996D01*
X151685004Y-48163794D01*
X151512009Y-48038106D01*
X151454819Y-48008966D01*
X151321483Y-47941027D01*
X151321480Y-47941026D01*
X151118117Y-47874951D01*
X150950777Y-47848447D01*
X150906916Y-47841500D01*
X150693084Y-47841500D01*
X150649223Y-47848447D01*
X150481882Y-47874951D01*
X150278519Y-47941026D01*
X150278516Y-47941027D01*
X150087990Y-48038106D01*
X149914993Y-48163796D01*
X149763796Y-48314993D01*
X149638105Y-48487991D01*
X149635727Y-48491873D01*
X149583914Y-48538748D01*
X149514984Y-48550169D01*
X149450822Y-48522512D01*
X149424273Y-48491873D01*
X149421894Y-48487991D01*
X149421891Y-48487987D01*
X149296206Y-48314996D01*
X149145004Y-48163794D01*
X148972009Y-48038106D01*
X148914819Y-48008966D01*
X148781483Y-47941027D01*
X148781480Y-47941026D01*
X148578117Y-47874951D01*
X148410777Y-47848447D01*
X148366916Y-47841500D01*
X148153084Y-47841500D01*
X148109223Y-47848447D01*
X147941882Y-47874951D01*
X147738519Y-47941026D01*
X147738516Y-47941027D01*
X147547990Y-48038106D01*
X147374997Y-48163793D01*
X147269818Y-48268972D01*
X147208495Y-48302456D01*
X147138803Y-48297472D01*
X147082870Y-48255600D01*
X147065958Y-48224629D01*
X147020889Y-48103796D01*
X147016016Y-48097287D01*
X146971714Y-48038106D01*
X146933261Y-47986739D01*
X146816204Y-47899111D01*
X146679203Y-47848011D01*
X146618654Y-47841500D01*
X146618638Y-47841500D01*
X144821362Y-47841500D01*
X144821345Y-47841500D01*
X144760797Y-47848011D01*
X144760795Y-47848011D01*
X144623795Y-47899111D01*
X144506739Y-47986739D01*
X144419111Y-48103795D01*
X144368011Y-48240795D01*
X144368011Y-48240797D01*
X144361500Y-48301345D01*
X142678555Y-48301345D01*
X142541004Y-48163794D01*
X142368009Y-48038106D01*
X142310819Y-48008966D01*
X142177483Y-47941027D01*
X142177480Y-47941026D01*
X141974117Y-47874951D01*
X141806777Y-47848447D01*
X141762916Y-47841500D01*
X141549084Y-47841500D01*
X141505223Y-47848447D01*
X141337882Y-47874951D01*
X141134519Y-47941026D01*
X141134516Y-47941027D01*
X140943990Y-48038106D01*
X140770993Y-48163796D01*
X140619796Y-48314993D01*
X140494105Y-48487991D01*
X140491727Y-48491873D01*
X140439914Y-48538748D01*
X140370984Y-48550169D01*
X140306822Y-48522512D01*
X140280273Y-48491873D01*
X140277894Y-48487991D01*
X140277891Y-48487987D01*
X140152206Y-48314996D01*
X140001004Y-48163794D01*
X139828009Y-48038106D01*
X139770819Y-48008966D01*
X139637483Y-47941027D01*
X139637480Y-47941026D01*
X139434117Y-47874951D01*
X139266777Y-47848447D01*
X139222916Y-47841500D01*
X139009084Y-47841500D01*
X138965223Y-47848447D01*
X138797881Y-47874951D01*
X138786345Y-47878699D01*
X138716503Y-47880690D01*
X138660352Y-47848447D01*
X137759086Y-46947181D01*
X137725601Y-46885858D01*
X137730585Y-46816166D01*
X137772457Y-46760233D01*
X137837921Y-46735816D01*
X137846767Y-46735500D01*
X163417365Y-46735500D01*
X163484404Y-46755185D01*
X163505046Y-46771819D01*
X165928181Y-49194954D01*
X165961666Y-49256277D01*
X165964500Y-49282635D01*
X165964500Y-59344982D01*
X165964500Y-59375018D01*
X165975994Y-59402767D01*
X165975995Y-59402768D01*
X168468181Y-61894954D01*
X168501666Y-61956277D01*
X168504500Y-61982635D01*
X168504500Y-96107364D01*
X168484815Y-96174403D01*
X168468181Y-96195045D01*
X165997233Y-98665994D01*
X165975995Y-98687231D01*
X165964500Y-98714982D01*
X165964500Y-99231907D01*
X165963903Y-99244061D01*
X165963903Y-99244062D01*
X165952505Y-99359778D01*
X165947763Y-99383618D01*
X165917832Y-99482290D01*
X165915789Y-99489024D01*
X165906486Y-99511482D01*
X165854561Y-99608627D01*
X165841056Y-99628839D01*
X165771176Y-99713988D01*
X165753988Y-99731176D01*
X165668839Y-99801056D01*
X165648627Y-99814561D01*
X165551482Y-99866486D01*
X165529028Y-99875787D01*
X165487028Y-99888528D01*
X165423618Y-99907763D01*
X165399778Y-99912505D01*
X165291162Y-99923203D01*
X165284060Y-99923903D01*
X165271907Y-99924500D01*
X100768093Y-99924500D01*
X100755939Y-99923903D01*
X100747995Y-99923120D01*
X100640221Y-99912505D01*
X100616381Y-99907763D01*
X100599445Y-99902625D01*
X100510968Y-99875786D01*
X100488517Y-99866486D01*
X100391372Y-99814561D01*
X100371160Y-99801056D01*
X100286011Y-99731176D01*
X100268823Y-99713988D01*
X100198943Y-99628839D01*
X100185438Y-99608627D01*
X100133510Y-99511476D01*
X100124215Y-99489037D01*
X100092234Y-99383612D01*
X100087494Y-99359777D01*
X100076097Y-99244061D01*
X100075500Y-99231907D01*
X100075500Y-47428092D01*
X100076097Y-47415938D01*
X100087494Y-47300222D01*
X100092234Y-47276389D01*
X100124216Y-47170959D01*
X100133508Y-47148526D01*
X100185442Y-47051365D01*
X100198938Y-47031166D01*
X100268827Y-46946006D01*
X100286006Y-46928827D01*
X100371166Y-46858938D01*
X100391365Y-46845442D01*
X100488526Y-46793508D01*
X100510959Y-46784216D01*
X100616389Y-46752234D01*
X100640220Y-46747494D01*
X100755939Y-46736097D01*
X100768093Y-46735500D01*
X100786531Y-46735500D01*
X112569232Y-46735500D01*
X112636271Y-46755185D01*
G37*
%TD.AperFunction*%
%TA.AperFunction,Conductor*%
G36*
X135482273Y-90115185D02*
G01*
X135502915Y-90131819D01*
X136650781Y-91279685D01*
X136684266Y-91341008D01*
X136687100Y-91367366D01*
X136687100Y-91992598D01*
X136711443Y-92114977D01*
X136711445Y-92114985D01*
X136759198Y-92230272D01*
X136759203Y-92230281D01*
X136828528Y-92334032D01*
X136828531Y-92334036D01*
X137354329Y-92859833D01*
X137399628Y-92905132D01*
X137442568Y-92948072D01*
X137546318Y-93017396D01*
X137546324Y-93017399D01*
X137546325Y-93017400D01*
X137661615Y-93065155D01*
X137784001Y-93089499D01*
X137784005Y-93089500D01*
X137784006Y-93089500D01*
X139412712Y-93089500D01*
X139479751Y-93109185D01*
X139487023Y-93114233D01*
X139493738Y-93119259D01*
X139493739Y-93119261D01*
X139610796Y-93206889D01*
X139725949Y-93249839D01*
X139745104Y-93256984D01*
X139747799Y-93257989D01*
X139775050Y-93260918D01*
X139808345Y-93264499D01*
X139808362Y-93264500D01*
X139924934Y-93264500D01*
X139991973Y-93284185D01*
X140037728Y-93336989D01*
X140047672Y-93406147D01*
X140018647Y-93469703D01*
X140012615Y-93476181D01*
X137696167Y-95792629D01*
X137652047Y-95836749D01*
X137607927Y-95880868D01*
X137538603Y-95984618D01*
X137538598Y-95984627D01*
X137490845Y-96099914D01*
X137490843Y-96099920D01*
X137470309Y-96203152D01*
X137437924Y-96265063D01*
X137404992Y-96289442D01*
X137387993Y-96298104D01*
X137214993Y-96423796D01*
X137063796Y-96574993D01*
X136938105Y-96747991D01*
X136935727Y-96751873D01*
X136883914Y-96798748D01*
X136814984Y-96810169D01*
X136750822Y-96782512D01*
X136724273Y-96751873D01*
X136721894Y-96747991D01*
X136649621Y-96648516D01*
X136596206Y-96574996D01*
X136445004Y-96423794D01*
X136272009Y-96298106D01*
X136207159Y-96265063D01*
X136081483Y-96201027D01*
X136081480Y-96201026D01*
X135878117Y-96134951D01*
X135772516Y-96118225D01*
X135666916Y-96101500D01*
X135453084Y-96101500D01*
X135382684Y-96112650D01*
X135241882Y-96134951D01*
X135038519Y-96201026D01*
X135038516Y-96201027D01*
X134847990Y-96298106D01*
X134674993Y-96423796D01*
X134523796Y-96574993D01*
X134398105Y-96747991D01*
X134395727Y-96751873D01*
X134343914Y-96798748D01*
X134274984Y-96810169D01*
X134210822Y-96782512D01*
X134184273Y-96751873D01*
X134181894Y-96747991D01*
X134109621Y-96648516D01*
X134056206Y-96574996D01*
X133905004Y-96423794D01*
X133732009Y-96298106D01*
X133667159Y-96265063D01*
X133541483Y-96201027D01*
X133541480Y-96201026D01*
X133338117Y-96134951D01*
X133232516Y-96118225D01*
X133126916Y-96101500D01*
X132913084Y-96101500D01*
X132842684Y-96112650D01*
X132701882Y-96134951D01*
X132498519Y-96201026D01*
X132498516Y-96201027D01*
X132307990Y-96298106D01*
X132134993Y-96423796D01*
X131983796Y-96574993D01*
X131858105Y-96747991D01*
X131855727Y-96751873D01*
X131803914Y-96798748D01*
X131734984Y-96810169D01*
X131670822Y-96782512D01*
X131644273Y-96751873D01*
X131641894Y-96747991D01*
X131569621Y-96648516D01*
X131516206Y-96574996D01*
X131365004Y-96423794D01*
X131192009Y-96298106D01*
X131127159Y-96265063D01*
X131001483Y-96201027D01*
X131001480Y-96201026D01*
X130798117Y-96134951D01*
X130692516Y-96118225D01*
X130586916Y-96101500D01*
X130373084Y-96101500D01*
X130302684Y-96112650D01*
X130161882Y-96134951D01*
X129958519Y-96201026D01*
X129958516Y-96201027D01*
X129767990Y-96298106D01*
X129594997Y-96423793D01*
X129489818Y-96528972D01*
X129428495Y-96562456D01*
X129358803Y-96557472D01*
X129302870Y-96515600D01*
X129285958Y-96484629D01*
X129240889Y-96363796D01*
X129153261Y-96246739D01*
X129036204Y-96159111D01*
X129035172Y-96158726D01*
X128899203Y-96108011D01*
X128838654Y-96101500D01*
X128838638Y-96101500D01*
X127041362Y-96101500D01*
X127041345Y-96101500D01*
X126980797Y-96108011D01*
X126980795Y-96108011D01*
X126843795Y-96159111D01*
X126726739Y-96246739D01*
X126639111Y-96363795D01*
X126588011Y-96500795D01*
X126588011Y-96500797D01*
X126581500Y-96561345D01*
X126581500Y-97881200D01*
X126561815Y-97948239D01*
X126509011Y-97993994D01*
X126457500Y-98005200D01*
X114472500Y-98005200D01*
X114405461Y-97985515D01*
X114359706Y-97932711D01*
X114348500Y-97881200D01*
X114348500Y-97088766D01*
X114368185Y-97021727D01*
X114384819Y-97001085D01*
X120337686Y-91048219D01*
X120399009Y-91014734D01*
X120425367Y-91011900D01*
X131708323Y-91011900D01*
X131775362Y-91031585D01*
X131777213Y-91032797D01*
X131870133Y-91094884D01*
X131943700Y-91125356D01*
X132017269Y-91155830D01*
X132173465Y-91186899D01*
X132173469Y-91186900D01*
X132173470Y-91186900D01*
X132332731Y-91186900D01*
X132332732Y-91186899D01*
X132488931Y-91155830D01*
X132636068Y-91094883D01*
X132768489Y-91006403D01*
X132881103Y-90893789D01*
X132969583Y-90761368D01*
X133030530Y-90614231D01*
X133061600Y-90458030D01*
X133061600Y-90298770D01*
X133050644Y-90243689D01*
X133056872Y-90174099D01*
X133099736Y-90118922D01*
X133165626Y-90095678D01*
X133172262Y-90095500D01*
X135415234Y-90095500D01*
X135482273Y-90115185D01*
G37*
%TD.AperFunction*%
%TA.AperFunction,Conductor*%
G36*
X159895273Y-70973185D02*
G01*
X159915915Y-70989819D01*
X165405780Y-76479684D01*
X165439265Y-76541007D01*
X165434281Y-76610699D01*
X165392409Y-76666632D01*
X165382250Y-76673481D01*
X165324844Y-76708184D01*
X165294079Y-76738950D01*
X165232846Y-76800182D01*
X165171526Y-76833666D01*
X165145167Y-76836500D01*
X164394833Y-76836500D01*
X164327794Y-76816815D01*
X164307156Y-76800185D01*
X164215155Y-76708184D01*
X164067913Y-76619173D01*
X163903649Y-76567987D01*
X163903647Y-76567986D01*
X163903645Y-76567986D01*
X163853667Y-76563444D01*
X163832265Y-76561500D01*
X163832262Y-76561500D01*
X163538767Y-76561500D01*
X163471728Y-76541815D01*
X163451086Y-76525181D01*
X158703836Y-71777931D01*
X158703832Y-71777928D01*
X158600081Y-71708603D01*
X158600072Y-71708598D01*
X158484785Y-71660845D01*
X158484777Y-71660843D01*
X158362398Y-71636500D01*
X158362394Y-71636500D01*
X136567413Y-71636500D01*
X136500374Y-71616815D01*
X136454619Y-71564011D01*
X136444675Y-71494853D01*
X136463296Y-71449897D01*
X136461637Y-71448992D01*
X136465888Y-71441206D01*
X136516988Y-71304204D01*
X136516988Y-71304203D01*
X136516989Y-71304201D01*
X136520848Y-71268297D01*
X136523499Y-71243653D01*
X136523508Y-71243489D01*
X136523520Y-71243452D01*
X136523856Y-71240335D01*
X136524592Y-71240414D01*
X136546747Y-71177597D01*
X136601920Y-71134729D01*
X136623140Y-71128498D01*
X136626026Y-71127924D01*
X136779331Y-71097430D01*
X136926468Y-71036483D01*
X137019387Y-70974396D01*
X137086064Y-70953520D01*
X137088277Y-70953500D01*
X159828234Y-70953500D01*
X159895273Y-70973185D01*
G37*
%TD.AperFunction*%
%TD*%
M02*
