%TF.GenerationSoftware,KiCad,Pcbnew,9.0.6*%
%TF.CreationDate,2026-01-18T16:02:07+09:00*%
%TF.ProjectId,mcp23017_testboard_arduino,6d637032-3330-4313-975f-74657374626f,rev?*%
%TF.SameCoordinates,Original*%
%TF.FileFunction,Legend,Top*%
%TF.FilePolarity,Positive*%
%FSLAX46Y46*%
G04 Gerber Fmt 4.6, Leading zero omitted, Abs format (unit mm)*
G04 Created by KiCad (PCBNEW 9.0.6) date 2026-01-18 16:02:07*
%MOMM*%
%LPD*%
G01*
G04 APERTURE LIST*
%ADD10C,0.150000*%
%ADD11C,0.120000*%
%ADD12C,0.200000*%
G04 APERTURE END LIST*
D10*
X108255000Y-92075000D02*
X111074400Y-92075000D01*
X110896600Y-98425000D02*
X114478000Y-98425000D01*
X114478000Y-98425000D02*
X114478000Y-90805000D01*
X108382000Y-94615000D02*
X111074400Y-94615000D01*
X109652000Y-97155000D02*
X111074400Y-97155000D01*
X146174819Y-57372094D02*
X145174819Y-57372094D01*
X145174819Y-57372094D02*
X145174819Y-56991142D01*
X145174819Y-56991142D02*
X145222438Y-56895904D01*
X145222438Y-56895904D02*
X145270057Y-56848285D01*
X145270057Y-56848285D02*
X145365295Y-56800666D01*
X145365295Y-56800666D02*
X145508152Y-56800666D01*
X145508152Y-56800666D02*
X145603390Y-56848285D01*
X145603390Y-56848285D02*
X145651009Y-56895904D01*
X145651009Y-56895904D02*
X145698628Y-56991142D01*
X145698628Y-56991142D02*
X145698628Y-57372094D01*
X145651009Y-56038761D02*
X145698628Y-55895904D01*
X145698628Y-55895904D02*
X145746247Y-55848285D01*
X145746247Y-55848285D02*
X145841485Y-55800666D01*
X145841485Y-55800666D02*
X145984342Y-55800666D01*
X145984342Y-55800666D02*
X146079580Y-55848285D01*
X146079580Y-55848285D02*
X146127200Y-55895904D01*
X146127200Y-55895904D02*
X146174819Y-55991142D01*
X146174819Y-55991142D02*
X146174819Y-56372094D01*
X146174819Y-56372094D02*
X145174819Y-56372094D01*
X145174819Y-56372094D02*
X145174819Y-56038761D01*
X145174819Y-56038761D02*
X145222438Y-55943523D01*
X145222438Y-55943523D02*
X145270057Y-55895904D01*
X145270057Y-55895904D02*
X145365295Y-55848285D01*
X145365295Y-55848285D02*
X145460533Y-55848285D01*
X145460533Y-55848285D02*
X145555771Y-55895904D01*
X145555771Y-55895904D02*
X145603390Y-55943523D01*
X145603390Y-55943523D02*
X145651009Y-56038761D01*
X145651009Y-56038761D02*
X145651009Y-56372094D01*
X145270057Y-55419713D02*
X145222438Y-55372094D01*
X145222438Y-55372094D02*
X145174819Y-55276856D01*
X145174819Y-55276856D02*
X145174819Y-55038761D01*
X145174819Y-55038761D02*
X145222438Y-54943523D01*
X145222438Y-54943523D02*
X145270057Y-54895904D01*
X145270057Y-54895904D02*
X145365295Y-54848285D01*
X145365295Y-54848285D02*
X145460533Y-54848285D01*
X145460533Y-54848285D02*
X145603390Y-54895904D01*
X145603390Y-54895904D02*
X146174819Y-55467332D01*
X146174819Y-55467332D02*
X146174819Y-54848285D01*
X143634819Y-57372094D02*
X142634819Y-57372094D01*
X142634819Y-57372094D02*
X142634819Y-56991142D01*
X142634819Y-56991142D02*
X142682438Y-56895904D01*
X142682438Y-56895904D02*
X142730057Y-56848285D01*
X142730057Y-56848285D02*
X142825295Y-56800666D01*
X142825295Y-56800666D02*
X142968152Y-56800666D01*
X142968152Y-56800666D02*
X143063390Y-56848285D01*
X143063390Y-56848285D02*
X143111009Y-56895904D01*
X143111009Y-56895904D02*
X143158628Y-56991142D01*
X143158628Y-56991142D02*
X143158628Y-57372094D01*
X143111009Y-56038761D02*
X143158628Y-55895904D01*
X143158628Y-55895904D02*
X143206247Y-55848285D01*
X143206247Y-55848285D02*
X143301485Y-55800666D01*
X143301485Y-55800666D02*
X143444342Y-55800666D01*
X143444342Y-55800666D02*
X143539580Y-55848285D01*
X143539580Y-55848285D02*
X143587200Y-55895904D01*
X143587200Y-55895904D02*
X143634819Y-55991142D01*
X143634819Y-55991142D02*
X143634819Y-56372094D01*
X143634819Y-56372094D02*
X142634819Y-56372094D01*
X142634819Y-56372094D02*
X142634819Y-56038761D01*
X142634819Y-56038761D02*
X142682438Y-55943523D01*
X142682438Y-55943523D02*
X142730057Y-55895904D01*
X142730057Y-55895904D02*
X142825295Y-55848285D01*
X142825295Y-55848285D02*
X142920533Y-55848285D01*
X142920533Y-55848285D02*
X143015771Y-55895904D01*
X143015771Y-55895904D02*
X143063390Y-55943523D01*
X143063390Y-55943523D02*
X143111009Y-56038761D01*
X143111009Y-56038761D02*
X143111009Y-56372094D01*
X143634819Y-54848285D02*
X143634819Y-55419713D01*
X143634819Y-55133999D02*
X142634819Y-55133999D01*
X142634819Y-55133999D02*
X142777676Y-55229237D01*
X142777676Y-55229237D02*
X142872914Y-55324475D01*
X142872914Y-55324475D02*
X142920533Y-55419713D01*
X143761819Y-89376094D02*
X142761819Y-89376094D01*
X142761819Y-89376094D02*
X142761819Y-88995142D01*
X142761819Y-88995142D02*
X142809438Y-88899904D01*
X142809438Y-88899904D02*
X142857057Y-88852285D01*
X142857057Y-88852285D02*
X142952295Y-88804666D01*
X142952295Y-88804666D02*
X143095152Y-88804666D01*
X143095152Y-88804666D02*
X143190390Y-88852285D01*
X143190390Y-88852285D02*
X143238009Y-88899904D01*
X143238009Y-88899904D02*
X143285628Y-88995142D01*
X143285628Y-88995142D02*
X143285628Y-89376094D01*
X143238009Y-88042761D02*
X143285628Y-87899904D01*
X143285628Y-87899904D02*
X143333247Y-87852285D01*
X143333247Y-87852285D02*
X143428485Y-87804666D01*
X143428485Y-87804666D02*
X143571342Y-87804666D01*
X143571342Y-87804666D02*
X143666580Y-87852285D01*
X143666580Y-87852285D02*
X143714200Y-87899904D01*
X143714200Y-87899904D02*
X143761819Y-87995142D01*
X143761819Y-87995142D02*
X143761819Y-88376094D01*
X143761819Y-88376094D02*
X142761819Y-88376094D01*
X142761819Y-88376094D02*
X142761819Y-88042761D01*
X142761819Y-88042761D02*
X142809438Y-87947523D01*
X142809438Y-87947523D02*
X142857057Y-87899904D01*
X142857057Y-87899904D02*
X142952295Y-87852285D01*
X142952295Y-87852285D02*
X143047533Y-87852285D01*
X143047533Y-87852285D02*
X143142771Y-87899904D01*
X143142771Y-87899904D02*
X143190390Y-87947523D01*
X143190390Y-87947523D02*
X143238009Y-88042761D01*
X143238009Y-88042761D02*
X143238009Y-88376094D01*
X143761819Y-86852285D02*
X143761819Y-87423713D01*
X143761819Y-87137999D02*
X142761819Y-87137999D01*
X142761819Y-87137999D02*
X142904676Y-87233237D01*
X142904676Y-87233237D02*
X142999914Y-87328475D01*
X142999914Y-87328475D02*
X143047533Y-87423713D01*
X129379104Y-88344285D02*
X129379104Y-87868095D01*
X129664819Y-88439523D02*
X128664819Y-88106190D01*
X128664819Y-88106190D02*
X129664819Y-87772857D01*
X128664819Y-87249047D02*
X128664819Y-87153809D01*
X128664819Y-87153809D02*
X128712438Y-87058571D01*
X128712438Y-87058571D02*
X128760057Y-87010952D01*
X128760057Y-87010952D02*
X128855295Y-86963333D01*
X128855295Y-86963333D02*
X129045771Y-86915714D01*
X129045771Y-86915714D02*
X129283866Y-86915714D01*
X129283866Y-86915714D02*
X129474342Y-86963333D01*
X129474342Y-86963333D02*
X129569580Y-87010952D01*
X129569580Y-87010952D02*
X129617200Y-87058571D01*
X129617200Y-87058571D02*
X129664819Y-87153809D01*
X129664819Y-87153809D02*
X129664819Y-87249047D01*
X129664819Y-87249047D02*
X129617200Y-87344285D01*
X129617200Y-87344285D02*
X129569580Y-87391904D01*
X129569580Y-87391904D02*
X129474342Y-87439523D01*
X129474342Y-87439523D02*
X129283866Y-87487142D01*
X129283866Y-87487142D02*
X129045771Y-87487142D01*
X129045771Y-87487142D02*
X128855295Y-87439523D01*
X128855295Y-87439523D02*
X128760057Y-87391904D01*
X128760057Y-87391904D02*
X128712438Y-87344285D01*
X128712438Y-87344285D02*
X128664819Y-87249047D01*
X153921819Y-89376094D02*
X152921819Y-89376094D01*
X152921819Y-89376094D02*
X152921819Y-88995142D01*
X152921819Y-88995142D02*
X152969438Y-88899904D01*
X152969438Y-88899904D02*
X153017057Y-88852285D01*
X153017057Y-88852285D02*
X153112295Y-88804666D01*
X153112295Y-88804666D02*
X153255152Y-88804666D01*
X153255152Y-88804666D02*
X153350390Y-88852285D01*
X153350390Y-88852285D02*
X153398009Y-88899904D01*
X153398009Y-88899904D02*
X153445628Y-88995142D01*
X153445628Y-88995142D02*
X153445628Y-89376094D01*
X153398009Y-88042761D02*
X153445628Y-87899904D01*
X153445628Y-87899904D02*
X153493247Y-87852285D01*
X153493247Y-87852285D02*
X153588485Y-87804666D01*
X153588485Y-87804666D02*
X153731342Y-87804666D01*
X153731342Y-87804666D02*
X153826580Y-87852285D01*
X153826580Y-87852285D02*
X153874200Y-87899904D01*
X153874200Y-87899904D02*
X153921819Y-87995142D01*
X153921819Y-87995142D02*
X153921819Y-88376094D01*
X153921819Y-88376094D02*
X152921819Y-88376094D01*
X152921819Y-88376094D02*
X152921819Y-88042761D01*
X152921819Y-88042761D02*
X152969438Y-87947523D01*
X152969438Y-87947523D02*
X153017057Y-87899904D01*
X153017057Y-87899904D02*
X153112295Y-87852285D01*
X153112295Y-87852285D02*
X153207533Y-87852285D01*
X153207533Y-87852285D02*
X153302771Y-87899904D01*
X153302771Y-87899904D02*
X153350390Y-87947523D01*
X153350390Y-87947523D02*
X153398009Y-88042761D01*
X153398009Y-88042761D02*
X153398009Y-88376094D01*
X152921819Y-86899904D02*
X152921819Y-87376094D01*
X152921819Y-87376094D02*
X153398009Y-87423713D01*
X153398009Y-87423713D02*
X153350390Y-87376094D01*
X153350390Y-87376094D02*
X153302771Y-87280856D01*
X153302771Y-87280856D02*
X153302771Y-87042761D01*
X153302771Y-87042761D02*
X153350390Y-86947523D01*
X153350390Y-86947523D02*
X153398009Y-86899904D01*
X153398009Y-86899904D02*
X153493247Y-86852285D01*
X153493247Y-86852285D02*
X153731342Y-86852285D01*
X153731342Y-86852285D02*
X153826580Y-86899904D01*
X153826580Y-86899904D02*
X153874200Y-86947523D01*
X153874200Y-86947523D02*
X153921819Y-87042761D01*
X153921819Y-87042761D02*
X153921819Y-87280856D01*
X153921819Y-87280856D02*
X153874200Y-87376094D01*
X153874200Y-87376094D02*
X153826580Y-87423713D01*
X127975160Y-80610104D02*
X128451350Y-80610104D01*
X127879922Y-80895819D02*
X128213255Y-79895819D01*
X128213255Y-79895819D02*
X128546588Y-80895819D01*
X129308493Y-80895819D02*
X129308493Y-79895819D01*
X129308493Y-80848200D02*
X129213255Y-80895819D01*
X129213255Y-80895819D02*
X129022779Y-80895819D01*
X129022779Y-80895819D02*
X128927541Y-80848200D01*
X128927541Y-80848200D02*
X128879922Y-80800580D01*
X128879922Y-80800580D02*
X128832303Y-80705342D01*
X128832303Y-80705342D02*
X128832303Y-80419628D01*
X128832303Y-80419628D02*
X128879922Y-80324390D01*
X128879922Y-80324390D02*
X128927541Y-80276771D01*
X128927541Y-80276771D02*
X129022779Y-80229152D01*
X129022779Y-80229152D02*
X129213255Y-80229152D01*
X129213255Y-80229152D02*
X129308493Y-80276771D01*
X130213255Y-80895819D02*
X130213255Y-79895819D01*
X130213255Y-80848200D02*
X130118017Y-80895819D01*
X130118017Y-80895819D02*
X129927541Y-80895819D01*
X129927541Y-80895819D02*
X129832303Y-80848200D01*
X129832303Y-80848200D02*
X129784684Y-80800580D01*
X129784684Y-80800580D02*
X129737065Y-80705342D01*
X129737065Y-80705342D02*
X129737065Y-80419628D01*
X129737065Y-80419628D02*
X129784684Y-80324390D01*
X129784684Y-80324390D02*
X129832303Y-80276771D01*
X129832303Y-80276771D02*
X129927541Y-80229152D01*
X129927541Y-80229152D02*
X130118017Y-80229152D01*
X130118017Y-80229152D02*
X130213255Y-80276771D01*
X130689446Y-80895819D02*
X130689446Y-80229152D01*
X130689446Y-80419628D02*
X130737065Y-80324390D01*
X130737065Y-80324390D02*
X130784684Y-80276771D01*
X130784684Y-80276771D02*
X130879922Y-80229152D01*
X130879922Y-80229152D02*
X130975160Y-80229152D01*
X131689446Y-80848200D02*
X131594208Y-80895819D01*
X131594208Y-80895819D02*
X131403732Y-80895819D01*
X131403732Y-80895819D02*
X131308494Y-80848200D01*
X131308494Y-80848200D02*
X131260875Y-80752961D01*
X131260875Y-80752961D02*
X131260875Y-80372009D01*
X131260875Y-80372009D02*
X131308494Y-80276771D01*
X131308494Y-80276771D02*
X131403732Y-80229152D01*
X131403732Y-80229152D02*
X131594208Y-80229152D01*
X131594208Y-80229152D02*
X131689446Y-80276771D01*
X131689446Y-80276771D02*
X131737065Y-80372009D01*
X131737065Y-80372009D02*
X131737065Y-80467247D01*
X131737065Y-80467247D02*
X131260875Y-80562485D01*
X132118018Y-80848200D02*
X132213256Y-80895819D01*
X132213256Y-80895819D02*
X132403732Y-80895819D01*
X132403732Y-80895819D02*
X132498970Y-80848200D01*
X132498970Y-80848200D02*
X132546589Y-80752961D01*
X132546589Y-80752961D02*
X132546589Y-80705342D01*
X132546589Y-80705342D02*
X132498970Y-80610104D01*
X132498970Y-80610104D02*
X132403732Y-80562485D01*
X132403732Y-80562485D02*
X132260875Y-80562485D01*
X132260875Y-80562485D02*
X132165637Y-80514866D01*
X132165637Y-80514866D02*
X132118018Y-80419628D01*
X132118018Y-80419628D02*
X132118018Y-80372009D01*
X132118018Y-80372009D02*
X132165637Y-80276771D01*
X132165637Y-80276771D02*
X132260875Y-80229152D01*
X132260875Y-80229152D02*
X132403732Y-80229152D01*
X132403732Y-80229152D02*
X132498970Y-80276771D01*
X132927542Y-80848200D02*
X133022780Y-80895819D01*
X133022780Y-80895819D02*
X133213256Y-80895819D01*
X133213256Y-80895819D02*
X133308494Y-80848200D01*
X133308494Y-80848200D02*
X133356113Y-80752961D01*
X133356113Y-80752961D02*
X133356113Y-80705342D01*
X133356113Y-80705342D02*
X133308494Y-80610104D01*
X133308494Y-80610104D02*
X133213256Y-80562485D01*
X133213256Y-80562485D02*
X133070399Y-80562485D01*
X133070399Y-80562485D02*
X132975161Y-80514866D01*
X132975161Y-80514866D02*
X132927542Y-80419628D01*
X132927542Y-80419628D02*
X132927542Y-80372009D01*
X132927542Y-80372009D02*
X132975161Y-80276771D01*
X132975161Y-80276771D02*
X133070399Y-80229152D01*
X133070399Y-80229152D02*
X133213256Y-80229152D01*
X133213256Y-80229152D02*
X133308494Y-80276771D01*
X133737066Y-80848200D02*
X133879923Y-80895819D01*
X133879923Y-80895819D02*
X134118018Y-80895819D01*
X134118018Y-80895819D02*
X134213256Y-80848200D01*
X134213256Y-80848200D02*
X134260875Y-80800580D01*
X134260875Y-80800580D02*
X134308494Y-80705342D01*
X134308494Y-80705342D02*
X134308494Y-80610104D01*
X134308494Y-80610104D02*
X134260875Y-80514866D01*
X134260875Y-80514866D02*
X134213256Y-80467247D01*
X134213256Y-80467247D02*
X134118018Y-80419628D01*
X134118018Y-80419628D02*
X133927542Y-80372009D01*
X133927542Y-80372009D02*
X133832304Y-80324390D01*
X133832304Y-80324390D02*
X133784685Y-80276771D01*
X133784685Y-80276771D02*
X133737066Y-80181533D01*
X133737066Y-80181533D02*
X133737066Y-80086295D01*
X133737066Y-80086295D02*
X133784685Y-79991057D01*
X133784685Y-79991057D02*
X133832304Y-79943438D01*
X133832304Y-79943438D02*
X133927542Y-79895819D01*
X133927542Y-79895819D02*
X134165637Y-79895819D01*
X134165637Y-79895819D02*
X134308494Y-79943438D01*
X135118018Y-80848200D02*
X135022780Y-80895819D01*
X135022780Y-80895819D02*
X134832304Y-80895819D01*
X134832304Y-80895819D02*
X134737066Y-80848200D01*
X134737066Y-80848200D02*
X134689447Y-80752961D01*
X134689447Y-80752961D02*
X134689447Y-80372009D01*
X134689447Y-80372009D02*
X134737066Y-80276771D01*
X134737066Y-80276771D02*
X134832304Y-80229152D01*
X134832304Y-80229152D02*
X135022780Y-80229152D01*
X135022780Y-80229152D02*
X135118018Y-80276771D01*
X135118018Y-80276771D02*
X135165637Y-80372009D01*
X135165637Y-80372009D02*
X135165637Y-80467247D01*
X135165637Y-80467247D02*
X134689447Y-80562485D01*
X135737066Y-80895819D02*
X135641828Y-80848200D01*
X135641828Y-80848200D02*
X135594209Y-80752961D01*
X135594209Y-80752961D02*
X135594209Y-79895819D01*
X146301819Y-89376094D02*
X145301819Y-89376094D01*
X145301819Y-89376094D02*
X145301819Y-88995142D01*
X145301819Y-88995142D02*
X145349438Y-88899904D01*
X145349438Y-88899904D02*
X145397057Y-88852285D01*
X145397057Y-88852285D02*
X145492295Y-88804666D01*
X145492295Y-88804666D02*
X145635152Y-88804666D01*
X145635152Y-88804666D02*
X145730390Y-88852285D01*
X145730390Y-88852285D02*
X145778009Y-88899904D01*
X145778009Y-88899904D02*
X145825628Y-88995142D01*
X145825628Y-88995142D02*
X145825628Y-89376094D01*
X145778009Y-88042761D02*
X145825628Y-87899904D01*
X145825628Y-87899904D02*
X145873247Y-87852285D01*
X145873247Y-87852285D02*
X145968485Y-87804666D01*
X145968485Y-87804666D02*
X146111342Y-87804666D01*
X146111342Y-87804666D02*
X146206580Y-87852285D01*
X146206580Y-87852285D02*
X146254200Y-87899904D01*
X146254200Y-87899904D02*
X146301819Y-87995142D01*
X146301819Y-87995142D02*
X146301819Y-88376094D01*
X146301819Y-88376094D02*
X145301819Y-88376094D01*
X145301819Y-88376094D02*
X145301819Y-88042761D01*
X145301819Y-88042761D02*
X145349438Y-87947523D01*
X145349438Y-87947523D02*
X145397057Y-87899904D01*
X145397057Y-87899904D02*
X145492295Y-87852285D01*
X145492295Y-87852285D02*
X145587533Y-87852285D01*
X145587533Y-87852285D02*
X145682771Y-87899904D01*
X145682771Y-87899904D02*
X145730390Y-87947523D01*
X145730390Y-87947523D02*
X145778009Y-88042761D01*
X145778009Y-88042761D02*
X145778009Y-88376094D01*
X145397057Y-87423713D02*
X145349438Y-87376094D01*
X145349438Y-87376094D02*
X145301819Y-87280856D01*
X145301819Y-87280856D02*
X145301819Y-87042761D01*
X145301819Y-87042761D02*
X145349438Y-86947523D01*
X145349438Y-86947523D02*
X145397057Y-86899904D01*
X145397057Y-86899904D02*
X145492295Y-86852285D01*
X145492295Y-86852285D02*
X145587533Y-86852285D01*
X145587533Y-86852285D02*
X145730390Y-86899904D01*
X145730390Y-86899904D02*
X146301819Y-87471332D01*
X146301819Y-87471332D02*
X146301819Y-86852285D01*
X158874819Y-57372094D02*
X157874819Y-57372094D01*
X157874819Y-57372094D02*
X157874819Y-56991142D01*
X157874819Y-56991142D02*
X157922438Y-56895904D01*
X157922438Y-56895904D02*
X157970057Y-56848285D01*
X157970057Y-56848285D02*
X158065295Y-56800666D01*
X158065295Y-56800666D02*
X158208152Y-56800666D01*
X158208152Y-56800666D02*
X158303390Y-56848285D01*
X158303390Y-56848285D02*
X158351009Y-56895904D01*
X158351009Y-56895904D02*
X158398628Y-56991142D01*
X158398628Y-56991142D02*
X158398628Y-57372094D01*
X158351009Y-56038761D02*
X158398628Y-55895904D01*
X158398628Y-55895904D02*
X158446247Y-55848285D01*
X158446247Y-55848285D02*
X158541485Y-55800666D01*
X158541485Y-55800666D02*
X158684342Y-55800666D01*
X158684342Y-55800666D02*
X158779580Y-55848285D01*
X158779580Y-55848285D02*
X158827200Y-55895904D01*
X158827200Y-55895904D02*
X158874819Y-55991142D01*
X158874819Y-55991142D02*
X158874819Y-56372094D01*
X158874819Y-56372094D02*
X157874819Y-56372094D01*
X157874819Y-56372094D02*
X157874819Y-56038761D01*
X157874819Y-56038761D02*
X157922438Y-55943523D01*
X157922438Y-55943523D02*
X157970057Y-55895904D01*
X157970057Y-55895904D02*
X158065295Y-55848285D01*
X158065295Y-55848285D02*
X158160533Y-55848285D01*
X158160533Y-55848285D02*
X158255771Y-55895904D01*
X158255771Y-55895904D02*
X158303390Y-55943523D01*
X158303390Y-55943523D02*
X158351009Y-56038761D01*
X158351009Y-56038761D02*
X158351009Y-56372094D01*
X157874819Y-55467332D02*
X157874819Y-54800666D01*
X157874819Y-54800666D02*
X158874819Y-55229237D01*
X105534819Y-89304666D02*
X104534819Y-89304666D01*
X104534819Y-89304666D02*
X104534819Y-88923714D01*
X104534819Y-88923714D02*
X104582438Y-88828476D01*
X104582438Y-88828476D02*
X104630057Y-88780857D01*
X104630057Y-88780857D02*
X104725295Y-88733238D01*
X104725295Y-88733238D02*
X104868152Y-88733238D01*
X104868152Y-88733238D02*
X104963390Y-88780857D01*
X104963390Y-88780857D02*
X105011009Y-88828476D01*
X105011009Y-88828476D02*
X105058628Y-88923714D01*
X105058628Y-88923714D02*
X105058628Y-89304666D01*
X105249104Y-88352285D02*
X105249104Y-87876095D01*
X105534819Y-88447523D02*
X104534819Y-88114190D01*
X104534819Y-88114190D02*
X105534819Y-87780857D01*
X104534819Y-87257047D02*
X104534819Y-87161809D01*
X104534819Y-87161809D02*
X104582438Y-87066571D01*
X104582438Y-87066571D02*
X104630057Y-87018952D01*
X104630057Y-87018952D02*
X104725295Y-86971333D01*
X104725295Y-86971333D02*
X104915771Y-86923714D01*
X104915771Y-86923714D02*
X105153866Y-86923714D01*
X105153866Y-86923714D02*
X105344342Y-86971333D01*
X105344342Y-86971333D02*
X105439580Y-87018952D01*
X105439580Y-87018952D02*
X105487200Y-87066571D01*
X105487200Y-87066571D02*
X105534819Y-87161809D01*
X105534819Y-87161809D02*
X105534819Y-87257047D01*
X105534819Y-87257047D02*
X105487200Y-87352285D01*
X105487200Y-87352285D02*
X105439580Y-87399904D01*
X105439580Y-87399904D02*
X105344342Y-87447523D01*
X105344342Y-87447523D02*
X105153866Y-87495142D01*
X105153866Y-87495142D02*
X104915771Y-87495142D01*
X104915771Y-87495142D02*
X104725295Y-87447523D01*
X104725295Y-87447523D02*
X104630057Y-87399904D01*
X104630057Y-87399904D02*
X104582438Y-87352285D01*
X104582438Y-87352285D02*
X104534819Y-87257047D01*
X151254819Y-57372094D02*
X150254819Y-57372094D01*
X150254819Y-57372094D02*
X150254819Y-56991142D01*
X150254819Y-56991142D02*
X150302438Y-56895904D01*
X150302438Y-56895904D02*
X150350057Y-56848285D01*
X150350057Y-56848285D02*
X150445295Y-56800666D01*
X150445295Y-56800666D02*
X150588152Y-56800666D01*
X150588152Y-56800666D02*
X150683390Y-56848285D01*
X150683390Y-56848285D02*
X150731009Y-56895904D01*
X150731009Y-56895904D02*
X150778628Y-56991142D01*
X150778628Y-56991142D02*
X150778628Y-57372094D01*
X150731009Y-56038761D02*
X150778628Y-55895904D01*
X150778628Y-55895904D02*
X150826247Y-55848285D01*
X150826247Y-55848285D02*
X150921485Y-55800666D01*
X150921485Y-55800666D02*
X151064342Y-55800666D01*
X151064342Y-55800666D02*
X151159580Y-55848285D01*
X151159580Y-55848285D02*
X151207200Y-55895904D01*
X151207200Y-55895904D02*
X151254819Y-55991142D01*
X151254819Y-55991142D02*
X151254819Y-56372094D01*
X151254819Y-56372094D02*
X150254819Y-56372094D01*
X150254819Y-56372094D02*
X150254819Y-56038761D01*
X150254819Y-56038761D02*
X150302438Y-55943523D01*
X150302438Y-55943523D02*
X150350057Y-55895904D01*
X150350057Y-55895904D02*
X150445295Y-55848285D01*
X150445295Y-55848285D02*
X150540533Y-55848285D01*
X150540533Y-55848285D02*
X150635771Y-55895904D01*
X150635771Y-55895904D02*
X150683390Y-55943523D01*
X150683390Y-55943523D02*
X150731009Y-56038761D01*
X150731009Y-56038761D02*
X150731009Y-56372094D01*
X150588152Y-54943523D02*
X151254819Y-54943523D01*
X150207200Y-55181618D02*
X150921485Y-55419713D01*
X150921485Y-55419713D02*
X150921485Y-54800666D01*
X118234819Y-57300666D02*
X117234819Y-57300666D01*
X117234819Y-57300666D02*
X117234819Y-56919714D01*
X117234819Y-56919714D02*
X117282438Y-56824476D01*
X117282438Y-56824476D02*
X117330057Y-56776857D01*
X117330057Y-56776857D02*
X117425295Y-56729238D01*
X117425295Y-56729238D02*
X117568152Y-56729238D01*
X117568152Y-56729238D02*
X117663390Y-56776857D01*
X117663390Y-56776857D02*
X117711009Y-56824476D01*
X117711009Y-56824476D02*
X117758628Y-56919714D01*
X117758628Y-56919714D02*
X117758628Y-57300666D01*
X117949104Y-56348285D02*
X117949104Y-55872095D01*
X118234819Y-56443523D02*
X117234819Y-56110190D01*
X117234819Y-56110190D02*
X118234819Y-55776857D01*
X117234819Y-54967333D02*
X117234819Y-55443523D01*
X117234819Y-55443523D02*
X117711009Y-55491142D01*
X117711009Y-55491142D02*
X117663390Y-55443523D01*
X117663390Y-55443523D02*
X117615771Y-55348285D01*
X117615771Y-55348285D02*
X117615771Y-55110190D01*
X117615771Y-55110190D02*
X117663390Y-55014952D01*
X117663390Y-55014952D02*
X117711009Y-54967333D01*
X117711009Y-54967333D02*
X117806247Y-54919714D01*
X117806247Y-54919714D02*
X118044342Y-54919714D01*
X118044342Y-54919714D02*
X118139580Y-54967333D01*
X118139580Y-54967333D02*
X118187200Y-55014952D01*
X118187200Y-55014952D02*
X118234819Y-55110190D01*
X118234819Y-55110190D02*
X118234819Y-55348285D01*
X118234819Y-55348285D02*
X118187200Y-55443523D01*
X118187200Y-55443523D02*
X118139580Y-55491142D01*
X141221819Y-89376094D02*
X140221819Y-89376094D01*
X140221819Y-89376094D02*
X140221819Y-88995142D01*
X140221819Y-88995142D02*
X140269438Y-88899904D01*
X140269438Y-88899904D02*
X140317057Y-88852285D01*
X140317057Y-88852285D02*
X140412295Y-88804666D01*
X140412295Y-88804666D02*
X140555152Y-88804666D01*
X140555152Y-88804666D02*
X140650390Y-88852285D01*
X140650390Y-88852285D02*
X140698009Y-88899904D01*
X140698009Y-88899904D02*
X140745628Y-88995142D01*
X140745628Y-88995142D02*
X140745628Y-89376094D01*
X140698009Y-88042761D02*
X140745628Y-87899904D01*
X140745628Y-87899904D02*
X140793247Y-87852285D01*
X140793247Y-87852285D02*
X140888485Y-87804666D01*
X140888485Y-87804666D02*
X141031342Y-87804666D01*
X141031342Y-87804666D02*
X141126580Y-87852285D01*
X141126580Y-87852285D02*
X141174200Y-87899904D01*
X141174200Y-87899904D02*
X141221819Y-87995142D01*
X141221819Y-87995142D02*
X141221819Y-88376094D01*
X141221819Y-88376094D02*
X140221819Y-88376094D01*
X140221819Y-88376094D02*
X140221819Y-88042761D01*
X140221819Y-88042761D02*
X140269438Y-87947523D01*
X140269438Y-87947523D02*
X140317057Y-87899904D01*
X140317057Y-87899904D02*
X140412295Y-87852285D01*
X140412295Y-87852285D02*
X140507533Y-87852285D01*
X140507533Y-87852285D02*
X140602771Y-87899904D01*
X140602771Y-87899904D02*
X140650390Y-87947523D01*
X140650390Y-87947523D02*
X140698009Y-88042761D01*
X140698009Y-88042761D02*
X140698009Y-88376094D01*
X140221819Y-87185618D02*
X140221819Y-87090380D01*
X140221819Y-87090380D02*
X140269438Y-86995142D01*
X140269438Y-86995142D02*
X140317057Y-86947523D01*
X140317057Y-86947523D02*
X140412295Y-86899904D01*
X140412295Y-86899904D02*
X140602771Y-86852285D01*
X140602771Y-86852285D02*
X140840866Y-86852285D01*
X140840866Y-86852285D02*
X141031342Y-86899904D01*
X141031342Y-86899904D02*
X141126580Y-86947523D01*
X141126580Y-86947523D02*
X141174200Y-86995142D01*
X141174200Y-86995142D02*
X141221819Y-87090380D01*
X141221819Y-87090380D02*
X141221819Y-87185618D01*
X141221819Y-87185618D02*
X141174200Y-87280856D01*
X141174200Y-87280856D02*
X141126580Y-87328475D01*
X141126580Y-87328475D02*
X141031342Y-87376094D01*
X141031342Y-87376094D02*
X140840866Y-87423713D01*
X140840866Y-87423713D02*
X140602771Y-87423713D01*
X140602771Y-87423713D02*
X140412295Y-87376094D01*
X140412295Y-87376094D02*
X140317057Y-87328475D01*
X140317057Y-87328475D02*
X140269438Y-87280856D01*
X140269438Y-87280856D02*
X140221819Y-87185618D01*
X115694819Y-89304666D02*
X114694819Y-89304666D01*
X114694819Y-89304666D02*
X114694819Y-88923714D01*
X114694819Y-88923714D02*
X114742438Y-88828476D01*
X114742438Y-88828476D02*
X114790057Y-88780857D01*
X114790057Y-88780857D02*
X114885295Y-88733238D01*
X114885295Y-88733238D02*
X115028152Y-88733238D01*
X115028152Y-88733238D02*
X115123390Y-88780857D01*
X115123390Y-88780857D02*
X115171009Y-88828476D01*
X115171009Y-88828476D02*
X115218628Y-88923714D01*
X115218628Y-88923714D02*
X115218628Y-89304666D01*
X115409104Y-88352285D02*
X115409104Y-87876095D01*
X115694819Y-88447523D02*
X114694819Y-88114190D01*
X114694819Y-88114190D02*
X115694819Y-87780857D01*
X115028152Y-87018952D02*
X115694819Y-87018952D01*
X114647200Y-87257047D02*
X115361485Y-87495142D01*
X115361485Y-87495142D02*
X115361485Y-86876095D01*
X131919104Y-88344285D02*
X131919104Y-87868095D01*
X132204819Y-88439523D02*
X131204819Y-88106190D01*
X131204819Y-88106190D02*
X132204819Y-87772857D01*
X132204819Y-86915714D02*
X132204819Y-87487142D01*
X132204819Y-87201428D02*
X131204819Y-87201428D01*
X131204819Y-87201428D02*
X131347676Y-87296666D01*
X131347676Y-87296666D02*
X131442914Y-87391904D01*
X131442914Y-87391904D02*
X131490533Y-87487142D01*
X159128819Y-89376094D02*
X158128819Y-89376094D01*
X158128819Y-89376094D02*
X158128819Y-88995142D01*
X158128819Y-88995142D02*
X158176438Y-88899904D01*
X158176438Y-88899904D02*
X158224057Y-88852285D01*
X158224057Y-88852285D02*
X158319295Y-88804666D01*
X158319295Y-88804666D02*
X158462152Y-88804666D01*
X158462152Y-88804666D02*
X158557390Y-88852285D01*
X158557390Y-88852285D02*
X158605009Y-88899904D01*
X158605009Y-88899904D02*
X158652628Y-88995142D01*
X158652628Y-88995142D02*
X158652628Y-89376094D01*
X158605009Y-88042761D02*
X158652628Y-87899904D01*
X158652628Y-87899904D02*
X158700247Y-87852285D01*
X158700247Y-87852285D02*
X158795485Y-87804666D01*
X158795485Y-87804666D02*
X158938342Y-87804666D01*
X158938342Y-87804666D02*
X159033580Y-87852285D01*
X159033580Y-87852285D02*
X159081200Y-87899904D01*
X159081200Y-87899904D02*
X159128819Y-87995142D01*
X159128819Y-87995142D02*
X159128819Y-88376094D01*
X159128819Y-88376094D02*
X158128819Y-88376094D01*
X158128819Y-88376094D02*
X158128819Y-88042761D01*
X158128819Y-88042761D02*
X158176438Y-87947523D01*
X158176438Y-87947523D02*
X158224057Y-87899904D01*
X158224057Y-87899904D02*
X158319295Y-87852285D01*
X158319295Y-87852285D02*
X158414533Y-87852285D01*
X158414533Y-87852285D02*
X158509771Y-87899904D01*
X158509771Y-87899904D02*
X158557390Y-87947523D01*
X158557390Y-87947523D02*
X158605009Y-88042761D01*
X158605009Y-88042761D02*
X158605009Y-88376094D01*
X158128819Y-87471332D02*
X158128819Y-86804666D01*
X158128819Y-86804666D02*
X159128819Y-87233237D01*
X113154819Y-57300666D02*
X112154819Y-57300666D01*
X112154819Y-57300666D02*
X112154819Y-56919714D01*
X112154819Y-56919714D02*
X112202438Y-56824476D01*
X112202438Y-56824476D02*
X112250057Y-56776857D01*
X112250057Y-56776857D02*
X112345295Y-56729238D01*
X112345295Y-56729238D02*
X112488152Y-56729238D01*
X112488152Y-56729238D02*
X112583390Y-56776857D01*
X112583390Y-56776857D02*
X112631009Y-56824476D01*
X112631009Y-56824476D02*
X112678628Y-56919714D01*
X112678628Y-56919714D02*
X112678628Y-57300666D01*
X112869104Y-56348285D02*
X112869104Y-55872095D01*
X113154819Y-56443523D02*
X112154819Y-56110190D01*
X112154819Y-56110190D02*
X113154819Y-55776857D01*
X112154819Y-55538761D02*
X112154819Y-54919714D01*
X112154819Y-54919714D02*
X112535771Y-55253047D01*
X112535771Y-55253047D02*
X112535771Y-55110190D01*
X112535771Y-55110190D02*
X112583390Y-55014952D01*
X112583390Y-55014952D02*
X112631009Y-54967333D01*
X112631009Y-54967333D02*
X112726247Y-54919714D01*
X112726247Y-54919714D02*
X112964342Y-54919714D01*
X112964342Y-54919714D02*
X113059580Y-54967333D01*
X113059580Y-54967333D02*
X113107200Y-55014952D01*
X113107200Y-55014952D02*
X113154819Y-55110190D01*
X113154819Y-55110190D02*
X113154819Y-55395904D01*
X113154819Y-55395904D02*
X113107200Y-55491142D01*
X113107200Y-55491142D02*
X113059580Y-55538761D01*
X151381819Y-89376094D02*
X150381819Y-89376094D01*
X150381819Y-89376094D02*
X150381819Y-88995142D01*
X150381819Y-88995142D02*
X150429438Y-88899904D01*
X150429438Y-88899904D02*
X150477057Y-88852285D01*
X150477057Y-88852285D02*
X150572295Y-88804666D01*
X150572295Y-88804666D02*
X150715152Y-88804666D01*
X150715152Y-88804666D02*
X150810390Y-88852285D01*
X150810390Y-88852285D02*
X150858009Y-88899904D01*
X150858009Y-88899904D02*
X150905628Y-88995142D01*
X150905628Y-88995142D02*
X150905628Y-89376094D01*
X150858009Y-88042761D02*
X150905628Y-87899904D01*
X150905628Y-87899904D02*
X150953247Y-87852285D01*
X150953247Y-87852285D02*
X151048485Y-87804666D01*
X151048485Y-87804666D02*
X151191342Y-87804666D01*
X151191342Y-87804666D02*
X151286580Y-87852285D01*
X151286580Y-87852285D02*
X151334200Y-87899904D01*
X151334200Y-87899904D02*
X151381819Y-87995142D01*
X151381819Y-87995142D02*
X151381819Y-88376094D01*
X151381819Y-88376094D02*
X150381819Y-88376094D01*
X150381819Y-88376094D02*
X150381819Y-88042761D01*
X150381819Y-88042761D02*
X150429438Y-87947523D01*
X150429438Y-87947523D02*
X150477057Y-87899904D01*
X150477057Y-87899904D02*
X150572295Y-87852285D01*
X150572295Y-87852285D02*
X150667533Y-87852285D01*
X150667533Y-87852285D02*
X150762771Y-87899904D01*
X150762771Y-87899904D02*
X150810390Y-87947523D01*
X150810390Y-87947523D02*
X150858009Y-88042761D01*
X150858009Y-88042761D02*
X150858009Y-88376094D01*
X150715152Y-86947523D02*
X151381819Y-86947523D01*
X150334200Y-87185618D02*
X151048485Y-87423713D01*
X151048485Y-87423713D02*
X151048485Y-86804666D01*
X118234819Y-89304666D02*
X117234819Y-89304666D01*
X117234819Y-89304666D02*
X117234819Y-88923714D01*
X117234819Y-88923714D02*
X117282438Y-88828476D01*
X117282438Y-88828476D02*
X117330057Y-88780857D01*
X117330057Y-88780857D02*
X117425295Y-88733238D01*
X117425295Y-88733238D02*
X117568152Y-88733238D01*
X117568152Y-88733238D02*
X117663390Y-88780857D01*
X117663390Y-88780857D02*
X117711009Y-88828476D01*
X117711009Y-88828476D02*
X117758628Y-88923714D01*
X117758628Y-88923714D02*
X117758628Y-89304666D01*
X117949104Y-88352285D02*
X117949104Y-87876095D01*
X118234819Y-88447523D02*
X117234819Y-88114190D01*
X117234819Y-88114190D02*
X118234819Y-87780857D01*
X117234819Y-86971333D02*
X117234819Y-87447523D01*
X117234819Y-87447523D02*
X117711009Y-87495142D01*
X117711009Y-87495142D02*
X117663390Y-87447523D01*
X117663390Y-87447523D02*
X117615771Y-87352285D01*
X117615771Y-87352285D02*
X117615771Y-87114190D01*
X117615771Y-87114190D02*
X117663390Y-87018952D01*
X117663390Y-87018952D02*
X117711009Y-86971333D01*
X117711009Y-86971333D02*
X117806247Y-86923714D01*
X117806247Y-86923714D02*
X118044342Y-86923714D01*
X118044342Y-86923714D02*
X118139580Y-86971333D01*
X118139580Y-86971333D02*
X118187200Y-87018952D01*
X118187200Y-87018952D02*
X118234819Y-87114190D01*
X118234819Y-87114190D02*
X118234819Y-87352285D01*
X118234819Y-87352285D02*
X118187200Y-87447523D01*
X118187200Y-87447523D02*
X118139580Y-87495142D01*
X134459104Y-88344285D02*
X134459104Y-87868095D01*
X134744819Y-88439523D02*
X133744819Y-88106190D01*
X133744819Y-88106190D02*
X134744819Y-87772857D01*
X133840057Y-87487142D02*
X133792438Y-87439523D01*
X133792438Y-87439523D02*
X133744819Y-87344285D01*
X133744819Y-87344285D02*
X133744819Y-87106190D01*
X133744819Y-87106190D02*
X133792438Y-87010952D01*
X133792438Y-87010952D02*
X133840057Y-86963333D01*
X133840057Y-86963333D02*
X133935295Y-86915714D01*
X133935295Y-86915714D02*
X134030533Y-86915714D01*
X134030533Y-86915714D02*
X134173390Y-86963333D01*
X134173390Y-86963333D02*
X134744819Y-87534761D01*
X134744819Y-87534761D02*
X134744819Y-86915714D01*
X115068779Y-97659819D02*
X115068779Y-96659819D01*
X115735445Y-96659819D02*
X115925921Y-96659819D01*
X115925921Y-96659819D02*
X116021159Y-96707438D01*
X116021159Y-96707438D02*
X116116397Y-96802676D01*
X116116397Y-96802676D02*
X116164016Y-96993152D01*
X116164016Y-96993152D02*
X116164016Y-97326485D01*
X116164016Y-97326485D02*
X116116397Y-97516961D01*
X116116397Y-97516961D02*
X116021159Y-97612200D01*
X116021159Y-97612200D02*
X115925921Y-97659819D01*
X115925921Y-97659819D02*
X115735445Y-97659819D01*
X115735445Y-97659819D02*
X115640207Y-97612200D01*
X115640207Y-97612200D02*
X115544969Y-97516961D01*
X115544969Y-97516961D02*
X115497350Y-97326485D01*
X115497350Y-97326485D02*
X115497350Y-96993152D01*
X115497350Y-96993152D02*
X115544969Y-96802676D01*
X115544969Y-96802676D02*
X115640207Y-96707438D01*
X115640207Y-96707438D02*
X115735445Y-96659819D01*
X116735445Y-97088390D02*
X116640207Y-97040771D01*
X116640207Y-97040771D02*
X116592588Y-96993152D01*
X116592588Y-96993152D02*
X116544969Y-96897914D01*
X116544969Y-96897914D02*
X116544969Y-96850295D01*
X116544969Y-96850295D02*
X116592588Y-96755057D01*
X116592588Y-96755057D02*
X116640207Y-96707438D01*
X116640207Y-96707438D02*
X116735445Y-96659819D01*
X116735445Y-96659819D02*
X116925921Y-96659819D01*
X116925921Y-96659819D02*
X117021159Y-96707438D01*
X117021159Y-96707438D02*
X117068778Y-96755057D01*
X117068778Y-96755057D02*
X117116397Y-96850295D01*
X117116397Y-96850295D02*
X117116397Y-96897914D01*
X117116397Y-96897914D02*
X117068778Y-96993152D01*
X117068778Y-96993152D02*
X117021159Y-97040771D01*
X117021159Y-97040771D02*
X116925921Y-97088390D01*
X116925921Y-97088390D02*
X116735445Y-97088390D01*
X116735445Y-97088390D02*
X116640207Y-97136009D01*
X116640207Y-97136009D02*
X116592588Y-97183628D01*
X116592588Y-97183628D02*
X116544969Y-97278866D01*
X116544969Y-97278866D02*
X116544969Y-97469342D01*
X116544969Y-97469342D02*
X116592588Y-97564580D01*
X116592588Y-97564580D02*
X116640207Y-97612200D01*
X116640207Y-97612200D02*
X116735445Y-97659819D01*
X116735445Y-97659819D02*
X116925921Y-97659819D01*
X116925921Y-97659819D02*
X117021159Y-97612200D01*
X117021159Y-97612200D02*
X117068778Y-97564580D01*
X117068778Y-97564580D02*
X117116397Y-97469342D01*
X117116397Y-97469342D02*
X117116397Y-97278866D01*
X117116397Y-97278866D02*
X117068778Y-97183628D01*
X117068778Y-97183628D02*
X117021159Y-97136009D01*
X117021159Y-97136009D02*
X116925921Y-97088390D01*
X148714819Y-57372094D02*
X147714819Y-57372094D01*
X147714819Y-57372094D02*
X147714819Y-56991142D01*
X147714819Y-56991142D02*
X147762438Y-56895904D01*
X147762438Y-56895904D02*
X147810057Y-56848285D01*
X147810057Y-56848285D02*
X147905295Y-56800666D01*
X147905295Y-56800666D02*
X148048152Y-56800666D01*
X148048152Y-56800666D02*
X148143390Y-56848285D01*
X148143390Y-56848285D02*
X148191009Y-56895904D01*
X148191009Y-56895904D02*
X148238628Y-56991142D01*
X148238628Y-56991142D02*
X148238628Y-57372094D01*
X148191009Y-56038761D02*
X148238628Y-55895904D01*
X148238628Y-55895904D02*
X148286247Y-55848285D01*
X148286247Y-55848285D02*
X148381485Y-55800666D01*
X148381485Y-55800666D02*
X148524342Y-55800666D01*
X148524342Y-55800666D02*
X148619580Y-55848285D01*
X148619580Y-55848285D02*
X148667200Y-55895904D01*
X148667200Y-55895904D02*
X148714819Y-55991142D01*
X148714819Y-55991142D02*
X148714819Y-56372094D01*
X148714819Y-56372094D02*
X147714819Y-56372094D01*
X147714819Y-56372094D02*
X147714819Y-56038761D01*
X147714819Y-56038761D02*
X147762438Y-55943523D01*
X147762438Y-55943523D02*
X147810057Y-55895904D01*
X147810057Y-55895904D02*
X147905295Y-55848285D01*
X147905295Y-55848285D02*
X148000533Y-55848285D01*
X148000533Y-55848285D02*
X148095771Y-55895904D01*
X148095771Y-55895904D02*
X148143390Y-55943523D01*
X148143390Y-55943523D02*
X148191009Y-56038761D01*
X148191009Y-56038761D02*
X148191009Y-56372094D01*
X147714819Y-55467332D02*
X147714819Y-54848285D01*
X147714819Y-54848285D02*
X148095771Y-55181618D01*
X148095771Y-55181618D02*
X148095771Y-55038761D01*
X148095771Y-55038761D02*
X148143390Y-54943523D01*
X148143390Y-54943523D02*
X148191009Y-54895904D01*
X148191009Y-54895904D02*
X148286247Y-54848285D01*
X148286247Y-54848285D02*
X148524342Y-54848285D01*
X148524342Y-54848285D02*
X148619580Y-54895904D01*
X148619580Y-54895904D02*
X148667200Y-54943523D01*
X148667200Y-54943523D02*
X148714819Y-55038761D01*
X148714819Y-55038761D02*
X148714819Y-55324475D01*
X148714819Y-55324475D02*
X148667200Y-55419713D01*
X148667200Y-55419713D02*
X148619580Y-55467332D01*
X110614819Y-57300666D02*
X109614819Y-57300666D01*
X109614819Y-57300666D02*
X109614819Y-56919714D01*
X109614819Y-56919714D02*
X109662438Y-56824476D01*
X109662438Y-56824476D02*
X109710057Y-56776857D01*
X109710057Y-56776857D02*
X109805295Y-56729238D01*
X109805295Y-56729238D02*
X109948152Y-56729238D01*
X109948152Y-56729238D02*
X110043390Y-56776857D01*
X110043390Y-56776857D02*
X110091009Y-56824476D01*
X110091009Y-56824476D02*
X110138628Y-56919714D01*
X110138628Y-56919714D02*
X110138628Y-57300666D01*
X110329104Y-56348285D02*
X110329104Y-55872095D01*
X110614819Y-56443523D02*
X109614819Y-56110190D01*
X109614819Y-56110190D02*
X110614819Y-55776857D01*
X109710057Y-55491142D02*
X109662438Y-55443523D01*
X109662438Y-55443523D02*
X109614819Y-55348285D01*
X109614819Y-55348285D02*
X109614819Y-55110190D01*
X109614819Y-55110190D02*
X109662438Y-55014952D01*
X109662438Y-55014952D02*
X109710057Y-54967333D01*
X109710057Y-54967333D02*
X109805295Y-54919714D01*
X109805295Y-54919714D02*
X109900533Y-54919714D01*
X109900533Y-54919714D02*
X110043390Y-54967333D01*
X110043390Y-54967333D02*
X110614819Y-55538761D01*
X110614819Y-55538761D02*
X110614819Y-54919714D01*
X106242207Y-97532819D02*
X105908874Y-97056628D01*
X105670779Y-97532819D02*
X105670779Y-96532819D01*
X105670779Y-96532819D02*
X106051731Y-96532819D01*
X106051731Y-96532819D02*
X106146969Y-96580438D01*
X106146969Y-96580438D02*
X106194588Y-96628057D01*
X106194588Y-96628057D02*
X106242207Y-96723295D01*
X106242207Y-96723295D02*
X106242207Y-96866152D01*
X106242207Y-96866152D02*
X106194588Y-96961390D01*
X106194588Y-96961390D02*
X106146969Y-97009009D01*
X106146969Y-97009009D02*
X106051731Y-97056628D01*
X106051731Y-97056628D02*
X105670779Y-97056628D01*
X107051731Y-97485200D02*
X106956493Y-97532819D01*
X106956493Y-97532819D02*
X106766017Y-97532819D01*
X106766017Y-97532819D02*
X106670779Y-97485200D01*
X106670779Y-97485200D02*
X106623160Y-97389961D01*
X106623160Y-97389961D02*
X106623160Y-97009009D01*
X106623160Y-97009009D02*
X106670779Y-96913771D01*
X106670779Y-96913771D02*
X106766017Y-96866152D01*
X106766017Y-96866152D02*
X106956493Y-96866152D01*
X106956493Y-96866152D02*
X107051731Y-96913771D01*
X107051731Y-96913771D02*
X107099350Y-97009009D01*
X107099350Y-97009009D02*
X107099350Y-97104247D01*
X107099350Y-97104247D02*
X106623160Y-97199485D01*
X107480303Y-97485200D02*
X107575541Y-97532819D01*
X107575541Y-97532819D02*
X107766017Y-97532819D01*
X107766017Y-97532819D02*
X107861255Y-97485200D01*
X107861255Y-97485200D02*
X107908874Y-97389961D01*
X107908874Y-97389961D02*
X107908874Y-97342342D01*
X107908874Y-97342342D02*
X107861255Y-97247104D01*
X107861255Y-97247104D02*
X107766017Y-97199485D01*
X107766017Y-97199485D02*
X107623160Y-97199485D01*
X107623160Y-97199485D02*
X107527922Y-97151866D01*
X107527922Y-97151866D02*
X107480303Y-97056628D01*
X107480303Y-97056628D02*
X107480303Y-97009009D01*
X107480303Y-97009009D02*
X107527922Y-96913771D01*
X107527922Y-96913771D02*
X107623160Y-96866152D01*
X107623160Y-96866152D02*
X107766017Y-96866152D01*
X107766017Y-96866152D02*
X107861255Y-96913771D01*
X108718398Y-97485200D02*
X108623160Y-97532819D01*
X108623160Y-97532819D02*
X108432684Y-97532819D01*
X108432684Y-97532819D02*
X108337446Y-97485200D01*
X108337446Y-97485200D02*
X108289827Y-97389961D01*
X108289827Y-97389961D02*
X108289827Y-97009009D01*
X108289827Y-97009009D02*
X108337446Y-96913771D01*
X108337446Y-96913771D02*
X108432684Y-96866152D01*
X108432684Y-96866152D02*
X108623160Y-96866152D01*
X108623160Y-96866152D02*
X108718398Y-96913771D01*
X108718398Y-96913771D02*
X108766017Y-97009009D01*
X108766017Y-97009009D02*
X108766017Y-97104247D01*
X108766017Y-97104247D02*
X108289827Y-97199485D01*
X109051732Y-96866152D02*
X109432684Y-96866152D01*
X109194589Y-96532819D02*
X109194589Y-97389961D01*
X109194589Y-97389961D02*
X109242208Y-97485200D01*
X109242208Y-97485200D02*
X109337446Y-97532819D01*
X109337446Y-97532819D02*
X109432684Y-97532819D01*
X113154819Y-89304666D02*
X112154819Y-89304666D01*
X112154819Y-89304666D02*
X112154819Y-88923714D01*
X112154819Y-88923714D02*
X112202438Y-88828476D01*
X112202438Y-88828476D02*
X112250057Y-88780857D01*
X112250057Y-88780857D02*
X112345295Y-88733238D01*
X112345295Y-88733238D02*
X112488152Y-88733238D01*
X112488152Y-88733238D02*
X112583390Y-88780857D01*
X112583390Y-88780857D02*
X112631009Y-88828476D01*
X112631009Y-88828476D02*
X112678628Y-88923714D01*
X112678628Y-88923714D02*
X112678628Y-89304666D01*
X112869104Y-88352285D02*
X112869104Y-87876095D01*
X113154819Y-88447523D02*
X112154819Y-88114190D01*
X112154819Y-88114190D02*
X113154819Y-87780857D01*
X112154819Y-87542761D02*
X112154819Y-86923714D01*
X112154819Y-86923714D02*
X112535771Y-87257047D01*
X112535771Y-87257047D02*
X112535771Y-87114190D01*
X112535771Y-87114190D02*
X112583390Y-87018952D01*
X112583390Y-87018952D02*
X112631009Y-86971333D01*
X112631009Y-86971333D02*
X112726247Y-86923714D01*
X112726247Y-86923714D02*
X112964342Y-86923714D01*
X112964342Y-86923714D02*
X113059580Y-86971333D01*
X113059580Y-86971333D02*
X113107200Y-87018952D01*
X113107200Y-87018952D02*
X113154819Y-87114190D01*
X113154819Y-87114190D02*
X113154819Y-87399904D01*
X113154819Y-87399904D02*
X113107200Y-87495142D01*
X113107200Y-87495142D02*
X113059580Y-87542761D01*
X123314819Y-89304666D02*
X122314819Y-89304666D01*
X122314819Y-89304666D02*
X122314819Y-88923714D01*
X122314819Y-88923714D02*
X122362438Y-88828476D01*
X122362438Y-88828476D02*
X122410057Y-88780857D01*
X122410057Y-88780857D02*
X122505295Y-88733238D01*
X122505295Y-88733238D02*
X122648152Y-88733238D01*
X122648152Y-88733238D02*
X122743390Y-88780857D01*
X122743390Y-88780857D02*
X122791009Y-88828476D01*
X122791009Y-88828476D02*
X122838628Y-88923714D01*
X122838628Y-88923714D02*
X122838628Y-89304666D01*
X123029104Y-88352285D02*
X123029104Y-87876095D01*
X123314819Y-88447523D02*
X122314819Y-88114190D01*
X122314819Y-88114190D02*
X123314819Y-87780857D01*
X122314819Y-87542761D02*
X122314819Y-86876095D01*
X122314819Y-86876095D02*
X123314819Y-87304666D01*
X156461819Y-89376094D02*
X155461819Y-89376094D01*
X155461819Y-89376094D02*
X155461819Y-88995142D01*
X155461819Y-88995142D02*
X155509438Y-88899904D01*
X155509438Y-88899904D02*
X155557057Y-88852285D01*
X155557057Y-88852285D02*
X155652295Y-88804666D01*
X155652295Y-88804666D02*
X155795152Y-88804666D01*
X155795152Y-88804666D02*
X155890390Y-88852285D01*
X155890390Y-88852285D02*
X155938009Y-88899904D01*
X155938009Y-88899904D02*
X155985628Y-88995142D01*
X155985628Y-88995142D02*
X155985628Y-89376094D01*
X155938009Y-88042761D02*
X155985628Y-87899904D01*
X155985628Y-87899904D02*
X156033247Y-87852285D01*
X156033247Y-87852285D02*
X156128485Y-87804666D01*
X156128485Y-87804666D02*
X156271342Y-87804666D01*
X156271342Y-87804666D02*
X156366580Y-87852285D01*
X156366580Y-87852285D02*
X156414200Y-87899904D01*
X156414200Y-87899904D02*
X156461819Y-87995142D01*
X156461819Y-87995142D02*
X156461819Y-88376094D01*
X156461819Y-88376094D02*
X155461819Y-88376094D01*
X155461819Y-88376094D02*
X155461819Y-88042761D01*
X155461819Y-88042761D02*
X155509438Y-87947523D01*
X155509438Y-87947523D02*
X155557057Y-87899904D01*
X155557057Y-87899904D02*
X155652295Y-87852285D01*
X155652295Y-87852285D02*
X155747533Y-87852285D01*
X155747533Y-87852285D02*
X155842771Y-87899904D01*
X155842771Y-87899904D02*
X155890390Y-87947523D01*
X155890390Y-87947523D02*
X155938009Y-88042761D01*
X155938009Y-88042761D02*
X155938009Y-88376094D01*
X155461819Y-86947523D02*
X155461819Y-87137999D01*
X155461819Y-87137999D02*
X155509438Y-87233237D01*
X155509438Y-87233237D02*
X155557057Y-87280856D01*
X155557057Y-87280856D02*
X155699914Y-87376094D01*
X155699914Y-87376094D02*
X155890390Y-87423713D01*
X155890390Y-87423713D02*
X156271342Y-87423713D01*
X156271342Y-87423713D02*
X156366580Y-87376094D01*
X156366580Y-87376094D02*
X156414200Y-87328475D01*
X156414200Y-87328475D02*
X156461819Y-87233237D01*
X156461819Y-87233237D02*
X156461819Y-87042761D01*
X156461819Y-87042761D02*
X156414200Y-86947523D01*
X156414200Y-86947523D02*
X156366580Y-86899904D01*
X156366580Y-86899904D02*
X156271342Y-86852285D01*
X156271342Y-86852285D02*
X156033247Y-86852285D01*
X156033247Y-86852285D02*
X155938009Y-86899904D01*
X155938009Y-86899904D02*
X155890390Y-86947523D01*
X155890390Y-86947523D02*
X155842771Y-87042761D01*
X155842771Y-87042761D02*
X155842771Y-87233237D01*
X155842771Y-87233237D02*
X155890390Y-87328475D01*
X155890390Y-87328475D02*
X155938009Y-87376094D01*
X155938009Y-87376094D02*
X156033247Y-87423713D01*
X108591779Y-99818819D02*
X108591779Y-98818819D01*
X109067969Y-99152152D02*
X109067969Y-99818819D01*
X109067969Y-99247390D02*
X109115588Y-99199771D01*
X109115588Y-99199771D02*
X109210826Y-99152152D01*
X109210826Y-99152152D02*
X109353683Y-99152152D01*
X109353683Y-99152152D02*
X109448921Y-99199771D01*
X109448921Y-99199771D02*
X109496540Y-99295009D01*
X109496540Y-99295009D02*
X109496540Y-99818819D01*
X109829874Y-99152152D02*
X110210826Y-99152152D01*
X109972731Y-98818819D02*
X109972731Y-99675961D01*
X109972731Y-99675961D02*
X110020350Y-99771200D01*
X110020350Y-99771200D02*
X110115588Y-99818819D01*
X110115588Y-99818819D02*
X110210826Y-99818819D01*
X110925112Y-99771200D02*
X110829874Y-99818819D01*
X110829874Y-99818819D02*
X110639398Y-99818819D01*
X110639398Y-99818819D02*
X110544160Y-99771200D01*
X110544160Y-99771200D02*
X110496541Y-99675961D01*
X110496541Y-99675961D02*
X110496541Y-99295009D01*
X110496541Y-99295009D02*
X110544160Y-99199771D01*
X110544160Y-99199771D02*
X110639398Y-99152152D01*
X110639398Y-99152152D02*
X110829874Y-99152152D01*
X110829874Y-99152152D02*
X110925112Y-99199771D01*
X110925112Y-99199771D02*
X110972731Y-99295009D01*
X110972731Y-99295009D02*
X110972731Y-99390247D01*
X110972731Y-99390247D02*
X110496541Y-99485485D01*
X111401303Y-99818819D02*
X111401303Y-99152152D01*
X111401303Y-99342628D02*
X111448922Y-99247390D01*
X111448922Y-99247390D02*
X111496541Y-99199771D01*
X111496541Y-99199771D02*
X111591779Y-99152152D01*
X111591779Y-99152152D02*
X111687017Y-99152152D01*
X112020351Y-99152152D02*
X112020351Y-99818819D01*
X112020351Y-99247390D02*
X112067970Y-99199771D01*
X112067970Y-99199771D02*
X112163208Y-99152152D01*
X112163208Y-99152152D02*
X112306065Y-99152152D01*
X112306065Y-99152152D02*
X112401303Y-99199771D01*
X112401303Y-99199771D02*
X112448922Y-99295009D01*
X112448922Y-99295009D02*
X112448922Y-99818819D01*
X113353684Y-99818819D02*
X113353684Y-99295009D01*
X113353684Y-99295009D02*
X113306065Y-99199771D01*
X113306065Y-99199771D02*
X113210827Y-99152152D01*
X113210827Y-99152152D02*
X113020351Y-99152152D01*
X113020351Y-99152152D02*
X112925113Y-99199771D01*
X113353684Y-99771200D02*
X113258446Y-99818819D01*
X113258446Y-99818819D02*
X113020351Y-99818819D01*
X113020351Y-99818819D02*
X112925113Y-99771200D01*
X112925113Y-99771200D02*
X112877494Y-99675961D01*
X112877494Y-99675961D02*
X112877494Y-99580723D01*
X112877494Y-99580723D02*
X112925113Y-99485485D01*
X112925113Y-99485485D02*
X113020351Y-99437866D01*
X113020351Y-99437866D02*
X113258446Y-99437866D01*
X113258446Y-99437866D02*
X113353684Y-99390247D01*
X113972732Y-99818819D02*
X113877494Y-99771200D01*
X113877494Y-99771200D02*
X113829875Y-99675961D01*
X113829875Y-99675961D02*
X113829875Y-98818819D01*
X115687018Y-99723580D02*
X115639399Y-99771200D01*
X115639399Y-99771200D02*
X115496542Y-99818819D01*
X115496542Y-99818819D02*
X115401304Y-99818819D01*
X115401304Y-99818819D02*
X115258447Y-99771200D01*
X115258447Y-99771200D02*
X115163209Y-99675961D01*
X115163209Y-99675961D02*
X115115590Y-99580723D01*
X115115590Y-99580723D02*
X115067971Y-99390247D01*
X115067971Y-99390247D02*
X115067971Y-99247390D01*
X115067971Y-99247390D02*
X115115590Y-99056914D01*
X115115590Y-99056914D02*
X115163209Y-98961676D01*
X115163209Y-98961676D02*
X115258447Y-98866438D01*
X115258447Y-98866438D02*
X115401304Y-98818819D01*
X115401304Y-98818819D02*
X115496542Y-98818819D01*
X115496542Y-98818819D02*
X115639399Y-98866438D01*
X115639399Y-98866438D02*
X115687018Y-98914057D01*
X116258447Y-99818819D02*
X116163209Y-99771200D01*
X116163209Y-99771200D02*
X116115590Y-99723580D01*
X116115590Y-99723580D02*
X116067971Y-99628342D01*
X116067971Y-99628342D02*
X116067971Y-99342628D01*
X116067971Y-99342628D02*
X116115590Y-99247390D01*
X116115590Y-99247390D02*
X116163209Y-99199771D01*
X116163209Y-99199771D02*
X116258447Y-99152152D01*
X116258447Y-99152152D02*
X116401304Y-99152152D01*
X116401304Y-99152152D02*
X116496542Y-99199771D01*
X116496542Y-99199771D02*
X116544161Y-99247390D01*
X116544161Y-99247390D02*
X116591780Y-99342628D01*
X116591780Y-99342628D02*
X116591780Y-99628342D01*
X116591780Y-99628342D02*
X116544161Y-99723580D01*
X116544161Y-99723580D02*
X116496542Y-99771200D01*
X116496542Y-99771200D02*
X116401304Y-99818819D01*
X116401304Y-99818819D02*
X116258447Y-99818819D01*
X117020352Y-99152152D02*
X117020352Y-99818819D01*
X117020352Y-99247390D02*
X117067971Y-99199771D01*
X117067971Y-99199771D02*
X117163209Y-99152152D01*
X117163209Y-99152152D02*
X117306066Y-99152152D01*
X117306066Y-99152152D02*
X117401304Y-99199771D01*
X117401304Y-99199771D02*
X117448923Y-99295009D01*
X117448923Y-99295009D02*
X117448923Y-99818819D01*
X148841819Y-89376094D02*
X147841819Y-89376094D01*
X147841819Y-89376094D02*
X147841819Y-88995142D01*
X147841819Y-88995142D02*
X147889438Y-88899904D01*
X147889438Y-88899904D02*
X147937057Y-88852285D01*
X147937057Y-88852285D02*
X148032295Y-88804666D01*
X148032295Y-88804666D02*
X148175152Y-88804666D01*
X148175152Y-88804666D02*
X148270390Y-88852285D01*
X148270390Y-88852285D02*
X148318009Y-88899904D01*
X148318009Y-88899904D02*
X148365628Y-88995142D01*
X148365628Y-88995142D02*
X148365628Y-89376094D01*
X148318009Y-88042761D02*
X148365628Y-87899904D01*
X148365628Y-87899904D02*
X148413247Y-87852285D01*
X148413247Y-87852285D02*
X148508485Y-87804666D01*
X148508485Y-87804666D02*
X148651342Y-87804666D01*
X148651342Y-87804666D02*
X148746580Y-87852285D01*
X148746580Y-87852285D02*
X148794200Y-87899904D01*
X148794200Y-87899904D02*
X148841819Y-87995142D01*
X148841819Y-87995142D02*
X148841819Y-88376094D01*
X148841819Y-88376094D02*
X147841819Y-88376094D01*
X147841819Y-88376094D02*
X147841819Y-88042761D01*
X147841819Y-88042761D02*
X147889438Y-87947523D01*
X147889438Y-87947523D02*
X147937057Y-87899904D01*
X147937057Y-87899904D02*
X148032295Y-87852285D01*
X148032295Y-87852285D02*
X148127533Y-87852285D01*
X148127533Y-87852285D02*
X148222771Y-87899904D01*
X148222771Y-87899904D02*
X148270390Y-87947523D01*
X148270390Y-87947523D02*
X148318009Y-88042761D01*
X148318009Y-88042761D02*
X148318009Y-88376094D01*
X147841819Y-87471332D02*
X147841819Y-86852285D01*
X147841819Y-86852285D02*
X148222771Y-87185618D01*
X148222771Y-87185618D02*
X148222771Y-87042761D01*
X148222771Y-87042761D02*
X148270390Y-86947523D01*
X148270390Y-86947523D02*
X148318009Y-86899904D01*
X148318009Y-86899904D02*
X148413247Y-86852285D01*
X148413247Y-86852285D02*
X148651342Y-86852285D01*
X148651342Y-86852285D02*
X148746580Y-86899904D01*
X148746580Y-86899904D02*
X148794200Y-86947523D01*
X148794200Y-86947523D02*
X148841819Y-87042761D01*
X148841819Y-87042761D02*
X148841819Y-87328475D01*
X148841819Y-87328475D02*
X148794200Y-87423713D01*
X148794200Y-87423713D02*
X148746580Y-87471332D01*
X153794819Y-57372094D02*
X152794819Y-57372094D01*
X152794819Y-57372094D02*
X152794819Y-56991142D01*
X152794819Y-56991142D02*
X152842438Y-56895904D01*
X152842438Y-56895904D02*
X152890057Y-56848285D01*
X152890057Y-56848285D02*
X152985295Y-56800666D01*
X152985295Y-56800666D02*
X153128152Y-56800666D01*
X153128152Y-56800666D02*
X153223390Y-56848285D01*
X153223390Y-56848285D02*
X153271009Y-56895904D01*
X153271009Y-56895904D02*
X153318628Y-56991142D01*
X153318628Y-56991142D02*
X153318628Y-57372094D01*
X153271009Y-56038761D02*
X153318628Y-55895904D01*
X153318628Y-55895904D02*
X153366247Y-55848285D01*
X153366247Y-55848285D02*
X153461485Y-55800666D01*
X153461485Y-55800666D02*
X153604342Y-55800666D01*
X153604342Y-55800666D02*
X153699580Y-55848285D01*
X153699580Y-55848285D02*
X153747200Y-55895904D01*
X153747200Y-55895904D02*
X153794819Y-55991142D01*
X153794819Y-55991142D02*
X153794819Y-56372094D01*
X153794819Y-56372094D02*
X152794819Y-56372094D01*
X152794819Y-56372094D02*
X152794819Y-56038761D01*
X152794819Y-56038761D02*
X152842438Y-55943523D01*
X152842438Y-55943523D02*
X152890057Y-55895904D01*
X152890057Y-55895904D02*
X152985295Y-55848285D01*
X152985295Y-55848285D02*
X153080533Y-55848285D01*
X153080533Y-55848285D02*
X153175771Y-55895904D01*
X153175771Y-55895904D02*
X153223390Y-55943523D01*
X153223390Y-55943523D02*
X153271009Y-56038761D01*
X153271009Y-56038761D02*
X153271009Y-56372094D01*
X152794819Y-54895904D02*
X152794819Y-55372094D01*
X152794819Y-55372094D02*
X153271009Y-55419713D01*
X153271009Y-55419713D02*
X153223390Y-55372094D01*
X153223390Y-55372094D02*
X153175771Y-55276856D01*
X153175771Y-55276856D02*
X153175771Y-55038761D01*
X153175771Y-55038761D02*
X153223390Y-54943523D01*
X153223390Y-54943523D02*
X153271009Y-54895904D01*
X153271009Y-54895904D02*
X153366247Y-54848285D01*
X153366247Y-54848285D02*
X153604342Y-54848285D01*
X153604342Y-54848285D02*
X153699580Y-54895904D01*
X153699580Y-54895904D02*
X153747200Y-54943523D01*
X153747200Y-54943523D02*
X153794819Y-55038761D01*
X153794819Y-55038761D02*
X153794819Y-55276856D01*
X153794819Y-55276856D02*
X153747200Y-55372094D01*
X153747200Y-55372094D02*
X153699580Y-55419713D01*
X115068779Y-95119819D02*
X115068779Y-94119819D01*
X115735445Y-94119819D02*
X115925921Y-94119819D01*
X115925921Y-94119819D02*
X116021159Y-94167438D01*
X116021159Y-94167438D02*
X116116397Y-94262676D01*
X116116397Y-94262676D02*
X116164016Y-94453152D01*
X116164016Y-94453152D02*
X116164016Y-94786485D01*
X116164016Y-94786485D02*
X116116397Y-94976961D01*
X116116397Y-94976961D02*
X116021159Y-95072200D01*
X116021159Y-95072200D02*
X115925921Y-95119819D01*
X115925921Y-95119819D02*
X115735445Y-95119819D01*
X115735445Y-95119819D02*
X115640207Y-95072200D01*
X115640207Y-95072200D02*
X115544969Y-94976961D01*
X115544969Y-94976961D02*
X115497350Y-94786485D01*
X115497350Y-94786485D02*
X115497350Y-94453152D01*
X115497350Y-94453152D02*
X115544969Y-94262676D01*
X115544969Y-94262676D02*
X115640207Y-94167438D01*
X115640207Y-94167438D02*
X115735445Y-94119819D01*
X116640207Y-95119819D02*
X116830683Y-95119819D01*
X116830683Y-95119819D02*
X116925921Y-95072200D01*
X116925921Y-95072200D02*
X116973540Y-95024580D01*
X116973540Y-95024580D02*
X117068778Y-94881723D01*
X117068778Y-94881723D02*
X117116397Y-94691247D01*
X117116397Y-94691247D02*
X117116397Y-94310295D01*
X117116397Y-94310295D02*
X117068778Y-94215057D01*
X117068778Y-94215057D02*
X117021159Y-94167438D01*
X117021159Y-94167438D02*
X116925921Y-94119819D01*
X116925921Y-94119819D02*
X116735445Y-94119819D01*
X116735445Y-94119819D02*
X116640207Y-94167438D01*
X116640207Y-94167438D02*
X116592588Y-94215057D01*
X116592588Y-94215057D02*
X116544969Y-94310295D01*
X116544969Y-94310295D02*
X116544969Y-94548390D01*
X116544969Y-94548390D02*
X116592588Y-94643628D01*
X116592588Y-94643628D02*
X116640207Y-94691247D01*
X116640207Y-94691247D02*
X116735445Y-94738866D01*
X116735445Y-94738866D02*
X116925921Y-94738866D01*
X116925921Y-94738866D02*
X117021159Y-94691247D01*
X117021159Y-94691247D02*
X117068778Y-94643628D01*
X117068778Y-94643628D02*
X117116397Y-94548390D01*
X115694819Y-57300666D02*
X114694819Y-57300666D01*
X114694819Y-57300666D02*
X114694819Y-56919714D01*
X114694819Y-56919714D02*
X114742438Y-56824476D01*
X114742438Y-56824476D02*
X114790057Y-56776857D01*
X114790057Y-56776857D02*
X114885295Y-56729238D01*
X114885295Y-56729238D02*
X115028152Y-56729238D01*
X115028152Y-56729238D02*
X115123390Y-56776857D01*
X115123390Y-56776857D02*
X115171009Y-56824476D01*
X115171009Y-56824476D02*
X115218628Y-56919714D01*
X115218628Y-56919714D02*
X115218628Y-57300666D01*
X115409104Y-56348285D02*
X115409104Y-55872095D01*
X115694819Y-56443523D02*
X114694819Y-56110190D01*
X114694819Y-56110190D02*
X115694819Y-55776857D01*
X115028152Y-55014952D02*
X115694819Y-55014952D01*
X114647200Y-55253047D02*
X115361485Y-55491142D01*
X115361485Y-55491142D02*
X115361485Y-54872095D01*
X105534819Y-57300666D02*
X104534819Y-57300666D01*
X104534819Y-57300666D02*
X104534819Y-56919714D01*
X104534819Y-56919714D02*
X104582438Y-56824476D01*
X104582438Y-56824476D02*
X104630057Y-56776857D01*
X104630057Y-56776857D02*
X104725295Y-56729238D01*
X104725295Y-56729238D02*
X104868152Y-56729238D01*
X104868152Y-56729238D02*
X104963390Y-56776857D01*
X104963390Y-56776857D02*
X105011009Y-56824476D01*
X105011009Y-56824476D02*
X105058628Y-56919714D01*
X105058628Y-56919714D02*
X105058628Y-57300666D01*
X105249104Y-56348285D02*
X105249104Y-55872095D01*
X105534819Y-56443523D02*
X104534819Y-56110190D01*
X104534819Y-56110190D02*
X105534819Y-55776857D01*
X104534819Y-55253047D02*
X104534819Y-55157809D01*
X104534819Y-55157809D02*
X104582438Y-55062571D01*
X104582438Y-55062571D02*
X104630057Y-55014952D01*
X104630057Y-55014952D02*
X104725295Y-54967333D01*
X104725295Y-54967333D02*
X104915771Y-54919714D01*
X104915771Y-54919714D02*
X105153866Y-54919714D01*
X105153866Y-54919714D02*
X105344342Y-54967333D01*
X105344342Y-54967333D02*
X105439580Y-55014952D01*
X105439580Y-55014952D02*
X105487200Y-55062571D01*
X105487200Y-55062571D02*
X105534819Y-55157809D01*
X105534819Y-55157809D02*
X105534819Y-55253047D01*
X105534819Y-55253047D02*
X105487200Y-55348285D01*
X105487200Y-55348285D02*
X105439580Y-55395904D01*
X105439580Y-55395904D02*
X105344342Y-55443523D01*
X105344342Y-55443523D02*
X105153866Y-55491142D01*
X105153866Y-55491142D02*
X104915771Y-55491142D01*
X104915771Y-55491142D02*
X104725295Y-55443523D01*
X104725295Y-55443523D02*
X104630057Y-55395904D01*
X104630057Y-55395904D02*
X104582438Y-55348285D01*
X104582438Y-55348285D02*
X104534819Y-55253047D01*
X141094819Y-57372094D02*
X140094819Y-57372094D01*
X140094819Y-57372094D02*
X140094819Y-56991142D01*
X140094819Y-56991142D02*
X140142438Y-56895904D01*
X140142438Y-56895904D02*
X140190057Y-56848285D01*
X140190057Y-56848285D02*
X140285295Y-56800666D01*
X140285295Y-56800666D02*
X140428152Y-56800666D01*
X140428152Y-56800666D02*
X140523390Y-56848285D01*
X140523390Y-56848285D02*
X140571009Y-56895904D01*
X140571009Y-56895904D02*
X140618628Y-56991142D01*
X140618628Y-56991142D02*
X140618628Y-57372094D01*
X140571009Y-56038761D02*
X140618628Y-55895904D01*
X140618628Y-55895904D02*
X140666247Y-55848285D01*
X140666247Y-55848285D02*
X140761485Y-55800666D01*
X140761485Y-55800666D02*
X140904342Y-55800666D01*
X140904342Y-55800666D02*
X140999580Y-55848285D01*
X140999580Y-55848285D02*
X141047200Y-55895904D01*
X141047200Y-55895904D02*
X141094819Y-55991142D01*
X141094819Y-55991142D02*
X141094819Y-56372094D01*
X141094819Y-56372094D02*
X140094819Y-56372094D01*
X140094819Y-56372094D02*
X140094819Y-56038761D01*
X140094819Y-56038761D02*
X140142438Y-55943523D01*
X140142438Y-55943523D02*
X140190057Y-55895904D01*
X140190057Y-55895904D02*
X140285295Y-55848285D01*
X140285295Y-55848285D02*
X140380533Y-55848285D01*
X140380533Y-55848285D02*
X140475771Y-55895904D01*
X140475771Y-55895904D02*
X140523390Y-55943523D01*
X140523390Y-55943523D02*
X140571009Y-56038761D01*
X140571009Y-56038761D02*
X140571009Y-56372094D01*
X140094819Y-55181618D02*
X140094819Y-55086380D01*
X140094819Y-55086380D02*
X140142438Y-54991142D01*
X140142438Y-54991142D02*
X140190057Y-54943523D01*
X140190057Y-54943523D02*
X140285295Y-54895904D01*
X140285295Y-54895904D02*
X140475771Y-54848285D01*
X140475771Y-54848285D02*
X140713866Y-54848285D01*
X140713866Y-54848285D02*
X140904342Y-54895904D01*
X140904342Y-54895904D02*
X140999580Y-54943523D01*
X140999580Y-54943523D02*
X141047200Y-54991142D01*
X141047200Y-54991142D02*
X141094819Y-55086380D01*
X141094819Y-55086380D02*
X141094819Y-55181618D01*
X141094819Y-55181618D02*
X141047200Y-55276856D01*
X141047200Y-55276856D02*
X140999580Y-55324475D01*
X140999580Y-55324475D02*
X140904342Y-55372094D01*
X140904342Y-55372094D02*
X140713866Y-55419713D01*
X140713866Y-55419713D02*
X140475771Y-55419713D01*
X140475771Y-55419713D02*
X140285295Y-55372094D01*
X140285295Y-55372094D02*
X140190057Y-55324475D01*
X140190057Y-55324475D02*
X140142438Y-55276856D01*
X140142438Y-55276856D02*
X140094819Y-55181618D01*
X105670779Y-92452819D02*
X105670779Y-91452819D01*
X106146969Y-91786152D02*
X106146969Y-92452819D01*
X106146969Y-91881390D02*
X106194588Y-91833771D01*
X106194588Y-91833771D02*
X106289826Y-91786152D01*
X106289826Y-91786152D02*
X106432683Y-91786152D01*
X106432683Y-91786152D02*
X106527921Y-91833771D01*
X106527921Y-91833771D02*
X106575540Y-91929009D01*
X106575540Y-91929009D02*
X106575540Y-92452819D01*
X106908874Y-91786152D02*
X107289826Y-91786152D01*
X107051731Y-91452819D02*
X107051731Y-92309961D01*
X107051731Y-92309961D02*
X107099350Y-92405200D01*
X107099350Y-92405200D02*
X107194588Y-92452819D01*
X107194588Y-92452819D02*
X107289826Y-92452819D01*
X107575541Y-92167104D02*
X108051731Y-92167104D01*
X107480303Y-92452819D02*
X107813636Y-91452819D01*
X107813636Y-91452819D02*
X108146969Y-92452819D01*
X120774819Y-89304666D02*
X119774819Y-89304666D01*
X119774819Y-89304666D02*
X119774819Y-88923714D01*
X119774819Y-88923714D02*
X119822438Y-88828476D01*
X119822438Y-88828476D02*
X119870057Y-88780857D01*
X119870057Y-88780857D02*
X119965295Y-88733238D01*
X119965295Y-88733238D02*
X120108152Y-88733238D01*
X120108152Y-88733238D02*
X120203390Y-88780857D01*
X120203390Y-88780857D02*
X120251009Y-88828476D01*
X120251009Y-88828476D02*
X120298628Y-88923714D01*
X120298628Y-88923714D02*
X120298628Y-89304666D01*
X120489104Y-88352285D02*
X120489104Y-87876095D01*
X120774819Y-88447523D02*
X119774819Y-88114190D01*
X119774819Y-88114190D02*
X120774819Y-87780857D01*
X119774819Y-87018952D02*
X119774819Y-87209428D01*
X119774819Y-87209428D02*
X119822438Y-87304666D01*
X119822438Y-87304666D02*
X119870057Y-87352285D01*
X119870057Y-87352285D02*
X120012914Y-87447523D01*
X120012914Y-87447523D02*
X120203390Y-87495142D01*
X120203390Y-87495142D02*
X120584342Y-87495142D01*
X120584342Y-87495142D02*
X120679580Y-87447523D01*
X120679580Y-87447523D02*
X120727200Y-87399904D01*
X120727200Y-87399904D02*
X120774819Y-87304666D01*
X120774819Y-87304666D02*
X120774819Y-87114190D01*
X120774819Y-87114190D02*
X120727200Y-87018952D01*
X120727200Y-87018952D02*
X120679580Y-86971333D01*
X120679580Y-86971333D02*
X120584342Y-86923714D01*
X120584342Y-86923714D02*
X120346247Y-86923714D01*
X120346247Y-86923714D02*
X120251009Y-86971333D01*
X120251009Y-86971333D02*
X120203390Y-87018952D01*
X120203390Y-87018952D02*
X120155771Y-87114190D01*
X120155771Y-87114190D02*
X120155771Y-87304666D01*
X120155771Y-87304666D02*
X120203390Y-87399904D01*
X120203390Y-87399904D02*
X120251009Y-87447523D01*
X120251009Y-87447523D02*
X120346247Y-87495142D01*
X115068779Y-92452819D02*
X115068779Y-91452819D01*
X115735445Y-91452819D02*
X115925921Y-91452819D01*
X115925921Y-91452819D02*
X116021159Y-91500438D01*
X116021159Y-91500438D02*
X116116397Y-91595676D01*
X116116397Y-91595676D02*
X116164016Y-91786152D01*
X116164016Y-91786152D02*
X116164016Y-92119485D01*
X116164016Y-92119485D02*
X116116397Y-92309961D01*
X116116397Y-92309961D02*
X116021159Y-92405200D01*
X116021159Y-92405200D02*
X115925921Y-92452819D01*
X115925921Y-92452819D02*
X115735445Y-92452819D01*
X115735445Y-92452819D02*
X115640207Y-92405200D01*
X115640207Y-92405200D02*
X115544969Y-92309961D01*
X115544969Y-92309961D02*
X115497350Y-92119485D01*
X115497350Y-92119485D02*
X115497350Y-91786152D01*
X115497350Y-91786152D02*
X115544969Y-91595676D01*
X115544969Y-91595676D02*
X115640207Y-91500438D01*
X115640207Y-91500438D02*
X115735445Y-91452819D01*
X117116397Y-92452819D02*
X116544969Y-92452819D01*
X116830683Y-92452819D02*
X116830683Y-91452819D01*
X116830683Y-91452819D02*
X116735445Y-91595676D01*
X116735445Y-91595676D02*
X116640207Y-91690914D01*
X116640207Y-91690914D02*
X116544969Y-91738533D01*
X117735445Y-91452819D02*
X117830683Y-91452819D01*
X117830683Y-91452819D02*
X117925921Y-91500438D01*
X117925921Y-91500438D02*
X117973540Y-91548057D01*
X117973540Y-91548057D02*
X118021159Y-91643295D01*
X118021159Y-91643295D02*
X118068778Y-91833771D01*
X118068778Y-91833771D02*
X118068778Y-92071866D01*
X118068778Y-92071866D02*
X118021159Y-92262342D01*
X118021159Y-92262342D02*
X117973540Y-92357580D01*
X117973540Y-92357580D02*
X117925921Y-92405200D01*
X117925921Y-92405200D02*
X117830683Y-92452819D01*
X117830683Y-92452819D02*
X117735445Y-92452819D01*
X117735445Y-92452819D02*
X117640207Y-92405200D01*
X117640207Y-92405200D02*
X117592588Y-92357580D01*
X117592588Y-92357580D02*
X117544969Y-92262342D01*
X117544969Y-92262342D02*
X117497350Y-92071866D01*
X117497350Y-92071866D02*
X117497350Y-91833771D01*
X117497350Y-91833771D02*
X117544969Y-91643295D01*
X117544969Y-91643295D02*
X117592588Y-91548057D01*
X117592588Y-91548057D02*
X117640207Y-91500438D01*
X117640207Y-91500438D02*
X117735445Y-91452819D01*
X108074819Y-89304666D02*
X107074819Y-89304666D01*
X107074819Y-89304666D02*
X107074819Y-88923714D01*
X107074819Y-88923714D02*
X107122438Y-88828476D01*
X107122438Y-88828476D02*
X107170057Y-88780857D01*
X107170057Y-88780857D02*
X107265295Y-88733238D01*
X107265295Y-88733238D02*
X107408152Y-88733238D01*
X107408152Y-88733238D02*
X107503390Y-88780857D01*
X107503390Y-88780857D02*
X107551009Y-88828476D01*
X107551009Y-88828476D02*
X107598628Y-88923714D01*
X107598628Y-88923714D02*
X107598628Y-89304666D01*
X107789104Y-88352285D02*
X107789104Y-87876095D01*
X108074819Y-88447523D02*
X107074819Y-88114190D01*
X107074819Y-88114190D02*
X108074819Y-87780857D01*
X108074819Y-86923714D02*
X108074819Y-87495142D01*
X108074819Y-87209428D02*
X107074819Y-87209428D01*
X107074819Y-87209428D02*
X107217676Y-87304666D01*
X107217676Y-87304666D02*
X107312914Y-87399904D01*
X107312914Y-87399904D02*
X107360533Y-87495142D01*
X108074819Y-57300666D02*
X107074819Y-57300666D01*
X107074819Y-57300666D02*
X107074819Y-56919714D01*
X107074819Y-56919714D02*
X107122438Y-56824476D01*
X107122438Y-56824476D02*
X107170057Y-56776857D01*
X107170057Y-56776857D02*
X107265295Y-56729238D01*
X107265295Y-56729238D02*
X107408152Y-56729238D01*
X107408152Y-56729238D02*
X107503390Y-56776857D01*
X107503390Y-56776857D02*
X107551009Y-56824476D01*
X107551009Y-56824476D02*
X107598628Y-56919714D01*
X107598628Y-56919714D02*
X107598628Y-57300666D01*
X107789104Y-56348285D02*
X107789104Y-55872095D01*
X108074819Y-56443523D02*
X107074819Y-56110190D01*
X107074819Y-56110190D02*
X108074819Y-55776857D01*
X108074819Y-54919714D02*
X108074819Y-55491142D01*
X108074819Y-55205428D02*
X107074819Y-55205428D01*
X107074819Y-55205428D02*
X107217676Y-55300666D01*
X107217676Y-55300666D02*
X107312914Y-55395904D01*
X107312914Y-55395904D02*
X107360533Y-55491142D01*
X120774819Y-57300666D02*
X119774819Y-57300666D01*
X119774819Y-57300666D02*
X119774819Y-56919714D01*
X119774819Y-56919714D02*
X119822438Y-56824476D01*
X119822438Y-56824476D02*
X119870057Y-56776857D01*
X119870057Y-56776857D02*
X119965295Y-56729238D01*
X119965295Y-56729238D02*
X120108152Y-56729238D01*
X120108152Y-56729238D02*
X120203390Y-56776857D01*
X120203390Y-56776857D02*
X120251009Y-56824476D01*
X120251009Y-56824476D02*
X120298628Y-56919714D01*
X120298628Y-56919714D02*
X120298628Y-57300666D01*
X120489104Y-56348285D02*
X120489104Y-55872095D01*
X120774819Y-56443523D02*
X119774819Y-56110190D01*
X119774819Y-56110190D02*
X120774819Y-55776857D01*
X119774819Y-55014952D02*
X119774819Y-55205428D01*
X119774819Y-55205428D02*
X119822438Y-55300666D01*
X119822438Y-55300666D02*
X119870057Y-55348285D01*
X119870057Y-55348285D02*
X120012914Y-55443523D01*
X120012914Y-55443523D02*
X120203390Y-55491142D01*
X120203390Y-55491142D02*
X120584342Y-55491142D01*
X120584342Y-55491142D02*
X120679580Y-55443523D01*
X120679580Y-55443523D02*
X120727200Y-55395904D01*
X120727200Y-55395904D02*
X120774819Y-55300666D01*
X120774819Y-55300666D02*
X120774819Y-55110190D01*
X120774819Y-55110190D02*
X120727200Y-55014952D01*
X120727200Y-55014952D02*
X120679580Y-54967333D01*
X120679580Y-54967333D02*
X120584342Y-54919714D01*
X120584342Y-54919714D02*
X120346247Y-54919714D01*
X120346247Y-54919714D02*
X120251009Y-54967333D01*
X120251009Y-54967333D02*
X120203390Y-55014952D01*
X120203390Y-55014952D02*
X120155771Y-55110190D01*
X120155771Y-55110190D02*
X120155771Y-55300666D01*
X120155771Y-55300666D02*
X120203390Y-55395904D01*
X120203390Y-55395904D02*
X120251009Y-55443523D01*
X120251009Y-55443523D02*
X120346247Y-55491142D01*
X156334819Y-57372094D02*
X155334819Y-57372094D01*
X155334819Y-57372094D02*
X155334819Y-56991142D01*
X155334819Y-56991142D02*
X155382438Y-56895904D01*
X155382438Y-56895904D02*
X155430057Y-56848285D01*
X155430057Y-56848285D02*
X155525295Y-56800666D01*
X155525295Y-56800666D02*
X155668152Y-56800666D01*
X155668152Y-56800666D02*
X155763390Y-56848285D01*
X155763390Y-56848285D02*
X155811009Y-56895904D01*
X155811009Y-56895904D02*
X155858628Y-56991142D01*
X155858628Y-56991142D02*
X155858628Y-57372094D01*
X155811009Y-56038761D02*
X155858628Y-55895904D01*
X155858628Y-55895904D02*
X155906247Y-55848285D01*
X155906247Y-55848285D02*
X156001485Y-55800666D01*
X156001485Y-55800666D02*
X156144342Y-55800666D01*
X156144342Y-55800666D02*
X156239580Y-55848285D01*
X156239580Y-55848285D02*
X156287200Y-55895904D01*
X156287200Y-55895904D02*
X156334819Y-55991142D01*
X156334819Y-55991142D02*
X156334819Y-56372094D01*
X156334819Y-56372094D02*
X155334819Y-56372094D01*
X155334819Y-56372094D02*
X155334819Y-56038761D01*
X155334819Y-56038761D02*
X155382438Y-55943523D01*
X155382438Y-55943523D02*
X155430057Y-55895904D01*
X155430057Y-55895904D02*
X155525295Y-55848285D01*
X155525295Y-55848285D02*
X155620533Y-55848285D01*
X155620533Y-55848285D02*
X155715771Y-55895904D01*
X155715771Y-55895904D02*
X155763390Y-55943523D01*
X155763390Y-55943523D02*
X155811009Y-56038761D01*
X155811009Y-56038761D02*
X155811009Y-56372094D01*
X155334819Y-54943523D02*
X155334819Y-55133999D01*
X155334819Y-55133999D02*
X155382438Y-55229237D01*
X155382438Y-55229237D02*
X155430057Y-55276856D01*
X155430057Y-55276856D02*
X155572914Y-55372094D01*
X155572914Y-55372094D02*
X155763390Y-55419713D01*
X155763390Y-55419713D02*
X156144342Y-55419713D01*
X156144342Y-55419713D02*
X156239580Y-55372094D01*
X156239580Y-55372094D02*
X156287200Y-55324475D01*
X156287200Y-55324475D02*
X156334819Y-55229237D01*
X156334819Y-55229237D02*
X156334819Y-55038761D01*
X156334819Y-55038761D02*
X156287200Y-54943523D01*
X156287200Y-54943523D02*
X156239580Y-54895904D01*
X156239580Y-54895904D02*
X156144342Y-54848285D01*
X156144342Y-54848285D02*
X155906247Y-54848285D01*
X155906247Y-54848285D02*
X155811009Y-54895904D01*
X155811009Y-54895904D02*
X155763390Y-54943523D01*
X155763390Y-54943523D02*
X155715771Y-55038761D01*
X155715771Y-55038761D02*
X155715771Y-55229237D01*
X155715771Y-55229237D02*
X155763390Y-55324475D01*
X155763390Y-55324475D02*
X155811009Y-55372094D01*
X155811009Y-55372094D02*
X155906247Y-55419713D01*
X123314819Y-57300666D02*
X122314819Y-57300666D01*
X122314819Y-57300666D02*
X122314819Y-56919714D01*
X122314819Y-56919714D02*
X122362438Y-56824476D01*
X122362438Y-56824476D02*
X122410057Y-56776857D01*
X122410057Y-56776857D02*
X122505295Y-56729238D01*
X122505295Y-56729238D02*
X122648152Y-56729238D01*
X122648152Y-56729238D02*
X122743390Y-56776857D01*
X122743390Y-56776857D02*
X122791009Y-56824476D01*
X122791009Y-56824476D02*
X122838628Y-56919714D01*
X122838628Y-56919714D02*
X122838628Y-57300666D01*
X123029104Y-56348285D02*
X123029104Y-55872095D01*
X123314819Y-56443523D02*
X122314819Y-56110190D01*
X122314819Y-56110190D02*
X123314819Y-55776857D01*
X122314819Y-55538761D02*
X122314819Y-54872095D01*
X122314819Y-54872095D02*
X123314819Y-55300666D01*
X110614819Y-89304666D02*
X109614819Y-89304666D01*
X109614819Y-89304666D02*
X109614819Y-88923714D01*
X109614819Y-88923714D02*
X109662438Y-88828476D01*
X109662438Y-88828476D02*
X109710057Y-88780857D01*
X109710057Y-88780857D02*
X109805295Y-88733238D01*
X109805295Y-88733238D02*
X109948152Y-88733238D01*
X109948152Y-88733238D02*
X110043390Y-88780857D01*
X110043390Y-88780857D02*
X110091009Y-88828476D01*
X110091009Y-88828476D02*
X110138628Y-88923714D01*
X110138628Y-88923714D02*
X110138628Y-89304666D01*
X110329104Y-88352285D02*
X110329104Y-87876095D01*
X110614819Y-88447523D02*
X109614819Y-88114190D01*
X109614819Y-88114190D02*
X110614819Y-87780857D01*
X109710057Y-87495142D02*
X109662438Y-87447523D01*
X109662438Y-87447523D02*
X109614819Y-87352285D01*
X109614819Y-87352285D02*
X109614819Y-87114190D01*
X109614819Y-87114190D02*
X109662438Y-87018952D01*
X109662438Y-87018952D02*
X109710057Y-86971333D01*
X109710057Y-86971333D02*
X109805295Y-86923714D01*
X109805295Y-86923714D02*
X109900533Y-86923714D01*
X109900533Y-86923714D02*
X110043390Y-86971333D01*
X110043390Y-86971333D02*
X110614819Y-87542761D01*
X110614819Y-87542761D02*
X110614819Y-86923714D01*
X105670779Y-95119819D02*
X105670779Y-94119819D01*
X106146969Y-94453152D02*
X106146969Y-95119819D01*
X106146969Y-94548390D02*
X106194588Y-94500771D01*
X106194588Y-94500771D02*
X106289826Y-94453152D01*
X106289826Y-94453152D02*
X106432683Y-94453152D01*
X106432683Y-94453152D02*
X106527921Y-94500771D01*
X106527921Y-94500771D02*
X106575540Y-94596009D01*
X106575540Y-94596009D02*
X106575540Y-95119819D01*
X106908874Y-94453152D02*
X107289826Y-94453152D01*
X107051731Y-94119819D02*
X107051731Y-94976961D01*
X107051731Y-94976961D02*
X107099350Y-95072200D01*
X107099350Y-95072200D02*
X107194588Y-95119819D01*
X107194588Y-95119819D02*
X107289826Y-95119819D01*
X107956493Y-94596009D02*
X108099350Y-94643628D01*
X108099350Y-94643628D02*
X108146969Y-94691247D01*
X108146969Y-94691247D02*
X108194588Y-94786485D01*
X108194588Y-94786485D02*
X108194588Y-94929342D01*
X108194588Y-94929342D02*
X108146969Y-95024580D01*
X108146969Y-95024580D02*
X108099350Y-95072200D01*
X108099350Y-95072200D02*
X108004112Y-95119819D01*
X108004112Y-95119819D02*
X107623160Y-95119819D01*
X107623160Y-95119819D02*
X107623160Y-94119819D01*
X107623160Y-94119819D02*
X107956493Y-94119819D01*
X107956493Y-94119819D02*
X108051731Y-94167438D01*
X108051731Y-94167438D02*
X108099350Y-94215057D01*
X108099350Y-94215057D02*
X108146969Y-94310295D01*
X108146969Y-94310295D02*
X108146969Y-94405533D01*
X108146969Y-94405533D02*
X108099350Y-94500771D01*
X108099350Y-94500771D02*
X108051731Y-94548390D01*
X108051731Y-94548390D02*
X107956493Y-94596009D01*
X107956493Y-94596009D02*
X107623160Y-94596009D01*
D11*
%TO.C,J1*%
X129210000Y-98790000D02*
X147050000Y-98790000D01*
X129210000Y-98790000D02*
X129210000Y-96130000D01*
X147050000Y-98790000D02*
X147050000Y-96130000D01*
X126610000Y-97460000D02*
X126610000Y-96130000D01*
X126610000Y-96130000D02*
X127940000Y-96130000D01*
X129210000Y-96130000D02*
X147050000Y-96130000D01*
%TO.C,J3*%
X152070000Y-98790000D02*
X164830000Y-98790000D01*
X152070000Y-98790000D02*
X152070000Y-96130000D01*
X164830000Y-98790000D02*
X164830000Y-96130000D01*
X149470000Y-97460000D02*
X149470000Y-96130000D01*
X149470000Y-96130000D02*
X150800000Y-96130000D01*
X152070000Y-96130000D02*
X164830000Y-96130000D01*
%TO.C,J2*%
X120066000Y-50530000D02*
X142986000Y-50530000D01*
X120066000Y-50530000D02*
X120066000Y-47870000D01*
X142986000Y-50530000D02*
X142986000Y-47870000D01*
X117466000Y-49200000D02*
X117466000Y-47870000D01*
X117466000Y-47870000D02*
X118796000Y-47870000D01*
X120066000Y-47870000D02*
X142986000Y-47870000D01*
%TO.C,J4*%
X146990000Y-50530000D02*
X164830000Y-50530000D01*
X146990000Y-50530000D02*
X146990000Y-47870000D01*
X164830000Y-50530000D02*
X164830000Y-47870000D01*
X144390000Y-49200000D02*
X144390000Y-47870000D01*
X144390000Y-47870000D02*
X145720000Y-47870000D01*
X146990000Y-47870000D02*
X164830000Y-47870000D01*
%TO.C,R1*%
X164022500Y-78057742D02*
X164022500Y-78532258D01*
X162977500Y-78057742D02*
X162977500Y-78532258D01*
%TO.C,J5*%
X127880000Y-86420000D02*
X127880000Y-85090000D01*
X129210000Y-86420000D02*
X127880000Y-86420000D01*
X130480000Y-86420000D02*
X135620000Y-86420000D01*
X130480000Y-86420000D02*
X130480000Y-83820000D01*
X135620000Y-86420000D02*
X135620000Y-81220000D01*
X127880000Y-83820000D02*
X127880000Y-81220000D01*
X130480000Y-83820000D02*
X127880000Y-83820000D01*
X127880000Y-81220000D02*
X135620000Y-81220000D01*
%TO.C,SW1*%
X137980000Y-77580000D02*
X139363000Y-77580000D01*
X137980000Y-77580000D02*
X137980000Y-76196000D01*
X138220000Y-77340000D02*
X160841000Y-77340000D01*
X138220000Y-77340000D02*
X138220000Y-67440000D01*
X160841000Y-77340000D02*
X160841000Y-67440000D01*
X140005000Y-74420000D02*
X141275000Y-74420000D01*
X140125000Y-74420000D02*
X140125000Y-73066667D01*
X140245000Y-74420000D02*
X140245000Y-73066667D01*
X140365000Y-74420000D02*
X140365000Y-73066667D01*
X140485000Y-74420000D02*
X140485000Y-73066667D01*
X140605000Y-74420000D02*
X140605000Y-73066667D01*
X140725000Y-74420000D02*
X140725000Y-73066667D01*
X140845000Y-74420000D02*
X140845000Y-73066667D01*
X140965000Y-74420000D02*
X140965000Y-73066667D01*
X141085000Y-74420000D02*
X141085000Y-73066667D01*
X141205000Y-74420000D02*
X141205000Y-73066667D01*
X141275000Y-74420000D02*
X141275000Y-70360000D01*
X142545000Y-74420000D02*
X143815000Y-74420000D01*
X142665000Y-74420000D02*
X142665000Y-73066667D01*
X142785000Y-74420000D02*
X142785000Y-73066667D01*
X142905000Y-74420000D02*
X142905000Y-73066667D01*
X143025000Y-74420000D02*
X143025000Y-73066667D01*
X143145000Y-74420000D02*
X143145000Y-73066667D01*
X143265000Y-74420000D02*
X143265000Y-73066667D01*
X143385000Y-74420000D02*
X143385000Y-73066667D01*
X143505000Y-74420000D02*
X143505000Y-73066667D01*
X143625000Y-74420000D02*
X143625000Y-73066667D01*
X143745000Y-74420000D02*
X143745000Y-73066667D01*
X143815000Y-74420000D02*
X143815000Y-70360000D01*
X145085000Y-74420000D02*
X146355000Y-74420000D01*
X145205000Y-74420000D02*
X145205000Y-73066667D01*
X145325000Y-74420000D02*
X145325000Y-73066667D01*
X145445000Y-74420000D02*
X145445000Y-73066667D01*
X145565000Y-74420000D02*
X145565000Y-73066667D01*
X145685000Y-74420000D02*
X145685000Y-73066667D01*
X145805000Y-74420000D02*
X145805000Y-73066667D01*
X145925000Y-74420000D02*
X145925000Y-73066667D01*
X146045000Y-74420000D02*
X146045000Y-73066667D01*
X146165000Y-74420000D02*
X146165000Y-73066667D01*
X146285000Y-74420000D02*
X146285000Y-73066667D01*
X146355000Y-74420000D02*
X146355000Y-70360000D01*
X147625000Y-74420000D02*
X148895000Y-74420000D01*
X147745000Y-74420000D02*
X147745000Y-73066667D01*
X147865000Y-74420000D02*
X147865000Y-73066667D01*
X147985000Y-74420000D02*
X147985000Y-73066667D01*
X148105000Y-74420000D02*
X148105000Y-73066667D01*
X148225000Y-74420000D02*
X148225000Y-73066667D01*
X148345000Y-74420000D02*
X148345000Y-73066667D01*
X148465000Y-74420000D02*
X148465000Y-73066667D01*
X148585000Y-74420000D02*
X148585000Y-73066667D01*
X148705000Y-74420000D02*
X148705000Y-73066667D01*
X148825000Y-74420000D02*
X148825000Y-73066667D01*
X148895000Y-74420000D02*
X148895000Y-70360000D01*
X150165000Y-74420000D02*
X151435000Y-74420000D01*
X150285000Y-74420000D02*
X150285000Y-73066667D01*
X150405000Y-74420000D02*
X150405000Y-73066667D01*
X150525000Y-74420000D02*
X150525000Y-73066667D01*
X150645000Y-74420000D02*
X150645000Y-73066667D01*
X150765000Y-74420000D02*
X150765000Y-73066667D01*
X150885000Y-74420000D02*
X150885000Y-73066667D01*
X151005000Y-74420000D02*
X151005000Y-73066667D01*
X151125000Y-74420000D02*
X151125000Y-73066667D01*
X151245000Y-74420000D02*
X151245000Y-73066667D01*
X151365000Y-74420000D02*
X151365000Y-73066667D01*
X151435000Y-74420000D02*
X151435000Y-70360000D01*
X152705000Y-74420000D02*
X153975000Y-74420000D01*
X152825000Y-74420000D02*
X152825000Y-73066667D01*
X152945000Y-74420000D02*
X152945000Y-73066667D01*
X153065000Y-74420000D02*
X153065000Y-73066667D01*
X153185000Y-74420000D02*
X153185000Y-73066667D01*
X153305000Y-74420000D02*
X153305000Y-73066667D01*
X153425000Y-74420000D02*
X153425000Y-73066667D01*
X153545000Y-74420000D02*
X153545000Y-73066667D01*
X153665000Y-74420000D02*
X153665000Y-73066667D01*
X153785000Y-74420000D02*
X153785000Y-73066667D01*
X153905000Y-74420000D02*
X153905000Y-73066667D01*
X153975000Y-74420000D02*
X153975000Y-70360000D01*
X155245000Y-74420000D02*
X156515000Y-74420000D01*
X155365000Y-74420000D02*
X155365000Y-73066667D01*
X155485000Y-74420000D02*
X155485000Y-73066667D01*
X155605000Y-74420000D02*
X155605000Y-73066667D01*
X155725000Y-74420000D02*
X155725000Y-73066667D01*
X155845000Y-74420000D02*
X155845000Y-73066667D01*
X155965000Y-74420000D02*
X155965000Y-73066667D01*
X156085000Y-74420000D02*
X156085000Y-73066667D01*
X156205000Y-74420000D02*
X156205000Y-73066667D01*
X156325000Y-74420000D02*
X156325000Y-73066667D01*
X156445000Y-74420000D02*
X156445000Y-73066667D01*
X156515000Y-74420000D02*
X156515000Y-70360000D01*
X157785000Y-74420000D02*
X159055000Y-74420000D01*
X157905000Y-74420000D02*
X157905000Y-73066667D01*
X158025000Y-74420000D02*
X158025000Y-73066667D01*
X158145000Y-74420000D02*
X158145000Y-73066667D01*
X158265000Y-74420000D02*
X158265000Y-73066667D01*
X158385000Y-74420000D02*
X158385000Y-73066667D01*
X158505000Y-74420000D02*
X158505000Y-73066667D01*
X158625000Y-74420000D02*
X158625000Y-73066667D01*
X158745000Y-74420000D02*
X158745000Y-73066667D01*
X158865000Y-74420000D02*
X158865000Y-73066667D01*
X158985000Y-74420000D02*
X158985000Y-73066667D01*
X159055000Y-74420000D02*
X159055000Y-70360000D01*
X140005000Y-73066667D02*
X141275000Y-73066667D01*
X142545000Y-73066667D02*
X143815000Y-73066667D01*
X145085000Y-73066667D02*
X146355000Y-73066667D01*
X147625000Y-73066667D02*
X148895000Y-73066667D01*
X150165000Y-73066667D02*
X151435000Y-73066667D01*
X152705000Y-73066667D02*
X153975000Y-73066667D01*
X155245000Y-73066667D02*
X156515000Y-73066667D01*
X157785000Y-73066667D02*
X159055000Y-73066667D01*
X140005000Y-70360000D02*
X140005000Y-74420000D01*
X141275000Y-70360000D02*
X140005000Y-70360000D01*
X142545000Y-70360000D02*
X142545000Y-74420000D01*
X143815000Y-70360000D02*
X142545000Y-70360000D01*
X145085000Y-70360000D02*
X145085000Y-74420000D01*
X146355000Y-70360000D02*
X145085000Y-70360000D01*
X147625000Y-70360000D02*
X147625000Y-74420000D01*
X148895000Y-70360000D02*
X147625000Y-70360000D01*
X150165000Y-70360000D02*
X150165000Y-74420000D01*
X151435000Y-70360000D02*
X150165000Y-70360000D01*
X152705000Y-70360000D02*
X152705000Y-74420000D01*
X153975000Y-70360000D02*
X152705000Y-70360000D01*
X155245000Y-70360000D02*
X155245000Y-74420000D01*
X156515000Y-70360000D02*
X155245000Y-70360000D01*
X157785000Y-70360000D02*
X157785000Y-74420000D01*
X159055000Y-70360000D02*
X157785000Y-70360000D01*
X138220000Y-67440000D02*
X160841000Y-67440000D01*
%TO.C,D16*%
X123820000Y-57672500D02*
X121900000Y-57672500D01*
X121900000Y-57672500D02*
X121900000Y-60357500D01*
X123820000Y-60357500D02*
X123820000Y-57672500D01*
D12*
%TO.C,Q1*%
X137657000Y-90956000D02*
X138757000Y-90956000D01*
X139107000Y-91006000D02*
X139507000Y-91006000D01*
X139107000Y-93906000D02*
X139107000Y-91006000D01*
X139507000Y-91006000D02*
X139507000Y-93906000D01*
X139507000Y-93906000D02*
X139107000Y-93906000D01*
D11*
%TO.C,JP2*%
X165740000Y-80530000D02*
X166340000Y-80530000D01*
X167040000Y-81230000D02*
X167040000Y-82630000D01*
X165040000Y-82630000D02*
X165040000Y-81230000D01*
X166340000Y-83330000D02*
X165740000Y-83330000D01*
X166340000Y-80530000D02*
G75*
G02*
X167040000Y-81230000I1J-699999D01*
G01*
X165040000Y-81230000D02*
G75*
G02*
X165740000Y-80530000I699999J1D01*
G01*
X167040000Y-82630000D02*
G75*
G02*
X166340000Y-83330000I-700000J0D01*
G01*
X165740000Y-83330000D02*
G75*
G02*
X165040000Y-82630000I0J700000D01*
G01*
%TO.C,D5*%
X151760000Y-57672500D02*
X149840000Y-57672500D01*
X149840000Y-57672500D02*
X149840000Y-60357500D01*
X151760000Y-60357500D02*
X151760000Y-57672500D01*
%TO.C,R11*%
X152802500Y-64182258D02*
X152802500Y-63707742D01*
X153847500Y-64182258D02*
X153847500Y-63707742D01*
%TO.C,JP1*%
X163200000Y-80530000D02*
X163800000Y-80530000D01*
X164500000Y-81230000D02*
X164500000Y-82630000D01*
X162500000Y-82630000D02*
X162500000Y-81230000D01*
X163800000Y-83330000D02*
X163200000Y-83330000D01*
X163800000Y-80530000D02*
G75*
G02*
X164500000Y-81230000I1J-699999D01*
G01*
X162500000Y-81230000D02*
G75*
G02*
X163200000Y-80530000I699999J1D01*
G01*
X164500000Y-82630000D02*
G75*
G02*
X163800000Y-83330000I-700000J0D01*
G01*
X163200000Y-83330000D02*
G75*
G02*
X162500000Y-82630000I0J700000D01*
G01*
%TO.C,R8*%
X145182500Y-64182258D02*
X145182500Y-63707742D01*
X146227500Y-64182258D02*
X146227500Y-63707742D01*
%TO.C,D8*%
X159380000Y-57672500D02*
X157460000Y-57672500D01*
X157460000Y-57672500D02*
X157460000Y-60357500D01*
X159380000Y-60357500D02*
X159380000Y-57672500D01*
%TO.C,R15*%
X107097500Y-64182258D02*
X107097500Y-63707742D01*
X108142500Y-64182258D02*
X108142500Y-63707742D01*
%TO.C,D1*%
X141600000Y-57672500D02*
X139680000Y-57672500D01*
X139680000Y-57672500D02*
X139680000Y-60357500D01*
X141600000Y-60357500D02*
X141600000Y-57672500D01*
%TO.C,R7*%
X142642500Y-64182258D02*
X142642500Y-63707742D01*
X143687500Y-64182258D02*
X143687500Y-63707742D01*
%TO.C,JP7*%
X114010000Y-95615000D02*
X111210000Y-95615000D01*
X114010000Y-93615000D02*
X114010000Y-95615000D01*
X111210000Y-95615000D02*
X111210000Y-93615000D01*
X111210000Y-93615000D02*
X114010000Y-93615000D01*
%TO.C,D13*%
X116200000Y-57672500D02*
X114280000Y-57672500D01*
X114280000Y-57672500D02*
X114280000Y-60357500D01*
X116200000Y-60357500D02*
X116200000Y-57672500D01*
%TO.C,D7*%
X156840000Y-57672500D02*
X154920000Y-57672500D01*
X154920000Y-57672500D02*
X154920000Y-60357500D01*
X156840000Y-60357500D02*
X156840000Y-57672500D01*
%TO.C,D3*%
X146680000Y-57672500D02*
X144760000Y-57672500D01*
X144760000Y-57672500D02*
X144760000Y-60357500D01*
X146680000Y-60357500D02*
X146680000Y-57672500D01*
%TO.C,R4*%
X145850542Y-91857300D02*
X146325058Y-91857300D01*
X145850542Y-92902300D02*
X146325058Y-92902300D01*
%TO.C,R23*%
X142828942Y-91857300D02*
X143303458Y-91857300D01*
X142828942Y-92902300D02*
X143303458Y-92902300D01*
%TO.C,D11*%
X111120000Y-57672500D02*
X109200000Y-57672500D01*
X109200000Y-57672500D02*
X109200000Y-60357500D01*
X111120000Y-60357500D02*
X111120000Y-57672500D01*
%TO.C,R6*%
X140102500Y-64182258D02*
X140102500Y-63707742D01*
X141147500Y-64182258D02*
X141147500Y-63707742D01*
%TO.C,J8*%
X101972000Y-90760000D02*
X103302000Y-90760000D01*
X101972000Y-92090000D02*
X101972000Y-90760000D01*
X101972000Y-93360000D02*
X101972000Y-98500000D01*
X101972000Y-93360000D02*
X104632000Y-93360000D01*
X101972000Y-98500000D02*
X104632000Y-98500000D01*
X104632000Y-93360000D02*
X104632000Y-98500000D01*
%TO.C,R22*%
X142826942Y-90307900D02*
X143301458Y-90307900D01*
X142826942Y-91352900D02*
X143301458Y-91352900D01*
%TO.C,R21*%
X122337500Y-64182258D02*
X122337500Y-63707742D01*
X123382500Y-64182258D02*
X123382500Y-63707742D01*
%TO.C,R19*%
X117257500Y-64182258D02*
X117257500Y-63707742D01*
X118302500Y-64182258D02*
X118302500Y-63707742D01*
%TO.C,R2*%
X166562500Y-78057742D02*
X166562500Y-78532258D01*
X165517500Y-78057742D02*
X165517500Y-78532258D01*
%TO.C,R10*%
X150262500Y-64182258D02*
X150262500Y-63707742D01*
X151307500Y-64182258D02*
X151307500Y-63707742D01*
%TO.C,JP8*%
X114010000Y-98155000D02*
X111210000Y-98155000D01*
X114010000Y-96155000D02*
X114010000Y-98155000D01*
X111210000Y-98155000D02*
X111210000Y-96155000D01*
X111210000Y-96155000D02*
X114010000Y-96155000D01*
%TO.C,R24*%
X142828942Y-93381300D02*
X143303458Y-93381300D01*
X142828942Y-94426300D02*
X143303458Y-94426300D01*
%TO.C,R17*%
X112177500Y-64182258D02*
X112177500Y-63707742D01*
X113222500Y-64182258D02*
X113222500Y-63707742D01*
%TO.C,R16*%
X109637500Y-64182258D02*
X109637500Y-63707742D01*
X110682500Y-64182258D02*
X110682500Y-63707742D01*
%TO.C,D10*%
X108580000Y-57672500D02*
X106660000Y-57672500D01*
X106660000Y-57672500D02*
X106660000Y-60357500D01*
X108580000Y-60357500D02*
X108580000Y-57672500D01*
%TO.C,D15*%
X121280000Y-57672500D02*
X119360000Y-57672500D01*
X119360000Y-57672500D02*
X119360000Y-60357500D01*
X121280000Y-60357500D02*
X121280000Y-57672500D01*
%TO.C,R20*%
X119797500Y-64182258D02*
X119797500Y-63707742D01*
X120842500Y-64182258D02*
X120842500Y-63707742D01*
%TO.C,R18*%
X114717500Y-64182258D02*
X114717500Y-63707742D01*
X115762500Y-64182258D02*
X115762500Y-63707742D01*
%TO.C,D14*%
X118740000Y-57672500D02*
X116820000Y-57672500D01*
X116820000Y-57672500D02*
X116820000Y-60357500D01*
X118740000Y-60357500D02*
X118740000Y-57672500D01*
%TO.C,D4*%
X149220000Y-57672500D02*
X147300000Y-57672500D01*
X147300000Y-57672500D02*
X147300000Y-60357500D01*
X149220000Y-60357500D02*
X149220000Y-57672500D01*
%TO.C,J7*%
X103750000Y-86420000D02*
X103750000Y-85090000D01*
X105080000Y-86420000D02*
X103750000Y-86420000D01*
X106350000Y-86420000D02*
X124190000Y-86420000D01*
X106350000Y-86420000D02*
X106350000Y-83820000D01*
X124190000Y-86420000D02*
X124190000Y-81220000D01*
X103750000Y-83820000D02*
X103750000Y-81220000D01*
X106350000Y-83820000D02*
X103750000Y-83820000D01*
X103750000Y-81220000D02*
X124190000Y-81220000D01*
%TO.C,JP6*%
X114010000Y-93075000D02*
X111210000Y-93075000D01*
X114010000Y-91075000D02*
X114010000Y-93075000D01*
X111210000Y-93075000D02*
X111210000Y-91075000D01*
X111210000Y-91075000D02*
X114010000Y-91075000D01*
%TO.C,J6*%
X139310000Y-86420000D02*
X139310000Y-85090000D01*
X140640000Y-86420000D02*
X139310000Y-86420000D01*
X141910000Y-86420000D02*
X159750000Y-86420000D01*
X141910000Y-86420000D02*
X141910000Y-83820000D01*
X159750000Y-86420000D02*
X159750000Y-81220000D01*
X139310000Y-83820000D02*
X139310000Y-81220000D01*
X141910000Y-83820000D02*
X139310000Y-83820000D01*
X139310000Y-81220000D02*
X159750000Y-81220000D01*
%TO.C,R9*%
X147722500Y-64182258D02*
X147722500Y-63707742D01*
X148767500Y-64182258D02*
X148767500Y-63707742D01*
%TO.C,R3*%
X145850542Y-90307900D02*
X146325058Y-90307900D01*
X145850542Y-91352900D02*
X146325058Y-91352900D01*
%TO.C,D2*%
X144140000Y-57672500D02*
X142220000Y-57672500D01*
X142220000Y-57672500D02*
X142220000Y-60357500D01*
X144140000Y-60357500D02*
X144140000Y-57672500D01*
%TO.C,R5*%
X145850542Y-93381300D02*
X146325058Y-93381300D01*
X145850542Y-94426300D02*
X146325058Y-94426300D01*
%TO.C,D9*%
X106040000Y-57672500D02*
X104120000Y-57672500D01*
X104120000Y-57672500D02*
X104120000Y-60357500D01*
X106040000Y-60357500D02*
X106040000Y-57672500D01*
%TO.C,D12*%
X113660000Y-57672500D02*
X111740000Y-57672500D01*
X111740000Y-57672500D02*
X111740000Y-60357500D01*
X113660000Y-60357500D02*
X113660000Y-57672500D01*
%TO.C,SW2*%
X102420000Y-77580000D02*
X103803000Y-77580000D01*
X102420000Y-77580000D02*
X102420000Y-76196000D01*
X102660000Y-77340000D02*
X125281000Y-77340000D01*
X102660000Y-77340000D02*
X102660000Y-67440000D01*
X125281000Y-77340000D02*
X125281000Y-67440000D01*
X104445000Y-74420000D02*
X105715000Y-74420000D01*
X104565000Y-74420000D02*
X104565000Y-73066667D01*
X104685000Y-74420000D02*
X104685000Y-73066667D01*
X104805000Y-74420000D02*
X104805000Y-73066667D01*
X104925000Y-74420000D02*
X104925000Y-73066667D01*
X105045000Y-74420000D02*
X105045000Y-73066667D01*
X105165000Y-74420000D02*
X105165000Y-73066667D01*
X105285000Y-74420000D02*
X105285000Y-73066667D01*
X105405000Y-74420000D02*
X105405000Y-73066667D01*
X105525000Y-74420000D02*
X105525000Y-73066667D01*
X105645000Y-74420000D02*
X105645000Y-73066667D01*
X105715000Y-74420000D02*
X105715000Y-70360000D01*
X106985000Y-74420000D02*
X108255000Y-74420000D01*
X107105000Y-74420000D02*
X107105000Y-73066667D01*
X107225000Y-74420000D02*
X107225000Y-73066667D01*
X107345000Y-74420000D02*
X107345000Y-73066667D01*
X107465000Y-74420000D02*
X107465000Y-73066667D01*
X107585000Y-74420000D02*
X107585000Y-73066667D01*
X107705000Y-74420000D02*
X107705000Y-73066667D01*
X107825000Y-74420000D02*
X107825000Y-73066667D01*
X107945000Y-74420000D02*
X107945000Y-73066667D01*
X108065000Y-74420000D02*
X108065000Y-73066667D01*
X108185000Y-74420000D02*
X108185000Y-73066667D01*
X108255000Y-74420000D02*
X108255000Y-70360000D01*
X109525000Y-74420000D02*
X110795000Y-74420000D01*
X109645000Y-74420000D02*
X109645000Y-73066667D01*
X109765000Y-74420000D02*
X109765000Y-73066667D01*
X109885000Y-74420000D02*
X109885000Y-73066667D01*
X110005000Y-74420000D02*
X110005000Y-73066667D01*
X110125000Y-74420000D02*
X110125000Y-73066667D01*
X110245000Y-74420000D02*
X110245000Y-73066667D01*
X110365000Y-74420000D02*
X110365000Y-73066667D01*
X110485000Y-74420000D02*
X110485000Y-73066667D01*
X110605000Y-74420000D02*
X110605000Y-73066667D01*
X110725000Y-74420000D02*
X110725000Y-73066667D01*
X110795000Y-74420000D02*
X110795000Y-70360000D01*
X112065000Y-74420000D02*
X113335000Y-74420000D01*
X112185000Y-74420000D02*
X112185000Y-73066667D01*
X112305000Y-74420000D02*
X112305000Y-73066667D01*
X112425000Y-74420000D02*
X112425000Y-73066667D01*
X112545000Y-74420000D02*
X112545000Y-73066667D01*
X112665000Y-74420000D02*
X112665000Y-73066667D01*
X112785000Y-74420000D02*
X112785000Y-73066667D01*
X112905000Y-74420000D02*
X112905000Y-73066667D01*
X113025000Y-74420000D02*
X113025000Y-73066667D01*
X113145000Y-74420000D02*
X113145000Y-73066667D01*
X113265000Y-74420000D02*
X113265000Y-73066667D01*
X113335000Y-74420000D02*
X113335000Y-70360000D01*
X114605000Y-74420000D02*
X115875000Y-74420000D01*
X114725000Y-74420000D02*
X114725000Y-73066667D01*
X114845000Y-74420000D02*
X114845000Y-73066667D01*
X114965000Y-74420000D02*
X114965000Y-73066667D01*
X115085000Y-74420000D02*
X115085000Y-73066667D01*
X115205000Y-74420000D02*
X115205000Y-73066667D01*
X115325000Y-74420000D02*
X115325000Y-73066667D01*
X115445000Y-74420000D02*
X115445000Y-73066667D01*
X115565000Y-74420000D02*
X115565000Y-73066667D01*
X115685000Y-74420000D02*
X115685000Y-73066667D01*
X115805000Y-74420000D02*
X115805000Y-73066667D01*
X115875000Y-74420000D02*
X115875000Y-70360000D01*
X117145000Y-74420000D02*
X118415000Y-74420000D01*
X117265000Y-74420000D02*
X117265000Y-73066667D01*
X117385000Y-74420000D02*
X117385000Y-73066667D01*
X117505000Y-74420000D02*
X117505000Y-73066667D01*
X117625000Y-74420000D02*
X117625000Y-73066667D01*
X117745000Y-74420000D02*
X117745000Y-73066667D01*
X117865000Y-74420000D02*
X117865000Y-73066667D01*
X117985000Y-74420000D02*
X117985000Y-73066667D01*
X118105000Y-74420000D02*
X118105000Y-73066667D01*
X118225000Y-74420000D02*
X118225000Y-73066667D01*
X118345000Y-74420000D02*
X118345000Y-73066667D01*
X118415000Y-74420000D02*
X118415000Y-70360000D01*
X119685000Y-74420000D02*
X120955000Y-74420000D01*
X119805000Y-74420000D02*
X119805000Y-73066667D01*
X119925000Y-74420000D02*
X119925000Y-73066667D01*
X120045000Y-74420000D02*
X120045000Y-73066667D01*
X120165000Y-74420000D02*
X120165000Y-73066667D01*
X120285000Y-74420000D02*
X120285000Y-73066667D01*
X120405000Y-74420000D02*
X120405000Y-73066667D01*
X120525000Y-74420000D02*
X120525000Y-73066667D01*
X120645000Y-74420000D02*
X120645000Y-73066667D01*
X120765000Y-74420000D02*
X120765000Y-73066667D01*
X120885000Y-74420000D02*
X120885000Y-73066667D01*
X120955000Y-74420000D02*
X120955000Y-70360000D01*
X122225000Y-74420000D02*
X123495000Y-74420000D01*
X122345000Y-74420000D02*
X122345000Y-73066667D01*
X122465000Y-74420000D02*
X122465000Y-73066667D01*
X122585000Y-74420000D02*
X122585000Y-73066667D01*
X122705000Y-74420000D02*
X122705000Y-73066667D01*
X122825000Y-74420000D02*
X122825000Y-73066667D01*
X122945000Y-74420000D02*
X122945000Y-73066667D01*
X123065000Y-74420000D02*
X123065000Y-73066667D01*
X123185000Y-74420000D02*
X123185000Y-73066667D01*
X123305000Y-74420000D02*
X123305000Y-73066667D01*
X123425000Y-74420000D02*
X123425000Y-73066667D01*
X123495000Y-74420000D02*
X123495000Y-70360000D01*
X104445000Y-73066667D02*
X105715000Y-73066667D01*
X106985000Y-73066667D02*
X108255000Y-73066667D01*
X109525000Y-73066667D02*
X110795000Y-73066667D01*
X112065000Y-73066667D02*
X113335000Y-73066667D01*
X114605000Y-73066667D02*
X115875000Y-73066667D01*
X117145000Y-73066667D02*
X118415000Y-73066667D01*
X119685000Y-73066667D02*
X120955000Y-73066667D01*
X122225000Y-73066667D02*
X123495000Y-73066667D01*
X104445000Y-70360000D02*
X104445000Y-74420000D01*
X105715000Y-70360000D02*
X104445000Y-70360000D01*
X106985000Y-70360000D02*
X106985000Y-74420000D01*
X108255000Y-70360000D02*
X106985000Y-70360000D01*
X109525000Y-70360000D02*
X109525000Y-74420000D01*
X110795000Y-70360000D02*
X109525000Y-70360000D01*
X112065000Y-70360000D02*
X112065000Y-74420000D01*
X113335000Y-70360000D02*
X112065000Y-70360000D01*
X114605000Y-70360000D02*
X114605000Y-74420000D01*
X115875000Y-70360000D02*
X114605000Y-70360000D01*
X117145000Y-70360000D02*
X117145000Y-74420000D01*
X118415000Y-70360000D02*
X117145000Y-70360000D01*
X119685000Y-70360000D02*
X119685000Y-74420000D01*
X120955000Y-70360000D02*
X119685000Y-70360000D01*
X122225000Y-70360000D02*
X122225000Y-74420000D01*
X123495000Y-70360000D02*
X122225000Y-70360000D01*
X102660000Y-67440000D02*
X125281000Y-67440000D01*
%TO.C,R14*%
X104557500Y-64182258D02*
X104557500Y-63707742D01*
X105602500Y-64182258D02*
X105602500Y-63707742D01*
%TO.C,R12*%
X155342500Y-64182258D02*
X155342500Y-63707742D01*
X156387500Y-64182258D02*
X156387500Y-63707742D01*
%TO.C,R13*%
X157882500Y-64182258D02*
X157882500Y-63707742D01*
X158927500Y-64182258D02*
X158927500Y-63707742D01*
%TO.C,D6*%
X154300000Y-57672500D02*
X152380000Y-57672500D01*
X152380000Y-57672500D02*
X152380000Y-60357500D01*
X154300000Y-60357500D02*
X154300000Y-57672500D01*
D10*
%TO.C,U1*%
X134415000Y-78570000D02*
X134415000Y-77995000D01*
X134415000Y-78570000D02*
X128665000Y-78570000D01*
X134415000Y-77995000D02*
X136015000Y-77995000D01*
X134415000Y-67920000D02*
X134415000Y-68570000D01*
X134415000Y-67920000D02*
X128665000Y-67920000D01*
X128665000Y-78570000D02*
X128665000Y-77920000D01*
X128665000Y-67920000D02*
X128665000Y-68570000D01*
D11*
%TO.C,C1*%
X136475580Y-66550000D02*
X136194420Y-66550000D01*
X136475580Y-65530000D02*
X136194420Y-65530000D01*
%TD*%
M02*
