%TF.GenerationSoftware,KiCad,Pcbnew,9.0.6*%
%TF.CreationDate,2026-01-18T16:02:07+09:00*%
%TF.ProjectId,mcp23017_testboard_arduino,6d637032-3330-4313-975f-74657374626f,rev?*%
%TF.SameCoordinates,Original*%
%TF.FileFunction,Copper,L2,Bot*%
%TF.FilePolarity,Positive*%
%FSLAX46Y46*%
G04 Gerber Fmt 4.6, Leading zero omitted, Abs format (unit mm)*
G04 Created by KiCad (PCBNEW 9.0.6) date 2026-01-18 16:02:07*
%MOMM*%
%LPD*%
G01*
G04 APERTURE LIST*
%TA.AperFunction,ComponentPad*%
%ADD10R,1.700000X1.700000*%
%TD*%
%TA.AperFunction,ComponentPad*%
%ADD11O,1.700000X1.700000*%
%TD*%
%TA.AperFunction,ComponentPad*%
%ADD12R,1.600000X1.600000*%
%TD*%
%TA.AperFunction,ComponentPad*%
%ADD13O,1.600000X1.600000*%
%TD*%
%TA.AperFunction,ViaPad*%
%ADD14C,0.600000*%
%TD*%
%TA.AperFunction,Conductor*%
%ADD15C,0.250000*%
%TD*%
%TA.AperFunction,Conductor*%
%ADD16C,0.600000*%
%TD*%
G04 APERTURE END LIST*
D10*
%TO.P,J1,1,Pin_1*%
%TO.N,unconnected-(J1-Pin_1-Pad1)*%
X127940000Y-97460000D03*
D11*
%TO.P,J1,2,Pin_2*%
%TO.N,/IOREF*%
X130480000Y-97460000D03*
%TO.P,J1,3,Pin_3*%
%TO.N,/~{RESET}*%
X133020000Y-97460000D03*
%TO.P,J1,4,Pin_4*%
%TO.N,+3V3*%
X135560000Y-97460000D03*
%TO.P,J1,5,Pin_5*%
%TO.N,+5V*%
X138100000Y-97460000D03*
%TO.P,J1,6,Pin_6*%
%TO.N,GND*%
X140640000Y-97460000D03*
%TO.P,J1,7,Pin_7*%
X143180000Y-97460000D03*
%TO.P,J1,8,Pin_8*%
%TO.N,VCC*%
X145720000Y-97460000D03*
%TD*%
D10*
%TO.P,J3,1,Pin_1*%
%TO.N,/A0*%
X150800000Y-97460000D03*
D11*
%TO.P,J3,2,Pin_2*%
%TO.N,/A1*%
X153340000Y-97460000D03*
%TO.P,J3,3,Pin_3*%
%TO.N,/A2*%
X155880000Y-97460000D03*
%TO.P,J3,4,Pin_4*%
%TO.N,/A3*%
X158420000Y-97460000D03*
%TO.P,J3,5,Pin_5*%
%TO.N,/SDA*%
X160960000Y-97460000D03*
%TO.P,J3,6,Pin_6*%
%TO.N,/SCL*%
X163500000Y-97460000D03*
%TD*%
D10*
%TO.P,J2,1,Pin_1*%
%TO.N,/SCL*%
X118796000Y-49200000D03*
D11*
%TO.P,J2,2,Pin_2*%
%TO.N,/SDA*%
X121336000Y-49200000D03*
%TO.P,J2,3,Pin_3*%
%TO.N,/AREF*%
X123876000Y-49200000D03*
%TO.P,J2,4,Pin_4*%
%TO.N,GND*%
X126416000Y-49200000D03*
%TO.P,J2,5,Pin_5*%
%TO.N,/13*%
X128956000Y-49200000D03*
%TO.P,J2,6,Pin_6*%
%TO.N,/12*%
X131496000Y-49200000D03*
%TO.P,J2,7,Pin_7*%
%TO.N,/\u002A11*%
X134036000Y-49200000D03*
%TO.P,J2,8,Pin_8*%
%TO.N,/\u002A10*%
X136576000Y-49200000D03*
%TO.P,J2,9,Pin_9*%
%TO.N,/\u002A9*%
X139116000Y-49200000D03*
%TO.P,J2,10,Pin_10*%
%TO.N,/8*%
X141656000Y-49200000D03*
%TD*%
D10*
%TO.P,J4,1,Pin_1*%
%TO.N,/7*%
X145720000Y-49200000D03*
D11*
%TO.P,J4,2,Pin_2*%
%TO.N,/\u002A6*%
X148260000Y-49200000D03*
%TO.P,J4,3,Pin_3*%
%TO.N,/\u002A5*%
X150800000Y-49200000D03*
%TO.P,J4,4,Pin_4*%
%TO.N,/4*%
X153340000Y-49200000D03*
%TO.P,J4,5,Pin_5*%
%TO.N,/\u002A3*%
X155880000Y-49200000D03*
%TO.P,J4,6,Pin_6*%
%TO.N,/2*%
X158420000Y-49200000D03*
%TO.P,J4,7,Pin_7*%
%TO.N,/TX{slash}1*%
X160960000Y-49200000D03*
%TO.P,J4,8,Pin_8*%
%TO.N,/RX{slash}0*%
X163500000Y-49200000D03*
%TD*%
D10*
%TO.P,J5,1,Pin_1*%
%TO.N,Net-(J5-Pin_1)*%
X129210000Y-85090000D03*
D11*
%TO.P,J5,2,Pin_2*%
%TO.N,+5V*%
X129210000Y-82550000D03*
%TO.P,J5,3,Pin_3*%
%TO.N,Net-(J5-Pin_3)*%
X131750000Y-85090000D03*
%TO.P,J5,4,Pin_4*%
%TO.N,+5V*%
X131750000Y-82550000D03*
%TO.P,J5,5,Pin_5*%
%TO.N,Net-(J5-Pin_5)*%
X134290000Y-85090000D03*
%TO.P,J5,6,Pin_6*%
%TO.N,+5V*%
X134290000Y-82550000D03*
%TD*%
D12*
%TO.P,SW1,1*%
%TO.N,Net-(J6-Pin_1)*%
X140640000Y-76200000D03*
D13*
%TO.P,SW1,2*%
%TO.N,Net-(J6-Pin_3)*%
X143180000Y-76200000D03*
%TO.P,SW1,3*%
%TO.N,Net-(J6-Pin_5)*%
X145720000Y-76200000D03*
%TO.P,SW1,4*%
%TO.N,Net-(J6-Pin_7)*%
X148260000Y-76200000D03*
%TO.P,SW1,5*%
%TO.N,Net-(J6-Pin_10)*%
X150800000Y-76200000D03*
%TO.P,SW1,6*%
%TO.N,Net-(J6-Pin_11)*%
X153340000Y-76200000D03*
%TO.P,SW1,7*%
%TO.N,Net-(J6-Pin_13)*%
X155880000Y-76200000D03*
%TO.P,SW1,8*%
%TO.N,Net-(J6-Pin_15)*%
X158420000Y-76200000D03*
%TO.P,SW1,9*%
%TO.N,Net-(R13-Pad1)*%
X158420000Y-68580000D03*
%TO.P,SW1,10*%
%TO.N,Net-(R12-Pad1)*%
X155880000Y-68580000D03*
%TO.P,SW1,11*%
%TO.N,Net-(R11-Pad1)*%
X153340000Y-68580000D03*
%TO.P,SW1,12*%
%TO.N,Net-(R10-Pad1)*%
X150800000Y-68580000D03*
%TO.P,SW1,13*%
%TO.N,Net-(R9-Pad1)*%
X148260000Y-68580000D03*
%TO.P,SW1,14*%
%TO.N,Net-(R8-Pad1)*%
X145720000Y-68580000D03*
%TO.P,SW1,15*%
%TO.N,Net-(R7-Pad1)*%
X143180000Y-68580000D03*
%TO.P,SW1,16*%
%TO.N,Net-(R6-Pad1)*%
X140640000Y-68580000D03*
%TD*%
D10*
%TO.P,J8,1,Pin_1*%
%TO.N,/INTA*%
X103302000Y-92090000D03*
D11*
%TO.P,J8,2,Pin_2*%
%TO.N,/INTB*%
X103302000Y-94630000D03*
%TO.P,J8,3,Pin_3*%
%TO.N,/EX_RESET*%
X103302000Y-97170000D03*
%TD*%
D10*
%TO.P,J7,1,Pin_1*%
%TO.N,Net-(J7-Pin_1)*%
X105080000Y-85090000D03*
D11*
%TO.P,J7,2,Pin_2*%
X105080000Y-82550000D03*
%TO.P,J7,3,Pin_3*%
%TO.N,Net-(J7-Pin_3)*%
X107620000Y-85090000D03*
%TO.P,J7,4,Pin_4*%
X107620000Y-82550000D03*
%TO.P,J7,5,Pin_5*%
%TO.N,Net-(J7-Pin_5)*%
X110160000Y-85090000D03*
%TO.P,J7,6,Pin_6*%
X110160000Y-82550000D03*
%TO.P,J7,7,Pin_7*%
%TO.N,Net-(J7-Pin_7)*%
X112700000Y-85090000D03*
%TO.P,J7,8,Pin_8*%
X112700000Y-82550000D03*
%TO.P,J7,9,Pin_9*%
%TO.N,Net-(J7-Pin_10)*%
X115240000Y-85090000D03*
%TO.P,J7,10,Pin_10*%
X115240000Y-82550000D03*
%TO.P,J7,11,Pin_11*%
%TO.N,Net-(J7-Pin_11)*%
X117780000Y-85090000D03*
%TO.P,J7,12,Pin_12*%
X117780000Y-82550000D03*
%TO.P,J7,13,Pin_13*%
%TO.N,Net-(J7-Pin_13)*%
X120320000Y-85090000D03*
%TO.P,J7,14,Pin_14*%
X120320000Y-82550000D03*
%TO.P,J7,15,Pin_15*%
%TO.N,Net-(J7-Pin_15)*%
X122860000Y-85090000D03*
%TO.P,J7,16,Pin_16*%
X122860000Y-82550000D03*
%TD*%
D10*
%TO.P,J6,1,Pin_1*%
%TO.N,Net-(J6-Pin_1)*%
X140640000Y-85090000D03*
D11*
%TO.P,J6,2,Pin_2*%
X140640000Y-82550000D03*
%TO.P,J6,3,Pin_3*%
%TO.N,Net-(J6-Pin_3)*%
X143180000Y-85090000D03*
%TO.P,J6,4,Pin_4*%
X143180000Y-82550000D03*
%TO.P,J6,5,Pin_5*%
%TO.N,Net-(J6-Pin_5)*%
X145720000Y-85090000D03*
%TO.P,J6,6,Pin_6*%
X145720000Y-82550000D03*
%TO.P,J6,7,Pin_7*%
%TO.N,Net-(J6-Pin_7)*%
X148260000Y-85090000D03*
%TO.P,J6,8,Pin_8*%
X148260000Y-82550000D03*
%TO.P,J6,9,Pin_9*%
%TO.N,Net-(J6-Pin_10)*%
X150800000Y-85090000D03*
%TO.P,J6,10,Pin_10*%
X150800000Y-82550000D03*
%TO.P,J6,11,Pin_11*%
%TO.N,Net-(J6-Pin_11)*%
X153340000Y-85090000D03*
%TO.P,J6,12,Pin_12*%
X153340000Y-82550000D03*
%TO.P,J6,13,Pin_13*%
%TO.N,Net-(J6-Pin_13)*%
X155880000Y-85090000D03*
%TO.P,J6,14,Pin_14*%
X155880000Y-82550000D03*
%TO.P,J6,15,Pin_15*%
%TO.N,Net-(J6-Pin_15)*%
X158420000Y-85090000D03*
%TO.P,J6,16,Pin_16*%
X158420000Y-82550000D03*
%TD*%
D12*
%TO.P,SW2,1*%
%TO.N,Net-(J7-Pin_1)*%
X105080000Y-76200000D03*
D13*
%TO.P,SW2,2*%
%TO.N,Net-(J7-Pin_3)*%
X107620000Y-76200000D03*
%TO.P,SW2,3*%
%TO.N,Net-(J7-Pin_5)*%
X110160000Y-76200000D03*
%TO.P,SW2,4*%
%TO.N,Net-(J7-Pin_7)*%
X112700000Y-76200000D03*
%TO.P,SW2,5*%
%TO.N,Net-(J7-Pin_10)*%
X115240000Y-76200000D03*
%TO.P,SW2,6*%
%TO.N,Net-(J7-Pin_11)*%
X117780000Y-76200000D03*
%TO.P,SW2,7*%
%TO.N,Net-(J7-Pin_13)*%
X120320000Y-76200000D03*
%TO.P,SW2,8*%
%TO.N,Net-(J7-Pin_15)*%
X122860000Y-76200000D03*
%TO.P,SW2,9*%
%TO.N,Net-(R21-Pad1)*%
X122860000Y-68580000D03*
%TO.P,SW2,10*%
%TO.N,Net-(R20-Pad1)*%
X120320000Y-68580000D03*
%TO.P,SW2,11*%
%TO.N,Net-(R19-Pad1)*%
X117780000Y-68580000D03*
%TO.P,SW2,12*%
%TO.N,Net-(R18-Pad1)*%
X115240000Y-68580000D03*
%TO.P,SW2,13*%
%TO.N,Net-(R17-Pad1)*%
X112700000Y-68580000D03*
%TO.P,SW2,14*%
%TO.N,Net-(R16-Pad1)*%
X110160000Y-68580000D03*
%TO.P,SW2,15*%
%TO.N,Net-(R15-Pad1)*%
X107620000Y-68580000D03*
%TO.P,SW2,16*%
%TO.N,Net-(R14-Pad1)*%
X105080000Y-68580000D03*
%TD*%
D14*
%TO.N,GND*%
X139435100Y-93416200D03*
X139524400Y-71620000D03*
%TO.N,/8*%
X132253100Y-90378400D03*
%TO.N,/\u002A10*%
X116510000Y-85815500D03*
%TO.N,Net-(J5-Pin_1)*%
X129225200Y-68497500D03*
%TO.N,Net-(J5-Pin_5)*%
X129351000Y-70320000D03*
%TO.N,/SDA*%
X137470450Y-69695500D03*
X137592000Y-77216000D03*
%TO.N,/SCL*%
X136543500Y-70320000D03*
%TD*%
D15*
%TO.N,GND*%
X140640000Y-97460000D02*
X140640000Y-96872300D01*
X139435100Y-95079800D02*
X139435100Y-93416200D01*
X140640000Y-96872300D02*
X140640000Y-96284700D01*
X140640000Y-96284700D02*
X139435100Y-95079800D01*
X141227700Y-97460000D02*
X143180000Y-97460000D01*
X139435100Y-71709300D02*
X139524400Y-71620000D01*
X140640000Y-96872300D02*
X141227700Y-97460000D01*
X139435100Y-93416200D02*
X139435100Y-71709300D01*
D16*
%TO.N,+5V*%
X129210000Y-82550000D02*
X127000000Y-84760000D01*
X129210000Y-82550000D02*
X131750000Y-82550000D01*
X131750000Y-82550000D02*
X134290000Y-82550000D01*
X127000000Y-86360000D02*
X138100000Y-97460000D01*
X127000000Y-84760000D02*
X127000000Y-86360000D01*
D15*
%TO.N,/8*%
X138899400Y-83732100D02*
X132253100Y-90378400D01*
X141656000Y-49200000D02*
X141656000Y-50375300D01*
X138899400Y-53131900D02*
X138899400Y-83732100D01*
X141656000Y-50375300D02*
X138899400Y-53131900D01*
%TO.N,/\u002A10*%
X116510000Y-67236400D02*
X116510000Y-85815500D01*
X117500000Y-48295100D02*
X117500000Y-66246400D01*
X117795100Y-48000000D02*
X117500000Y-48295100D01*
X136000000Y-48000000D02*
X117795100Y-48000000D01*
X117500000Y-66246400D02*
X116510000Y-67236400D01*
X136576000Y-49200000D02*
X136576000Y-48576000D01*
X136576000Y-48576000D02*
X136000000Y-48000000D01*
%TO.N,Net-(J5-Pin_1)*%
X135974500Y-75246800D02*
X129225200Y-68497500D01*
X130242300Y-86278300D02*
X134790200Y-86278300D01*
X135974500Y-85094000D02*
X135974500Y-75246800D01*
X134790200Y-86278300D02*
X135974500Y-85094000D01*
X129210000Y-85246000D02*
X130242300Y-86278300D01*
X129210000Y-85090000D02*
X129210000Y-85246000D01*
%TO.N,Net-(J5-Pin_5)*%
X135500000Y-83500000D02*
X135500000Y-76469000D01*
X134290000Y-84710000D02*
X135500000Y-83500000D01*
X135500000Y-76469000D02*
X129351000Y-70320000D01*
X134290000Y-85090000D02*
X134290000Y-84710000D01*
%TO.N,Net-(J6-Pin_1)*%
X140640000Y-82550000D02*
X140640000Y-76200000D01*
X140640000Y-85090000D02*
X140640000Y-82550000D01*
%TO.N,Net-(J6-Pin_3)*%
X143180000Y-85090000D02*
X143180000Y-82550000D01*
X143180000Y-82550000D02*
X143180000Y-76200000D01*
%TO.N,Net-(J6-Pin_5)*%
X145720000Y-82550000D02*
X145720000Y-76200000D01*
X145720000Y-85090000D02*
X145720000Y-82550000D01*
%TO.N,Net-(J6-Pin_7)*%
X148260000Y-82550000D02*
X148260000Y-76200000D01*
X148260000Y-85090000D02*
X148260000Y-82550000D01*
%TO.N,Net-(J6-Pin_10)*%
X150800000Y-82550000D02*
X150800000Y-76200000D01*
X150800000Y-85090000D02*
X150800000Y-82550000D01*
%TO.N,Net-(J6-Pin_11)*%
X153340000Y-85090000D02*
X153340000Y-82550000D01*
X153340000Y-82550000D02*
X153340000Y-76200000D01*
%TO.N,Net-(J6-Pin_13)*%
X155880000Y-82550000D02*
X155880000Y-76200000D01*
X155880000Y-85090000D02*
X155880000Y-82550000D01*
%TO.N,Net-(J6-Pin_15)*%
X158420000Y-85090000D02*
X158420000Y-82550000D01*
X158420000Y-82550000D02*
X158420000Y-76200000D01*
%TO.N,Net-(J7-Pin_1)*%
X105080000Y-76200000D02*
X105080000Y-82550000D01*
X105080000Y-82550000D02*
X105080000Y-85090000D01*
%TO.N,Net-(J7-Pin_3)*%
X107620000Y-82550000D02*
X107620000Y-76200000D01*
X107620000Y-85090000D02*
X107620000Y-82550000D01*
%TO.N,Net-(J7-Pin_5)*%
X110160000Y-85090000D02*
X110160000Y-82550000D01*
X110160000Y-82550000D02*
X110160000Y-76200000D01*
%TO.N,Net-(J7-Pin_7)*%
X112700000Y-85090000D02*
X112700000Y-82550000D01*
X112700000Y-82550000D02*
X112700000Y-76200000D01*
%TO.N,Net-(J7-Pin_10)*%
X115240000Y-85090000D02*
X115240000Y-82550000D01*
X115240000Y-82550000D02*
X115240000Y-76200000D01*
%TO.N,Net-(J7-Pin_11)*%
X117780000Y-82550000D02*
X117780000Y-76200000D01*
X117780000Y-85090000D02*
X117780000Y-82550000D01*
%TO.N,Net-(J7-Pin_13)*%
X120320000Y-82550000D02*
X120320000Y-76200000D01*
X120320000Y-85090000D02*
X120320000Y-82550000D01*
%TO.N,Net-(J7-Pin_15)*%
X122860000Y-85090000D02*
X122860000Y-82550000D01*
%TO.N,/SDA*%
X137592000Y-72252384D02*
X137470450Y-72130834D01*
X137168900Y-66208200D02*
X121336000Y-50375300D01*
X137470450Y-69695500D02*
X137168900Y-69393950D01*
X137470450Y-72130834D02*
X137470450Y-69695500D01*
X137592000Y-77216000D02*
X137592000Y-72252384D01*
X137168900Y-69393950D02*
X137168900Y-66208200D01*
X121336000Y-50375300D02*
X121336000Y-49200000D01*
%TO.N,/SCL*%
X136543500Y-68122800D02*
X118796000Y-50375300D01*
X136543500Y-70320000D02*
X136543500Y-68122800D01*
X118796000Y-49200000D02*
X118796000Y-50375300D01*
%TD*%
%TA.AperFunction,Conductor*%
%TO.N,GND*%
G36*
X139686021Y-77485287D02*
G01*
X139730799Y-77501989D01*
X139791362Y-77508500D01*
X139889545Y-77508500D01*
X139896551Y-77509299D01*
X139922509Y-77520248D01*
X139949539Y-77528185D01*
X139954269Y-77533644D01*
X139960928Y-77536453D01*
X139976847Y-77559700D01*
X139995294Y-77580989D01*
X139996322Y-77588139D01*
X140000405Y-77594102D01*
X140006500Y-77632500D01*
X140006500Y-81272116D01*
X139986815Y-81339155D01*
X139938796Y-81382600D01*
X139927993Y-81388104D01*
X139754993Y-81513796D01*
X139744581Y-81524209D01*
X139683258Y-81557694D01*
X139613566Y-81552710D01*
X139557633Y-81510838D01*
X139533216Y-81445374D01*
X139532900Y-81436528D01*
X139532900Y-77606770D01*
X139537421Y-77591372D01*
X139536952Y-77575328D01*
X139547063Y-77558533D01*
X139552585Y-77539731D01*
X139564711Y-77529222D01*
X139572992Y-77515471D01*
X139590577Y-77506809D01*
X139605389Y-77493976D01*
X139621274Y-77491691D01*
X139635672Y-77484601D01*
X139670951Y-77483569D01*
X139686021Y-77485287D01*
G37*
%TD.AperFunction*%
%TA.AperFunction,Conductor*%
G36*
X127608023Y-48653185D02*
G01*
X127653778Y-48705989D01*
X127663722Y-48775147D01*
X127658915Y-48795818D01*
X127630951Y-48881882D01*
X127630951Y-48881884D01*
X127597500Y-49093084D01*
X127597500Y-49306916D01*
X127600517Y-49325962D01*
X127630951Y-49518117D01*
X127697026Y-49721480D01*
X127697027Y-49721483D01*
X127768245Y-49861254D01*
X127794106Y-49912009D01*
X127919794Y-50085004D01*
X128070996Y-50236206D01*
X128243991Y-50361894D01*
X128322499Y-50401896D01*
X128434516Y-50458972D01*
X128434519Y-50458973D01*
X128536200Y-50492010D01*
X128637884Y-50525049D01*
X128849084Y-50558500D01*
X128849085Y-50558500D01*
X129062915Y-50558500D01*
X129062916Y-50558500D01*
X129274116Y-50525049D01*
X129477483Y-50458972D01*
X129668009Y-50361894D01*
X129841004Y-50236206D01*
X129992206Y-50085004D01*
X130117894Y-49912009D01*
X130117896Y-49912004D01*
X130120270Y-49908132D01*
X130172080Y-49861254D01*
X130241009Y-49849829D01*
X130305173Y-49877483D01*
X130331730Y-49908132D01*
X130334103Y-49912005D01*
X130334106Y-49912009D01*
X130459794Y-50085004D01*
X130610996Y-50236206D01*
X130783991Y-50361894D01*
X130862499Y-50401896D01*
X130974516Y-50458972D01*
X130974519Y-50458973D01*
X131076200Y-50492010D01*
X131177884Y-50525049D01*
X131389084Y-50558500D01*
X131389085Y-50558500D01*
X131602915Y-50558500D01*
X131602916Y-50558500D01*
X131814116Y-50525049D01*
X132017483Y-50458972D01*
X132208009Y-50361894D01*
X132381004Y-50236206D01*
X132532206Y-50085004D01*
X132657894Y-49912009D01*
X132657896Y-49912004D01*
X132660270Y-49908132D01*
X132712080Y-49861254D01*
X132781009Y-49849829D01*
X132845173Y-49877483D01*
X132871730Y-49908132D01*
X132874103Y-49912005D01*
X132874106Y-49912009D01*
X132999794Y-50085004D01*
X133150996Y-50236206D01*
X133323991Y-50361894D01*
X133402499Y-50401896D01*
X133514516Y-50458972D01*
X133514519Y-50458973D01*
X133616200Y-50492010D01*
X133717884Y-50525049D01*
X133929084Y-50558500D01*
X133929085Y-50558500D01*
X134142915Y-50558500D01*
X134142916Y-50558500D01*
X134354116Y-50525049D01*
X134557483Y-50458972D01*
X134748009Y-50361894D01*
X134921004Y-50236206D01*
X135072206Y-50085004D01*
X135197894Y-49912009D01*
X135197896Y-49912004D01*
X135200270Y-49908132D01*
X135252080Y-49861254D01*
X135321009Y-49849829D01*
X135385173Y-49877483D01*
X135411730Y-49908132D01*
X135414103Y-49912005D01*
X135414106Y-49912009D01*
X135539794Y-50085004D01*
X135690996Y-50236206D01*
X135863991Y-50361894D01*
X135942499Y-50401896D01*
X136054516Y-50458972D01*
X136054519Y-50458973D01*
X136156200Y-50492010D01*
X136257884Y-50525049D01*
X136469084Y-50558500D01*
X136469085Y-50558500D01*
X136682915Y-50558500D01*
X136682916Y-50558500D01*
X136894116Y-50525049D01*
X137097483Y-50458972D01*
X137288009Y-50361894D01*
X137461004Y-50236206D01*
X137612206Y-50085004D01*
X137737894Y-49912009D01*
X137737896Y-49912004D01*
X137740270Y-49908132D01*
X137792080Y-49861254D01*
X137861009Y-49849829D01*
X137925173Y-49877483D01*
X137951730Y-49908132D01*
X137954103Y-49912005D01*
X137954106Y-49912009D01*
X138079794Y-50085004D01*
X138230996Y-50236206D01*
X138403991Y-50361894D01*
X138482499Y-50401896D01*
X138594516Y-50458972D01*
X138594519Y-50458973D01*
X138696200Y-50492010D01*
X138797884Y-50525049D01*
X139009084Y-50558500D01*
X139009085Y-50558500D01*
X139222915Y-50558500D01*
X139222916Y-50558500D01*
X139434116Y-50525049D01*
X139637483Y-50458972D01*
X139828009Y-50361894D01*
X140001004Y-50236206D01*
X140152206Y-50085004D01*
X140277894Y-49912009D01*
X140277896Y-49912004D01*
X140280270Y-49908132D01*
X140332080Y-49861254D01*
X140401009Y-49849829D01*
X140465173Y-49877483D01*
X140491730Y-49908132D01*
X140494103Y-49912005D01*
X140494106Y-49912009D01*
X140619794Y-50085004D01*
X140619796Y-50085006D01*
X140747411Y-50212621D01*
X140780896Y-50273944D01*
X140775912Y-50343636D01*
X140747411Y-50387983D01*
X138495567Y-52639829D01*
X138451447Y-52683949D01*
X138407327Y-52728068D01*
X138338003Y-52831818D01*
X138337998Y-52831827D01*
X138290245Y-52947114D01*
X138290243Y-52947122D01*
X138265900Y-53069501D01*
X138265900Y-69048195D01*
X138246215Y-69115234D01*
X138193411Y-69160989D01*
X138124253Y-69170933D01*
X138060697Y-69141908D01*
X138054219Y-69135876D01*
X137985841Y-69067498D01*
X137857509Y-68981749D01*
X137812704Y-68928136D01*
X137802400Y-68878647D01*
X137802400Y-66145805D01*
X137802399Y-66145801D01*
X137778056Y-66023422D01*
X137778055Y-66023415D01*
X137736561Y-65923241D01*
X137730301Y-65908127D01*
X137730296Y-65908118D01*
X137660972Y-65804368D01*
X137660971Y-65804367D01*
X137572733Y-65716129D01*
X122244587Y-50387983D01*
X122211103Y-50326661D01*
X122216087Y-50256969D01*
X122244588Y-50212622D01*
X122298009Y-50159201D01*
X122372206Y-50085004D01*
X122497894Y-49912009D01*
X122497896Y-49912004D01*
X122500270Y-49908132D01*
X122552080Y-49861254D01*
X122621009Y-49849829D01*
X122685173Y-49877483D01*
X122711730Y-49908132D01*
X122714103Y-49912005D01*
X122714106Y-49912009D01*
X122839794Y-50085004D01*
X122990996Y-50236206D01*
X123163991Y-50361894D01*
X123242499Y-50401896D01*
X123354516Y-50458972D01*
X123354519Y-50458973D01*
X123456200Y-50492010D01*
X123557884Y-50525049D01*
X123769084Y-50558500D01*
X123769085Y-50558500D01*
X123982915Y-50558500D01*
X123982916Y-50558500D01*
X124194116Y-50525049D01*
X124397483Y-50458972D01*
X124588009Y-50361894D01*
X124761004Y-50236206D01*
X124912206Y-50085004D01*
X125037894Y-49912009D01*
X125134972Y-49721483D01*
X125201049Y-49518116D01*
X125234500Y-49306916D01*
X125234500Y-49093084D01*
X125201049Y-48881884D01*
X125173085Y-48795818D01*
X125171090Y-48725977D01*
X125207171Y-48666144D01*
X125269872Y-48635316D01*
X125291016Y-48633500D01*
X127540984Y-48633500D01*
X127608023Y-48653185D01*
G37*
%TD.AperFunction*%
%TA.AperFunction,Conductor*%
G36*
X163484404Y-46755185D02*
G01*
X163505046Y-46771819D01*
X165928181Y-49194954D01*
X165961666Y-49256277D01*
X165964500Y-49282635D01*
X165964500Y-59344982D01*
X165964500Y-59375018D01*
X165975994Y-59402767D01*
X165975995Y-59402768D01*
X168468181Y-61894954D01*
X168501666Y-61956277D01*
X168504500Y-61982635D01*
X168504500Y-96107364D01*
X168484815Y-96174403D01*
X168468181Y-96195045D01*
X165997233Y-98665994D01*
X165975995Y-98687231D01*
X165964500Y-98714982D01*
X165964500Y-99231907D01*
X165963903Y-99244061D01*
X165963903Y-99244062D01*
X165952505Y-99359778D01*
X165947763Y-99383618D01*
X165917832Y-99482290D01*
X165915789Y-99489024D01*
X165906486Y-99511482D01*
X165854561Y-99608627D01*
X165841056Y-99628839D01*
X165771176Y-99713988D01*
X165753988Y-99731176D01*
X165668839Y-99801056D01*
X165648627Y-99814561D01*
X165551482Y-99866486D01*
X165529028Y-99875787D01*
X165487028Y-99888528D01*
X165423618Y-99907763D01*
X165399778Y-99912505D01*
X165291162Y-99923203D01*
X165284060Y-99923903D01*
X165271907Y-99924500D01*
X100768093Y-99924500D01*
X100755939Y-99923903D01*
X100747995Y-99923120D01*
X100640221Y-99912505D01*
X100616381Y-99907763D01*
X100599445Y-99902625D01*
X100510968Y-99875786D01*
X100488517Y-99866486D01*
X100391372Y-99814561D01*
X100371160Y-99801056D01*
X100286011Y-99731176D01*
X100268823Y-99713988D01*
X100198943Y-99628839D01*
X100185438Y-99608627D01*
X100133510Y-99511476D01*
X100124215Y-99489037D01*
X100092234Y-99383612D01*
X100087494Y-99359777D01*
X100076097Y-99244061D01*
X100075500Y-99231907D01*
X100075500Y-91191345D01*
X101943500Y-91191345D01*
X101943500Y-92988654D01*
X101950011Y-93049202D01*
X101950011Y-93049204D01*
X102001111Y-93186204D01*
X102088739Y-93303261D01*
X102205796Y-93390889D01*
X102326626Y-93435956D01*
X102382557Y-93477827D01*
X102406974Y-93543291D01*
X102392122Y-93611564D01*
X102370972Y-93639818D01*
X102265793Y-93744997D01*
X102140106Y-93917990D01*
X102043027Y-94108516D01*
X102043026Y-94108519D01*
X101976951Y-94311882D01*
X101943500Y-94523084D01*
X101943500Y-94736915D01*
X101976951Y-94948117D01*
X102043026Y-95151480D01*
X102043027Y-95151483D01*
X102140106Y-95342009D01*
X102265794Y-95515004D01*
X102416996Y-95666206D01*
X102589991Y-95791894D01*
X102593873Y-95794273D01*
X102640748Y-95846086D01*
X102652169Y-95915016D01*
X102624512Y-95979178D01*
X102593873Y-96005727D01*
X102589991Y-96008105D01*
X102416993Y-96133796D01*
X102265796Y-96284993D01*
X102140106Y-96457990D01*
X102043027Y-96648516D01*
X102043026Y-96648519D01*
X101976951Y-96851882D01*
X101943500Y-97063084D01*
X101943500Y-97276915D01*
X101976951Y-97488117D01*
X102043026Y-97691480D01*
X102043027Y-97691483D01*
X102087170Y-97778117D01*
X102140106Y-97882009D01*
X102265794Y-98055004D01*
X102416996Y-98206206D01*
X102589991Y-98331894D01*
X102664537Y-98369877D01*
X102780516Y-98428972D01*
X102780519Y-98428973D01*
X102882200Y-98462010D01*
X102983884Y-98495049D01*
X103195084Y-98528500D01*
X103195085Y-98528500D01*
X103408915Y-98528500D01*
X103408916Y-98528500D01*
X103620116Y-98495049D01*
X103823483Y-98428972D01*
X104014009Y-98331894D01*
X104187004Y-98206206D01*
X104338206Y-98055004D01*
X104463894Y-97882009D01*
X104560972Y-97691483D01*
X104627049Y-97488116D01*
X104660500Y-97276916D01*
X104660500Y-97063084D01*
X104627049Y-96851884D01*
X104560972Y-96648517D01*
X104560972Y-96648516D01*
X104485705Y-96500797D01*
X104463894Y-96457991D01*
X104338206Y-96284996D01*
X104187004Y-96133794D01*
X104014009Y-96008106D01*
X104014005Y-96008103D01*
X104010132Y-96005730D01*
X103963254Y-95953920D01*
X103951829Y-95884991D01*
X103979483Y-95820827D01*
X104010132Y-95794270D01*
X104014005Y-95791896D01*
X104014004Y-95791896D01*
X104014009Y-95791894D01*
X104187004Y-95666206D01*
X104338206Y-95515004D01*
X104463894Y-95342009D01*
X104560972Y-95151483D01*
X104627049Y-94948116D01*
X104660500Y-94736916D01*
X104660500Y-94523084D01*
X104627049Y-94311884D01*
X104560972Y-94108517D01*
X104560972Y-94108516D01*
X104495744Y-93980500D01*
X104463894Y-93917991D01*
X104338206Y-93744996D01*
X104233028Y-93639818D01*
X104199543Y-93578495D01*
X104204527Y-93508803D01*
X104246399Y-93452870D01*
X104277367Y-93435959D01*
X104398204Y-93390889D01*
X104515261Y-93303261D01*
X104602889Y-93186204D01*
X104653989Y-93049201D01*
X104657591Y-93015692D01*
X104660499Y-92988654D01*
X104660500Y-92988637D01*
X104660500Y-91191362D01*
X104660499Y-91191345D01*
X104657042Y-91159201D01*
X104653989Y-91130799D01*
X104636321Y-91083431D01*
X104609354Y-91011130D01*
X104602889Y-90993796D01*
X104515261Y-90876739D01*
X104398204Y-90789111D01*
X104261203Y-90738011D01*
X104200654Y-90731500D01*
X104200638Y-90731500D01*
X102403362Y-90731500D01*
X102403345Y-90731500D01*
X102342797Y-90738011D01*
X102342795Y-90738011D01*
X102205795Y-90789111D01*
X102088739Y-90876739D01*
X102001111Y-90993795D01*
X101950011Y-91130795D01*
X101950011Y-91130797D01*
X101943500Y-91191345D01*
X100075500Y-91191345D01*
X100075500Y-82443084D01*
X103721500Y-82443084D01*
X103721500Y-82656915D01*
X103754951Y-82868117D01*
X103821026Y-83071480D01*
X103821027Y-83071483D01*
X103892245Y-83211254D01*
X103918106Y-83262009D01*
X104043794Y-83435004D01*
X104043796Y-83435006D01*
X104148971Y-83540181D01*
X104182456Y-83601504D01*
X104177472Y-83671196D01*
X104135600Y-83727129D01*
X104104625Y-83744043D01*
X103983795Y-83789111D01*
X103866739Y-83876739D01*
X103779111Y-83993795D01*
X103728011Y-84130795D01*
X103728011Y-84130797D01*
X103721500Y-84191345D01*
X103721500Y-85988654D01*
X103728011Y-86049202D01*
X103728011Y-86049204D01*
X103779111Y-86186204D01*
X103866739Y-86303261D01*
X103983796Y-86390889D01*
X104120799Y-86441989D01*
X104148050Y-86444918D01*
X104181345Y-86448499D01*
X104181362Y-86448500D01*
X105978638Y-86448500D01*
X105978654Y-86448499D01*
X106005692Y-86445591D01*
X106039201Y-86441989D01*
X106176204Y-86390889D01*
X106293261Y-86303261D01*
X106380889Y-86186204D01*
X106425957Y-86065371D01*
X106467827Y-86009442D01*
X106533291Y-85985025D01*
X106601564Y-85999877D01*
X106629818Y-86021028D01*
X106734996Y-86126206D01*
X106907991Y-86251894D01*
X106999596Y-86298569D01*
X107098516Y-86348972D01*
X107098519Y-86348973D01*
X107150598Y-86365894D01*
X107301884Y-86415049D01*
X107513084Y-86448500D01*
X107513085Y-86448500D01*
X107726915Y-86448500D01*
X107726916Y-86448500D01*
X107938116Y-86415049D01*
X108141483Y-86348972D01*
X108332009Y-86251894D01*
X108505004Y-86126206D01*
X108656206Y-85975004D01*
X108781894Y-85802009D01*
X108781896Y-85802004D01*
X108784270Y-85798132D01*
X108836080Y-85751254D01*
X108905009Y-85739829D01*
X108969173Y-85767483D01*
X108995730Y-85798132D01*
X108998103Y-85802005D01*
X108998106Y-85802009D01*
X109123794Y-85975004D01*
X109274996Y-86126206D01*
X109447991Y-86251894D01*
X109539596Y-86298569D01*
X109638516Y-86348972D01*
X109638519Y-86348973D01*
X109690598Y-86365894D01*
X109841884Y-86415049D01*
X110053084Y-86448500D01*
X110053085Y-86448500D01*
X110266915Y-86448500D01*
X110266916Y-86448500D01*
X110478116Y-86415049D01*
X110681483Y-86348972D01*
X110872009Y-86251894D01*
X111045004Y-86126206D01*
X111196206Y-85975004D01*
X111321894Y-85802009D01*
X111321896Y-85802004D01*
X111324270Y-85798132D01*
X111376080Y-85751254D01*
X111445009Y-85739829D01*
X111509173Y-85767483D01*
X111535730Y-85798132D01*
X111538103Y-85802005D01*
X111538106Y-85802009D01*
X111663794Y-85975004D01*
X111814996Y-86126206D01*
X111987991Y-86251894D01*
X112079596Y-86298569D01*
X112178516Y-86348972D01*
X112178519Y-86348973D01*
X112230598Y-86365894D01*
X112381884Y-86415049D01*
X112593084Y-86448500D01*
X112593085Y-86448500D01*
X112806915Y-86448500D01*
X112806916Y-86448500D01*
X113018116Y-86415049D01*
X113221483Y-86348972D01*
X113412009Y-86251894D01*
X113585004Y-86126206D01*
X113736206Y-85975004D01*
X113861894Y-85802009D01*
X113861896Y-85802004D01*
X113864270Y-85798132D01*
X113916080Y-85751254D01*
X113985009Y-85739829D01*
X114049173Y-85767483D01*
X114075730Y-85798132D01*
X114078103Y-85802005D01*
X114078106Y-85802009D01*
X114203794Y-85975004D01*
X114354996Y-86126206D01*
X114527991Y-86251894D01*
X114619596Y-86298569D01*
X114718516Y-86348972D01*
X114718519Y-86348973D01*
X114770598Y-86365894D01*
X114921884Y-86415049D01*
X115133084Y-86448500D01*
X115133085Y-86448500D01*
X115346915Y-86448500D01*
X115346916Y-86448500D01*
X115558116Y-86415049D01*
X115709402Y-86365894D01*
X115761474Y-86348975D01*
X115761474Y-86348974D01*
X115761483Y-86348972D01*
X115773023Y-86343091D01*
X115841690Y-86330194D01*
X115906431Y-86356468D01*
X115917001Y-86365894D01*
X115994605Y-86443498D01*
X115994612Y-86443504D01*
X116127030Y-86531982D01*
X116127031Y-86531982D01*
X116127032Y-86531983D01*
X116274169Y-86592930D01*
X116430365Y-86623999D01*
X116430369Y-86624000D01*
X116430370Y-86624000D01*
X116589631Y-86624000D01*
X116589632Y-86623999D01*
X116745831Y-86592930D01*
X116892968Y-86531983D01*
X117025389Y-86443503D01*
X117102999Y-86365892D01*
X117164319Y-86332408D01*
X117234011Y-86337392D01*
X117246956Y-86343081D01*
X117258517Y-86348972D01*
X117461884Y-86415049D01*
X117673084Y-86448500D01*
X117673085Y-86448500D01*
X117886915Y-86448500D01*
X117886916Y-86448500D01*
X118098116Y-86415049D01*
X118301483Y-86348972D01*
X118492009Y-86251894D01*
X118665004Y-86126206D01*
X118816206Y-85975004D01*
X118941894Y-85802009D01*
X118941896Y-85802004D01*
X118944270Y-85798132D01*
X118996080Y-85751254D01*
X119065009Y-85739829D01*
X119129173Y-85767483D01*
X119155730Y-85798132D01*
X119158103Y-85802005D01*
X119158106Y-85802009D01*
X119283794Y-85975004D01*
X119434996Y-86126206D01*
X119607991Y-86251894D01*
X119699596Y-86298569D01*
X119798516Y-86348972D01*
X119798519Y-86348973D01*
X119850598Y-86365894D01*
X120001884Y-86415049D01*
X120213084Y-86448500D01*
X120213085Y-86448500D01*
X120426915Y-86448500D01*
X120426916Y-86448500D01*
X120638116Y-86415049D01*
X120841483Y-86348972D01*
X121032009Y-86251894D01*
X121205004Y-86126206D01*
X121356206Y-85975004D01*
X121481894Y-85802009D01*
X121481896Y-85802004D01*
X121484270Y-85798132D01*
X121536080Y-85751254D01*
X121605009Y-85739829D01*
X121669173Y-85767483D01*
X121695730Y-85798132D01*
X121698103Y-85802005D01*
X121698106Y-85802009D01*
X121823794Y-85975004D01*
X121974996Y-86126206D01*
X122147991Y-86251894D01*
X122239596Y-86298569D01*
X122338516Y-86348972D01*
X122338519Y-86348973D01*
X122390598Y-86365894D01*
X122541884Y-86415049D01*
X122753084Y-86448500D01*
X122753085Y-86448500D01*
X122966915Y-86448500D01*
X122966916Y-86448500D01*
X123178116Y-86415049D01*
X123381483Y-86348972D01*
X123572009Y-86251894D01*
X123745004Y-86126206D01*
X123896206Y-85975004D01*
X124021894Y-85802009D01*
X124118972Y-85611483D01*
X124185049Y-85408116D01*
X124218500Y-85196916D01*
X124218500Y-84983084D01*
X124185049Y-84771884D01*
X124118972Y-84568517D01*
X124118972Y-84568516D01*
X124053575Y-84440169D01*
X124021894Y-84377991D01*
X123896206Y-84204996D01*
X123745004Y-84053794D01*
X123572009Y-83928106D01*
X123572001Y-83928100D01*
X123568122Y-83925723D01*
X123521249Y-83873909D01*
X123509830Y-83804979D01*
X123537490Y-83740817D01*
X123568141Y-83714263D01*
X123571994Y-83711901D01*
X123572009Y-83711894D01*
X123745004Y-83586206D01*
X123896206Y-83435004D01*
X124021894Y-83262009D01*
X124118972Y-83071483D01*
X124185049Y-82868116D01*
X124218500Y-82656916D01*
X124218500Y-82443084D01*
X124185049Y-82231884D01*
X124118972Y-82028517D01*
X124118972Y-82028516D01*
X124021893Y-81837990D01*
X123896206Y-81664996D01*
X123745004Y-81513794D01*
X123572009Y-81388106D01*
X123496500Y-81349632D01*
X123381483Y-81291027D01*
X123381480Y-81291026D01*
X123178117Y-81224951D01*
X123053862Y-81205271D01*
X122966916Y-81191500D01*
X122753084Y-81191500D01*
X122682684Y-81202650D01*
X122541882Y-81224951D01*
X122338519Y-81291026D01*
X122338516Y-81291027D01*
X122147990Y-81388106D01*
X121974993Y-81513796D01*
X121823796Y-81664993D01*
X121698105Y-81837991D01*
X121695727Y-81841873D01*
X121643914Y-81888748D01*
X121574984Y-81900169D01*
X121510822Y-81872512D01*
X121484273Y-81841873D01*
X121481894Y-81837991D01*
X121481893Y-81837990D01*
X121356206Y-81664996D01*
X121205004Y-81513794D01*
X121032009Y-81388106D01*
X121032008Y-81388105D01*
X121032006Y-81388104D01*
X121021204Y-81382600D01*
X120970408Y-81334625D01*
X120953500Y-81272116D01*
X120953500Y-77420310D01*
X120973185Y-77353271D01*
X121004615Y-77319991D01*
X121005797Y-77319131D01*
X121005803Y-77319129D01*
X121172430Y-77198068D01*
X121318068Y-77052430D01*
X121439129Y-76885803D01*
X121479515Y-76806540D01*
X121527490Y-76755745D01*
X121595311Y-76738950D01*
X121661446Y-76761487D01*
X121700485Y-76806541D01*
X121740873Y-76885806D01*
X121861926Y-77052423D01*
X121861930Y-77052428D01*
X122007571Y-77198069D01*
X122007576Y-77198073D01*
X122141853Y-77295630D01*
X122174197Y-77319129D01*
X122291128Y-77378709D01*
X122357705Y-77412632D01*
X122357707Y-77412632D01*
X122357710Y-77412634D01*
X122462707Y-77446749D01*
X122553591Y-77476280D01*
X122594776Y-77482803D01*
X122757019Y-77508500D01*
X122757020Y-77508500D01*
X122962980Y-77508500D01*
X122962981Y-77508500D01*
X123166408Y-77476280D01*
X123362290Y-77412634D01*
X123545803Y-77319129D01*
X123712430Y-77198068D01*
X123858068Y-77052430D01*
X123979129Y-76885803D01*
X124072634Y-76702290D01*
X124136280Y-76506408D01*
X124168500Y-76302981D01*
X124168500Y-76097019D01*
X124136280Y-75893592D01*
X124072634Y-75697710D01*
X124072632Y-75697707D01*
X124072632Y-75697705D01*
X124019515Y-75593459D01*
X123979129Y-75514197D01*
X123907907Y-75416168D01*
X123858073Y-75347576D01*
X123858069Y-75347571D01*
X123712428Y-75201930D01*
X123712423Y-75201926D01*
X123545806Y-75080873D01*
X123545805Y-75080872D01*
X123545803Y-75080871D01*
X123488496Y-75051671D01*
X123362294Y-74987367D01*
X123166408Y-74923719D01*
X122990794Y-74895905D01*
X122962981Y-74891500D01*
X122757019Y-74891500D01*
X122732550Y-74895375D01*
X122553591Y-74923719D01*
X122357705Y-74987367D01*
X122174193Y-75080873D01*
X122007576Y-75201926D01*
X122007571Y-75201930D01*
X121861930Y-75347571D01*
X121861926Y-75347576D01*
X121740871Y-75514195D01*
X121700484Y-75593459D01*
X121652510Y-75644254D01*
X121584689Y-75661049D01*
X121518554Y-75638511D01*
X121479516Y-75593459D01*
X121439128Y-75514195D01*
X121318073Y-75347576D01*
X121318069Y-75347571D01*
X121172428Y-75201930D01*
X121172423Y-75201926D01*
X121005806Y-75080873D01*
X121005805Y-75080872D01*
X121005803Y-75080871D01*
X120948496Y-75051671D01*
X120822294Y-74987367D01*
X120626408Y-74923719D01*
X120450794Y-74895905D01*
X120422981Y-74891500D01*
X120217019Y-74891500D01*
X120192550Y-74895375D01*
X120013591Y-74923719D01*
X119817705Y-74987367D01*
X119634193Y-75080873D01*
X119467576Y-75201926D01*
X119467571Y-75201930D01*
X119321930Y-75347571D01*
X119321926Y-75347576D01*
X119200871Y-75514195D01*
X119160484Y-75593459D01*
X119112510Y-75644254D01*
X119044689Y-75661049D01*
X118978554Y-75638511D01*
X118939516Y-75593459D01*
X118899128Y-75514195D01*
X118778073Y-75347576D01*
X118778069Y-75347571D01*
X118632428Y-75201930D01*
X118632423Y-75201926D01*
X118465806Y-75080873D01*
X118465805Y-75080872D01*
X118465803Y-75080871D01*
X118408496Y-75051671D01*
X118282294Y-74987367D01*
X118086408Y-74923719D01*
X117910794Y-74895905D01*
X117882981Y-74891500D01*
X117677019Y-74891500D01*
X117635917Y-74898010D01*
X117473590Y-74923720D01*
X117473587Y-74923720D01*
X117305818Y-74978233D01*
X117235977Y-74980228D01*
X117176144Y-74944148D01*
X117145316Y-74881447D01*
X117143500Y-74860302D01*
X117143500Y-69919697D01*
X117163185Y-69852658D01*
X117215989Y-69806903D01*
X117285147Y-69796959D01*
X117305806Y-69801763D01*
X117425756Y-69840737D01*
X117473591Y-69856280D01*
X117575305Y-69872390D01*
X117677019Y-69888500D01*
X117677020Y-69888500D01*
X117882980Y-69888500D01*
X117882981Y-69888500D01*
X118086408Y-69856280D01*
X118282290Y-69792634D01*
X118465803Y-69699129D01*
X118632430Y-69578068D01*
X118778068Y-69432430D01*
X118899129Y-69265803D01*
X118939515Y-69186540D01*
X118987490Y-69135745D01*
X119055311Y-69118950D01*
X119121446Y-69141487D01*
X119160484Y-69186540D01*
X119174467Y-69213983D01*
X119200873Y-69265806D01*
X119321926Y-69432423D01*
X119321930Y-69432428D01*
X119467571Y-69578069D01*
X119467576Y-69578073D01*
X119612908Y-69683661D01*
X119634197Y-69699129D01*
X119751128Y-69758709D01*
X119817705Y-69792632D01*
X119817707Y-69792632D01*
X119817710Y-69792634D01*
X119922707Y-69826749D01*
X120013591Y-69856280D01*
X120115305Y-69872390D01*
X120217019Y-69888500D01*
X120217020Y-69888500D01*
X120422980Y-69888500D01*
X120422981Y-69888500D01*
X120626408Y-69856280D01*
X120822290Y-69792634D01*
X121005803Y-69699129D01*
X121172430Y-69578068D01*
X121318068Y-69432430D01*
X121439129Y-69265803D01*
X121479515Y-69186540D01*
X121527490Y-69135745D01*
X121595311Y-69118950D01*
X121661446Y-69141487D01*
X121700484Y-69186540D01*
X121714467Y-69213983D01*
X121740873Y-69265806D01*
X121861926Y-69432423D01*
X121861930Y-69432428D01*
X122007571Y-69578069D01*
X122007576Y-69578073D01*
X122152908Y-69683661D01*
X122174197Y-69699129D01*
X122291128Y-69758709D01*
X122357705Y-69792632D01*
X122357707Y-69792632D01*
X122357710Y-69792634D01*
X122462707Y-69826749D01*
X122553591Y-69856280D01*
X122655305Y-69872390D01*
X122757019Y-69888500D01*
X122757020Y-69888500D01*
X122962980Y-69888500D01*
X122962981Y-69888500D01*
X123166408Y-69856280D01*
X123362290Y-69792634D01*
X123545803Y-69699129D01*
X123712430Y-69578068D01*
X123858068Y-69432430D01*
X123979129Y-69265803D01*
X124072634Y-69082290D01*
X124136280Y-68886408D01*
X124168500Y-68682981D01*
X124168500Y-68477019D01*
X124157918Y-68410208D01*
X124136280Y-68273591D01*
X124084598Y-68114532D01*
X124072634Y-68077710D01*
X124072632Y-68077707D01*
X124072632Y-68077705D01*
X124023924Y-67982112D01*
X123979129Y-67894197D01*
X123961186Y-67869501D01*
X123858073Y-67727576D01*
X123858069Y-67727571D01*
X123712428Y-67581930D01*
X123712423Y-67581926D01*
X123545806Y-67460873D01*
X123545805Y-67460872D01*
X123545803Y-67460871D01*
X123488496Y-67431671D01*
X123362294Y-67367367D01*
X123166408Y-67303719D01*
X122990794Y-67275905D01*
X122962981Y-67271500D01*
X122757019Y-67271500D01*
X122732550Y-67275375D01*
X122553591Y-67303719D01*
X122357705Y-67367367D01*
X122174193Y-67460873D01*
X122007576Y-67581926D01*
X122007571Y-67581930D01*
X121861930Y-67727571D01*
X121861926Y-67727576D01*
X121740871Y-67894195D01*
X121700484Y-67973459D01*
X121652510Y-68024254D01*
X121584689Y-68041049D01*
X121518554Y-68018511D01*
X121479516Y-67973459D01*
X121439128Y-67894195D01*
X121318073Y-67727576D01*
X121318069Y-67727571D01*
X121172428Y-67581930D01*
X121172423Y-67581926D01*
X121005806Y-67460873D01*
X121005805Y-67460872D01*
X121005803Y-67460871D01*
X120948496Y-67431671D01*
X120822294Y-67367367D01*
X120626408Y-67303719D01*
X120450794Y-67275905D01*
X120422981Y-67271500D01*
X120217019Y-67271500D01*
X120192550Y-67275375D01*
X120013591Y-67303719D01*
X119817705Y-67367367D01*
X119634193Y-67460873D01*
X119467576Y-67581926D01*
X119467571Y-67581930D01*
X119321930Y-67727571D01*
X119321926Y-67727576D01*
X119200871Y-67894195D01*
X119160484Y-67973459D01*
X119112510Y-68024254D01*
X119044689Y-68041049D01*
X118978554Y-68018511D01*
X118939516Y-67973459D01*
X118899128Y-67894195D01*
X118778073Y-67727576D01*
X118778069Y-67727571D01*
X118632428Y-67581930D01*
X118632423Y-67581926D01*
X118465806Y-67460873D01*
X118465805Y-67460872D01*
X118465803Y-67460871D01*
X118408496Y-67431671D01*
X118282294Y-67367367D01*
X118086408Y-67303719D01*
X117910794Y-67275905D01*
X117882981Y-67271500D01*
X117677019Y-67271500D01*
X117672147Y-67271500D01*
X117672147Y-67269698D01*
X117611333Y-67256915D01*
X117561583Y-67207857D01*
X117546253Y-67139690D01*
X117570211Y-67074056D01*
X117582315Y-67059988D01*
X117635189Y-67007115D01*
X117992071Y-66650233D01*
X118061400Y-66546475D01*
X118109155Y-66431185D01*
X118112936Y-66412170D01*
X118116753Y-66392988D01*
X118116753Y-66392985D01*
X118133500Y-66308794D01*
X118133500Y-50908066D01*
X118153185Y-50841027D01*
X118205989Y-50795272D01*
X118275147Y-50785328D01*
X118338703Y-50814353D01*
X118345181Y-50820385D01*
X135873681Y-68348885D01*
X135907166Y-68410208D01*
X135910000Y-68436566D01*
X135910000Y-69775222D01*
X135890315Y-69842261D01*
X135889103Y-69844112D01*
X135827016Y-69937033D01*
X135766070Y-70084168D01*
X135766068Y-70084176D01*
X135735000Y-70240365D01*
X135735000Y-70399634D01*
X135766068Y-70555823D01*
X135766070Y-70555831D01*
X135827017Y-70702969D01*
X135915495Y-70835387D01*
X135915501Y-70835394D01*
X136028105Y-70947998D01*
X136028112Y-70948004D01*
X136160530Y-71036482D01*
X136160531Y-71036482D01*
X136160532Y-71036483D01*
X136307669Y-71097430D01*
X136429548Y-71121673D01*
X136463865Y-71128499D01*
X136463869Y-71128500D01*
X136463870Y-71128500D01*
X136623131Y-71128500D01*
X136623131Y-71128499D01*
X136669724Y-71119232D01*
X136688759Y-71115446D01*
X136758350Y-71121673D01*
X136813528Y-71164536D01*
X136836772Y-71230426D01*
X136836950Y-71237063D01*
X136836950Y-72193232D01*
X136861293Y-72315611D01*
X136861295Y-72315619D01*
X136909048Y-72430906D01*
X136909050Y-72430909D01*
X136937602Y-72473640D01*
X136958480Y-72540316D01*
X136958500Y-72542531D01*
X136958500Y-76671222D01*
X136954660Y-76686023D01*
X136955456Y-76698530D01*
X136945246Y-76722308D01*
X136942862Y-76731501D01*
X136940402Y-76735921D01*
X136875517Y-76833032D01*
X136843833Y-76909520D01*
X136840362Y-76915762D01*
X136820347Y-76935464D01*
X136802719Y-76957340D01*
X136795780Y-76959649D01*
X136790571Y-76964778D01*
X136763078Y-76970533D01*
X136736425Y-76979404D01*
X136729340Y-76977595D01*
X136722183Y-76979094D01*
X136695938Y-76969070D01*
X136668726Y-76962124D01*
X136663744Y-76956773D01*
X136656913Y-76954164D01*
X136640256Y-76931545D01*
X136621116Y-76910987D01*
X136619225Y-76902986D01*
X136615482Y-76897903D01*
X136614544Y-76883179D01*
X136608000Y-76855483D01*
X136608000Y-75184405D01*
X136607999Y-75184401D01*
X136583657Y-75062022D01*
X136583654Y-75062013D01*
X136581059Y-75055749D01*
X136569668Y-75028247D01*
X136535901Y-74946725D01*
X136535899Y-74946723D01*
X136535899Y-74946721D01*
X136466572Y-74842967D01*
X136466569Y-74842963D01*
X130058368Y-68434764D01*
X130024883Y-68373441D01*
X130024432Y-68371274D01*
X130009471Y-68296066D01*
X130002630Y-68261669D01*
X129941683Y-68114532D01*
X129917076Y-68077705D01*
X129853204Y-67982112D01*
X129853198Y-67982105D01*
X129740594Y-67869501D01*
X129740587Y-67869495D01*
X129608169Y-67781017D01*
X129461031Y-67720070D01*
X129461023Y-67720068D01*
X129304834Y-67689000D01*
X129304830Y-67689000D01*
X129145570Y-67689000D01*
X129145565Y-67689000D01*
X128989376Y-67720068D01*
X128989368Y-67720070D01*
X128842230Y-67781017D01*
X128709812Y-67869495D01*
X128709805Y-67869501D01*
X128597201Y-67982105D01*
X128597195Y-67982112D01*
X128508717Y-68114530D01*
X128447770Y-68261668D01*
X128447768Y-68261676D01*
X128416700Y-68417865D01*
X128416700Y-68577134D01*
X128447768Y-68733323D01*
X128447770Y-68733331D01*
X128508717Y-68880469D01*
X128597195Y-69012887D01*
X128597201Y-69012894D01*
X128709805Y-69125498D01*
X128709812Y-69125504D01*
X128842230Y-69213982D01*
X128842231Y-69213982D01*
X128842232Y-69213983D01*
X128989369Y-69274930D01*
X129023766Y-69281771D01*
X129098974Y-69296732D01*
X129115730Y-69305497D01*
X129134210Y-69309517D01*
X129159244Y-69328257D01*
X129160885Y-69329116D01*
X129162464Y-69330668D01*
X129167752Y-69335956D01*
X129201237Y-69397279D01*
X129196253Y-69466971D01*
X129154381Y-69522904D01*
X129120682Y-69539962D01*
X129120797Y-69540239D01*
X129117162Y-69541744D01*
X129116073Y-69542296D01*
X129115168Y-69542570D01*
X128968030Y-69603517D01*
X128835612Y-69691995D01*
X128835605Y-69692001D01*
X128723001Y-69804605D01*
X128722995Y-69804612D01*
X128634517Y-69937030D01*
X128573570Y-70084168D01*
X128573568Y-70084176D01*
X128542500Y-70240365D01*
X128542500Y-70399634D01*
X128573568Y-70555823D01*
X128573570Y-70555831D01*
X128634517Y-70702969D01*
X128722995Y-70835387D01*
X128723001Y-70835394D01*
X128835605Y-70947998D01*
X128835612Y-70948004D01*
X128968030Y-71036482D01*
X128968031Y-71036482D01*
X128968032Y-71036483D01*
X129115169Y-71097430D01*
X129149566Y-71104271D01*
X129224774Y-71119232D01*
X129286685Y-71151616D01*
X129288264Y-71153168D01*
X134830181Y-76695085D01*
X134863666Y-76756408D01*
X134866500Y-76782766D01*
X134866500Y-81138232D01*
X134846815Y-81205271D01*
X134794011Y-81251026D01*
X134724853Y-81260970D01*
X134704183Y-81256163D01*
X134608119Y-81224951D01*
X134449716Y-81199862D01*
X134396916Y-81191500D01*
X134183084Y-81191500D01*
X134112684Y-81202650D01*
X133971882Y-81224951D01*
X133768519Y-81291026D01*
X133768516Y-81291027D01*
X133577990Y-81388106D01*
X133404993Y-81513796D01*
X133253788Y-81665001D01*
X133235347Y-81690385D01*
X133231015Y-81693725D01*
X133228742Y-81698703D01*
X133203642Y-81714833D01*
X133180018Y-81733051D01*
X133173344Y-81734304D01*
X133169964Y-81736477D01*
X133135029Y-81741500D01*
X132904971Y-81741500D01*
X132837932Y-81721815D01*
X132804653Y-81690385D01*
X132786211Y-81665001D01*
X132635006Y-81513796D01*
X132635004Y-81513794D01*
X132462009Y-81388106D01*
X132386500Y-81349632D01*
X132271483Y-81291027D01*
X132271480Y-81291026D01*
X132068117Y-81224951D01*
X131943862Y-81205271D01*
X131856916Y-81191500D01*
X131643084Y-81191500D01*
X131572684Y-81202650D01*
X131431882Y-81224951D01*
X131228519Y-81291026D01*
X131228516Y-81291027D01*
X131037990Y-81388106D01*
X130864993Y-81513796D01*
X130713788Y-81665001D01*
X130695347Y-81690385D01*
X130691015Y-81693725D01*
X130688742Y-81698703D01*
X130663642Y-81714833D01*
X130640018Y-81733051D01*
X130633344Y-81734304D01*
X130629964Y-81736477D01*
X130595029Y-81741500D01*
X130364971Y-81741500D01*
X130297932Y-81721815D01*
X130264653Y-81690385D01*
X130246211Y-81665001D01*
X130095006Y-81513796D01*
X130095004Y-81513794D01*
X129922009Y-81388106D01*
X129846500Y-81349632D01*
X129731483Y-81291027D01*
X129731480Y-81291026D01*
X129528117Y-81224951D01*
X129403862Y-81205271D01*
X129316916Y-81191500D01*
X129103084Y-81191500D01*
X129032684Y-81202650D01*
X128891882Y-81224951D01*
X128688519Y-81291026D01*
X128688516Y-81291027D01*
X128497990Y-81388106D01*
X128324993Y-81513796D01*
X128173796Y-81664993D01*
X128048106Y-81837990D01*
X127951027Y-82028516D01*
X127951026Y-82028519D01*
X127884951Y-82231882D01*
X127851500Y-82443084D01*
X127851500Y-82656916D01*
X127851499Y-82656916D01*
X127856409Y-82687911D01*
X127847454Y-82757204D01*
X127821617Y-82794989D01*
X126371996Y-84244610D01*
X126283516Y-84377031D01*
X126283513Y-84377036D01*
X126269893Y-84409922D01*
X126269892Y-84409925D01*
X126222570Y-84524168D01*
X126222568Y-84524176D01*
X126191500Y-84680365D01*
X126191500Y-86439634D01*
X126222568Y-86595823D01*
X126222570Y-86595831D01*
X126253043Y-86669399D01*
X126253043Y-86669400D01*
X126283512Y-86742961D01*
X126283519Y-86742974D01*
X126371996Y-86875388D01*
X126371999Y-86875392D01*
X135406195Y-95909587D01*
X135439680Y-95970910D01*
X135434696Y-96040602D01*
X135392824Y-96096535D01*
X135337912Y-96119741D01*
X135241882Y-96134950D01*
X135038519Y-96201026D01*
X135038516Y-96201027D01*
X134847990Y-96298106D01*
X134674993Y-96423796D01*
X134523796Y-96574993D01*
X134398105Y-96747991D01*
X134395727Y-96751873D01*
X134343914Y-96798748D01*
X134274984Y-96810169D01*
X134210822Y-96782512D01*
X134184273Y-96751873D01*
X134181894Y-96747991D01*
X134109621Y-96648516D01*
X134056206Y-96574996D01*
X133905004Y-96423794D01*
X133732009Y-96298106D01*
X133706279Y-96284996D01*
X133541483Y-96201027D01*
X133541480Y-96201026D01*
X133338117Y-96134951D01*
X133220315Y-96116293D01*
X133126916Y-96101500D01*
X132913084Y-96101500D01*
X132842684Y-96112650D01*
X132701882Y-96134951D01*
X132498519Y-96201026D01*
X132498516Y-96201027D01*
X132307990Y-96298106D01*
X132134993Y-96423796D01*
X131983796Y-96574993D01*
X131858105Y-96747991D01*
X131855727Y-96751873D01*
X131803914Y-96798748D01*
X131734984Y-96810169D01*
X131670822Y-96782512D01*
X131644273Y-96751873D01*
X131641894Y-96747991D01*
X131569621Y-96648516D01*
X131516206Y-96574996D01*
X131365004Y-96423794D01*
X131192009Y-96298106D01*
X131166279Y-96284996D01*
X131001483Y-96201027D01*
X131001480Y-96201026D01*
X130798117Y-96134951D01*
X130680315Y-96116293D01*
X130586916Y-96101500D01*
X130373084Y-96101500D01*
X130302684Y-96112650D01*
X130161882Y-96134951D01*
X129958519Y-96201026D01*
X129958516Y-96201027D01*
X129767990Y-96298106D01*
X129594997Y-96423793D01*
X129489818Y-96528972D01*
X129428495Y-96562456D01*
X129358803Y-96557472D01*
X129302870Y-96515600D01*
X129285958Y-96484629D01*
X129240889Y-96363796D01*
X129153261Y-96246739D01*
X129036204Y-96159111D01*
X129035172Y-96158726D01*
X128899203Y-96108011D01*
X128838654Y-96101500D01*
X128838638Y-96101500D01*
X127041362Y-96101500D01*
X127041345Y-96101500D01*
X126980797Y-96108011D01*
X126980795Y-96108011D01*
X126843795Y-96159111D01*
X126726739Y-96246739D01*
X126639111Y-96363795D01*
X126588011Y-96500795D01*
X126588011Y-96500797D01*
X126581500Y-96561345D01*
X126581500Y-98358654D01*
X126588011Y-98419202D01*
X126588011Y-98419204D01*
X126628778Y-98528500D01*
X126639111Y-98556204D01*
X126726739Y-98673261D01*
X126843796Y-98760889D01*
X126980799Y-98811989D01*
X127008050Y-98814918D01*
X127041345Y-98818499D01*
X127041362Y-98818500D01*
X128838638Y-98818500D01*
X128838654Y-98818499D01*
X128865692Y-98815591D01*
X128899201Y-98811989D01*
X129036204Y-98760889D01*
X129153261Y-98673261D01*
X129240889Y-98556204D01*
X129285957Y-98435371D01*
X129327827Y-98379442D01*
X129393291Y-98355025D01*
X129461564Y-98369877D01*
X129489818Y-98391028D01*
X129594996Y-98496206D01*
X129767991Y-98621894D01*
X129854542Y-98665994D01*
X129958516Y-98718972D01*
X129958519Y-98718973D01*
X130060200Y-98752010D01*
X130161884Y-98785049D01*
X130373084Y-98818500D01*
X130373085Y-98818500D01*
X130586915Y-98818500D01*
X130586916Y-98818500D01*
X130798116Y-98785049D01*
X131001483Y-98718972D01*
X131192009Y-98621894D01*
X131365004Y-98496206D01*
X131516206Y-98345004D01*
X131641894Y-98172009D01*
X131641896Y-98172004D01*
X131644270Y-98168132D01*
X131696080Y-98121254D01*
X131765009Y-98109829D01*
X131829173Y-98137483D01*
X131855730Y-98168132D01*
X131858103Y-98172005D01*
X131858106Y-98172009D01*
X131983794Y-98345004D01*
X132134996Y-98496206D01*
X132307991Y-98621894D01*
X132394542Y-98665994D01*
X132498516Y-98718972D01*
X132498519Y-98718973D01*
X132600200Y-98752010D01*
X132701884Y-98785049D01*
X132913084Y-98818500D01*
X132913085Y-98818500D01*
X133126915Y-98818500D01*
X133126916Y-98818500D01*
X133338116Y-98785049D01*
X133541483Y-98718972D01*
X133732009Y-98621894D01*
X133905004Y-98496206D01*
X134056206Y-98345004D01*
X134181894Y-98172009D01*
X134181896Y-98172004D01*
X134184270Y-98168132D01*
X134236080Y-98121254D01*
X134305009Y-98109829D01*
X134369173Y-98137483D01*
X134395730Y-98168132D01*
X134398103Y-98172005D01*
X134398106Y-98172009D01*
X134523794Y-98345004D01*
X134674996Y-98496206D01*
X134847991Y-98621894D01*
X134934542Y-98665994D01*
X135038516Y-98718972D01*
X135038519Y-98718973D01*
X135140200Y-98752010D01*
X135241884Y-98785049D01*
X135453084Y-98818500D01*
X135453085Y-98818500D01*
X135666915Y-98818500D01*
X135666916Y-98818500D01*
X135878116Y-98785049D01*
X136081483Y-98718972D01*
X136272009Y-98621894D01*
X136445004Y-98496206D01*
X136596206Y-98345004D01*
X136721894Y-98172009D01*
X136721896Y-98172004D01*
X136724270Y-98168132D01*
X136776080Y-98121254D01*
X136845009Y-98109829D01*
X136909173Y-98137483D01*
X136935730Y-98168132D01*
X136938103Y-98172005D01*
X136938106Y-98172009D01*
X137063794Y-98345004D01*
X137214996Y-98496206D01*
X137387991Y-98621894D01*
X137474542Y-98665994D01*
X137578516Y-98718972D01*
X137578519Y-98718973D01*
X137680200Y-98752010D01*
X137781884Y-98785049D01*
X137993084Y-98818500D01*
X137993085Y-98818500D01*
X138206915Y-98818500D01*
X138206916Y-98818500D01*
X138418116Y-98785049D01*
X138621483Y-98718972D01*
X138812009Y-98621894D01*
X138985004Y-98496206D01*
X139136206Y-98345004D01*
X139261894Y-98172009D01*
X139358972Y-97981483D01*
X139425049Y-97778116D01*
X139458500Y-97566916D01*
X139458500Y-97353084D01*
X144361500Y-97353084D01*
X144361500Y-97566915D01*
X144394951Y-97778117D01*
X144461026Y-97981480D01*
X144461027Y-97981483D01*
X144532245Y-98121254D01*
X144558106Y-98172009D01*
X144683794Y-98345004D01*
X144834996Y-98496206D01*
X145007991Y-98621894D01*
X145094542Y-98665994D01*
X145198516Y-98718972D01*
X145198519Y-98718973D01*
X145300200Y-98752010D01*
X145401884Y-98785049D01*
X145613084Y-98818500D01*
X145613085Y-98818500D01*
X145826915Y-98818500D01*
X145826916Y-98818500D01*
X146038116Y-98785049D01*
X146241483Y-98718972D01*
X146432009Y-98621894D01*
X146605004Y-98496206D01*
X146756206Y-98345004D01*
X146881894Y-98172009D01*
X146978972Y-97981483D01*
X147045049Y-97778116D01*
X147078500Y-97566916D01*
X147078500Y-97353084D01*
X147045049Y-97141884D01*
X146978972Y-96938517D01*
X146978972Y-96938516D01*
X146913575Y-96810169D01*
X146881894Y-96747991D01*
X146864663Y-96724275D01*
X146796844Y-96630929D01*
X146796842Y-96630927D01*
X146756206Y-96574996D01*
X146742555Y-96561345D01*
X149441500Y-96561345D01*
X149441500Y-98358654D01*
X149448011Y-98419202D01*
X149448011Y-98419204D01*
X149488778Y-98528500D01*
X149499111Y-98556204D01*
X149586739Y-98673261D01*
X149703796Y-98760889D01*
X149840799Y-98811989D01*
X149868050Y-98814918D01*
X149901345Y-98818499D01*
X149901362Y-98818500D01*
X151698638Y-98818500D01*
X151698654Y-98818499D01*
X151725692Y-98815591D01*
X151759201Y-98811989D01*
X151896204Y-98760889D01*
X152013261Y-98673261D01*
X152100889Y-98556204D01*
X152145957Y-98435371D01*
X152187827Y-98379442D01*
X152253291Y-98355025D01*
X152321564Y-98369877D01*
X152349818Y-98391028D01*
X152454996Y-98496206D01*
X152627991Y-98621894D01*
X152714542Y-98665994D01*
X152818516Y-98718972D01*
X152818519Y-98718973D01*
X152920200Y-98752010D01*
X153021884Y-98785049D01*
X153233084Y-98818500D01*
X153233085Y-98818500D01*
X153446915Y-98818500D01*
X153446916Y-98818500D01*
X153658116Y-98785049D01*
X153861483Y-98718972D01*
X154052009Y-98621894D01*
X154225004Y-98496206D01*
X154376206Y-98345004D01*
X154501894Y-98172009D01*
X154501896Y-98172004D01*
X154504270Y-98168132D01*
X154556080Y-98121254D01*
X154625009Y-98109829D01*
X154689173Y-98137483D01*
X154715730Y-98168132D01*
X154718103Y-98172005D01*
X154718106Y-98172009D01*
X154843794Y-98345004D01*
X154994996Y-98496206D01*
X155167991Y-98621894D01*
X155254542Y-98665994D01*
X155358516Y-98718972D01*
X155358519Y-98718973D01*
X155460200Y-98752010D01*
X155561884Y-98785049D01*
X155773084Y-98818500D01*
X155773085Y-98818500D01*
X155986915Y-98818500D01*
X155986916Y-98818500D01*
X156198116Y-98785049D01*
X156401483Y-98718972D01*
X156592009Y-98621894D01*
X156765004Y-98496206D01*
X156916206Y-98345004D01*
X157041894Y-98172009D01*
X157041896Y-98172004D01*
X157044270Y-98168132D01*
X157096080Y-98121254D01*
X157165009Y-98109829D01*
X157229173Y-98137483D01*
X157255730Y-98168132D01*
X157258103Y-98172005D01*
X157258106Y-98172009D01*
X157383794Y-98345004D01*
X157534996Y-98496206D01*
X157707991Y-98621894D01*
X157794542Y-98665994D01*
X157898516Y-98718972D01*
X157898519Y-98718973D01*
X158000200Y-98752010D01*
X158101884Y-98785049D01*
X158313084Y-98818500D01*
X158313085Y-98818500D01*
X158526915Y-98818500D01*
X158526916Y-98818500D01*
X158738116Y-98785049D01*
X158941483Y-98718972D01*
X159132009Y-98621894D01*
X159305004Y-98496206D01*
X159456206Y-98345004D01*
X159581894Y-98172009D01*
X159581896Y-98172004D01*
X159584270Y-98168132D01*
X159636080Y-98121254D01*
X159705009Y-98109829D01*
X159769173Y-98137483D01*
X159795730Y-98168132D01*
X159798103Y-98172005D01*
X159798106Y-98172009D01*
X159923794Y-98345004D01*
X160074996Y-98496206D01*
X160247991Y-98621894D01*
X160334542Y-98665994D01*
X160438516Y-98718972D01*
X160438519Y-98718973D01*
X160540200Y-98752010D01*
X160641884Y-98785049D01*
X160853084Y-98818500D01*
X160853085Y-98818500D01*
X161066915Y-98818500D01*
X161066916Y-98818500D01*
X161278116Y-98785049D01*
X161481483Y-98718972D01*
X161672009Y-98621894D01*
X161845004Y-98496206D01*
X161996206Y-98345004D01*
X162121894Y-98172009D01*
X162121896Y-98172004D01*
X162124270Y-98168132D01*
X162176080Y-98121254D01*
X162245009Y-98109829D01*
X162309173Y-98137483D01*
X162335730Y-98168132D01*
X162338103Y-98172005D01*
X162338106Y-98172009D01*
X162463794Y-98345004D01*
X162614996Y-98496206D01*
X162787991Y-98621894D01*
X162874542Y-98665994D01*
X162978516Y-98718972D01*
X162978519Y-98718973D01*
X163080200Y-98752010D01*
X163181884Y-98785049D01*
X163393084Y-98818500D01*
X163393085Y-98818500D01*
X163606915Y-98818500D01*
X163606916Y-98818500D01*
X163818116Y-98785049D01*
X164021483Y-98718972D01*
X164212009Y-98621894D01*
X164385004Y-98496206D01*
X164536206Y-98345004D01*
X164661894Y-98172009D01*
X164758972Y-97981483D01*
X164825049Y-97778116D01*
X164858500Y-97566916D01*
X164858500Y-97353084D01*
X164825049Y-97141884D01*
X164758972Y-96938517D01*
X164758972Y-96938516D01*
X164687756Y-96798748D01*
X164661894Y-96747991D01*
X164536206Y-96574996D01*
X164385004Y-96423794D01*
X164212009Y-96298106D01*
X164186279Y-96284996D01*
X164021483Y-96201027D01*
X164021480Y-96201026D01*
X163818117Y-96134951D01*
X163700315Y-96116293D01*
X163606916Y-96101500D01*
X163393084Y-96101500D01*
X163322684Y-96112650D01*
X163181882Y-96134951D01*
X162978519Y-96201026D01*
X162978516Y-96201027D01*
X162787990Y-96298106D01*
X162614993Y-96423796D01*
X162463796Y-96574993D01*
X162338105Y-96747991D01*
X162335727Y-96751873D01*
X162283914Y-96798748D01*
X162214984Y-96810169D01*
X162150822Y-96782512D01*
X162124273Y-96751873D01*
X162121894Y-96747991D01*
X162049621Y-96648516D01*
X161996206Y-96574996D01*
X161845004Y-96423794D01*
X161672009Y-96298106D01*
X161646279Y-96284996D01*
X161481483Y-96201027D01*
X161481480Y-96201026D01*
X161278117Y-96134951D01*
X161160315Y-96116293D01*
X161066916Y-96101500D01*
X160853084Y-96101500D01*
X160782684Y-96112650D01*
X160641882Y-96134951D01*
X160438519Y-96201026D01*
X160438516Y-96201027D01*
X160247990Y-96298106D01*
X160074993Y-96423796D01*
X159923796Y-96574993D01*
X159798105Y-96747991D01*
X159795727Y-96751873D01*
X159743914Y-96798748D01*
X159674984Y-96810169D01*
X159610822Y-96782512D01*
X159584273Y-96751873D01*
X159581894Y-96747991D01*
X159509621Y-96648516D01*
X159456206Y-96574996D01*
X159305004Y-96423794D01*
X159132009Y-96298106D01*
X159106279Y-96284996D01*
X158941483Y-96201027D01*
X158941480Y-96201026D01*
X158738117Y-96134951D01*
X158620315Y-96116293D01*
X158526916Y-96101500D01*
X158313084Y-96101500D01*
X158242684Y-96112650D01*
X158101882Y-96134951D01*
X157898519Y-96201026D01*
X157898516Y-96201027D01*
X157707990Y-96298106D01*
X157534993Y-96423796D01*
X157383796Y-96574993D01*
X157258105Y-96747991D01*
X157255727Y-96751873D01*
X157203914Y-96798748D01*
X157134984Y-96810169D01*
X157070822Y-96782512D01*
X157044273Y-96751873D01*
X157041894Y-96747991D01*
X156969621Y-96648516D01*
X156916206Y-96574996D01*
X156765004Y-96423794D01*
X156592009Y-96298106D01*
X156566279Y-96284996D01*
X156401483Y-96201027D01*
X156401480Y-96201026D01*
X156198117Y-96134951D01*
X156080315Y-96116293D01*
X155986916Y-96101500D01*
X155773084Y-96101500D01*
X155702684Y-96112650D01*
X155561882Y-96134951D01*
X155358519Y-96201026D01*
X155358516Y-96201027D01*
X155167990Y-96298106D01*
X154994993Y-96423796D01*
X154843796Y-96574993D01*
X154718105Y-96747991D01*
X154715727Y-96751873D01*
X154663914Y-96798748D01*
X154594984Y-96810169D01*
X154530822Y-96782512D01*
X154504273Y-96751873D01*
X154501894Y-96747991D01*
X154429621Y-96648516D01*
X154376206Y-96574996D01*
X154225004Y-96423794D01*
X154052009Y-96298106D01*
X154026279Y-96284996D01*
X153861483Y-96201027D01*
X153861480Y-96201026D01*
X153658117Y-96134951D01*
X153540315Y-96116293D01*
X153446916Y-96101500D01*
X153233084Y-96101500D01*
X153162684Y-96112650D01*
X153021882Y-96134951D01*
X152818519Y-96201026D01*
X152818516Y-96201027D01*
X152627990Y-96298106D01*
X152454997Y-96423793D01*
X152349818Y-96528972D01*
X152288495Y-96562456D01*
X152218803Y-96557472D01*
X152162870Y-96515600D01*
X152145958Y-96484629D01*
X152100889Y-96363796D01*
X152013261Y-96246739D01*
X151896204Y-96159111D01*
X151895172Y-96158726D01*
X151759203Y-96108011D01*
X151698654Y-96101500D01*
X151698638Y-96101500D01*
X149901362Y-96101500D01*
X149901345Y-96101500D01*
X149840797Y-96108011D01*
X149840795Y-96108011D01*
X149703795Y-96159111D01*
X149586739Y-96246739D01*
X149499111Y-96363795D01*
X149448011Y-96500795D01*
X149448011Y-96500797D01*
X149441500Y-96561345D01*
X146742555Y-96561345D01*
X146605004Y-96423794D01*
X146432009Y-96298106D01*
X146406279Y-96284996D01*
X146241483Y-96201027D01*
X146241480Y-96201026D01*
X146038117Y-96134951D01*
X145920315Y-96116293D01*
X145826916Y-96101500D01*
X145613084Y-96101500D01*
X145542684Y-96112650D01*
X145401882Y-96134951D01*
X145198519Y-96201026D01*
X145198516Y-96201027D01*
X145007990Y-96298106D01*
X144834993Y-96423796D01*
X144683796Y-96574993D01*
X144558106Y-96747990D01*
X144461027Y-96938516D01*
X144461026Y-96938519D01*
X144394951Y-97141882D01*
X144361500Y-97353084D01*
X139458500Y-97353084D01*
X139425049Y-97141884D01*
X139358972Y-96938517D01*
X139358972Y-96938516D01*
X139287756Y-96798748D01*
X139261894Y-96747991D01*
X139136206Y-96574996D01*
X138985004Y-96423794D01*
X138812009Y-96298106D01*
X138786279Y-96284996D01*
X138621483Y-96201027D01*
X138621480Y-96201026D01*
X138418117Y-96134951D01*
X138300315Y-96116293D01*
X138206916Y-96101500D01*
X137993084Y-96101500D01*
X137962084Y-96106409D01*
X137892793Y-96097454D01*
X137855009Y-96071617D01*
X134037430Y-92254038D01*
X164439500Y-92254038D01*
X164439500Y-92505961D01*
X164478910Y-92754785D01*
X164556760Y-92994383D01*
X164671132Y-93218848D01*
X164819201Y-93422649D01*
X164819205Y-93422654D01*
X164997345Y-93600794D01*
X164997350Y-93600798D01*
X165051057Y-93639818D01*
X165201155Y-93748870D01*
X165344184Y-93821747D01*
X165425616Y-93863239D01*
X165425618Y-93863239D01*
X165425621Y-93863241D01*
X165665215Y-93941090D01*
X165914038Y-93980500D01*
X165914039Y-93980500D01*
X166165961Y-93980500D01*
X166165962Y-93980500D01*
X166414785Y-93941090D01*
X166654379Y-93863241D01*
X166878845Y-93748870D01*
X167082656Y-93600793D01*
X167260793Y-93422656D01*
X167408870Y-93218845D01*
X167523241Y-92994379D01*
X167601090Y-92754785D01*
X167640500Y-92505962D01*
X167640500Y-92254038D01*
X167601090Y-92005215D01*
X167523241Y-91765621D01*
X167523239Y-91765618D01*
X167523239Y-91765616D01*
X167481747Y-91684184D01*
X167408870Y-91541155D01*
X167389952Y-91515117D01*
X167260798Y-91337350D01*
X167260794Y-91337345D01*
X167082654Y-91159205D01*
X167082649Y-91159201D01*
X166878848Y-91011132D01*
X166878847Y-91011131D01*
X166878845Y-91011130D01*
X166808747Y-90975413D01*
X166654383Y-90896760D01*
X166414785Y-90818910D01*
X166165962Y-90779500D01*
X165914038Y-90779500D01*
X165789626Y-90799205D01*
X165665214Y-90818910D01*
X165425616Y-90896760D01*
X165201151Y-91011132D01*
X164997350Y-91159201D01*
X164997345Y-91159205D01*
X164819205Y-91337345D01*
X164819201Y-91337350D01*
X164671132Y-91541151D01*
X164556760Y-91765616D01*
X164478910Y-92005214D01*
X164439500Y-92254038D01*
X134037430Y-92254038D01*
X132866823Y-91083431D01*
X132833338Y-91022108D01*
X132838322Y-90952416D01*
X132866823Y-90908068D01*
X132881103Y-90893789D01*
X132969583Y-90761368D01*
X133030530Y-90614231D01*
X133052331Y-90504622D01*
X133084715Y-90442715D01*
X133086211Y-90441191D01*
X139069821Y-84457582D01*
X139131142Y-84424099D01*
X139200834Y-84429083D01*
X139256767Y-84470955D01*
X139281184Y-84536419D01*
X139281500Y-84545265D01*
X139281500Y-85988654D01*
X139288011Y-86049202D01*
X139288011Y-86049204D01*
X139339111Y-86186204D01*
X139426739Y-86303261D01*
X139543796Y-86390889D01*
X139680799Y-86441989D01*
X139708050Y-86444918D01*
X139741345Y-86448499D01*
X139741362Y-86448500D01*
X141538638Y-86448500D01*
X141538654Y-86448499D01*
X141565692Y-86445591D01*
X141599201Y-86441989D01*
X141736204Y-86390889D01*
X141853261Y-86303261D01*
X141940889Y-86186204D01*
X141985957Y-86065371D01*
X142027827Y-86009442D01*
X142093291Y-85985025D01*
X142161564Y-85999877D01*
X142189818Y-86021028D01*
X142294996Y-86126206D01*
X142467991Y-86251894D01*
X142559596Y-86298569D01*
X142658516Y-86348972D01*
X142658519Y-86348973D01*
X142710598Y-86365894D01*
X142861884Y-86415049D01*
X143073084Y-86448500D01*
X143073085Y-86448500D01*
X143286915Y-86448500D01*
X143286916Y-86448500D01*
X143498116Y-86415049D01*
X143701483Y-86348972D01*
X143892009Y-86251894D01*
X144065004Y-86126206D01*
X144216206Y-85975004D01*
X144341894Y-85802009D01*
X144341896Y-85802004D01*
X144344270Y-85798132D01*
X144396080Y-85751254D01*
X144465009Y-85739829D01*
X144529173Y-85767483D01*
X144555730Y-85798132D01*
X144558103Y-85802005D01*
X144558106Y-85802009D01*
X144683794Y-85975004D01*
X144834996Y-86126206D01*
X145007991Y-86251894D01*
X145099596Y-86298569D01*
X145198516Y-86348972D01*
X145198519Y-86348973D01*
X145250598Y-86365894D01*
X145401884Y-86415049D01*
X145613084Y-86448500D01*
X145613085Y-86448500D01*
X145826915Y-86448500D01*
X145826916Y-86448500D01*
X146038116Y-86415049D01*
X146241483Y-86348972D01*
X146432009Y-86251894D01*
X146605004Y-86126206D01*
X146756206Y-85975004D01*
X146881894Y-85802009D01*
X146881896Y-85802004D01*
X146884270Y-85798132D01*
X146936080Y-85751254D01*
X147005009Y-85739829D01*
X147069173Y-85767483D01*
X147095730Y-85798132D01*
X147098103Y-85802005D01*
X147098106Y-85802009D01*
X147223794Y-85975004D01*
X147374996Y-86126206D01*
X147547991Y-86251894D01*
X147639596Y-86298569D01*
X147738516Y-86348972D01*
X147738519Y-86348973D01*
X147790598Y-86365894D01*
X147941884Y-86415049D01*
X148153084Y-86448500D01*
X148153085Y-86448500D01*
X148366915Y-86448500D01*
X148366916Y-86448500D01*
X148578116Y-86415049D01*
X148781483Y-86348972D01*
X148972009Y-86251894D01*
X149145004Y-86126206D01*
X149296206Y-85975004D01*
X149421894Y-85802009D01*
X149421896Y-85802004D01*
X149424270Y-85798132D01*
X149476080Y-85751254D01*
X149545009Y-85739829D01*
X149609173Y-85767483D01*
X149635730Y-85798132D01*
X149638103Y-85802005D01*
X149638106Y-85802009D01*
X149763794Y-85975004D01*
X149914996Y-86126206D01*
X150087991Y-86251894D01*
X150179596Y-86298569D01*
X150278516Y-86348972D01*
X150278519Y-86348973D01*
X150330598Y-86365894D01*
X150481884Y-86415049D01*
X150693084Y-86448500D01*
X150693085Y-86448500D01*
X150906915Y-86448500D01*
X150906916Y-86448500D01*
X151118116Y-86415049D01*
X151321483Y-86348972D01*
X151512009Y-86251894D01*
X151685004Y-86126206D01*
X151836206Y-85975004D01*
X151961894Y-85802009D01*
X151961896Y-85802004D01*
X151964270Y-85798132D01*
X152016080Y-85751254D01*
X152085009Y-85739829D01*
X152149173Y-85767483D01*
X152175730Y-85798132D01*
X152178103Y-85802005D01*
X152178106Y-85802009D01*
X152303794Y-85975004D01*
X152454996Y-86126206D01*
X152627991Y-86251894D01*
X152719596Y-86298569D01*
X152818516Y-86348972D01*
X152818519Y-86348973D01*
X152870598Y-86365894D01*
X153021884Y-86415049D01*
X153233084Y-86448500D01*
X153233085Y-86448500D01*
X153446915Y-86448500D01*
X153446916Y-86448500D01*
X153658116Y-86415049D01*
X153861483Y-86348972D01*
X154052009Y-86251894D01*
X154225004Y-86126206D01*
X154376206Y-85975004D01*
X154501894Y-85802009D01*
X154501896Y-85802004D01*
X154504270Y-85798132D01*
X154556080Y-85751254D01*
X154625009Y-85739829D01*
X154689173Y-85767483D01*
X154715730Y-85798132D01*
X154718103Y-85802005D01*
X154718106Y-85802009D01*
X154843794Y-85975004D01*
X154994996Y-86126206D01*
X155167991Y-86251894D01*
X155259596Y-86298569D01*
X155358516Y-86348972D01*
X155358519Y-86348973D01*
X155410598Y-86365894D01*
X155561884Y-86415049D01*
X155773084Y-86448500D01*
X155773085Y-86448500D01*
X155986915Y-86448500D01*
X155986916Y-86448500D01*
X156198116Y-86415049D01*
X156401483Y-86348972D01*
X156592009Y-86251894D01*
X156765004Y-86126206D01*
X156916206Y-85975004D01*
X157041894Y-85802009D01*
X157041896Y-85802004D01*
X157044270Y-85798132D01*
X157096080Y-85751254D01*
X157165009Y-85739829D01*
X157229173Y-85767483D01*
X157255730Y-85798132D01*
X157258103Y-85802005D01*
X157258106Y-85802009D01*
X157383794Y-85975004D01*
X157534996Y-86126206D01*
X157707991Y-86251894D01*
X157799596Y-86298569D01*
X157898516Y-86348972D01*
X157898519Y-86348973D01*
X157950598Y-86365894D01*
X158101884Y-86415049D01*
X158313084Y-86448500D01*
X158313085Y-86448500D01*
X158526915Y-86448500D01*
X158526916Y-86448500D01*
X158738116Y-86415049D01*
X158941483Y-86348972D01*
X159132009Y-86251894D01*
X159305004Y-86126206D01*
X159456206Y-85975004D01*
X159581894Y-85802009D01*
X159678972Y-85611483D01*
X159745049Y-85408116D01*
X159778500Y-85196916D01*
X159778500Y-84983084D01*
X159745049Y-84771884D01*
X159678972Y-84568517D01*
X159678972Y-84568516D01*
X159613575Y-84440169D01*
X159581894Y-84377991D01*
X159456206Y-84204996D01*
X159305004Y-84053794D01*
X159132009Y-83928106D01*
X159132001Y-83928100D01*
X159128122Y-83925723D01*
X159081249Y-83873909D01*
X159069830Y-83804979D01*
X159097490Y-83740817D01*
X159128141Y-83714263D01*
X159131994Y-83711901D01*
X159132009Y-83711894D01*
X159305004Y-83586206D01*
X159456206Y-83435004D01*
X159581894Y-83262009D01*
X159678972Y-83071483D01*
X159745049Y-82868116D01*
X159778500Y-82656916D01*
X159778500Y-82443084D01*
X159745049Y-82231884D01*
X159678972Y-82028517D01*
X159678972Y-82028516D01*
X159581893Y-81837990D01*
X159456206Y-81664996D01*
X159305004Y-81513794D01*
X159132009Y-81388106D01*
X159132008Y-81388105D01*
X159132006Y-81388104D01*
X159121204Y-81382600D01*
X159070408Y-81334625D01*
X159053500Y-81272116D01*
X159053500Y-77420310D01*
X159073185Y-77353271D01*
X159104615Y-77319991D01*
X159105797Y-77319131D01*
X159105803Y-77319129D01*
X159272430Y-77198068D01*
X159418068Y-77052430D01*
X159539129Y-76885803D01*
X159632634Y-76702290D01*
X159696280Y-76506408D01*
X159728500Y-76302981D01*
X159728500Y-76097019D01*
X159696280Y-75893592D01*
X159632634Y-75697710D01*
X159632632Y-75697707D01*
X159632632Y-75697705D01*
X159579515Y-75593459D01*
X159539129Y-75514197D01*
X159467907Y-75416168D01*
X159418073Y-75347576D01*
X159418069Y-75347571D01*
X159272428Y-75201930D01*
X159272423Y-75201926D01*
X159105806Y-75080873D01*
X159105805Y-75080872D01*
X159105803Y-75080871D01*
X159048496Y-75051671D01*
X158922294Y-74987367D01*
X158726408Y-74923719D01*
X158550794Y-74895905D01*
X158522981Y-74891500D01*
X158317019Y-74891500D01*
X158292550Y-74895375D01*
X158113591Y-74923719D01*
X157917705Y-74987367D01*
X157734193Y-75080873D01*
X157567576Y-75201926D01*
X157567571Y-75201930D01*
X157421930Y-75347571D01*
X157421926Y-75347576D01*
X157300871Y-75514195D01*
X157260484Y-75593459D01*
X157212510Y-75644254D01*
X157144689Y-75661049D01*
X157078554Y-75638511D01*
X157039516Y-75593459D01*
X156999128Y-75514195D01*
X156878073Y-75347576D01*
X156878069Y-75347571D01*
X156732428Y-75201930D01*
X156732423Y-75201926D01*
X156565806Y-75080873D01*
X156565805Y-75080872D01*
X156565803Y-75080871D01*
X156508496Y-75051671D01*
X156382294Y-74987367D01*
X156186408Y-74923719D01*
X156010794Y-74895905D01*
X155982981Y-74891500D01*
X155777019Y-74891500D01*
X155752550Y-74895375D01*
X155573591Y-74923719D01*
X155377705Y-74987367D01*
X155194193Y-75080873D01*
X155027576Y-75201926D01*
X155027571Y-75201930D01*
X154881930Y-75347571D01*
X154881926Y-75347576D01*
X154760871Y-75514195D01*
X154720484Y-75593459D01*
X154672510Y-75644254D01*
X154604689Y-75661049D01*
X154538554Y-75638511D01*
X154499516Y-75593459D01*
X154459128Y-75514195D01*
X154338073Y-75347576D01*
X154338069Y-75347571D01*
X154192428Y-75201930D01*
X154192423Y-75201926D01*
X154025806Y-75080873D01*
X154025805Y-75080872D01*
X154025803Y-75080871D01*
X153968496Y-75051671D01*
X153842294Y-74987367D01*
X153646408Y-74923719D01*
X153470794Y-74895905D01*
X153442981Y-74891500D01*
X153237019Y-74891500D01*
X153212550Y-74895375D01*
X153033591Y-74923719D01*
X152837705Y-74987367D01*
X152654193Y-75080873D01*
X152487576Y-75201926D01*
X152487571Y-75201930D01*
X152341930Y-75347571D01*
X152341926Y-75347576D01*
X152220871Y-75514195D01*
X152180484Y-75593459D01*
X152132510Y-75644254D01*
X152064689Y-75661049D01*
X151998554Y-75638511D01*
X151959516Y-75593459D01*
X151919128Y-75514195D01*
X151798073Y-75347576D01*
X151798069Y-75347571D01*
X151652428Y-75201930D01*
X151652423Y-75201926D01*
X151485806Y-75080873D01*
X151485805Y-75080872D01*
X151485803Y-75080871D01*
X151428496Y-75051671D01*
X151302294Y-74987367D01*
X151106408Y-74923719D01*
X150930794Y-74895905D01*
X150902981Y-74891500D01*
X150697019Y-74891500D01*
X150672550Y-74895375D01*
X150493591Y-74923719D01*
X150297705Y-74987367D01*
X150114193Y-75080873D01*
X149947576Y-75201926D01*
X149947571Y-75201930D01*
X149801930Y-75347571D01*
X149801926Y-75347576D01*
X149680871Y-75514195D01*
X149640484Y-75593459D01*
X149592510Y-75644254D01*
X149524689Y-75661049D01*
X149458554Y-75638511D01*
X149419516Y-75593459D01*
X149379128Y-75514195D01*
X149258073Y-75347576D01*
X149258069Y-75347571D01*
X149112428Y-75201930D01*
X149112423Y-75201926D01*
X148945806Y-75080873D01*
X148945805Y-75080872D01*
X148945803Y-75080871D01*
X148888496Y-75051671D01*
X148762294Y-74987367D01*
X148566408Y-74923719D01*
X148390794Y-74895905D01*
X148362981Y-74891500D01*
X148157019Y-74891500D01*
X148132550Y-74895375D01*
X147953591Y-74923719D01*
X147757705Y-74987367D01*
X147574193Y-75080873D01*
X147407576Y-75201926D01*
X147407571Y-75201930D01*
X147261930Y-75347571D01*
X147261926Y-75347576D01*
X147140871Y-75514195D01*
X147100484Y-75593459D01*
X147052510Y-75644254D01*
X146984689Y-75661049D01*
X146918554Y-75638511D01*
X146879516Y-75593459D01*
X146839128Y-75514195D01*
X146718073Y-75347576D01*
X146718069Y-75347571D01*
X146572428Y-75201930D01*
X146572423Y-75201926D01*
X146405806Y-75080873D01*
X146405805Y-75080872D01*
X146405803Y-75080871D01*
X146348496Y-75051671D01*
X146222294Y-74987367D01*
X146026408Y-74923719D01*
X145850794Y-74895905D01*
X145822981Y-74891500D01*
X145617019Y-74891500D01*
X145592550Y-74895375D01*
X145413591Y-74923719D01*
X145217705Y-74987367D01*
X145034193Y-75080873D01*
X144867576Y-75201926D01*
X144867571Y-75201930D01*
X144721930Y-75347571D01*
X144721926Y-75347576D01*
X144600871Y-75514195D01*
X144560484Y-75593459D01*
X144512510Y-75644254D01*
X144444689Y-75661049D01*
X144378554Y-75638511D01*
X144339516Y-75593459D01*
X144299128Y-75514195D01*
X144178073Y-75347576D01*
X144178069Y-75347571D01*
X144032428Y-75201930D01*
X144032423Y-75201926D01*
X143865806Y-75080873D01*
X143865805Y-75080872D01*
X143865803Y-75080871D01*
X143808496Y-75051671D01*
X143682294Y-74987367D01*
X143486408Y-74923719D01*
X143310794Y-74895905D01*
X143282981Y-74891500D01*
X143077019Y-74891500D01*
X143052550Y-74895375D01*
X142873591Y-74923719D01*
X142677705Y-74987367D01*
X142494193Y-75080873D01*
X142327576Y-75201926D01*
X142327571Y-75201930D01*
X142181930Y-75347571D01*
X142167434Y-75367524D01*
X142112103Y-75410189D01*
X142042490Y-75416168D01*
X141980695Y-75383562D01*
X141946338Y-75322723D01*
X141943827Y-75307893D01*
X141941989Y-75290798D01*
X141941988Y-75290795D01*
X141902306Y-75184406D01*
X141890889Y-75153796D01*
X141803261Y-75036739D01*
X141686204Y-74949111D01*
X141672898Y-74944148D01*
X141549203Y-74898011D01*
X141488654Y-74891500D01*
X141488638Y-74891500D01*
X139791362Y-74891500D01*
X139791345Y-74891500D01*
X139730798Y-74898010D01*
X139700234Y-74909411D01*
X139630542Y-74914395D01*
X139569219Y-74880910D01*
X139535734Y-74819587D01*
X139532900Y-74793229D01*
X139532900Y-69622760D01*
X139552585Y-69555721D01*
X139605389Y-69509966D01*
X139674547Y-69500022D01*
X139738103Y-69529047D01*
X139744581Y-69535079D01*
X139787571Y-69578069D01*
X139787576Y-69578073D01*
X139932908Y-69683661D01*
X139954197Y-69699129D01*
X140071128Y-69758709D01*
X140137705Y-69792632D01*
X140137707Y-69792632D01*
X140137710Y-69792634D01*
X140242707Y-69826749D01*
X140333591Y-69856280D01*
X140435305Y-69872390D01*
X140537019Y-69888500D01*
X140537020Y-69888500D01*
X140742980Y-69888500D01*
X140742981Y-69888500D01*
X140946408Y-69856280D01*
X141142290Y-69792634D01*
X141325803Y-69699129D01*
X141492430Y-69578068D01*
X141638068Y-69432430D01*
X141759129Y-69265803D01*
X141799515Y-69186540D01*
X141847490Y-69135745D01*
X141915311Y-69118950D01*
X141981446Y-69141487D01*
X142020484Y-69186540D01*
X142034467Y-69213983D01*
X142060873Y-69265806D01*
X142181926Y-69432423D01*
X142181930Y-69432428D01*
X142327571Y-69578069D01*
X142327576Y-69578073D01*
X142472908Y-69683661D01*
X142494197Y-69699129D01*
X142611128Y-69758709D01*
X142677705Y-69792632D01*
X142677707Y-69792632D01*
X142677710Y-69792634D01*
X142782707Y-69826749D01*
X142873591Y-69856280D01*
X142975305Y-69872390D01*
X143077019Y-69888500D01*
X143077020Y-69888500D01*
X143282980Y-69888500D01*
X143282981Y-69888500D01*
X143486408Y-69856280D01*
X143682290Y-69792634D01*
X143865803Y-69699129D01*
X144032430Y-69578068D01*
X144178068Y-69432430D01*
X144299129Y-69265803D01*
X144339515Y-69186540D01*
X144387490Y-69135745D01*
X144455311Y-69118950D01*
X144521446Y-69141487D01*
X144560484Y-69186540D01*
X144574467Y-69213983D01*
X144600873Y-69265806D01*
X144721926Y-69432423D01*
X144721930Y-69432428D01*
X144867571Y-69578069D01*
X144867576Y-69578073D01*
X145012908Y-69683661D01*
X145034197Y-69699129D01*
X145151128Y-69758709D01*
X145217705Y-69792632D01*
X145217707Y-69792632D01*
X145217710Y-69792634D01*
X145322707Y-69826749D01*
X145413591Y-69856280D01*
X145515305Y-69872390D01*
X145617019Y-69888500D01*
X145617020Y-69888500D01*
X145822980Y-69888500D01*
X145822981Y-69888500D01*
X146026408Y-69856280D01*
X146222290Y-69792634D01*
X146405803Y-69699129D01*
X146572430Y-69578068D01*
X146718068Y-69432430D01*
X146839129Y-69265803D01*
X146879515Y-69186540D01*
X146927490Y-69135745D01*
X146995311Y-69118950D01*
X147061446Y-69141487D01*
X147100484Y-69186540D01*
X147114467Y-69213983D01*
X147140873Y-69265806D01*
X147261926Y-69432423D01*
X147261930Y-69432428D01*
X147407571Y-69578069D01*
X147407576Y-69578073D01*
X147552908Y-69683661D01*
X147574197Y-69699129D01*
X147691128Y-69758709D01*
X147757705Y-69792632D01*
X147757707Y-69792632D01*
X147757710Y-69792634D01*
X147862707Y-69826749D01*
X147953591Y-69856280D01*
X148055305Y-69872390D01*
X148157019Y-69888500D01*
X148157020Y-69888500D01*
X148362980Y-69888500D01*
X148362981Y-69888500D01*
X148566408Y-69856280D01*
X148762290Y-69792634D01*
X148945803Y-69699129D01*
X149112430Y-69578068D01*
X149258068Y-69432430D01*
X149379129Y-69265803D01*
X149419515Y-69186540D01*
X149467490Y-69135745D01*
X149535311Y-69118950D01*
X149601446Y-69141487D01*
X149640484Y-69186540D01*
X149654467Y-69213983D01*
X149680873Y-69265806D01*
X149801926Y-69432423D01*
X149801930Y-69432428D01*
X149947571Y-69578069D01*
X149947576Y-69578073D01*
X150092908Y-69683661D01*
X150114197Y-69699129D01*
X150231128Y-69758709D01*
X150297705Y-69792632D01*
X150297707Y-69792632D01*
X150297710Y-69792634D01*
X150402707Y-69826749D01*
X150493591Y-69856280D01*
X150595305Y-69872390D01*
X150697019Y-69888500D01*
X150697020Y-69888500D01*
X150902980Y-69888500D01*
X150902981Y-69888500D01*
X151106408Y-69856280D01*
X151302290Y-69792634D01*
X151485803Y-69699129D01*
X151652430Y-69578068D01*
X151798068Y-69432430D01*
X151919129Y-69265803D01*
X151959515Y-69186540D01*
X152007490Y-69135745D01*
X152075311Y-69118950D01*
X152141446Y-69141487D01*
X152180484Y-69186540D01*
X152194467Y-69213983D01*
X152220873Y-69265806D01*
X152341926Y-69432423D01*
X152341930Y-69432428D01*
X152487571Y-69578069D01*
X152487576Y-69578073D01*
X152632908Y-69683661D01*
X152654197Y-69699129D01*
X152771128Y-69758709D01*
X152837705Y-69792632D01*
X152837707Y-69792632D01*
X152837710Y-69792634D01*
X152942707Y-69826749D01*
X153033591Y-69856280D01*
X153135305Y-69872390D01*
X153237019Y-69888500D01*
X153237020Y-69888500D01*
X153442980Y-69888500D01*
X153442981Y-69888500D01*
X153646408Y-69856280D01*
X153842290Y-69792634D01*
X154025803Y-69699129D01*
X154192430Y-69578068D01*
X154338068Y-69432430D01*
X154459129Y-69265803D01*
X154499515Y-69186540D01*
X154547490Y-69135745D01*
X154615311Y-69118950D01*
X154681446Y-69141487D01*
X154720484Y-69186540D01*
X154734467Y-69213983D01*
X154760873Y-69265806D01*
X154881926Y-69432423D01*
X154881930Y-69432428D01*
X155027571Y-69578069D01*
X155027576Y-69578073D01*
X155172908Y-69683661D01*
X155194197Y-69699129D01*
X155311128Y-69758709D01*
X155377705Y-69792632D01*
X155377707Y-69792632D01*
X155377710Y-69792634D01*
X155482707Y-69826749D01*
X155573591Y-69856280D01*
X155675305Y-69872390D01*
X155777019Y-69888500D01*
X155777020Y-69888500D01*
X155982980Y-69888500D01*
X155982981Y-69888500D01*
X156186408Y-69856280D01*
X156382290Y-69792634D01*
X156565803Y-69699129D01*
X156732430Y-69578068D01*
X156878068Y-69432430D01*
X156999129Y-69265803D01*
X157039515Y-69186540D01*
X157087490Y-69135745D01*
X157155311Y-69118950D01*
X157221446Y-69141487D01*
X157260484Y-69186540D01*
X157274467Y-69213983D01*
X157300873Y-69265806D01*
X157421926Y-69432423D01*
X157421930Y-69432428D01*
X157567571Y-69578069D01*
X157567576Y-69578073D01*
X157712908Y-69683661D01*
X157734197Y-69699129D01*
X157851128Y-69758709D01*
X157917705Y-69792632D01*
X157917707Y-69792632D01*
X157917710Y-69792634D01*
X158022707Y-69826749D01*
X158113591Y-69856280D01*
X158215305Y-69872390D01*
X158317019Y-69888500D01*
X158317020Y-69888500D01*
X158522980Y-69888500D01*
X158522981Y-69888500D01*
X158726408Y-69856280D01*
X158922290Y-69792634D01*
X159105803Y-69699129D01*
X159272430Y-69578068D01*
X159418068Y-69432430D01*
X159539129Y-69265803D01*
X159632634Y-69082290D01*
X159696280Y-68886408D01*
X159728500Y-68682981D01*
X159728500Y-68477019D01*
X159717918Y-68410208D01*
X159696280Y-68273591D01*
X159644598Y-68114532D01*
X159632634Y-68077710D01*
X159632632Y-68077707D01*
X159632632Y-68077705D01*
X159583924Y-67982112D01*
X159539129Y-67894197D01*
X159521186Y-67869501D01*
X159418073Y-67727576D01*
X159418069Y-67727571D01*
X159272428Y-67581930D01*
X159272423Y-67581926D01*
X159105806Y-67460873D01*
X159105805Y-67460872D01*
X159105803Y-67460871D01*
X159048496Y-67431671D01*
X158922294Y-67367367D01*
X158726408Y-67303719D01*
X158550794Y-67275905D01*
X158522981Y-67271500D01*
X158317019Y-67271500D01*
X158292550Y-67275375D01*
X158113591Y-67303719D01*
X157917705Y-67367367D01*
X157734193Y-67460873D01*
X157567576Y-67581926D01*
X157567571Y-67581930D01*
X157421930Y-67727571D01*
X157421926Y-67727576D01*
X157300871Y-67894195D01*
X157260484Y-67973459D01*
X157212510Y-68024254D01*
X157144689Y-68041049D01*
X157078554Y-68018511D01*
X157039516Y-67973459D01*
X156999128Y-67894195D01*
X156878073Y-67727576D01*
X156878069Y-67727571D01*
X156732428Y-67581930D01*
X156732423Y-67581926D01*
X156565806Y-67460873D01*
X156565805Y-67460872D01*
X156565803Y-67460871D01*
X156508496Y-67431671D01*
X156382294Y-67367367D01*
X156186408Y-67303719D01*
X156010794Y-67275905D01*
X155982981Y-67271500D01*
X155777019Y-67271500D01*
X155752550Y-67275375D01*
X155573591Y-67303719D01*
X155377705Y-67367367D01*
X155194193Y-67460873D01*
X155027576Y-67581926D01*
X155027571Y-67581930D01*
X154881930Y-67727571D01*
X154881926Y-67727576D01*
X154760871Y-67894195D01*
X154720484Y-67973459D01*
X154672510Y-68024254D01*
X154604689Y-68041049D01*
X154538554Y-68018511D01*
X154499516Y-67973459D01*
X154459128Y-67894195D01*
X154338073Y-67727576D01*
X154338069Y-67727571D01*
X154192428Y-67581930D01*
X154192423Y-67581926D01*
X154025806Y-67460873D01*
X154025805Y-67460872D01*
X154025803Y-67460871D01*
X153968496Y-67431671D01*
X153842294Y-67367367D01*
X153646408Y-67303719D01*
X153470794Y-67275905D01*
X153442981Y-67271500D01*
X153237019Y-67271500D01*
X153212550Y-67275375D01*
X153033591Y-67303719D01*
X152837705Y-67367367D01*
X152654193Y-67460873D01*
X152487576Y-67581926D01*
X152487571Y-67581930D01*
X152341930Y-67727571D01*
X152341926Y-67727576D01*
X152220871Y-67894195D01*
X152180484Y-67973459D01*
X152132510Y-68024254D01*
X152064689Y-68041049D01*
X151998554Y-68018511D01*
X151959516Y-67973459D01*
X151919128Y-67894195D01*
X151798073Y-67727576D01*
X151798069Y-67727571D01*
X151652428Y-67581930D01*
X151652423Y-67581926D01*
X151485806Y-67460873D01*
X151485805Y-67460872D01*
X151485803Y-67460871D01*
X151428496Y-67431671D01*
X151302294Y-67367367D01*
X151106408Y-67303719D01*
X150930794Y-67275905D01*
X150902981Y-67271500D01*
X150697019Y-67271500D01*
X150672550Y-67275375D01*
X150493591Y-67303719D01*
X150297705Y-67367367D01*
X150114193Y-67460873D01*
X149947576Y-67581926D01*
X149947571Y-67581930D01*
X149801930Y-67727571D01*
X149801926Y-67727576D01*
X149680871Y-67894195D01*
X149640484Y-67973459D01*
X149592510Y-68024254D01*
X149524689Y-68041049D01*
X149458554Y-68018511D01*
X149419516Y-67973459D01*
X149379128Y-67894195D01*
X149258073Y-67727576D01*
X149258069Y-67727571D01*
X149112428Y-67581930D01*
X149112423Y-67581926D01*
X148945806Y-67460873D01*
X148945805Y-67460872D01*
X148945803Y-67460871D01*
X148888496Y-67431671D01*
X148762294Y-67367367D01*
X148566408Y-67303719D01*
X148390794Y-67275905D01*
X148362981Y-67271500D01*
X148157019Y-67271500D01*
X148132550Y-67275375D01*
X147953591Y-67303719D01*
X147757705Y-67367367D01*
X147574193Y-67460873D01*
X147407576Y-67581926D01*
X147407571Y-67581930D01*
X147261930Y-67727571D01*
X147261926Y-67727576D01*
X147140871Y-67894195D01*
X147100484Y-67973459D01*
X147052510Y-68024254D01*
X146984689Y-68041049D01*
X146918554Y-68018511D01*
X146879516Y-67973459D01*
X146839128Y-67894195D01*
X146718073Y-67727576D01*
X146718069Y-67727571D01*
X146572428Y-67581930D01*
X146572423Y-67581926D01*
X146405806Y-67460873D01*
X146405805Y-67460872D01*
X146405803Y-67460871D01*
X146348496Y-67431671D01*
X146222294Y-67367367D01*
X146026408Y-67303719D01*
X145850794Y-67275905D01*
X145822981Y-67271500D01*
X145617019Y-67271500D01*
X145592550Y-67275375D01*
X145413591Y-67303719D01*
X145217705Y-67367367D01*
X145034193Y-67460873D01*
X144867576Y-67581926D01*
X144867571Y-67581930D01*
X144721930Y-67727571D01*
X144721926Y-67727576D01*
X144600871Y-67894195D01*
X144560484Y-67973459D01*
X144512510Y-68024254D01*
X144444689Y-68041049D01*
X144378554Y-68018511D01*
X144339516Y-67973459D01*
X144299128Y-67894195D01*
X144178073Y-67727576D01*
X144178069Y-67727571D01*
X144032428Y-67581930D01*
X144032423Y-67581926D01*
X143865806Y-67460873D01*
X143865805Y-67460872D01*
X143865803Y-67460871D01*
X143808496Y-67431671D01*
X143682294Y-67367367D01*
X143486408Y-67303719D01*
X143310794Y-67275905D01*
X143282981Y-67271500D01*
X143077019Y-67271500D01*
X143052550Y-67275375D01*
X142873591Y-67303719D01*
X142677705Y-67367367D01*
X142494193Y-67460873D01*
X142327576Y-67581926D01*
X142327571Y-67581930D01*
X142181930Y-67727571D01*
X142181926Y-67727576D01*
X142060871Y-67894195D01*
X142020484Y-67973459D01*
X141972510Y-68024254D01*
X141904689Y-68041049D01*
X141838554Y-68018511D01*
X141799516Y-67973459D01*
X141759128Y-67894195D01*
X141638073Y-67727576D01*
X141638069Y-67727571D01*
X141492428Y-67581930D01*
X141492423Y-67581926D01*
X141325806Y-67460873D01*
X141325805Y-67460872D01*
X141325803Y-67460871D01*
X141268496Y-67431671D01*
X141142294Y-67367367D01*
X140946408Y-67303719D01*
X140770794Y-67275905D01*
X140742981Y-67271500D01*
X140537019Y-67271500D01*
X140512550Y-67275375D01*
X140333591Y-67303719D01*
X140137705Y-67367367D01*
X139954193Y-67460873D01*
X139787576Y-67581926D01*
X139787571Y-67581930D01*
X139744581Y-67624921D01*
X139683258Y-67658406D01*
X139613566Y-67653422D01*
X139557633Y-67611550D01*
X139533216Y-67546086D01*
X139532900Y-67537240D01*
X139532900Y-64314038D01*
X164439500Y-64314038D01*
X164439500Y-64565961D01*
X164478910Y-64814785D01*
X164556760Y-65054383D01*
X164671132Y-65278848D01*
X164819201Y-65482649D01*
X164819205Y-65482654D01*
X164997345Y-65660794D01*
X164997350Y-65660798D01*
X165073509Y-65716130D01*
X165201155Y-65808870D01*
X165344184Y-65881747D01*
X165425616Y-65923239D01*
X165425618Y-65923239D01*
X165425621Y-65923241D01*
X165665215Y-66001090D01*
X165914038Y-66040500D01*
X165914039Y-66040500D01*
X166165961Y-66040500D01*
X166165962Y-66040500D01*
X166414785Y-66001090D01*
X166654379Y-65923241D01*
X166878845Y-65808870D01*
X167082656Y-65660793D01*
X167260793Y-65482656D01*
X167408870Y-65278845D01*
X167523241Y-65054379D01*
X167601090Y-64814785D01*
X167640500Y-64565962D01*
X167640500Y-64314038D01*
X167601090Y-64065215D01*
X167523241Y-63825621D01*
X167523239Y-63825618D01*
X167523239Y-63825616D01*
X167481747Y-63744184D01*
X167408870Y-63601155D01*
X167389952Y-63575117D01*
X167260798Y-63397350D01*
X167260794Y-63397345D01*
X167082654Y-63219205D01*
X167082649Y-63219201D01*
X166878848Y-63071132D01*
X166878847Y-63071131D01*
X166878845Y-63071130D01*
X166808747Y-63035413D01*
X166654383Y-62956760D01*
X166414785Y-62878910D01*
X166165962Y-62839500D01*
X165914038Y-62839500D01*
X165789626Y-62859205D01*
X165665214Y-62878910D01*
X165425616Y-62956760D01*
X165201151Y-63071132D01*
X164997350Y-63219201D01*
X164997345Y-63219205D01*
X164819205Y-63397345D01*
X164819201Y-63397350D01*
X164671132Y-63601151D01*
X164556760Y-63825616D01*
X164478910Y-64065214D01*
X164439500Y-64314038D01*
X139532900Y-64314038D01*
X139532900Y-53445666D01*
X139552585Y-53378627D01*
X139569219Y-53357985D01*
X142148068Y-50779136D01*
X142148071Y-50779133D01*
X142217400Y-50675375D01*
X142265155Y-50560085D01*
X142285690Y-50456844D01*
X142318074Y-50394936D01*
X142351011Y-50370554D01*
X142368009Y-50361894D01*
X142541004Y-50236206D01*
X142692206Y-50085004D01*
X142817894Y-49912009D01*
X142914972Y-49721483D01*
X142981049Y-49518116D01*
X143014500Y-49306916D01*
X143014500Y-49093084D01*
X142981049Y-48881884D01*
X142946369Y-48775147D01*
X142914973Y-48678519D01*
X142914972Y-48678516D01*
X142867639Y-48585621D01*
X142817894Y-48487991D01*
X142692206Y-48314996D01*
X142678555Y-48301345D01*
X144361500Y-48301345D01*
X144361500Y-50098654D01*
X144368011Y-50159202D01*
X144368011Y-50159204D01*
X144399138Y-50242656D01*
X144419111Y-50296204D01*
X144506739Y-50413261D01*
X144623796Y-50500889D01*
X144760799Y-50551989D01*
X144788050Y-50554918D01*
X144821345Y-50558499D01*
X144821362Y-50558500D01*
X146618638Y-50558500D01*
X146618654Y-50558499D01*
X146645692Y-50555591D01*
X146679201Y-50551989D01*
X146816204Y-50500889D01*
X146933261Y-50413261D01*
X147020889Y-50296204D01*
X147065957Y-50175371D01*
X147107827Y-50119442D01*
X147173291Y-50095025D01*
X147241564Y-50109877D01*
X147269818Y-50131028D01*
X147374996Y-50236206D01*
X147547991Y-50361894D01*
X147626499Y-50401896D01*
X147738516Y-50458972D01*
X147738519Y-50458973D01*
X147840200Y-50492010D01*
X147941884Y-50525049D01*
X148153084Y-50558500D01*
X148153085Y-50558500D01*
X148366915Y-50558500D01*
X148366916Y-50558500D01*
X148578116Y-50525049D01*
X148781483Y-50458972D01*
X148972009Y-50361894D01*
X149145004Y-50236206D01*
X149296206Y-50085004D01*
X149421894Y-49912009D01*
X149421896Y-49912004D01*
X149424270Y-49908132D01*
X149476080Y-49861254D01*
X149545009Y-49849829D01*
X149609173Y-49877483D01*
X149635730Y-49908132D01*
X149638103Y-49912005D01*
X149638106Y-49912009D01*
X149763794Y-50085004D01*
X149914996Y-50236206D01*
X150087991Y-50361894D01*
X150166499Y-50401896D01*
X150278516Y-50458972D01*
X150278519Y-50458973D01*
X150380200Y-50492010D01*
X150481884Y-50525049D01*
X150693084Y-50558500D01*
X150693085Y-50558500D01*
X150906915Y-50558500D01*
X150906916Y-50558500D01*
X151118116Y-50525049D01*
X151321483Y-50458972D01*
X151512009Y-50361894D01*
X151685004Y-50236206D01*
X151836206Y-50085004D01*
X151961894Y-49912009D01*
X151961896Y-49912004D01*
X151964270Y-49908132D01*
X152016080Y-49861254D01*
X152085009Y-49849829D01*
X152149173Y-49877483D01*
X152175730Y-49908132D01*
X152178103Y-49912005D01*
X152178106Y-49912009D01*
X152303794Y-50085004D01*
X152454996Y-50236206D01*
X152627991Y-50361894D01*
X152706499Y-50401896D01*
X152818516Y-50458972D01*
X152818519Y-50458973D01*
X152920200Y-50492010D01*
X153021884Y-50525049D01*
X153233084Y-50558500D01*
X153233085Y-50558500D01*
X153446915Y-50558500D01*
X153446916Y-50558500D01*
X153658116Y-50525049D01*
X153861483Y-50458972D01*
X154052009Y-50361894D01*
X154225004Y-50236206D01*
X154376206Y-50085004D01*
X154501894Y-49912009D01*
X154501896Y-49912004D01*
X154504270Y-49908132D01*
X154556080Y-49861254D01*
X154625009Y-49849829D01*
X154689173Y-49877483D01*
X154715730Y-49908132D01*
X154718103Y-49912005D01*
X154718106Y-49912009D01*
X154843794Y-50085004D01*
X154994996Y-50236206D01*
X155167991Y-50361894D01*
X155246499Y-50401896D01*
X155358516Y-50458972D01*
X155358519Y-50458973D01*
X155460200Y-50492010D01*
X155561884Y-50525049D01*
X155773084Y-50558500D01*
X155773085Y-50558500D01*
X155986915Y-50558500D01*
X155986916Y-50558500D01*
X156198116Y-50525049D01*
X156401483Y-50458972D01*
X156592009Y-50361894D01*
X156765004Y-50236206D01*
X156916206Y-50085004D01*
X157041894Y-49912009D01*
X157041896Y-49912004D01*
X157044270Y-49908132D01*
X157096080Y-49861254D01*
X157165009Y-49849829D01*
X157229173Y-49877483D01*
X157255730Y-49908132D01*
X157258103Y-49912005D01*
X157258106Y-49912009D01*
X157383794Y-50085004D01*
X157534996Y-50236206D01*
X157707991Y-50361894D01*
X157786499Y-50401896D01*
X157898516Y-50458972D01*
X157898519Y-50458973D01*
X158000200Y-50492010D01*
X158101884Y-50525049D01*
X158313084Y-50558500D01*
X158313085Y-50558500D01*
X158526915Y-50558500D01*
X158526916Y-50558500D01*
X158738116Y-50525049D01*
X158941483Y-50458972D01*
X159132009Y-50361894D01*
X159305004Y-50236206D01*
X159456206Y-50085004D01*
X159581894Y-49912009D01*
X159581896Y-49912004D01*
X159584270Y-49908132D01*
X159636080Y-49861254D01*
X159705009Y-49849829D01*
X159769173Y-49877483D01*
X159795730Y-49908132D01*
X159798103Y-49912005D01*
X159798106Y-49912009D01*
X159923794Y-50085004D01*
X160074996Y-50236206D01*
X160247991Y-50361894D01*
X160326499Y-50401896D01*
X160438516Y-50458972D01*
X160438519Y-50458973D01*
X160540200Y-50492010D01*
X160641884Y-50525049D01*
X160853084Y-50558500D01*
X160853085Y-50558500D01*
X161066915Y-50558500D01*
X161066916Y-50558500D01*
X161278116Y-50525049D01*
X161481483Y-50458972D01*
X161672009Y-50361894D01*
X161845004Y-50236206D01*
X161996206Y-50085004D01*
X162121894Y-49912009D01*
X162121896Y-49912004D01*
X162124270Y-49908132D01*
X162176080Y-49861254D01*
X162245009Y-49849829D01*
X162309173Y-49877483D01*
X162335730Y-49908132D01*
X162338103Y-49912005D01*
X162338106Y-49912009D01*
X162463794Y-50085004D01*
X162614996Y-50236206D01*
X162787991Y-50361894D01*
X162866499Y-50401896D01*
X162978516Y-50458972D01*
X162978519Y-50458973D01*
X163080200Y-50492010D01*
X163181884Y-50525049D01*
X163393084Y-50558500D01*
X163393085Y-50558500D01*
X163606915Y-50558500D01*
X163606916Y-50558500D01*
X163818116Y-50525049D01*
X164021483Y-50458972D01*
X164212009Y-50361894D01*
X164385004Y-50236206D01*
X164536206Y-50085004D01*
X164661894Y-49912009D01*
X164758972Y-49721483D01*
X164825049Y-49518116D01*
X164858500Y-49306916D01*
X164858500Y-49093084D01*
X164825049Y-48881884D01*
X164790369Y-48775147D01*
X164758973Y-48678519D01*
X164758972Y-48678516D01*
X164687756Y-48538748D01*
X164661894Y-48487991D01*
X164536206Y-48314996D01*
X164385004Y-48163794D01*
X164212009Y-48038106D01*
X164021483Y-47941027D01*
X164021480Y-47941026D01*
X163818117Y-47874951D01*
X163711446Y-47858056D01*
X163606916Y-47841500D01*
X163393084Y-47841500D01*
X163328343Y-47851754D01*
X163181882Y-47874951D01*
X162978519Y-47941026D01*
X162978516Y-47941027D01*
X162787990Y-48038106D01*
X162614993Y-48163796D01*
X162463796Y-48314993D01*
X162338105Y-48487991D01*
X162335727Y-48491873D01*
X162283914Y-48538748D01*
X162214984Y-48550169D01*
X162150822Y-48522512D01*
X162124273Y-48491873D01*
X162121894Y-48487991D01*
X162103794Y-48463078D01*
X161996206Y-48314996D01*
X161845004Y-48163794D01*
X161672009Y-48038106D01*
X161481483Y-47941027D01*
X161481480Y-47941026D01*
X161278117Y-47874951D01*
X161171446Y-47858056D01*
X161066916Y-47841500D01*
X160853084Y-47841500D01*
X160788343Y-47851754D01*
X160641882Y-47874951D01*
X160438519Y-47941026D01*
X160438516Y-47941027D01*
X160247990Y-48038106D01*
X160074993Y-48163796D01*
X159923796Y-48314993D01*
X159798105Y-48487991D01*
X159795727Y-48491873D01*
X159743914Y-48538748D01*
X159674984Y-48550169D01*
X159610822Y-48522512D01*
X159584273Y-48491873D01*
X159581894Y-48487991D01*
X159563794Y-48463078D01*
X159456206Y-48314996D01*
X159305004Y-48163794D01*
X159132009Y-48038106D01*
X158941483Y-47941027D01*
X158941480Y-47941026D01*
X158738117Y-47874951D01*
X158631446Y-47858056D01*
X158526916Y-47841500D01*
X158313084Y-47841500D01*
X158248343Y-47851754D01*
X158101882Y-47874951D01*
X157898519Y-47941026D01*
X157898516Y-47941027D01*
X157707990Y-48038106D01*
X157534993Y-48163796D01*
X157383796Y-48314993D01*
X157258105Y-48487991D01*
X157255727Y-48491873D01*
X157203914Y-48538748D01*
X157134984Y-48550169D01*
X157070822Y-48522512D01*
X157044273Y-48491873D01*
X157041894Y-48487991D01*
X157023794Y-48463078D01*
X156916206Y-48314996D01*
X156765004Y-48163794D01*
X156592009Y-48038106D01*
X156401483Y-47941027D01*
X156401480Y-47941026D01*
X156198117Y-47874951D01*
X156091446Y-47858056D01*
X155986916Y-47841500D01*
X155773084Y-47841500D01*
X155708343Y-47851754D01*
X155561882Y-47874951D01*
X155358519Y-47941026D01*
X155358516Y-47941027D01*
X155167990Y-48038106D01*
X154994993Y-48163796D01*
X154843796Y-48314993D01*
X154718105Y-48487991D01*
X154715727Y-48491873D01*
X154663914Y-48538748D01*
X154594984Y-48550169D01*
X154530822Y-48522512D01*
X154504273Y-48491873D01*
X154501894Y-48487991D01*
X154483794Y-48463078D01*
X154376206Y-48314996D01*
X154225004Y-48163794D01*
X154052009Y-48038106D01*
X153861483Y-47941027D01*
X153861480Y-47941026D01*
X153658117Y-47874951D01*
X153551446Y-47858056D01*
X153446916Y-47841500D01*
X153233084Y-47841500D01*
X153168343Y-47851754D01*
X153021882Y-47874951D01*
X152818519Y-47941026D01*
X152818516Y-47941027D01*
X152627990Y-48038106D01*
X152454993Y-48163796D01*
X152303796Y-48314993D01*
X152178105Y-48487991D01*
X152175727Y-48491873D01*
X152123914Y-48538748D01*
X152054984Y-48550169D01*
X151990822Y-48522512D01*
X151964273Y-48491873D01*
X151961894Y-48487991D01*
X151943794Y-48463078D01*
X151836206Y-48314996D01*
X151685004Y-48163794D01*
X151512009Y-48038106D01*
X151321483Y-47941027D01*
X151321480Y-47941026D01*
X151118117Y-47874951D01*
X151011446Y-47858056D01*
X150906916Y-47841500D01*
X150693084Y-47841500D01*
X150628343Y-47851754D01*
X150481882Y-47874951D01*
X150278519Y-47941026D01*
X150278516Y-47941027D01*
X150087990Y-48038106D01*
X149914993Y-48163796D01*
X149763796Y-48314993D01*
X149638105Y-48487991D01*
X149635727Y-48491873D01*
X149583914Y-48538748D01*
X149514984Y-48550169D01*
X149450822Y-48522512D01*
X149424273Y-48491873D01*
X149421894Y-48487991D01*
X149403794Y-48463078D01*
X149296206Y-48314996D01*
X149145004Y-48163794D01*
X148972009Y-48038106D01*
X148781483Y-47941027D01*
X148781480Y-47941026D01*
X148578117Y-47874951D01*
X148471446Y-47858056D01*
X148366916Y-47841500D01*
X148153084Y-47841500D01*
X148088343Y-47851754D01*
X147941882Y-47874951D01*
X147738519Y-47941026D01*
X147738516Y-47941027D01*
X147547990Y-48038106D01*
X147374997Y-48163793D01*
X147269818Y-48268972D01*
X147208495Y-48302456D01*
X147138803Y-48297472D01*
X147082870Y-48255600D01*
X147065958Y-48224629D01*
X147020889Y-48103796D01*
X146933261Y-47986739D01*
X146816204Y-47899111D01*
X146679203Y-47848011D01*
X146618654Y-47841500D01*
X146618638Y-47841500D01*
X144821362Y-47841500D01*
X144821345Y-47841500D01*
X144760797Y-47848011D01*
X144760795Y-47848011D01*
X144623795Y-47899111D01*
X144506739Y-47986739D01*
X144419111Y-48103795D01*
X144368011Y-48240795D01*
X144368011Y-48240797D01*
X144361500Y-48301345D01*
X142678555Y-48301345D01*
X142541004Y-48163794D01*
X142368009Y-48038106D01*
X142177483Y-47941027D01*
X142177480Y-47941026D01*
X141974117Y-47874951D01*
X141867446Y-47858056D01*
X141762916Y-47841500D01*
X141549084Y-47841500D01*
X141484343Y-47851754D01*
X141337882Y-47874951D01*
X141134519Y-47941026D01*
X141134516Y-47941027D01*
X140943990Y-48038106D01*
X140770993Y-48163796D01*
X140619796Y-48314993D01*
X140494105Y-48487991D01*
X140491727Y-48491873D01*
X140439914Y-48538748D01*
X140370984Y-48550169D01*
X140306822Y-48522512D01*
X140280273Y-48491873D01*
X140277894Y-48487991D01*
X140259794Y-48463078D01*
X140152206Y-48314996D01*
X140001004Y-48163794D01*
X139828009Y-48038106D01*
X139637483Y-47941027D01*
X139637480Y-47941026D01*
X139434117Y-47874951D01*
X139327446Y-47858056D01*
X139222916Y-47841500D01*
X139009084Y-47841500D01*
X138944343Y-47851754D01*
X138797882Y-47874951D01*
X138594519Y-47941026D01*
X138594516Y-47941027D01*
X138403990Y-48038106D01*
X138230993Y-48163796D01*
X138079796Y-48314993D01*
X137954105Y-48487991D01*
X137951727Y-48491873D01*
X137899914Y-48538748D01*
X137830984Y-48550169D01*
X137766822Y-48522512D01*
X137740273Y-48491873D01*
X137737894Y-48487991D01*
X137719794Y-48463078D01*
X137612206Y-48314996D01*
X137461004Y-48163794D01*
X137288009Y-48038106D01*
X137097483Y-47941027D01*
X137097480Y-47941026D01*
X136894117Y-47874951D01*
X136787450Y-47858056D01*
X136724316Y-47828126D01*
X136719168Y-47823264D01*
X136403836Y-47507931D01*
X136403832Y-47507928D01*
X136300081Y-47438603D01*
X136300072Y-47438598D01*
X136184785Y-47390845D01*
X136184777Y-47390843D01*
X136062398Y-47366500D01*
X136062394Y-47366500D01*
X117732706Y-47366500D01*
X117732701Y-47366500D01*
X117610322Y-47390843D01*
X117610314Y-47390845D01*
X117495027Y-47438598D01*
X117495018Y-47438603D01*
X117391267Y-47507928D01*
X117391263Y-47507931D01*
X117096167Y-47803029D01*
X117071070Y-47828126D01*
X117007927Y-47891268D01*
X116938603Y-47995018D01*
X116938598Y-47995027D01*
X116890845Y-48110314D01*
X116890843Y-48110322D01*
X116866500Y-48232701D01*
X116866500Y-48350284D01*
X116846815Y-48417323D01*
X116794011Y-48463078D01*
X116724853Y-48473022D01*
X116661297Y-48443997D01*
X116632016Y-48406580D01*
X116608869Y-48361153D01*
X116460798Y-48157350D01*
X116460794Y-48157345D01*
X116282654Y-47979205D01*
X116282649Y-47979201D01*
X116078848Y-47831132D01*
X116078847Y-47831131D01*
X116078845Y-47831130D01*
X116008747Y-47795413D01*
X115854383Y-47716760D01*
X115614785Y-47638910D01*
X115365962Y-47599500D01*
X115114038Y-47599500D01*
X114989626Y-47619205D01*
X114865214Y-47638910D01*
X114625616Y-47716760D01*
X114401151Y-47831132D01*
X114197350Y-47979201D01*
X114197345Y-47979205D01*
X114019205Y-48157345D01*
X114019201Y-48157350D01*
X113871132Y-48361151D01*
X113756760Y-48585616D01*
X113678910Y-48825214D01*
X113639500Y-49074038D01*
X113639500Y-49325961D01*
X113678910Y-49574785D01*
X113756760Y-49814383D01*
X113822103Y-49942624D01*
X113852907Y-50003081D01*
X113871132Y-50038848D01*
X114019201Y-50242649D01*
X114019205Y-50242654D01*
X114197345Y-50420794D01*
X114197350Y-50420798D01*
X114340839Y-50525048D01*
X114401155Y-50568870D01*
X114529102Y-50634062D01*
X114625616Y-50683239D01*
X114625618Y-50683239D01*
X114625621Y-50683241D01*
X114865215Y-50761090D01*
X115114038Y-50800500D01*
X115114039Y-50800500D01*
X115365961Y-50800500D01*
X115365962Y-50800500D01*
X115614785Y-50761090D01*
X115854379Y-50683241D01*
X116078845Y-50568870D01*
X116282656Y-50420793D01*
X116460793Y-50242656D01*
X116608870Y-50038845D01*
X116632015Y-49993419D01*
X116679989Y-49942624D01*
X116747810Y-49925829D01*
X116813945Y-49948366D01*
X116857397Y-50003081D01*
X116866500Y-50049715D01*
X116866500Y-65932634D01*
X116846815Y-65999673D01*
X116830181Y-66020315D01*
X116106167Y-66744329D01*
X116062047Y-66788449D01*
X116017927Y-66832568D01*
X115948603Y-66936318D01*
X115948598Y-66936327D01*
X115900845Y-67051614D01*
X115900843Y-67051622D01*
X115876500Y-67174001D01*
X115876500Y-67240302D01*
X115856815Y-67307341D01*
X115804011Y-67353096D01*
X115734853Y-67363040D01*
X115714182Y-67358233D01*
X115546410Y-67303720D01*
X115410790Y-67282240D01*
X115342981Y-67271500D01*
X115137019Y-67271500D01*
X115112550Y-67275375D01*
X114933591Y-67303719D01*
X114737705Y-67367367D01*
X114554193Y-67460873D01*
X114387576Y-67581926D01*
X114387571Y-67581930D01*
X114241930Y-67727571D01*
X114241926Y-67727576D01*
X114120871Y-67894195D01*
X114080484Y-67973459D01*
X114032510Y-68024254D01*
X113964689Y-68041049D01*
X113898554Y-68018511D01*
X113859516Y-67973459D01*
X113819128Y-67894195D01*
X113698073Y-67727576D01*
X113698069Y-67727571D01*
X113552428Y-67581930D01*
X113552423Y-67581926D01*
X113385806Y-67460873D01*
X113385805Y-67460872D01*
X113385803Y-67460871D01*
X113328496Y-67431671D01*
X113202294Y-67367367D01*
X113006408Y-67303719D01*
X112830794Y-67275905D01*
X112802981Y-67271500D01*
X112597019Y-67271500D01*
X112572550Y-67275375D01*
X112393591Y-67303719D01*
X112197705Y-67367367D01*
X112014193Y-67460873D01*
X111847576Y-67581926D01*
X111847571Y-67581930D01*
X111701930Y-67727571D01*
X111701926Y-67727576D01*
X111580871Y-67894195D01*
X111540484Y-67973459D01*
X111492510Y-68024254D01*
X111424689Y-68041049D01*
X111358554Y-68018511D01*
X111319516Y-67973459D01*
X111279128Y-67894195D01*
X111158073Y-67727576D01*
X111158069Y-67727571D01*
X111012428Y-67581930D01*
X111012423Y-67581926D01*
X110845806Y-67460873D01*
X110845805Y-67460872D01*
X110845803Y-67460871D01*
X110788496Y-67431671D01*
X110662294Y-67367367D01*
X110466408Y-67303719D01*
X110290794Y-67275905D01*
X110262981Y-67271500D01*
X110057019Y-67271500D01*
X110032550Y-67275375D01*
X109853591Y-67303719D01*
X109657705Y-67367367D01*
X109474193Y-67460873D01*
X109307576Y-67581926D01*
X109307571Y-67581930D01*
X109161930Y-67727571D01*
X109161926Y-67727576D01*
X109040871Y-67894195D01*
X109000484Y-67973459D01*
X108952510Y-68024254D01*
X108884689Y-68041049D01*
X108818554Y-68018511D01*
X108779516Y-67973459D01*
X108739128Y-67894195D01*
X108618073Y-67727576D01*
X108618069Y-67727571D01*
X108472428Y-67581930D01*
X108472423Y-67581926D01*
X108305806Y-67460873D01*
X108305805Y-67460872D01*
X108305803Y-67460871D01*
X108248496Y-67431671D01*
X108122294Y-67367367D01*
X107926408Y-67303719D01*
X107750794Y-67275905D01*
X107722981Y-67271500D01*
X107517019Y-67271500D01*
X107492550Y-67275375D01*
X107313591Y-67303719D01*
X107117705Y-67367367D01*
X106934193Y-67460873D01*
X106767576Y-67581926D01*
X106767571Y-67581930D01*
X106621930Y-67727571D01*
X106621926Y-67727576D01*
X106500871Y-67894195D01*
X106460484Y-67973459D01*
X106412510Y-68024254D01*
X106344689Y-68041049D01*
X106278554Y-68018511D01*
X106239516Y-67973459D01*
X106199128Y-67894195D01*
X106078073Y-67727576D01*
X106078069Y-67727571D01*
X105932428Y-67581930D01*
X105932423Y-67581926D01*
X105765806Y-67460873D01*
X105765805Y-67460872D01*
X105765803Y-67460871D01*
X105708496Y-67431671D01*
X105582294Y-67367367D01*
X105386408Y-67303719D01*
X105210794Y-67275905D01*
X105182981Y-67271500D01*
X104977019Y-67271500D01*
X104952550Y-67275375D01*
X104773591Y-67303719D01*
X104577705Y-67367367D01*
X104394193Y-67460873D01*
X104227576Y-67581926D01*
X104227571Y-67581930D01*
X104081930Y-67727571D01*
X104081926Y-67727576D01*
X103960873Y-67894193D01*
X103867367Y-68077705D01*
X103803719Y-68273591D01*
X103771500Y-68477019D01*
X103771500Y-68682980D01*
X103803719Y-68886408D01*
X103867367Y-69082294D01*
X103960873Y-69265806D01*
X104081926Y-69432423D01*
X104081930Y-69432428D01*
X104227571Y-69578069D01*
X104227576Y-69578073D01*
X104372908Y-69683661D01*
X104394197Y-69699129D01*
X104511128Y-69758709D01*
X104577705Y-69792632D01*
X104577707Y-69792632D01*
X104577710Y-69792634D01*
X104682707Y-69826749D01*
X104773591Y-69856280D01*
X104875305Y-69872390D01*
X104977019Y-69888500D01*
X104977020Y-69888500D01*
X105182980Y-69888500D01*
X105182981Y-69888500D01*
X105386408Y-69856280D01*
X105582290Y-69792634D01*
X105765803Y-69699129D01*
X105932430Y-69578068D01*
X106078068Y-69432430D01*
X106199129Y-69265803D01*
X106239515Y-69186540D01*
X106287490Y-69135745D01*
X106355311Y-69118950D01*
X106421446Y-69141487D01*
X106460484Y-69186540D01*
X106474467Y-69213983D01*
X106500873Y-69265806D01*
X106621926Y-69432423D01*
X106621930Y-69432428D01*
X106767571Y-69578069D01*
X106767576Y-69578073D01*
X106912908Y-69683661D01*
X106934197Y-69699129D01*
X107051128Y-69758709D01*
X107117705Y-69792632D01*
X107117707Y-69792632D01*
X107117710Y-69792634D01*
X107222707Y-69826749D01*
X107313591Y-69856280D01*
X107415305Y-69872390D01*
X107517019Y-69888500D01*
X107517020Y-69888500D01*
X107722980Y-69888500D01*
X107722981Y-69888500D01*
X107926408Y-69856280D01*
X108122290Y-69792634D01*
X108305803Y-69699129D01*
X108472430Y-69578068D01*
X108618068Y-69432430D01*
X108739129Y-69265803D01*
X108779515Y-69186540D01*
X108827490Y-69135745D01*
X108895311Y-69118950D01*
X108961446Y-69141487D01*
X109000484Y-69186540D01*
X109014467Y-69213983D01*
X109040873Y-69265806D01*
X109161926Y-69432423D01*
X109161930Y-69432428D01*
X109307571Y-69578069D01*
X109307576Y-69578073D01*
X109452908Y-69683661D01*
X109474197Y-69699129D01*
X109591128Y-69758709D01*
X109657705Y-69792632D01*
X109657707Y-69792632D01*
X109657710Y-69792634D01*
X109762707Y-69826749D01*
X109853591Y-69856280D01*
X109955305Y-69872390D01*
X110057019Y-69888500D01*
X110057020Y-69888500D01*
X110262980Y-69888500D01*
X110262981Y-69888500D01*
X110466408Y-69856280D01*
X110662290Y-69792634D01*
X110845803Y-69699129D01*
X111012430Y-69578068D01*
X111158068Y-69432430D01*
X111279129Y-69265803D01*
X111319515Y-69186540D01*
X111367490Y-69135745D01*
X111435311Y-69118950D01*
X111501446Y-69141487D01*
X111540484Y-69186540D01*
X111554467Y-69213983D01*
X111580873Y-69265806D01*
X111701926Y-69432423D01*
X111701930Y-69432428D01*
X111847571Y-69578069D01*
X111847576Y-69578073D01*
X111992908Y-69683661D01*
X112014197Y-69699129D01*
X112131128Y-69758709D01*
X112197705Y-69792632D01*
X112197707Y-69792632D01*
X112197710Y-69792634D01*
X112302707Y-69826749D01*
X112393591Y-69856280D01*
X112495305Y-69872390D01*
X112597019Y-69888500D01*
X112597020Y-69888500D01*
X112802980Y-69888500D01*
X112802981Y-69888500D01*
X113006408Y-69856280D01*
X113202290Y-69792634D01*
X113385803Y-69699129D01*
X113552430Y-69578068D01*
X113698068Y-69432430D01*
X113819129Y-69265803D01*
X113859515Y-69186540D01*
X113907490Y-69135745D01*
X113975311Y-69118950D01*
X114041446Y-69141487D01*
X114080484Y-69186540D01*
X114094467Y-69213983D01*
X114120873Y-69265806D01*
X114241926Y-69432423D01*
X114241930Y-69432428D01*
X114387571Y-69578069D01*
X114387576Y-69578073D01*
X114532908Y-69683661D01*
X114554197Y-69699129D01*
X114671128Y-69758709D01*
X114737705Y-69792632D01*
X114737707Y-69792632D01*
X114737710Y-69792634D01*
X114842707Y-69826749D01*
X114933591Y-69856280D01*
X115035305Y-69872390D01*
X115137019Y-69888500D01*
X115137020Y-69888500D01*
X115342980Y-69888500D01*
X115342981Y-69888500D01*
X115546408Y-69856280D01*
X115714184Y-69801765D01*
X115784022Y-69799771D01*
X115843855Y-69835851D01*
X115874684Y-69898551D01*
X115876500Y-69919697D01*
X115876500Y-74860302D01*
X115856815Y-74927341D01*
X115804011Y-74973096D01*
X115734853Y-74983040D01*
X115714182Y-74978233D01*
X115546410Y-74923720D01*
X115384083Y-74898010D01*
X115342981Y-74891500D01*
X115137019Y-74891500D01*
X115112550Y-74895375D01*
X114933591Y-74923719D01*
X114737705Y-74987367D01*
X114554193Y-75080873D01*
X114387576Y-75201926D01*
X114387571Y-75201930D01*
X114241930Y-75347571D01*
X114241926Y-75347576D01*
X114120871Y-75514195D01*
X114080484Y-75593459D01*
X114032510Y-75644254D01*
X113964689Y-75661049D01*
X113898554Y-75638511D01*
X113859516Y-75593459D01*
X113819128Y-75514195D01*
X113698073Y-75347576D01*
X113698069Y-75347571D01*
X113552428Y-75201930D01*
X113552423Y-75201926D01*
X113385806Y-75080873D01*
X113385805Y-75080872D01*
X113385803Y-75080871D01*
X113328496Y-75051671D01*
X113202294Y-74987367D01*
X113006408Y-74923719D01*
X112830794Y-74895905D01*
X112802981Y-74891500D01*
X112597019Y-74891500D01*
X112572550Y-74895375D01*
X112393591Y-74923719D01*
X112197705Y-74987367D01*
X112014193Y-75080873D01*
X111847576Y-75201926D01*
X111847571Y-75201930D01*
X111701930Y-75347571D01*
X111701926Y-75347576D01*
X111580871Y-75514195D01*
X111540484Y-75593459D01*
X111492510Y-75644254D01*
X111424689Y-75661049D01*
X111358554Y-75638511D01*
X111319516Y-75593459D01*
X111279128Y-75514195D01*
X111158073Y-75347576D01*
X111158069Y-75347571D01*
X111012428Y-75201930D01*
X111012423Y-75201926D01*
X110845806Y-75080873D01*
X110845805Y-75080872D01*
X110845803Y-75080871D01*
X110788496Y-75051671D01*
X110662294Y-74987367D01*
X110466408Y-74923719D01*
X110290794Y-74895905D01*
X110262981Y-74891500D01*
X110057019Y-74891500D01*
X110032550Y-74895375D01*
X109853591Y-74923719D01*
X109657705Y-74987367D01*
X109474193Y-75080873D01*
X109307576Y-75201926D01*
X109307571Y-75201930D01*
X109161930Y-75347571D01*
X109161926Y-75347576D01*
X109040871Y-75514195D01*
X109000484Y-75593459D01*
X108952510Y-75644254D01*
X108884689Y-75661049D01*
X108818554Y-75638511D01*
X108779516Y-75593459D01*
X108739128Y-75514195D01*
X108618073Y-75347576D01*
X108618069Y-75347571D01*
X108472428Y-75201930D01*
X108472423Y-75201926D01*
X108305806Y-75080873D01*
X108305805Y-75080872D01*
X108305803Y-75080871D01*
X108248496Y-75051671D01*
X108122294Y-74987367D01*
X107926408Y-74923719D01*
X107750794Y-74895905D01*
X107722981Y-74891500D01*
X107517019Y-74891500D01*
X107492550Y-74895375D01*
X107313591Y-74923719D01*
X107117705Y-74987367D01*
X106934193Y-75080873D01*
X106767576Y-75201926D01*
X106767571Y-75201930D01*
X106621930Y-75347571D01*
X106607434Y-75367524D01*
X106552103Y-75410189D01*
X106482490Y-75416168D01*
X106420695Y-75383562D01*
X106386338Y-75322723D01*
X106383827Y-75307893D01*
X106381989Y-75290798D01*
X106381988Y-75290795D01*
X106342306Y-75184406D01*
X106330889Y-75153796D01*
X106243261Y-75036739D01*
X106126204Y-74949111D01*
X106112898Y-74944148D01*
X105989203Y-74898011D01*
X105928654Y-74891500D01*
X105928638Y-74891500D01*
X104231362Y-74891500D01*
X104231345Y-74891500D01*
X104170797Y-74898011D01*
X104170795Y-74898011D01*
X104033795Y-74949111D01*
X103916739Y-75036739D01*
X103829111Y-75153795D01*
X103778011Y-75290795D01*
X103778011Y-75290797D01*
X103771500Y-75351345D01*
X103771500Y-77048654D01*
X103778011Y-77109202D01*
X103778011Y-77109204D01*
X103829111Y-77246204D01*
X103916739Y-77363261D01*
X104033796Y-77450889D01*
X104170799Y-77501989D01*
X104198050Y-77504918D01*
X104231345Y-77508499D01*
X104231362Y-77508500D01*
X104322500Y-77508500D01*
X104389539Y-77528185D01*
X104435294Y-77580989D01*
X104446500Y-77632500D01*
X104446500Y-81272116D01*
X104426815Y-81339155D01*
X104378796Y-81382600D01*
X104367993Y-81388104D01*
X104194993Y-81513796D01*
X104043796Y-81664993D01*
X103918106Y-81837990D01*
X103821027Y-82028516D01*
X103821026Y-82028519D01*
X103754951Y-82231882D01*
X103721500Y-82443084D01*
X100075500Y-82443084D01*
X100075500Y-47428092D01*
X100076097Y-47415938D01*
X100076979Y-47406982D01*
X100087494Y-47300220D01*
X100092234Y-47276389D01*
X100124216Y-47170959D01*
X100133508Y-47148526D01*
X100185442Y-47051365D01*
X100198938Y-47031166D01*
X100268827Y-46946006D01*
X100286006Y-46928827D01*
X100371166Y-46858938D01*
X100391365Y-46845442D01*
X100488526Y-46793508D01*
X100510959Y-46784216D01*
X100616389Y-46752234D01*
X100640220Y-46747494D01*
X100755939Y-46736097D01*
X100768093Y-46735500D01*
X100786531Y-46735500D01*
X163417365Y-46735500D01*
X163484404Y-46755185D01*
G37*
%TD.AperFunction*%
%TD*%
M02*
