%TF.GenerationSoftware,KiCad,Pcbnew,9.0.6*%
%TF.CreationDate,2026-01-18T16:02:07+09:00*%
%TF.ProjectId,mcp23017_testboard_arduino,6d637032-3330-4313-975f-74657374626f,rev?*%
%TF.SameCoordinates,Original*%
%TF.FileFunction,Soldermask,Top*%
%TF.FilePolarity,Negative*%
%FSLAX46Y46*%
G04 Gerber Fmt 4.6, Leading zero omitted, Abs format (unit mm)*
G04 Created by KiCad (PCBNEW 9.0.6) date 2026-01-18 16:02:07*
%MOMM*%
%LPD*%
G01*
G04 APERTURE LIST*
G04 Aperture macros list*
%AMRoundRect*
0 Rectangle with rounded corners*
0 $1 Rounding radius*
0 $2 $3 $4 $5 $6 $7 $8 $9 X,Y pos of 4 corners*
0 Add a 4 corners polygon primitive as box body*
4,1,4,$2,$3,$4,$5,$6,$7,$8,$9,$2,$3,0*
0 Add four circle primitives for the rounded corners*
1,1,$1+$1,$2,$3*
1,1,$1+$1,$4,$5*
1,1,$1+$1,$6,$7*
1,1,$1+$1,$8,$9*
0 Add four rect primitives between the rounded corners*
20,1,$1+$1,$2,$3,$4,$5,0*
20,1,$1+$1,$4,$5,$6,$7,0*
20,1,$1+$1,$6,$7,$8,$9,0*
20,1,$1+$1,$8,$9,$2,$3,0*%
%AMFreePoly0*
4,1,23,0.500000,-0.750000,0.000000,-0.750000,0.000000,-0.745722,-0.065263,-0.745722,-0.191342,-0.711940,-0.304381,-0.646677,-0.396677,-0.554381,-0.461940,-0.441342,-0.495722,-0.315263,-0.495722,-0.250000,-0.500000,-0.250000,-0.500000,0.250000,-0.495722,0.250000,-0.495722,0.315263,-0.461940,0.441342,-0.396677,0.554381,-0.304381,0.646677,-0.191342,0.711940,-0.065263,0.745722,0.000000,0.745722,
0.000000,0.750000,0.500000,0.750000,0.500000,-0.750000,0.500000,-0.750000,$1*%
%AMFreePoly1*
4,1,23,0.000000,0.745722,0.065263,0.745722,0.191342,0.711940,0.304381,0.646677,0.396677,0.554381,0.461940,0.441342,0.495722,0.315263,0.495722,0.250000,0.500000,0.250000,0.500000,-0.250000,0.495722,-0.250000,0.495722,-0.315263,0.461940,-0.441342,0.396677,-0.554381,0.304381,-0.646677,0.191342,-0.711940,0.065263,-0.745722,0.000000,-0.745722,0.000000,-0.750000,-0.500000,-0.750000,
-0.500000,0.750000,0.000000,0.750000,0.000000,0.745722,0.000000,0.745722,$1*%
%AMFreePoly2*
4,1,6,1.000000,0.000000,0.500000,-0.750000,-0.500000,-0.750000,-0.500000,0.750000,0.500000,0.750000,1.000000,0.000000,1.000000,0.000000,$1*%
%AMFreePoly3*
4,1,6,0.500000,-0.750000,-0.650000,-0.750000,-0.150000,0.000000,-0.650000,0.750000,0.500000,0.750000,0.500000,-0.750000,0.500000,-0.750000,$1*%
G04 Aperture macros list end*
%ADD10R,1.700000X1.700000*%
%ADD11O,1.700000X1.700000*%
%ADD12RoundRect,0.200000X-0.275000X0.200000X-0.275000X-0.200000X0.275000X-0.200000X0.275000X0.200000X0*%
%ADD13R,1.600000X1.600000*%
%ADD14O,1.600000X1.600000*%
%ADD15RoundRect,0.243750X-0.456250X0.243750X-0.456250X-0.243750X0.456250X-0.243750X0.456250X0.243750X0*%
%ADD16R,1.100000X0.600000*%
%ADD17FreePoly0,270.000000*%
%ADD18FreePoly1,270.000000*%
%ADD19RoundRect,0.200000X0.275000X-0.200000X0.275000X0.200000X-0.275000X0.200000X-0.275000X-0.200000X0*%
%ADD20FreePoly2,180.000000*%
%ADD21FreePoly3,180.000000*%
%ADD22RoundRect,0.200000X-0.200000X-0.275000X0.200000X-0.275000X0.200000X0.275000X-0.200000X0.275000X0*%
%ADD23C,3.200000*%
%ADD24R,1.750000X0.450000*%
%ADD25RoundRect,0.225000X0.225000X0.250000X-0.225000X0.250000X-0.225000X-0.250000X0.225000X-0.250000X0*%
G04 APERTURE END LIST*
D10*
%TO.C,J1*%
X127940000Y-97460000D03*
D11*
X130480000Y-97460000D03*
X133020000Y-97460000D03*
X135560000Y-97460000D03*
X138100000Y-97460000D03*
X140640000Y-97460000D03*
X143180000Y-97460000D03*
X145720000Y-97460000D03*
%TD*%
D10*
%TO.C,J3*%
X150800000Y-97460000D03*
D11*
X153340000Y-97460000D03*
X155880000Y-97460000D03*
X158420000Y-97460000D03*
X160960000Y-97460000D03*
X163500000Y-97460000D03*
%TD*%
D10*
%TO.C,J2*%
X118796000Y-49200000D03*
D11*
X121336000Y-49200000D03*
X123876000Y-49200000D03*
X126416000Y-49200000D03*
X128956000Y-49200000D03*
X131496000Y-49200000D03*
X134036000Y-49200000D03*
X136576000Y-49200000D03*
X139116000Y-49200000D03*
X141656000Y-49200000D03*
%TD*%
D10*
%TO.C,J4*%
X145720000Y-49200000D03*
D11*
X148260000Y-49200000D03*
X150800000Y-49200000D03*
X153340000Y-49200000D03*
X155880000Y-49200000D03*
X158420000Y-49200000D03*
X160960000Y-49200000D03*
X163500000Y-49200000D03*
%TD*%
D12*
%TO.C,R1*%
X163500000Y-77470000D03*
X163500000Y-79120000D03*
%TD*%
D10*
%TO.C,J5*%
X129210000Y-85090000D03*
D11*
X129210000Y-82550000D03*
X131750000Y-85090000D03*
X131750000Y-82550000D03*
X134290000Y-85090000D03*
X134290000Y-82550000D03*
%TD*%
D13*
%TO.C,SW1*%
X140640000Y-76200000D03*
D14*
X143180000Y-76200000D03*
X145720000Y-76200000D03*
X148260000Y-76200000D03*
X150800000Y-76200000D03*
X153340000Y-76200000D03*
X155880000Y-76200000D03*
X158420000Y-76200000D03*
X158420000Y-68580000D03*
X155880000Y-68580000D03*
X153340000Y-68580000D03*
X150800000Y-68580000D03*
X148260000Y-68580000D03*
X145720000Y-68580000D03*
X143180000Y-68580000D03*
X140640000Y-68580000D03*
%TD*%
D15*
%TO.C,D16*%
X122860000Y-58420000D03*
X122860000Y-60295000D03*
%TD*%
D16*
%TO.C,Q1*%
X138207000Y-91506000D03*
X138207000Y-93406000D03*
X140407000Y-92456000D03*
%TD*%
D17*
%TO.C,JP2*%
X166040000Y-81280000D03*
D18*
X166040000Y-82580000D03*
%TD*%
D15*
%TO.C,D5*%
X150800000Y-58420000D03*
X150800000Y-60295000D03*
%TD*%
D19*
%TO.C,R11*%
X153325000Y-64770000D03*
X153325000Y-63120000D03*
%TD*%
D17*
%TO.C,JP1*%
X163500000Y-81280000D03*
D18*
X163500000Y-82580000D03*
%TD*%
D19*
%TO.C,R8*%
X145705000Y-64770000D03*
X145705000Y-63120000D03*
%TD*%
D15*
%TO.C,D8*%
X158420000Y-58420000D03*
X158420000Y-60295000D03*
%TD*%
D19*
%TO.C,R15*%
X107620000Y-64770000D03*
X107620000Y-63120000D03*
%TD*%
D15*
%TO.C,D1*%
X140640000Y-58420000D03*
X140640000Y-60295000D03*
%TD*%
D19*
%TO.C,R7*%
X143165000Y-64770000D03*
X143165000Y-63120000D03*
%TD*%
D20*
%TO.C,JP7*%
X113335000Y-94615000D03*
D21*
X111885000Y-94615000D03*
%TD*%
D15*
%TO.C,D13*%
X115240000Y-58420000D03*
X115240000Y-60295000D03*
%TD*%
%TO.C,D7*%
X155880000Y-58420000D03*
X155880000Y-60295000D03*
%TD*%
%TO.C,D3*%
X145720000Y-58420000D03*
X145720000Y-60295000D03*
%TD*%
D22*
%TO.C,R4*%
X145262800Y-92379800D03*
X146912800Y-92379800D03*
%TD*%
%TO.C,R23*%
X142241200Y-92379800D03*
X143891200Y-92379800D03*
%TD*%
D15*
%TO.C,D11*%
X110160000Y-58420000D03*
X110160000Y-60295000D03*
%TD*%
D19*
%TO.C,R6*%
X140625000Y-64770000D03*
X140625000Y-63120000D03*
%TD*%
D23*
%TO.C,MH1*%
X115240000Y-49200000D03*
%TD*%
D10*
%TO.C,J8*%
X103302000Y-92090000D03*
D11*
X103302000Y-94630000D03*
X103302000Y-97170000D03*
%TD*%
D22*
%TO.C,R22*%
X142239200Y-90830400D03*
X143889200Y-90830400D03*
%TD*%
D19*
%TO.C,R21*%
X122860000Y-64770000D03*
X122860000Y-63120000D03*
%TD*%
%TO.C,R19*%
X117780000Y-64770000D03*
X117780000Y-63120000D03*
%TD*%
D12*
%TO.C,R2*%
X166040000Y-77470000D03*
X166040000Y-79120000D03*
%TD*%
D19*
%TO.C,R10*%
X150785000Y-64770000D03*
X150785000Y-63120000D03*
%TD*%
D20*
%TO.C,JP8*%
X113335000Y-97155000D03*
D21*
X111885000Y-97155000D03*
%TD*%
D22*
%TO.C,R24*%
X142241200Y-93903800D03*
X143891200Y-93903800D03*
%TD*%
D19*
%TO.C,R17*%
X112700000Y-64770000D03*
X112700000Y-63120000D03*
%TD*%
%TO.C,R16*%
X110160000Y-64770000D03*
X110160000Y-63120000D03*
%TD*%
D15*
%TO.C,D10*%
X107620000Y-58420000D03*
X107620000Y-60295000D03*
%TD*%
%TO.C,D15*%
X120320000Y-58420000D03*
X120320000Y-60295000D03*
%TD*%
D19*
%TO.C,R20*%
X120320000Y-64770000D03*
X120320000Y-63120000D03*
%TD*%
%TO.C,R18*%
X115240000Y-64770000D03*
X115240000Y-63120000D03*
%TD*%
D15*
%TO.C,D14*%
X117780000Y-58420000D03*
X117780000Y-60295000D03*
%TD*%
%TO.C,D4*%
X148260000Y-58420000D03*
X148260000Y-60295000D03*
%TD*%
D10*
%TO.C,J7*%
X105080000Y-85090000D03*
D11*
X105080000Y-82550000D03*
X107620000Y-85090000D03*
X107620000Y-82550000D03*
X110160000Y-85090000D03*
X110160000Y-82550000D03*
X112700000Y-85090000D03*
X112700000Y-82550000D03*
X115240000Y-85090000D03*
X115240000Y-82550000D03*
X117780000Y-85090000D03*
X117780000Y-82550000D03*
X120320000Y-85090000D03*
X120320000Y-82550000D03*
X122860000Y-85090000D03*
X122860000Y-82550000D03*
%TD*%
D20*
%TO.C,JP6*%
X113335000Y-92075000D03*
D21*
X111885000Y-92075000D03*
%TD*%
D10*
%TO.C,J6*%
X140640000Y-85090000D03*
D11*
X140640000Y-82550000D03*
X143180000Y-85090000D03*
X143180000Y-82550000D03*
X145720000Y-85090000D03*
X145720000Y-82550000D03*
X148260000Y-85090000D03*
X148260000Y-82550000D03*
X150800000Y-85090000D03*
X150800000Y-82550000D03*
X153340000Y-85090000D03*
X153340000Y-82550000D03*
X155880000Y-85090000D03*
X155880000Y-82550000D03*
X158420000Y-85090000D03*
X158420000Y-82550000D03*
%TD*%
D19*
%TO.C,R9*%
X148245000Y-64770000D03*
X148245000Y-63120000D03*
%TD*%
D22*
%TO.C,R3*%
X145262800Y-90830400D03*
X146912800Y-90830400D03*
%TD*%
D15*
%TO.C,D2*%
X143180000Y-58420000D03*
X143180000Y-60295000D03*
%TD*%
D22*
%TO.C,R5*%
X145262800Y-93903800D03*
X146912800Y-93903800D03*
%TD*%
D15*
%TO.C,D9*%
X105080000Y-58420000D03*
X105080000Y-60295000D03*
%TD*%
%TO.C,D12*%
X112700000Y-58420000D03*
X112700000Y-60295000D03*
%TD*%
D13*
%TO.C,SW2*%
X105080000Y-76200000D03*
D14*
X107620000Y-76200000D03*
X110160000Y-76200000D03*
X112700000Y-76200000D03*
X115240000Y-76200000D03*
X117780000Y-76200000D03*
X120320000Y-76200000D03*
X122860000Y-76200000D03*
X122860000Y-68580000D03*
X120320000Y-68580000D03*
X117780000Y-68580000D03*
X115240000Y-68580000D03*
X112700000Y-68580000D03*
X110160000Y-68580000D03*
X107620000Y-68580000D03*
X105080000Y-68580000D03*
%TD*%
D19*
%TO.C,R14*%
X105080000Y-64770000D03*
X105080000Y-63120000D03*
%TD*%
D23*
%TO.C,MH3*%
X166040000Y-64440000D03*
%TD*%
D19*
%TO.C,R12*%
X155865000Y-64770000D03*
X155865000Y-63120000D03*
%TD*%
%TO.C,R13*%
X158405000Y-64770000D03*
X158405000Y-63120000D03*
%TD*%
D23*
%TO.C,MH4*%
X166040000Y-92380000D03*
%TD*%
D15*
%TO.C,D6*%
X153340000Y-58420000D03*
X153340000Y-60295000D03*
%TD*%
D24*
%TO.C,U1*%
X135140000Y-77470000D03*
X135140000Y-76820000D03*
X135140000Y-76170000D03*
X135140000Y-75520000D03*
X135140000Y-74870000D03*
X135140000Y-74220000D03*
X135140000Y-73570000D03*
X135140000Y-72920000D03*
X135140000Y-72270000D03*
X135140000Y-71620000D03*
X135140000Y-70970000D03*
X135140000Y-70320000D03*
X135140000Y-69670000D03*
X135140000Y-69020000D03*
X127940000Y-69020000D03*
X127940000Y-69670000D03*
X127940000Y-70320000D03*
X127940000Y-70970000D03*
X127940000Y-71620000D03*
X127940000Y-72270000D03*
X127940000Y-72920000D03*
X127940000Y-73570000D03*
X127940000Y-74220000D03*
X127940000Y-74870000D03*
X127940000Y-75520000D03*
X127940000Y-76170000D03*
X127940000Y-76820000D03*
X127940000Y-77470000D03*
%TD*%
D25*
%TO.C,C1*%
X137110000Y-66040000D03*
X135560000Y-66040000D03*
%TD*%
M02*
