M48
; DRILL file {KiCad 9.0.6} date 2026-01-18T16:02:13+0900
; FORMAT={-:-/ absolute / metric / decimal}
; #@! TF.CreationDate,2026-01-18T16:02:13+09:00
; #@! TF.GenerationSoftware,Kicad,Pcbnew,9.0.6
; #@! TF.FileFunction,MixedPlating,1,2
FMAT,2
METRIC
; #@! TA.AperFunction,Plated,PTH,ViaDrill
T1C0.400
; #@! TA.AperFunction,Plated,PTH,ComponentDrill
T2C0.800
; #@! TA.AperFunction,Plated,PTH,ComponentDrill
T3C1.000
; #@! TA.AperFunction,NonPlated,NPTH,ComponentDrill
T4C3.200
%
G90
G05
T1
X116.51Y-85.816
X129.225Y-68.498
X129.351Y-70.32
X132.253Y-90.378
X136.543Y-70.32
X137.47Y-69.695
X137.592Y-77.216
X139.435Y-93.416
X139.524Y-71.62
T2
X105.08Y-68.58
X105.08Y-76.2
X107.62Y-68.58
X107.62Y-76.2
X110.16Y-68.58
X110.16Y-76.2
X112.7Y-68.58
X112.7Y-76.2
X115.24Y-68.58
X115.24Y-76.2
X117.78Y-68.58
X117.78Y-76.2
X120.32Y-68.58
X120.32Y-76.2
X122.86Y-68.58
X122.86Y-76.2
X140.64Y-68.58
X140.64Y-76.2
X143.18Y-68.58
X143.18Y-76.2
X145.72Y-68.58
X145.72Y-76.2
X148.26Y-68.58
X148.26Y-76.2
X150.8Y-68.58
X150.8Y-76.2
X153.34Y-68.58
X153.34Y-76.2
X155.88Y-68.58
X155.88Y-76.2
X158.42Y-68.58
X158.42Y-76.2
T3
X103.302Y-92.09
X103.302Y-94.63
X103.302Y-97.17
X105.08Y-82.55
X105.08Y-85.09
X107.62Y-82.55
X107.62Y-85.09
X110.16Y-82.55
X110.16Y-85.09
X112.7Y-82.55
X112.7Y-85.09
X115.24Y-82.55
X115.24Y-85.09
X117.78Y-82.55
X117.78Y-85.09
X118.796Y-49.2
X120.32Y-82.55
X120.32Y-85.09
X121.336Y-49.2
X122.86Y-82.55
X122.86Y-85.09
X123.876Y-49.2
X126.416Y-49.2
X127.94Y-97.46
X128.956Y-49.2
X129.21Y-82.55
X129.21Y-85.09
X130.48Y-97.46
X131.496Y-49.2
X131.75Y-82.55
X131.75Y-85.09
X133.02Y-97.46
X134.036Y-49.2
X134.29Y-82.55
X134.29Y-85.09
X135.56Y-97.46
X136.576Y-49.2
X138.1Y-97.46
X139.116Y-49.2
X140.64Y-82.55
X140.64Y-85.09
X140.64Y-97.46
X141.656Y-49.2
X143.18Y-82.55
X143.18Y-85.09
X143.18Y-97.46
X145.72Y-49.2
X145.72Y-82.55
X145.72Y-85.09
X145.72Y-97.46
X148.26Y-49.2
X148.26Y-82.55
X148.26Y-85.09
X150.8Y-49.2
X150.8Y-82.55
X150.8Y-85.09
X150.8Y-97.46
X153.34Y-49.2
X153.34Y-82.55
X153.34Y-85.09
X153.34Y-97.46
X155.88Y-49.2
X155.88Y-82.55
X155.88Y-85.09
X155.88Y-97.46
X158.42Y-49.2
X158.42Y-82.55
X158.42Y-85.09
X158.42Y-97.46
X160.96Y-49.2
X160.96Y-97.46
X163.5Y-49.2
X163.5Y-97.46
T4
X115.24Y-49.2
X166.04Y-64.44
X166.04Y-92.38
M30
